<?xml version="1.0" encoding="utf-8" standalone="no"?>
<!DOCTYPE svg PUBLIC "-//W3C//DTD SVG 1.1//EN"
  "http://www.w3.org/Graphics/SVG/1.1/DTD/svg11.dtd">
<svg xmlns:xlink="http://www.w3.org/1999/xlink" width="460.8pt" height="345.6pt" viewBox="0 0 460.8 345.6" xmlns="http://www.w3.org/2000/svg" version="1.1">
 <metadata>
  <rdf:RDF xmlns:dc="http://purl.org/dc/elements/1.1/" xmlns:cc="http://creativecommons.org/ns#" xmlns:rdf="http://www.w3.org/1999/02/22-rdf-syntax-ns#">
   <cc:Work>
    <dc:type rdf:resource="http://purl.org/dc/dcmitype/StillImage"/>
    <dc:date>2022-09-16T15:39:19.551806</dc:date>
    <dc:format>image/svg+xml</dc:format>
    <dc:creator>
     <cc:Agent>
      <dc:title>Matplotlib v3.5.3, https://matplotlib.org/</dc:title>
     </cc:Agent>
    </dc:creator>
   </cc:Work>
  </rdf:RDF>
 </metadata>
 <defs>
  <style type="text/css">*{stroke-linejoin: round; stroke-linecap: butt}</style>
 </defs>
 <g id="figure_1">
  <g id="patch_1">
   <path d="M 0 345.6
L 460.8 345.6
L 460.8 0
L 0 0
z
" style="fill: #ffffff"/>
  </g>
  <g id="axes_1">
   <g id="patch_2">
    <path d="M 57.6 307.584
L 414.72 307.584
L 414.72 41.472
L 57.6 41.472
z
" style="fill: #ffffff"/>
   </g>
   <g id="matplotlib.axis_1">
    <g id="xtick_1">
     <g id="line2d_1">
      <path d="M 57.6 307.584
L 57.6 41.472
" clip-path="url(#pc7ac9efc22)" style="fill: none; stroke: #b0b0b0; stroke-width: 0.8; stroke-linecap: square"/>
     </g>
     <g id="line2d_2">
      <defs>
       <path id="m689bbb328f" d="M 0 0
L 0 3.5
" style="stroke: #000000; stroke-width: 0.8"/>
      </defs>
      <g>
       <use xlink:href="#m689bbb328f" x="57.6" y="307.584" style="stroke: #000000; stroke-width: 0.8"/>
      </g>
     </g>
     <g id="text_1">
      <!-- 0 -->
      <g transform="translate(54.41875 322.182437)scale(0.1 -0.1)">
       <defs>
        <path id="DejaVuSans-30" d="M 2034 4250
Q 1547 4250 1301 3770
Q 1056 3291 1056 2328
Q 1056 1369 1301 889
Q 1547 409 2034 409
Q 2525 409 2770 889
Q 3016 1369 3016 2328
Q 3016 3291 2770 3770
Q 2525 4250 2034 4250
z
M 2034 4750
Q 2819 4750 3233 4129
Q 3647 3509 3647 2328
Q 3647 1150 3233 529
Q 2819 -91 2034 -91
Q 1250 -91 836 529
Q 422 1150 422 2328
Q 422 3509 836 4129
Q 1250 4750 2034 4750
z
" transform="scale(0.015625)"/>
       </defs>
       <use xlink:href="#DejaVuSans-30"/>
      </g>
     </g>
    </g>
    <g id="xtick_2">
     <g id="line2d_3">
      <path d="M 142.97796 307.584
L 142.97796 41.472
" clip-path="url(#pc7ac9efc22)" style="fill: none; stroke: #b0b0b0; stroke-width: 0.8; stroke-linecap: square"/>
     </g>
     <g id="line2d_4">
      <g>
       <use xlink:href="#m689bbb328f" x="142.97796" y="307.584" style="stroke: #000000; stroke-width: 0.8"/>
      </g>
     </g>
     <g id="text_2">
      <!-- 64 -->
      <g transform="translate(136.61546 322.182437)scale(0.1 -0.1)">
       <defs>
        <path id="DejaVuSans-36" d="M 2113 2584
Q 1688 2584 1439 2293
Q 1191 2003 1191 1497
Q 1191 994 1439 701
Q 1688 409 2113 409
Q 2538 409 2786 701
Q 3034 994 3034 1497
Q 3034 2003 2786 2293
Q 2538 2584 2113 2584
z
M 3366 4563
L 3366 3988
Q 3128 4100 2886 4159
Q 2644 4219 2406 4219
Q 1781 4219 1451 3797
Q 1122 3375 1075 2522
Q 1259 2794 1537 2939
Q 1816 3084 2150 3084
Q 2853 3084 3261 2657
Q 3669 2231 3669 1497
Q 3669 778 3244 343
Q 2819 -91 2113 -91
Q 1303 -91 875 529
Q 447 1150 447 2328
Q 447 3434 972 4092
Q 1497 4750 2381 4750
Q 2619 4750 2861 4703
Q 3103 4656 3366 4563
z
" transform="scale(0.015625)"/>
        <path id="DejaVuSans-34" d="M 2419 4116
L 825 1625
L 2419 1625
L 2419 4116
z
M 2253 4666
L 3047 4666
L 3047 1625
L 3713 1625
L 3713 1100
L 3047 1100
L 3047 0
L 2419 0
L 2419 1100
L 313 1100
L 313 1709
L 2253 4666
z
" transform="scale(0.015625)"/>
       </defs>
       <use xlink:href="#DejaVuSans-36"/>
       <use xlink:href="#DejaVuSans-34" x="63.623047"/>
      </g>
     </g>
    </g>
    <g id="xtick_3">
     <g id="line2d_5">
      <path d="M 228.355921 307.584
L 228.355921 41.472
" clip-path="url(#pc7ac9efc22)" style="fill: none; stroke: #b0b0b0; stroke-width: 0.8; stroke-linecap: square"/>
     </g>
     <g id="line2d_6">
      <g>
       <use xlink:href="#m689bbb328f" x="228.355921" y="307.584" style="stroke: #000000; stroke-width: 0.8"/>
      </g>
     </g>
     <g id="text_3">
      <!-- 128 -->
      <g transform="translate(218.812171 322.182437)scale(0.1 -0.1)">
       <defs>
        <path id="DejaVuSans-31" d="M 794 531
L 1825 531
L 1825 4091
L 703 3866
L 703 4441
L 1819 4666
L 2450 4666
L 2450 531
L 3481 531
L 3481 0
L 794 0
L 794 531
z
" transform="scale(0.015625)"/>
        <path id="DejaVuSans-32" d="M 1228 531
L 3431 531
L 3431 0
L 469 0
L 469 531
Q 828 903 1448 1529
Q 2069 2156 2228 2338
Q 2531 2678 2651 2914
Q 2772 3150 2772 3378
Q 2772 3750 2511 3984
Q 2250 4219 1831 4219
Q 1534 4219 1204 4116
Q 875 4013 500 3803
L 500 4441
Q 881 4594 1212 4672
Q 1544 4750 1819 4750
Q 2544 4750 2975 4387
Q 3406 4025 3406 3419
Q 3406 3131 3298 2873
Q 3191 2616 2906 2266
Q 2828 2175 2409 1742
Q 1991 1309 1228 531
z
" transform="scale(0.015625)"/>
        <path id="DejaVuSans-38" d="M 2034 2216
Q 1584 2216 1326 1975
Q 1069 1734 1069 1313
Q 1069 891 1326 650
Q 1584 409 2034 409
Q 2484 409 2743 651
Q 3003 894 3003 1313
Q 3003 1734 2745 1975
Q 2488 2216 2034 2216
z
M 1403 2484
Q 997 2584 770 2862
Q 544 3141 544 3541
Q 544 4100 942 4425
Q 1341 4750 2034 4750
Q 2731 4750 3128 4425
Q 3525 4100 3525 3541
Q 3525 3141 3298 2862
Q 3072 2584 2669 2484
Q 3125 2378 3379 2068
Q 3634 1759 3634 1313
Q 3634 634 3220 271
Q 2806 -91 2034 -91
Q 1263 -91 848 271
Q 434 634 434 1313
Q 434 1759 690 2068
Q 947 2378 1403 2484
z
M 1172 3481
Q 1172 3119 1398 2916
Q 1625 2713 2034 2713
Q 2441 2713 2670 2916
Q 2900 3119 2900 3481
Q 2900 3844 2670 4047
Q 2441 4250 2034 4250
Q 1625 4250 1398 4047
Q 1172 3844 1172 3481
z
" transform="scale(0.015625)"/>
       </defs>
       <use xlink:href="#DejaVuSans-31"/>
       <use xlink:href="#DejaVuSans-32" x="63.623047"/>
       <use xlink:href="#DejaVuSans-38" x="127.246094"/>
      </g>
     </g>
    </g>
    <g id="xtick_4">
     <g id="line2d_7">
      <path d="M 313.733881 307.584
L 313.733881 41.472
" clip-path="url(#pc7ac9efc22)" style="fill: none; stroke: #b0b0b0; stroke-width: 0.8; stroke-linecap: square"/>
     </g>
     <g id="line2d_8">
      <g>
       <use xlink:href="#m689bbb328f" x="313.733881" y="307.584" style="stroke: #000000; stroke-width: 0.8"/>
      </g>
     </g>
     <g id="text_4">
      <!-- 192 -->
      <g transform="translate(304.190131 322.182437)scale(0.1 -0.1)">
       <defs>
        <path id="DejaVuSans-39" d="M 703 97
L 703 672
Q 941 559 1184 500
Q 1428 441 1663 441
Q 2288 441 2617 861
Q 2947 1281 2994 2138
Q 2813 1869 2534 1725
Q 2256 1581 1919 1581
Q 1219 1581 811 2004
Q 403 2428 403 3163
Q 403 3881 828 4315
Q 1253 4750 1959 4750
Q 2769 4750 3195 4129
Q 3622 3509 3622 2328
Q 3622 1225 3098 567
Q 2575 -91 1691 -91
Q 1453 -91 1209 -44
Q 966 3 703 97
z
M 1959 2075
Q 2384 2075 2632 2365
Q 2881 2656 2881 3163
Q 2881 3666 2632 3958
Q 2384 4250 1959 4250
Q 1534 4250 1286 3958
Q 1038 3666 1038 3163
Q 1038 2656 1286 2365
Q 1534 2075 1959 2075
z
" transform="scale(0.015625)"/>
       </defs>
       <use xlink:href="#DejaVuSans-31"/>
       <use xlink:href="#DejaVuSans-39" x="63.623047"/>
       <use xlink:href="#DejaVuSans-32" x="127.246094"/>
      </g>
     </g>
    </g>
    <g id="xtick_5">
     <g id="line2d_9">
      <path d="M 399.111842 307.584
L 399.111842 41.472
" clip-path="url(#pc7ac9efc22)" style="fill: none; stroke: #b0b0b0; stroke-width: 0.8; stroke-linecap: square"/>
     </g>
     <g id="line2d_10">
      <g>
       <use xlink:href="#m689bbb328f" x="399.111842" y="307.584" style="stroke: #000000; stroke-width: 0.8"/>
      </g>
     </g>
     <g id="text_5">
      <!-- 256 -->
      <g transform="translate(389.568092 322.182437)scale(0.1 -0.1)">
       <defs>
        <path id="DejaVuSans-35" d="M 691 4666
L 3169 4666
L 3169 4134
L 1269 4134
L 1269 2991
Q 1406 3038 1543 3061
Q 1681 3084 1819 3084
Q 2600 3084 3056 2656
Q 3513 2228 3513 1497
Q 3513 744 3044 326
Q 2575 -91 1722 -91
Q 1428 -91 1123 -41
Q 819 9 494 109
L 494 744
Q 775 591 1075 516
Q 1375 441 1709 441
Q 2250 441 2565 725
Q 2881 1009 2881 1497
Q 2881 1984 2565 2268
Q 2250 2553 1709 2553
Q 1456 2553 1204 2497
Q 953 2441 691 2322
L 691 4666
z
" transform="scale(0.015625)"/>
       </defs>
       <use xlink:href="#DejaVuSans-32"/>
       <use xlink:href="#DejaVuSans-35" x="63.623047"/>
       <use xlink:href="#DejaVuSans-36" x="127.246094"/>
      </g>
     </g>
    </g>
    <g id="text_6">
     <!-- string length [in characters] -->
     <g transform="translate(166.095937 335.860562)scale(0.1 -0.1)">
      <defs>
       <path id="DejaVuSans-73" d="M 2834 3397
L 2834 2853
Q 2591 2978 2328 3040
Q 2066 3103 1784 3103
Q 1356 3103 1142 2972
Q 928 2841 928 2578
Q 928 2378 1081 2264
Q 1234 2150 1697 2047
L 1894 2003
Q 2506 1872 2764 1633
Q 3022 1394 3022 966
Q 3022 478 2636 193
Q 2250 -91 1575 -91
Q 1294 -91 989 -36
Q 684 19 347 128
L 347 722
Q 666 556 975 473
Q 1284 391 1588 391
Q 1994 391 2212 530
Q 2431 669 2431 922
Q 2431 1156 2273 1281
Q 2116 1406 1581 1522
L 1381 1569
Q 847 1681 609 1914
Q 372 2147 372 2553
Q 372 3047 722 3315
Q 1072 3584 1716 3584
Q 2034 3584 2315 3537
Q 2597 3491 2834 3397
z
" transform="scale(0.015625)"/>
       <path id="DejaVuSans-74" d="M 1172 4494
L 1172 3500
L 2356 3500
L 2356 3053
L 1172 3053
L 1172 1153
Q 1172 725 1289 603
Q 1406 481 1766 481
L 2356 481
L 2356 0
L 1766 0
Q 1100 0 847 248
Q 594 497 594 1153
L 594 3053
L 172 3053
L 172 3500
L 594 3500
L 594 4494
L 1172 4494
z
" transform="scale(0.015625)"/>
       <path id="DejaVuSans-72" d="M 2631 2963
Q 2534 3019 2420 3045
Q 2306 3072 2169 3072
Q 1681 3072 1420 2755
Q 1159 2438 1159 1844
L 1159 0
L 581 0
L 581 3500
L 1159 3500
L 1159 2956
Q 1341 3275 1631 3429
Q 1922 3584 2338 3584
Q 2397 3584 2469 3576
Q 2541 3569 2628 3553
L 2631 2963
z
" transform="scale(0.015625)"/>
       <path id="DejaVuSans-69" d="M 603 3500
L 1178 3500
L 1178 0
L 603 0
L 603 3500
z
M 603 4863
L 1178 4863
L 1178 4134
L 603 4134
L 603 4863
z
" transform="scale(0.015625)"/>
       <path id="DejaVuSans-6e" d="M 3513 2113
L 3513 0
L 2938 0
L 2938 2094
Q 2938 2591 2744 2837
Q 2550 3084 2163 3084
Q 1697 3084 1428 2787
Q 1159 2491 1159 1978
L 1159 0
L 581 0
L 581 3500
L 1159 3500
L 1159 2956
Q 1366 3272 1645 3428
Q 1925 3584 2291 3584
Q 2894 3584 3203 3211
Q 3513 2838 3513 2113
z
" transform="scale(0.015625)"/>
       <path id="DejaVuSans-67" d="M 2906 1791
Q 2906 2416 2648 2759
Q 2391 3103 1925 3103
Q 1463 3103 1205 2759
Q 947 2416 947 1791
Q 947 1169 1205 825
Q 1463 481 1925 481
Q 2391 481 2648 825
Q 2906 1169 2906 1791
z
M 3481 434
Q 3481 -459 3084 -895
Q 2688 -1331 1869 -1331
Q 1566 -1331 1297 -1286
Q 1028 -1241 775 -1147
L 775 -588
Q 1028 -725 1275 -790
Q 1522 -856 1778 -856
Q 2344 -856 2625 -561
Q 2906 -266 2906 331
L 2906 616
Q 2728 306 2450 153
Q 2172 0 1784 0
Q 1141 0 747 490
Q 353 981 353 1791
Q 353 2603 747 3093
Q 1141 3584 1784 3584
Q 2172 3584 2450 3431
Q 2728 3278 2906 2969
L 2906 3500
L 3481 3500
L 3481 434
z
" transform="scale(0.015625)"/>
       <path id="DejaVuSans-20" transform="scale(0.015625)"/>
       <path id="DejaVuSans-6c" d="M 603 4863
L 1178 4863
L 1178 0
L 603 0
L 603 4863
z
" transform="scale(0.015625)"/>
       <path id="DejaVuSans-65" d="M 3597 1894
L 3597 1613
L 953 1613
Q 991 1019 1311 708
Q 1631 397 2203 397
Q 2534 397 2845 478
Q 3156 559 3463 722
L 3463 178
Q 3153 47 2828 -22
Q 2503 -91 2169 -91
Q 1331 -91 842 396
Q 353 884 353 1716
Q 353 2575 817 3079
Q 1281 3584 2069 3584
Q 2775 3584 3186 3129
Q 3597 2675 3597 1894
z
M 3022 2063
Q 3016 2534 2758 2815
Q 2500 3097 2075 3097
Q 1594 3097 1305 2825
Q 1016 2553 972 2059
L 3022 2063
z
" transform="scale(0.015625)"/>
       <path id="DejaVuSans-68" d="M 3513 2113
L 3513 0
L 2938 0
L 2938 2094
Q 2938 2591 2744 2837
Q 2550 3084 2163 3084
Q 1697 3084 1428 2787
Q 1159 2491 1159 1978
L 1159 0
L 581 0
L 581 4863
L 1159 4863
L 1159 2956
Q 1366 3272 1645 3428
Q 1925 3584 2291 3584
Q 2894 3584 3203 3211
Q 3513 2838 3513 2113
z
" transform="scale(0.015625)"/>
       <path id="DejaVuSans-5b" d="M 550 4863
L 1875 4863
L 1875 4416
L 1125 4416
L 1125 -397
L 1875 -397
L 1875 -844
L 550 -844
L 550 4863
z
" transform="scale(0.015625)"/>
       <path id="DejaVuSans-63" d="M 3122 3366
L 3122 2828
Q 2878 2963 2633 3030
Q 2388 3097 2138 3097
Q 1578 3097 1268 2742
Q 959 2388 959 1747
Q 959 1106 1268 751
Q 1578 397 2138 397
Q 2388 397 2633 464
Q 2878 531 3122 666
L 3122 134
Q 2881 22 2623 -34
Q 2366 -91 2075 -91
Q 1284 -91 818 406
Q 353 903 353 1747
Q 353 2603 823 3093
Q 1294 3584 2113 3584
Q 2378 3584 2631 3529
Q 2884 3475 3122 3366
z
" transform="scale(0.015625)"/>
       <path id="DejaVuSans-61" d="M 2194 1759
Q 1497 1759 1228 1600
Q 959 1441 959 1056
Q 959 750 1161 570
Q 1363 391 1709 391
Q 2188 391 2477 730
Q 2766 1069 2766 1631
L 2766 1759
L 2194 1759
z
M 3341 1997
L 3341 0
L 2766 0
L 2766 531
Q 2569 213 2275 61
Q 1981 -91 1556 -91
Q 1019 -91 701 211
Q 384 513 384 1019
Q 384 1609 779 1909
Q 1175 2209 1959 2209
L 2766 2209
L 2766 2266
Q 2766 2663 2505 2880
Q 2244 3097 1772 3097
Q 1472 3097 1187 3025
Q 903 2953 641 2809
L 641 3341
Q 956 3463 1253 3523
Q 1550 3584 1831 3584
Q 2591 3584 2966 3190
Q 3341 2797 3341 1997
z
" transform="scale(0.015625)"/>
       <path id="DejaVuSans-5d" d="M 1947 4863
L 1947 -844
L 622 -844
L 622 -397
L 1369 -397
L 1369 4416
L 622 4416
L 622 4863
L 1947 4863
z
" transform="scale(0.015625)"/>
      </defs>
      <use xlink:href="#DejaVuSans-73"/>
      <use xlink:href="#DejaVuSans-74" x="52.099609"/>
      <use xlink:href="#DejaVuSans-72" x="91.308594"/>
      <use xlink:href="#DejaVuSans-69" x="132.421875"/>
      <use xlink:href="#DejaVuSans-6e" x="160.205078"/>
      <use xlink:href="#DejaVuSans-67" x="223.583984"/>
      <use xlink:href="#DejaVuSans-20" x="287.060547"/>
      <use xlink:href="#DejaVuSans-6c" x="318.847656"/>
      <use xlink:href="#DejaVuSans-65" x="346.630859"/>
      <use xlink:href="#DejaVuSans-6e" x="408.154297"/>
      <use xlink:href="#DejaVuSans-67" x="471.533203"/>
      <use xlink:href="#DejaVuSans-74" x="535.009766"/>
      <use xlink:href="#DejaVuSans-68" x="574.21875"/>
      <use xlink:href="#DejaVuSans-20" x="637.597656"/>
      <use xlink:href="#DejaVuSans-5b" x="669.384766"/>
      <use xlink:href="#DejaVuSans-69" x="708.398438"/>
      <use xlink:href="#DejaVuSans-6e" x="736.181641"/>
      <use xlink:href="#DejaVuSans-20" x="799.560547"/>
      <use xlink:href="#DejaVuSans-63" x="831.347656"/>
      <use xlink:href="#DejaVuSans-68" x="886.328125"/>
      <use xlink:href="#DejaVuSans-61" x="949.707031"/>
      <use xlink:href="#DejaVuSans-72" x="1010.986328"/>
      <use xlink:href="#DejaVuSans-61" x="1052.099609"/>
      <use xlink:href="#DejaVuSans-63" x="1113.378906"/>
      <use xlink:href="#DejaVuSans-74" x="1168.359375"/>
      <use xlink:href="#DejaVuSans-65" x="1207.568359"/>
      <use xlink:href="#DejaVuSans-72" x="1269.091797"/>
      <use xlink:href="#DejaVuSans-73" x="1310.205078"/>
      <use xlink:href="#DejaVuSans-5d" x="1362.304688"/>
     </g>
    </g>
   </g>
   <g id="matplotlib.axis_2">
    <g id="ytick_1">
     <g id="line2d_11">
      <path d="M 57.6 307.584
L 414.72 307.584
" clip-path="url(#pc7ac9efc22)" style="fill: none; stroke: #b0b0b0; stroke-width: 0.8; stroke-linecap: square"/>
     </g>
     <g id="line2d_12">
      <defs>
       <path id="m9a16d8674a" d="M 0 0
L -3.5 0
" style="stroke: #000000; stroke-width: 0.8"/>
      </defs>
      <g>
       <use xlink:href="#m9a16d8674a" x="57.6" y="307.584" style="stroke: #000000; stroke-width: 0.8"/>
      </g>
     </g>
     <g id="text_7">
      <!-- 0 -->
      <g transform="translate(44.2375 311.383219)scale(0.1 -0.1)">
       <use xlink:href="#DejaVuSans-30"/>
      </g>
     </g>
    </g>
    <g id="ytick_2">
     <g id="line2d_13">
      <path d="M 57.6 273.364932
L 414.72 273.364932
" clip-path="url(#pc7ac9efc22)" style="fill: none; stroke: #b0b0b0; stroke-width: 0.8; stroke-linecap: square"/>
     </g>
     <g id="line2d_14">
      <g>
       <use xlink:href="#m9a16d8674a" x="57.6" y="273.364932" style="stroke: #000000; stroke-width: 0.8"/>
      </g>
     </g>
     <g id="text_8">
      <!-- 2 -->
      <g transform="translate(44.2375 277.164151)scale(0.1 -0.1)">
       <use xlink:href="#DejaVuSans-32"/>
      </g>
     </g>
    </g>
    <g id="ytick_3">
     <g id="line2d_15">
      <path d="M 57.6 239.145865
L 414.72 239.145865
" clip-path="url(#pc7ac9efc22)" style="fill: none; stroke: #b0b0b0; stroke-width: 0.8; stroke-linecap: square"/>
     </g>
     <g id="line2d_16">
      <g>
       <use xlink:href="#m9a16d8674a" x="57.6" y="239.145865" style="stroke: #000000; stroke-width: 0.8"/>
      </g>
     </g>
     <g id="text_9">
      <!-- 4 -->
      <g transform="translate(44.2375 242.945084)scale(0.1 -0.1)">
       <use xlink:href="#DejaVuSans-34"/>
      </g>
     </g>
    </g>
    <g id="ytick_4">
     <g id="line2d_17">
      <path d="M 57.6 204.926797
L 414.72 204.926797
" clip-path="url(#pc7ac9efc22)" style="fill: none; stroke: #b0b0b0; stroke-width: 0.8; stroke-linecap: square"/>
     </g>
     <g id="line2d_18">
      <g>
       <use xlink:href="#m9a16d8674a" x="57.6" y="204.926797" style="stroke: #000000; stroke-width: 0.8"/>
      </g>
     </g>
     <g id="text_10">
      <!-- 6 -->
      <g transform="translate(44.2375 208.726016)scale(0.1 -0.1)">
       <use xlink:href="#DejaVuSans-36"/>
      </g>
     </g>
    </g>
    <g id="ytick_5">
     <g id="line2d_19">
      <path d="M 57.6 170.70773
L 414.72 170.70773
" clip-path="url(#pc7ac9efc22)" style="fill: none; stroke: #b0b0b0; stroke-width: 0.8; stroke-linecap: square"/>
     </g>
     <g id="line2d_20">
      <g>
       <use xlink:href="#m9a16d8674a" x="57.6" y="170.70773" style="stroke: #000000; stroke-width: 0.8"/>
      </g>
     </g>
     <g id="text_11">
      <!-- 8 -->
      <g transform="translate(44.2375 174.506949)scale(0.1 -0.1)">
       <use xlink:href="#DejaVuSans-38"/>
      </g>
     </g>
    </g>
    <g id="ytick_6">
     <g id="line2d_21">
      <path d="M 57.6 136.488662
L 414.72 136.488662
" clip-path="url(#pc7ac9efc22)" style="fill: none; stroke: #b0b0b0; stroke-width: 0.8; stroke-linecap: square"/>
     </g>
     <g id="line2d_22">
      <g>
       <use xlink:href="#m9a16d8674a" x="57.6" y="136.488662" style="stroke: #000000; stroke-width: 0.8"/>
      </g>
     </g>
     <g id="text_12">
      <!-- 10 -->
      <g transform="translate(37.875 140.287881)scale(0.1 -0.1)">
       <use xlink:href="#DejaVuSans-31"/>
       <use xlink:href="#DejaVuSans-30" x="63.623047"/>
      </g>
     </g>
    </g>
    <g id="ytick_7">
     <g id="line2d_23">
      <path d="M 57.6 102.269595
L 414.72 102.269595
" clip-path="url(#pc7ac9efc22)" style="fill: none; stroke: #b0b0b0; stroke-width: 0.8; stroke-linecap: square"/>
     </g>
     <g id="line2d_24">
      <g>
       <use xlink:href="#m9a16d8674a" x="57.6" y="102.269595" style="stroke: #000000; stroke-width: 0.8"/>
      </g>
     </g>
     <g id="text_13">
      <!-- 12 -->
      <g transform="translate(37.875 106.068813)scale(0.1 -0.1)">
       <use xlink:href="#DejaVuSans-31"/>
       <use xlink:href="#DejaVuSans-32" x="63.623047"/>
      </g>
     </g>
    </g>
    <g id="ytick_8">
     <g id="line2d_25">
      <path d="M 57.6 68.050527
L 414.72 68.050527
" clip-path="url(#pc7ac9efc22)" style="fill: none; stroke: #b0b0b0; stroke-width: 0.8; stroke-linecap: square"/>
     </g>
     <g id="line2d_26">
      <g>
       <use xlink:href="#m9a16d8674a" x="57.6" y="68.050527" style="stroke: #000000; stroke-width: 0.8"/>
      </g>
     </g>
     <g id="text_14">
      <!-- 14 -->
      <g transform="translate(37.875 71.849746)scale(0.1 -0.1)">
       <use xlink:href="#DejaVuSans-31"/>
       <use xlink:href="#DejaVuSans-34" x="63.623047"/>
      </g>
     </g>
    </g>
    <g id="text_15">
     <!-- runtime [μs] -->
     <g transform="translate(31.795312 205.493625)rotate(-90)scale(0.1 -0.1)">
      <defs>
       <path id="DejaVuSans-75" d="M 544 1381
L 544 3500
L 1119 3500
L 1119 1403
Q 1119 906 1312 657
Q 1506 409 1894 409
Q 2359 409 2629 706
Q 2900 1003 2900 1516
L 2900 3500
L 3475 3500
L 3475 0
L 2900 0
L 2900 538
Q 2691 219 2414 64
Q 2138 -91 1772 -91
Q 1169 -91 856 284
Q 544 659 544 1381
z
M 1991 3584
L 1991 3584
z
" transform="scale(0.015625)"/>
       <path id="DejaVuSans-6d" d="M 3328 2828
Q 3544 3216 3844 3400
Q 4144 3584 4550 3584
Q 5097 3584 5394 3201
Q 5691 2819 5691 2113
L 5691 0
L 5113 0
L 5113 2094
Q 5113 2597 4934 2840
Q 4756 3084 4391 3084
Q 3944 3084 3684 2787
Q 3425 2491 3425 1978
L 3425 0
L 2847 0
L 2847 2094
Q 2847 2600 2669 2842
Q 2491 3084 2119 3084
Q 1678 3084 1418 2786
Q 1159 2488 1159 1978
L 1159 0
L 581 0
L 581 3500
L 1159 3500
L 1159 2956
Q 1356 3278 1631 3431
Q 1906 3584 2284 3584
Q 2666 3584 2933 3390
Q 3200 3197 3328 2828
z
" transform="scale(0.015625)"/>
       <path id="DejaVuSans-3bc" d="M 544 -1331
L 544 3500
L 1119 3500
L 1119 1325
Q 1119 872 1334 640
Q 1550 409 1972 409
Q 2434 409 2667 671
Q 2900 934 2900 1459
L 2900 3500
L 3475 3500
L 3475 806
Q 3475 619 3529 530
Q 3584 441 3700 441
Q 3728 441 3778 458
Q 3828 475 3916 513
L 3916 50
Q 3788 -22 3673 -56
Q 3559 -91 3450 -91
Q 3234 -91 3106 31
Q 2978 153 2931 403
Q 2775 156 2548 32
Q 2322 -91 2016 -91
Q 1697 -91 1473 31
Q 1250 153 1119 397
L 1119 -1331
L 544 -1331
z
" transform="scale(0.015625)"/>
      </defs>
      <use xlink:href="#DejaVuSans-72"/>
      <use xlink:href="#DejaVuSans-75" x="41.113281"/>
      <use xlink:href="#DejaVuSans-6e" x="104.492188"/>
      <use xlink:href="#DejaVuSans-74" x="167.871094"/>
      <use xlink:href="#DejaVuSans-69" x="207.080078"/>
      <use xlink:href="#DejaVuSans-6d" x="234.863281"/>
      <use xlink:href="#DejaVuSans-65" x="332.275391"/>
      <use xlink:href="#DejaVuSans-20" x="393.798828"/>
      <use xlink:href="#DejaVuSans-5b" x="425.585938"/>
      <use xlink:href="#DejaVuSans-3bc" x="464.599609"/>
      <use xlink:href="#DejaVuSans-73" x="528.222656"/>
      <use xlink:href="#DejaVuSans-5d" x="580.322266"/>
     </g>
    </g>
   </g>
   <g id="line2d_27">
    <path d="M 58.934031 305.069172
L 61.602092 305.079934
L 66.938214 305.243176
L 74.942398 304.776719
L 80.278521 304.555801
L 117.631378 302.303091
L 122.967501 302.064687
L 141.64393 300.971593
L 144.311991 291.196694
L 149.648114 290.332543
L 154.984236 289.586533
L 173.660665 286.906547
L 187.000971 284.896998
L 195.005155 283.75817
L 197.673216 283.227039
L 200.341278 282.305297
L 203.009339 282.604577
L 205.6774 281.959821
L 208.345461 280.758595
L 211.013523 279.315526
L 213.681584 279.942539
L 216.349645 279.265412
L 219.017706 279.60726
L 227.02189 278.482514
L 229.689951 269.436378
L 232.358013 268.930911
L 235.026074 268.826098
L 237.694135 268.241996
L 240.362196 267.43677
L 243.030258 266.84028
L 245.698319 266.785718
L 248.36638 265.889059
L 251.034442 265.703728
L 253.702503 264.783201
L 256.370564 264.750932
L 259.038625 263.742719
L 261.706687 263.728638
L 264.374748 262.749305
L 267.042809 262.741811
L 269.71087 261.736797
L 283.051177 259.157398
L 285.719238 259.132418
L 288.387299 258.151888
L 291.05536 258.123195
L 293.723422 257.158594
L 296.391483 257.011315
L 307.063728 254.993365
L 309.731789 254.52583
L 312.399851 253.628675
L 315.067912 241.881628
L 317.735973 240.564194
L 323.072096 239.223063
L 325.740157 239.285941
L 328.408218 239.137943
L 331.076279 237.387107
L 339.080463 235.559604
L 344.416586 234.198951
L 347.084647 233.645937
L 349.752708 232.894555
L 352.42077 232.362688
L 355.088831 231.472085
L 357.756892 231.023165
L 363.093015 229.874756
L 365.761076 229.089925
L 376.433321 226.677326
L 379.101382 226.08804
L 381.769443 225.862211
L 384.437505 224.803388
L 395.10975 222.210934
L 397.777811 222.357409
L 397.777811 222.357409
" clip-path="url(#pc7ac9efc22)" style="fill: none; stroke: #1f77b4; stroke-width: 1.5; stroke-linecap: square"/>
   </g>
   <g id="line2d_28">
    <path d="M 58.934031 303.187363
L 61.602092 294.922894
L 64.270153 276.181521
L 66.938214 249.211746
L 69.606276 212.24126
L 72.274337 166.24825
L 74.942398 116.360168
L 77.610459 54.032532
L 77.610459 54.032532
" clip-path="url(#pc7ac9efc22)" style="fill: none; stroke: #ff7f0e; stroke-width: 1.5; stroke-linecap: square"/>
   </g>
   <g id="patch_3">
    <path d="M 57.6 307.584
L 57.6 41.472
" style="fill: none; stroke: #000000; stroke-width: 0.8; stroke-linejoin: miter; stroke-linecap: square"/>
   </g>
   <g id="patch_4">
    <path d="M 414.72 307.584
L 414.72 41.472
" style="fill: none; stroke: #000000; stroke-width: 0.8; stroke-linejoin: miter; stroke-linecap: square"/>
   </g>
   <g id="patch_5">
    <path d="M 57.6 307.584
L 414.72 307.584
" style="fill: none; stroke: #000000; stroke-width: 0.8; stroke-linejoin: miter; stroke-linecap: square"/>
   </g>
   <g id="patch_6">
    <path d="M 57.6 41.472
L 414.72 41.472
" style="fill: none; stroke: #000000; stroke-width: 0.8; stroke-linejoin: miter; stroke-linecap: square"/>
   </g>
   <g id="text_16">
    <!-- Performance comparison of the  -->
    <g transform="translate(138.18375 22.034625)scale(0.12 -0.12)">
     <defs>
      <path id="DejaVuSans-50" d="M 1259 4147
L 1259 2394
L 2053 2394
Q 2494 2394 2734 2622
Q 2975 2850 2975 3272
Q 2975 3691 2734 3919
Q 2494 4147 2053 4147
L 1259 4147
z
M 628 4666
L 2053 4666
Q 2838 4666 3239 4311
Q 3641 3956 3641 3272
Q 3641 2581 3239 2228
Q 2838 1875 2053 1875
L 1259 1875
L 1259 0
L 628 0
L 628 4666
z
" transform="scale(0.015625)"/>
      <path id="DejaVuSans-66" d="M 2375 4863
L 2375 4384
L 1825 4384
Q 1516 4384 1395 4259
Q 1275 4134 1275 3809
L 1275 3500
L 2222 3500
L 2222 3053
L 1275 3053
L 1275 0
L 697 0
L 697 3053
L 147 3053
L 147 3500
L 697 3500
L 697 3744
Q 697 4328 969 4595
Q 1241 4863 1831 4863
L 2375 4863
z
" transform="scale(0.015625)"/>
      <path id="DejaVuSans-6f" d="M 1959 3097
Q 1497 3097 1228 2736
Q 959 2375 959 1747
Q 959 1119 1226 758
Q 1494 397 1959 397
Q 2419 397 2687 759
Q 2956 1122 2956 1747
Q 2956 2369 2687 2733
Q 2419 3097 1959 3097
z
M 1959 3584
Q 2709 3584 3137 3096
Q 3566 2609 3566 1747
Q 3566 888 3137 398
Q 2709 -91 1959 -91
Q 1206 -91 779 398
Q 353 888 353 1747
Q 353 2609 779 3096
Q 1206 3584 1959 3584
z
" transform="scale(0.015625)"/>
      <path id="DejaVuSans-70" d="M 1159 525
L 1159 -1331
L 581 -1331
L 581 3500
L 1159 3500
L 1159 2969
Q 1341 3281 1617 3432
Q 1894 3584 2278 3584
Q 2916 3584 3314 3078
Q 3713 2572 3713 1747
Q 3713 922 3314 415
Q 2916 -91 2278 -91
Q 1894 -91 1617 61
Q 1341 213 1159 525
z
M 3116 1747
Q 3116 2381 2855 2742
Q 2594 3103 2138 3103
Q 1681 3103 1420 2742
Q 1159 2381 1159 1747
Q 1159 1113 1420 752
Q 1681 391 2138 391
Q 2594 391 2855 752
Q 3116 1113 3116 1747
z
" transform="scale(0.015625)"/>
     </defs>
     <use xlink:href="#DejaVuSans-50"/>
     <use xlink:href="#DejaVuSans-65" x="56.677734"/>
     <use xlink:href="#DejaVuSans-72" x="118.201172"/>
     <use xlink:href="#DejaVuSans-66" x="159.314453"/>
     <use xlink:href="#DejaVuSans-6f" x="194.519531"/>
     <use xlink:href="#DejaVuSans-72" x="255.701172"/>
     <use xlink:href="#DejaVuSans-6d" x="295.064453"/>
     <use xlink:href="#DejaVuSans-61" x="392.476562"/>
     <use xlink:href="#DejaVuSans-6e" x="453.755859"/>
     <use xlink:href="#DejaVuSans-63" x="517.134766"/>
     <use xlink:href="#DejaVuSans-65" x="572.115234"/>
     <use xlink:href="#DejaVuSans-20" x="633.638672"/>
     <use xlink:href="#DejaVuSans-63" x="665.425781"/>
     <use xlink:href="#DejaVuSans-6f" x="720.40625"/>
     <use xlink:href="#DejaVuSans-6d" x="781.587891"/>
     <use xlink:href="#DejaVuSans-70" x="879"/>
     <use xlink:href="#DejaVuSans-61" x="942.476562"/>
     <use xlink:href="#DejaVuSans-72" x="1003.755859"/>
     <use xlink:href="#DejaVuSans-69" x="1044.869141"/>
     <use xlink:href="#DejaVuSans-73" x="1072.652344"/>
     <use xlink:href="#DejaVuSans-69" x="1124.751953"/>
     <use xlink:href="#DejaVuSans-6f" x="1152.535156"/>
     <use xlink:href="#DejaVuSans-6e" x="1213.716797"/>
     <use xlink:href="#DejaVuSans-20" x="1277.095703"/>
     <use xlink:href="#DejaVuSans-6f" x="1308.882812"/>
     <use xlink:href="#DejaVuSans-66" x="1370.064453"/>
     <use xlink:href="#DejaVuSans-20" x="1405.269531"/>
     <use xlink:href="#DejaVuSans-74" x="1437.056641"/>
     <use xlink:href="#DejaVuSans-68" x="1476.265625"/>
     <use xlink:href="#DejaVuSans-65" x="1539.644531"/>
     <use xlink:href="#DejaVuSans-20" x="1601.167969"/>
    </g>
    <!-- Optimal String Alignment distance in different libraries -->
    <g transform="translate(71.631563 35.472)scale(0.12 -0.12)">
     <defs>
      <path id="DejaVuSans-4f" d="M 2522 4238
Q 1834 4238 1429 3725
Q 1025 3213 1025 2328
Q 1025 1447 1429 934
Q 1834 422 2522 422
Q 3209 422 3611 934
Q 4013 1447 4013 2328
Q 4013 3213 3611 3725
Q 3209 4238 2522 4238
z
M 2522 4750
Q 3503 4750 4090 4092
Q 4678 3434 4678 2328
Q 4678 1225 4090 567
Q 3503 -91 2522 -91
Q 1538 -91 948 565
Q 359 1222 359 2328
Q 359 3434 948 4092
Q 1538 4750 2522 4750
z
" transform="scale(0.015625)"/>
      <path id="DejaVuSans-53" d="M 3425 4513
L 3425 3897
Q 3066 4069 2747 4153
Q 2428 4238 2131 4238
Q 1616 4238 1336 4038
Q 1056 3838 1056 3469
Q 1056 3159 1242 3001
Q 1428 2844 1947 2747
L 2328 2669
Q 3034 2534 3370 2195
Q 3706 1856 3706 1288
Q 3706 609 3251 259
Q 2797 -91 1919 -91
Q 1588 -91 1214 -16
Q 841 59 441 206
L 441 856
Q 825 641 1194 531
Q 1563 422 1919 422
Q 2459 422 2753 634
Q 3047 847 3047 1241
Q 3047 1584 2836 1778
Q 2625 1972 2144 2069
L 1759 2144
Q 1053 2284 737 2584
Q 422 2884 422 3419
Q 422 4038 858 4394
Q 1294 4750 2059 4750
Q 2388 4750 2728 4690
Q 3069 4631 3425 4513
z
" transform="scale(0.015625)"/>
      <path id="DejaVuSans-41" d="M 2188 4044
L 1331 1722
L 3047 1722
L 2188 4044
z
M 1831 4666
L 2547 4666
L 4325 0
L 3669 0
L 3244 1197
L 1141 1197
L 716 0
L 50 0
L 1831 4666
z
" transform="scale(0.015625)"/>
      <path id="DejaVuSans-64" d="M 2906 2969
L 2906 4863
L 3481 4863
L 3481 0
L 2906 0
L 2906 525
Q 2725 213 2448 61
Q 2172 -91 1784 -91
Q 1150 -91 751 415
Q 353 922 353 1747
Q 353 2572 751 3078
Q 1150 3584 1784 3584
Q 2172 3584 2448 3432
Q 2725 3281 2906 2969
z
M 947 1747
Q 947 1113 1208 752
Q 1469 391 1925 391
Q 2381 391 2643 752
Q 2906 1113 2906 1747
Q 2906 2381 2643 2742
Q 2381 3103 1925 3103
Q 1469 3103 1208 2742
Q 947 2381 947 1747
z
" transform="scale(0.015625)"/>
      <path id="DejaVuSans-62" d="M 3116 1747
Q 3116 2381 2855 2742
Q 2594 3103 2138 3103
Q 1681 3103 1420 2742
Q 1159 2381 1159 1747
Q 1159 1113 1420 752
Q 1681 391 2138 391
Q 2594 391 2855 752
Q 3116 1113 3116 1747
z
M 1159 2969
Q 1341 3281 1617 3432
Q 1894 3584 2278 3584
Q 2916 3584 3314 3078
Q 3713 2572 3713 1747
Q 3713 922 3314 415
Q 2916 -91 2278 -91
Q 1894 -91 1617 61
Q 1341 213 1159 525
L 1159 0
L 581 0
L 581 4863
L 1159 4863
L 1159 2969
z
" transform="scale(0.015625)"/>
     </defs>
     <use xlink:href="#DejaVuSans-4f"/>
     <use xlink:href="#DejaVuSans-70" x="78.710938"/>
     <use xlink:href="#DejaVuSans-74" x="142.1875"/>
     <use xlink:href="#DejaVuSans-69" x="181.396484"/>
     <use xlink:href="#DejaVuSans-6d" x="209.179688"/>
     <use xlink:href="#DejaVuSans-61" x="306.591797"/>
     <use xlink:href="#DejaVuSans-6c" x="367.871094"/>
     <use xlink:href="#DejaVuSans-20" x="395.654297"/>
     <use xlink:href="#DejaVuSans-53" x="427.441406"/>
     <use xlink:href="#DejaVuSans-74" x="490.917969"/>
     <use xlink:href="#DejaVuSans-72" x="530.126953"/>
     <use xlink:href="#DejaVuSans-69" x="571.240234"/>
     <use xlink:href="#DejaVuSans-6e" x="599.023438"/>
     <use xlink:href="#DejaVuSans-67" x="662.402344"/>
     <use xlink:href="#DejaVuSans-20" x="725.878906"/>
     <use xlink:href="#DejaVuSans-41" x="757.666016"/>
     <use xlink:href="#DejaVuSans-6c" x="826.074219"/>
     <use xlink:href="#DejaVuSans-69" x="853.857422"/>
     <use xlink:href="#DejaVuSans-67" x="881.640625"/>
     <use xlink:href="#DejaVuSans-6e" x="945.117188"/>
     <use xlink:href="#DejaVuSans-6d" x="1008.496094"/>
     <use xlink:href="#DejaVuSans-65" x="1105.908203"/>
     <use xlink:href="#DejaVuSans-6e" x="1167.431641"/>
     <use xlink:href="#DejaVuSans-74" x="1230.810547"/>
     <use xlink:href="#DejaVuSans-20" x="1270.019531"/>
     <use xlink:href="#DejaVuSans-64" x="1301.806641"/>
     <use xlink:href="#DejaVuSans-69" x="1365.283203"/>
     <use xlink:href="#DejaVuSans-73" x="1393.066406"/>
     <use xlink:href="#DejaVuSans-74" x="1445.166016"/>
     <use xlink:href="#DejaVuSans-61" x="1484.375"/>
     <use xlink:href="#DejaVuSans-6e" x="1545.654297"/>
     <use xlink:href="#DejaVuSans-63" x="1609.033203"/>
     <use xlink:href="#DejaVuSans-65" x="1664.013672"/>
     <use xlink:href="#DejaVuSans-20" x="1725.537109"/>
     <use xlink:href="#DejaVuSans-69" x="1757.324219"/>
     <use xlink:href="#DejaVuSans-6e" x="1785.107422"/>
     <use xlink:href="#DejaVuSans-20" x="1848.486328"/>
     <use xlink:href="#DejaVuSans-64" x="1880.273438"/>
     <use xlink:href="#DejaVuSans-69" x="1943.75"/>
     <use xlink:href="#DejaVuSans-66" x="1971.533203"/>
     <use xlink:href="#DejaVuSans-66" x="2006.738281"/>
     <use xlink:href="#DejaVuSans-65" x="2041.943359"/>
     <use xlink:href="#DejaVuSans-72" x="2103.466797"/>
     <use xlink:href="#DejaVuSans-65" x="2142.330078"/>
     <use xlink:href="#DejaVuSans-6e" x="2203.853516"/>
     <use xlink:href="#DejaVuSans-74" x="2267.232422"/>
     <use xlink:href="#DejaVuSans-20" x="2306.441406"/>
     <use xlink:href="#DejaVuSans-6c" x="2338.228516"/>
     <use xlink:href="#DejaVuSans-69" x="2366.011719"/>
     <use xlink:href="#DejaVuSans-62" x="2393.794922"/>
     <use xlink:href="#DejaVuSans-72" x="2457.271484"/>
     <use xlink:href="#DejaVuSans-61" x="2498.384766"/>
     <use xlink:href="#DejaVuSans-72" x="2559.664062"/>
     <use xlink:href="#DejaVuSans-69" x="2600.777344"/>
     <use xlink:href="#DejaVuSans-65" x="2628.560547"/>
     <use xlink:href="#DejaVuSans-73" x="2690.083984"/>
    </g>
   </g>
   <g id="legend_1">
    <g id="patch_7">
     <path d="M 254.510625 78.82825
L 407.72 78.82825
Q 409.72 78.82825 409.72 76.82825
L 409.72 48.472
Q 409.72 46.472 407.72 46.472
L 254.510625 46.472
Q 252.510625 46.472 252.510625 48.472
L 252.510625 76.82825
Q 252.510625 78.82825 254.510625 78.82825
z
" style="fill: #ffffff; opacity: 0.8; stroke: #cccccc; stroke-linejoin: miter"/>
    </g>
    <g id="line2d_29">
     <path d="M 256.510625 54.570437
L 266.510625 54.570437
L 276.510625 54.570437
" style="fill: none; stroke: #1f77b4; stroke-width: 1.5; stroke-linecap: square"/>
    </g>
    <g id="text_17">
     <!-- rapidfuzz -->
     <g transform="translate(284.510625 58.070437)scale(0.1 -0.1)">
      <defs>
       <path id="DejaVuSans-7a" d="M 353 3500
L 3084 3500
L 3084 2975
L 922 459
L 3084 459
L 3084 0
L 275 0
L 275 525
L 2438 3041
L 353 3041
L 353 3500
z
" transform="scale(0.015625)"/>
      </defs>
      <use xlink:href="#DejaVuSans-72"/>
      <use xlink:href="#DejaVuSans-61" x="41.113281"/>
      <use xlink:href="#DejaVuSans-70" x="102.392578"/>
      <use xlink:href="#DejaVuSans-69" x="165.869141"/>
      <use xlink:href="#DejaVuSans-64" x="193.652344"/>
      <use xlink:href="#DejaVuSans-66" x="257.128906"/>
      <use xlink:href="#DejaVuSans-75" x="292.333984"/>
      <use xlink:href="#DejaVuSans-7a" x="355.712891"/>
      <use xlink:href="#DejaVuSans-7a" x="408.203125"/>
     </g>
    </g>
    <g id="line2d_30">
     <path d="M 256.510625 69.248562
L 266.510625 69.248562
L 276.510625 69.248562
" style="fill: none; stroke: #ff7f0e; stroke-width: 1.5; stroke-linecap: square"/>
    </g>
    <g id="text_18">
     <!-- pyxdameraulevenshtein -->
     <g transform="translate(284.510625 72.748562)scale(0.1 -0.1)">
      <defs>
       <path id="DejaVuSans-79" d="M 2059 -325
Q 1816 -950 1584 -1140
Q 1353 -1331 966 -1331
L 506 -1331
L 506 -850
L 844 -850
Q 1081 -850 1212 -737
Q 1344 -625 1503 -206
L 1606 56
L 191 3500
L 800 3500
L 1894 763
L 2988 3500
L 3597 3500
L 2059 -325
z
" transform="scale(0.015625)"/>
       <path id="DejaVuSans-78" d="M 3513 3500
L 2247 1797
L 3578 0
L 2900 0
L 1881 1375
L 863 0
L 184 0
L 1544 1831
L 300 3500
L 978 3500
L 1906 2253
L 2834 3500
L 3513 3500
z
" transform="scale(0.015625)"/>
       <path id="DejaVuSans-76" d="M 191 3500
L 800 3500
L 1894 563
L 2988 3500
L 3597 3500
L 2284 0
L 1503 0
L 191 3500
z
" transform="scale(0.015625)"/>
      </defs>
      <use xlink:href="#DejaVuSans-70"/>
      <use xlink:href="#DejaVuSans-79" x="63.476562"/>
      <use xlink:href="#DejaVuSans-78" x="122.65625"/>
      <use xlink:href="#DejaVuSans-64" x="181.835938"/>
      <use xlink:href="#DejaVuSans-61" x="245.3125"/>
      <use xlink:href="#DejaVuSans-6d" x="306.591797"/>
      <use xlink:href="#DejaVuSans-65" x="404.003906"/>
      <use xlink:href="#DejaVuSans-72" x="465.527344"/>
      <use xlink:href="#DejaVuSans-61" x="506.640625"/>
      <use xlink:href="#DejaVuSans-75" x="567.919922"/>
      <use xlink:href="#DejaVuSans-6c" x="631.298828"/>
      <use xlink:href="#DejaVuSans-65" x="659.082031"/>
      <use xlink:href="#DejaVuSans-76" x="720.605469"/>
      <use xlink:href="#DejaVuSans-65" x="779.785156"/>
      <use xlink:href="#DejaVuSans-6e" x="841.308594"/>
      <use xlink:href="#DejaVuSans-73" x="904.6875"/>
      <use xlink:href="#DejaVuSans-68" x="956.787109"/>
      <use xlink:href="#DejaVuSans-74" x="1020.166016"/>
      <use xlink:href="#DejaVuSans-65" x="1059.375"/>
      <use xlink:href="#DejaVuSans-69" x="1120.898438"/>
      <use xlink:href="#DejaVuSans-6e" x="1148.681641"/>
     </g>
    </g>
   </g>
  </g>
 </g>
 <defs>
  <clipPath id="pc7ac9efc22">
   <rect x="57.6" y="41.472" width="357.12" height="266.112"/>
  </clipPath>
 </defs>
</svg>
