<svg xmlns="http://www.w3.org/2000/svg" xmlns:xlink="http://www.w3.org/1999/xlink" height="460.8" viewBox="0 0 460.8 345.6" width="614.4" stroke-linecap="butt" stroke-linejoin="round" xmlns:v="https://vecta.io/nano"><style><![CDATA[.B{stroke-linecap:butt}.C{stroke-linejoin:round}.D{stroke-linecap:square}.E{fill:none}.F{clip-path:url(#m)}.G{stroke-width:.8}.H{stroke:#000}.I{stroke:#b0b0b0}.J{stroke-width:1.5}.K{stroke-linejoin:miter}]]></style><g fill="#fff"><path d="M0 345.6h460.8V0H0z"/><path d="M57.6 307.584h357.12V41.472H57.6z"/></g><path d="M57.6 307.584V41.472" class="D E F G I"/><defs><path d="M0 0v3.5" id="A" class="B C G H"/></defs><use x="57.6" xlink:href="#A" y="307.584" class="G H"/><g transform="matrix(.1 0 0 -.1 54.41875 322.182437)"><defs><path d="M31.781 66.406q-7.609 0-11.453-7.5Q16.5 51.422 16.5 36.375q0-14.984 3.828-22.484 3.844-7.5 11.453-7.5 7.672 0 11.5 7.5 3.844 7.5 3.844 22.484 0 15.047-3.844 22.531-3.828 7.5-11.5 7.5zm0 7.813q12.266 0 18.734-9.703 6.469-9.687 6.469-28.141 0-18.406-6.469-28.109-6.469-9.687-18.734-9.687-12.25 0-18.719 9.688-6.469 9.703-6.469 28.109 0 18.453 6.469 28.141 6.469 9.703 18.719 9.703z" id="B" class="B C"/></defs><use xlink:href="#B"/></g><g class="G"><path d="M100.201 307.584V41.472" class="D E F I"/><use x="100.201" xlink:href="#A" y="307.584" class="H"/></g><g transform="matrix(.1 0 0 -.1 93.838954 322.182437)"><defs><path d="M33.016 40.375q-6.641 0-10.531-4.547-3.875-4.531-3.875-12.437 0-7.859 3.875-12.437 3.891-4.562 10.531-4.562 6.641 0 10.516 4.563 3.875 4.578 3.875 12.438 0 7.906-3.875 12.438-3.875 4.547-10.516 4.547zm19.578 30.922v-8.984q-3.719 1.75-7.5 2.672-3.781.938-7.5.938-9.766 0-14.922-6.594-5.141-6.594-5.875-19.922 2.875 4.25 7.219 6.516 4.359 2.266 9.578 2.266 10.984 0 17.359-6.672 6.375-6.656 6.375-18.125 0-11.234-6.641-18.031-6.641-6.781-17.672-6.781-12.656 0-19.344 9.688-6.687 9.703-6.687 28.109 0 17.281 8.203 27.563 8.203 10.281 22.016 10.281 3.719 0 7.5-.734 3.781-.734 7.891-2.187z" id="C" class="B C"/><path d="M37.797 64.313L12.891 25.391h24.906zm-2.594 8.594h12.406V25.391h10.406v-8.203H47.609V0h-9.812v17.188H4.891v9.516z" id="D" class="B C"/></defs><use xlink:href="#C"/><use x="63.623" xlink:href="#D"/></g><g class="G"><path d="M142.803 307.584V41.472" class="D E F I"/><use x="142.803" xlink:href="#A" y="307.584" class="H"/></g><g transform="matrix(.1 0 0 -.1 133.259158 322.182437)"><defs><path d="M12.406 8.297h16.109v55.625l-17.531-3.516v8.984l17.438 3.516h9.859V8.297h16.109V0H12.406z" id="E" class="B C"/><path d="M19.188 8.297h34.422V0H7.328v8.297q5.609 5.813 15.297 15.594 9.703 9.797 12.188 12.641 4.734 5.313 6.609 9 1.891 3.688 1.891 7.25 0 5.813-4.078 9.469-4.078 3.672-10.625 3.672-4.641 0-9.797-1.609-5.141-1.609-11-4.891v9.969Q13.766 71.781 18.938 73q5.188 1.219 9.484 1.219 11.328 0 18.063-5.672 6.734-5.656 6.734-15.125 0-4.5-1.687-8.531-1.672-4.016-6.125-9.484-1.219-1.422-7.766-8.187-6.531-6.766-18.453-18.922z" id="F" class="B C"/><path d="M31.781 34.625q-7.031 0-11.062-3.766-4.016-3.766-4.016-10.344 0-6.594 4.016-10.359 4.031-3.766 11.063-3.766 7.031 0 11.078 3.781 4.063 3.797 4.063 10.344 0 6.578-4.031 10.344-4.016 3.766-11.109 3.766zm-9.859 4.188q-6.344 1.563-9.891 5.906Q8.5 49.078 8.5 55.328q0 8.734 6.219 13.813 6.234 5.078 17.063 5.078 10.891 0 17.094-5.078 6.203-5.078 6.203-13.812 0-6.25-3.547-10.609-3.531-4.344-9.828-5.906 7.125-1.656 11.094-6.5 3.984-4.828 3.984-11.797 0-10.609-6.469-16.281-6.469-5.656-18.531-5.656-12.047 0-18.531 5.656-6.469 5.672-6.469 16.281 0 6.969 4 11.797 4.016 4.844 11.141 6.5zm-3.609 15.578q0-5.656 3.531-8.828 3.547-3.172 9.938-3.172 6.359 0 9.938 3.172 3.594 3.172 3.594 8.828 0 5.672-3.594 8.844-3.578 3.172-9.937 3.172-6.391 0-9.937-3.172-3.531-3.172-3.531-8.844z" id="G" class="B C"/></defs><use xlink:href="#E"/><use x="63.623" xlink:href="#F"/><use x="127.246" xlink:href="#G"/></g><g class="G"><path d="M185.404 307.584V41.472" class="D E F I"/><use x="185.404" xlink:href="#A" y="307.584" class="H"/></g><g transform="matrix(.1 0 0 -.1 175.860612 322.182437)"><defs><path d="M10.984 1.516V10.5q3.719-1.766 7.516-2.687 3.813-.922 7.484-.922 9.766 0 14.906 6.563 5.156 6.563 5.891 19.953-2.828-4.203-7.187-6.453-4.344-2.25-9.609-2.25-10.937 0-17.312 6.609-6.375 6.625-6.375 18.109 0 11.219 6.641 18 6.641 6.797 17.672 6.797 12.656 0 19.313-9.703 6.672-9.687 6.672-28.141 0-17.234-8.187-27.516Q40.234-1.422 26.422-1.422q-3.719 0-7.531.734-3.797.734-7.906 2.203zm19.625 30.906q6.641 0 10.516 4.531 3.891 4.547 3.891 12.469 0 7.859-3.891 12.422-3.875 4.563-10.516 4.563-6.641 0-10.516-4.562-3.875-4.562-3.875-12.422 0-7.922 3.875-12.469 3.875-4.531 10.516-4.531z" id="H" class="B C"/></defs><use xlink:href="#E"/><use x="63.623" xlink:href="#H"/><use x="127.246" xlink:href="#F"/></g><g class="G"><path d="M228.006 307.584V41.472" class="D E F I"/><use x="228.006" xlink:href="#A" y="307.584" class="H"/></g><g transform="matrix(.1 0 0 -.1 218.462065 322.182437)"><defs><path d="M10.797 72.906h38.719v-8.312H19.828V46.734q2.141.734 4.281 1.094 2.156.359 4.313.359 12.203 0 19.328-6.687 7.141-6.687 7.141-18.109 0-11.766-7.328-18.297-7.328-6.516-20.656-6.516-4.594 0-9.359.781-4.75.781-9.828 2.344v9.922q4.391-2.391 9.078-3.562 4.688-1.172 9.906-1.172 8.453 0 13.375 4.438 4.938 4.438 4.938 12.063 0 7.609-4.937 12.047-4.922 4.453-13.375 4.453-3.953 0-7.891-.875-3.922-.875-8.016-2.734z" id="I" class="B C"/></defs><use xlink:href="#F"/><use x="63.623" xlink:href="#I"/><use x="127.246" xlink:href="#C"/></g><g class="G"><path d="M270.607 307.584V41.472" class="D E F I"/><use x="270.607" xlink:href="#A" y="307.584" class="H"/></g><g transform="matrix(.1 0 0 -.1 261.063519 322.182437)"><defs><path d="M40.578 39.313Q47.656 37.797 51.625 33q3.984-4.781 3.984-11.812 0-10.781-7.422-16.703-7.422-5.906-21.094-5.906-4.578 0-9.437.906-4.859.906-10.031 2.719v9.516q4.094-2.391 8.969-3.609 4.891-1.219 10.219-1.219 9.266 0 14.125 3.656 4.859 3.656 4.859 10.641 0 6.453-4.516 10.078-4.516 3.641-12.562 3.641h-8.5v8.109h8.891q7.266 0 11.125 2.906 3.859 2.906 3.859 8.375 0 5.609-3.984 8.609-3.969 3.016-11.391 3.016-4.062 0-8.703-.891-4.641-.875-10.203-2.719v8.781q5.625 1.563 10.531 2.344 4.906.781 9.25.781 11.234 0 17.766-5.109 6.547-5.094 6.547-13.781 0-6.062-3.469-10.234-3.469-4.172-9.859-5.781z" id="J" class="B C"/></defs><use xlink:href="#J"/><use x="63.623" xlink:href="#F"/><use x="127.246" xlink:href="#B"/></g><g class="G"><path d="M313.209 307.584V41.472" class="D E F I"/><use x="313.209" xlink:href="#A" y="307.584" class="H"/></g><g transform="matrix(.1 0 0 -.1 303.664973 322.182437)"><use xlink:href="#J"/><use x="63.623" xlink:href="#G"/><use x="127.246" xlink:href="#D"/></g><g class="G"><path d="M355.81 307.584V41.472" class="D E F I"/><use x="355.81" xlink:href="#A" y="307.584" class="H"/></g><g transform="matrix(.1 0 0 -.1 346.266427 322.182437)"><use xlink:href="#D"/><use x="63.623" xlink:href="#D"/><use x="127.246" xlink:href="#G"/></g><g class="G"><path d="M398.412 307.584V41.472" class="D E F I"/><use x="398.412" xlink:href="#A" y="307.584" class="H"/></g><g transform="matrix(.1 0 0 -.1 388.867881 322.182437)"><use xlink:href="#I"/><use x="63.623" xlink:href="#E"/><use x="127.246" xlink:href="#F"/></g><g transform="matrix(.1 0 0 -.1 168.700625 335.860562)"><defs><path d="M44.281 53.078v-8.5q-3.797 1.953-7.906 2.922-4.094.984-8.5.984-6.687 0-10.031-2.047-3.344-2.047-3.344-6.156 0-3.125 2.391-4.906 2.391-1.781 9.625-3.391l3.078-.687q9.563-2.047 13.594-5.781 4.031-3.734 4.031-10.422 0-7.625-6.031-12.078-6.031-4.437-16.578-4.437-4.391 0-9.156.859Q10.688.297 5.422 2v9.281q4.984-2.594 9.813-3.891 4.828-1.281 9.578-1.281 6.344 0 9.75 2.172 3.422 2.172 3.422 6.125 0 3.656-2.469 5.609-2.453 1.953-10.812 3.766l-3.125.734q-8.344 1.75-12.062 5.391-3.703 3.641-3.703 9.984 0 7.719 5.469 11.906Q16.75 56 26.813 56q4.969 0 9.359-.734 4.406-.719 8.109-2.187z" id="K" class="B C"/><path d="M18.313 70.219V54.688h18.5v-6.984h-18.5V18.016q0-6.687 1.828-8.594 1.828-1.906 7.453-1.906h9.219V0h-9.219Q17.188 0 13.234 3.875 9.281 7.766 9.281 18.016v29.688H2.688v6.984h6.594v15.531z" id="L" class="B C"/><path d="M41.109 46.297q-1.516.875-3.297 1.281-1.781.422-3.922.422-7.625 0-11.703-4.953-4.078-4.953-4.078-14.234V0H9.078v54.688h9.031v-8.5q2.844 4.984 7.375 7.391Q30.031 56 36.531 56q.922 0 2.047-.125 1.125-.109 2.484-.359z" id="M" class="B C"/><path d="M9.422 54.688h8.984V0H9.422zm0 21.297h8.984V64.594H9.422z" id="N" class="B C"/><path d="M54.891 33.016V0h-8.984v32.719q0 7.766-3.031 11.609-3.031 3.859-9.078 3.859-7.281 0-11.484-4.641-4.203-4.625-4.203-12.641V0H9.078v54.688h9.031v-8.5q3.234 4.938 7.594 7.375Q30.078 56 35.797 56q9.422 0 14.25-5.828 4.844-5.828 4.844-17.156z" id="O" class="B C"/><path d="M45.406 27.984q0 9.766-4.031 15.125-4.016 5.375-11.297 5.375-7.219 0-11.25-5.375-4.031-5.359-4.031-15.125 0-9.719 4.031-15.094 4.031-5.375 11.25-5.375 7.281 0 11.297 5.375 4.031 5.375 4.031 15.094zm8.984-21.203q0-13.953-6.203-20.766Q42-20.797 29.203-20.797q-4.734 0-8.937.703-4.203.703-8.156 2.172v8.734q3.953-2.141 7.813-3.156 3.859-1.031 7.859-1.031 8.844 0 13.234 4.609 4.391 4.609 4.391 13.938v4.453q-2.781-4.844-7.125-7.234Q33.938 0 27.875 0 17.828 0 11.672 7.656q-6.156 7.672-6.156 20.328 0 12.688 6.156 20.344Q17.828 56 27.875 56q6.063 0 10.406-2.391 4.344-2.391 7.125-7.219v8.297h8.984z" id="P" class="B C"/><path d="M9.422 75.984h8.984V0H9.422z" id="Q" class="B C"/><path d="M56.203 29.594v-4.391H14.891q.594-9.281 5.594-14.141 5-4.859 13.938-4.859 5.172 0 10.031 1.266 4.859 1.266 9.656 3.813v-8.5Q49.266.734 44.188-.344q-5.078-1.078-10.297-1.078-13.094 0-20.734 7.609-7.641 7.625-7.641 20.625 0 13.422 7.25 21.297Q20.016 56 32.328 56q11.031 0 17.453-7.109 6.422-7.094 6.422-19.297zm-8.984 2.641q-.094 7.359-4.125 11.75-4.031 4.406-10.672 4.406-7.516 0-12.031-4.25-4.516-4.25-5.203-11.969z" id="R" class="B C"/><path d="M54.891 33.016V0h-8.984v32.719q0 7.766-3.031 11.609-3.031 3.859-9.078 3.859-7.281 0-11.484-4.641-4.203-4.625-4.203-12.641V0H9.078v75.984h9.031V46.188q3.234 4.938 7.594 7.375Q30.078 56 35.797 56q9.422 0 14.25-5.828 4.844-5.828 4.844-17.156z" id="S" class="B C"/><path d="M8.594 75.984h20.703V69H17.578V-6.203h11.719v-6.984H8.594z" id="T" class="B C"/><path d="M48.781 52.594v-8.406q-3.812 2.109-7.641 3.156-3.828 1.047-7.734 1.047-8.75 0-13.594-5.547-4.828-5.531-4.828-15.547 0-10.016 4.828-15.562 4.844-5.531 13.594-5.531 3.906 0 7.734 1.047 3.828 1.047 7.641 3.156V2.094Q45.016.344 40.984-.531q-4.016-.891-8.562-.891-12.359 0-19.641 7.766-7.266 7.766-7.266 20.953 0 13.375 7.344 21.031Q20.219 56 33.016 56q4.141 0 8.094-.859 3.953-.844 7.672-2.547z" id="U" class="B C"/><path d="M34.281 27.484q-10.891 0-15.094-2.484-4.203-2.484-4.203-8.5 0-4.781 3.156-7.594 3.156-2.797 8.563-2.797 7.484 0 12 5.297 4.516 5.297 4.516 14.078v2zm17.922 3.719V0h-8.984v8.297Q40.141 3.328 35.547.953q-4.594-2.375-11.234-2.375-8.391 0-13.359 4.719Q6 8.016 6 15.922q0 9.219 6.172 13.906 6.188 4.688 18.438 4.688h12.609v.891q0 6.203-4.078 9.594-4.078 3.391-11.453 3.391-4.687 0-9.141-1.125-4.437-1.125-8.531-3.375v8.313q4.922 1.906 9.563 2.844 4.641.953 9.031.953 11.875 0 17.734-6.156 5.859-6.141 5.859-18.641z" id="V" class="B C"/><path d="M30.422 75.984v-89.172H9.719v6.984h11.672V69H9.719v6.984z" id="W" class="B C"/></defs><use xlink:href="#K"/><use x="52.1" xlink:href="#L"/><use x="91.309" xlink:href="#M"/><use x="132.422" xlink:href="#N"/><use x="160.205" xlink:href="#O"/><use x="223.584" xlink:href="#P"/><use x="287.061" xlink:href="#AG"/><use x="318.848" xlink:href="#Q"/><use x="346.631" xlink:href="#R"/><use x="408.154" xlink:href="#O"/><use x="471.533" xlink:href="#P"/><use x="535.01" xlink:href="#L"/><use x="574.219" xlink:href="#S"/><use x="637.598" xlink:href="#AG"/><use x="669.385" xlink:href="#T"/><use x="708.398" xlink:href="#N"/><use x="736.182" xlink:href="#O"/><use x="799.561" xlink:href="#AG"/><use x="831.348" xlink:href="#U"/><use x="886.328" xlink:href="#S"/><use x="949.707" xlink:href="#V"/><use x="1010.986" xlink:href="#M"/><use x="1052.1" xlink:href="#V"/><use x="1113.379" xlink:href="#U"/><use x="1168.359" xlink:href="#L"/><use x="1207.568" xlink:href="#R"/><use x="1269.092" xlink:href="#M"/><use x="1310.205" xlink:href="#W"/></g><path d="M57.6 307.584h357.12" class="D E F G I"/><defs><path d="M0 0h-3.5" id="X" class="B C G H"/></defs><use x="57.6" xlink:href="#X" y="307.584" class="G H"/><use xlink:href="#B" transform="matrix(.1 0 0 -.1 44.2375 311.383219)"/><g class="G"><path d="M57.6 279.846h357.12" class="D E F I"/><use x="57.6" xlink:href="#X" y="279.846" class="H"/></g><g transform="matrix(.1 0 0 -.1 18.7875 283.645651)"><use xlink:href="#E"/><use x="63.623" xlink:href="#B"/><use x="127.246" xlink:href="#B"/><use x="190.869" xlink:href="#B"/><use x="254.492" xlink:href="#B"/></g><g class="G"><path d="M57.6 252.109h357.12" class="D E F I"/><use x="57.6" xlink:href="#X" y="252.109" class="H"/></g><g transform="matrix(.1 0 0 -.1 18.7875 255.908084)"><use xlink:href="#F"/><use x="63.623" xlink:href="#B"/><use x="127.246" xlink:href="#B"/><use x="190.869" xlink:href="#B"/><use x="254.492" xlink:href="#B"/></g><g class="G"><path d="M57.6 224.371h357.12" class="D E F I"/><use x="57.6" xlink:href="#X" y="224.371" class="H"/></g><g transform="matrix(.1 0 0 -.1 18.7875 228.170517)"><use xlink:href="#J"/><use x="63.623" xlink:href="#B"/><use x="127.246" xlink:href="#B"/><use x="190.869" xlink:href="#B"/><use x="254.492" xlink:href="#B"/></g><g class="G"><path d="M57.6 196.634h357.12" class="D E F I"/><use x="57.6" xlink:href="#X" y="196.634" class="H"/></g><g transform="matrix(.1 0 0 -.1 18.7875 200.432949)"><use xlink:href="#D"/><use x="63.623" xlink:href="#B"/><use x="127.246" xlink:href="#B"/><use x="190.869" xlink:href="#B"/><use x="254.492" xlink:href="#B"/></g><g class="G"><path d="M57.6 168.896h357.12" class="D E F I"/><use x="57.6" xlink:href="#X" y="168.896" class="H"/></g><g transform="matrix(.1 0 0 -.1 18.7875 172.695382)"><use xlink:href="#I"/><use x="63.623" xlink:href="#B"/><use x="127.246" xlink:href="#B"/><use x="190.869" xlink:href="#B"/><use x="254.492" xlink:href="#B"/></g><g class="G"><path d="M57.6 141.159h357.12" class="D E F I"/><use x="57.6" xlink:href="#X" y="141.159" class="H"/></g><g transform="matrix(.1 0 0 -.1 18.7875 144.957815)"><use xlink:href="#C"/><use x="63.623" xlink:href="#B"/><use x="127.246" xlink:href="#B"/><use x="190.869" xlink:href="#B"/><use x="254.492" xlink:href="#B"/></g><g class="G"><path d="M57.6 113.421h357.12" class="D E F I"/><use x="57.6" xlink:href="#X" y="113.421" class="H"/></g><g transform="matrix(.1 0 0 -.1 18.7875 117.220248)"><defs><path d="M8.203 72.906h46.875v-4.203L28.609 0H18.313l24.906 64.594H8.203z" id="Y" class="B C"/></defs><use xlink:href="#Y"/><use x="63.623" xlink:href="#B"/><use x="127.246" xlink:href="#B"/><use x="190.869" xlink:href="#B"/><use x="254.492" xlink:href="#B"/></g><g class="G"><path d="M57.6 85.683h357.12" class="D E F I"/><use x="57.6" xlink:href="#X" y="85.683" class="H"/></g><g transform="matrix(.1 0 0 -.1 18.7875 89.48268)"><use xlink:href="#G"/><use x="63.623" xlink:href="#B"/><use x="127.246" xlink:href="#B"/><use x="190.869" xlink:href="#B"/><use x="254.492" xlink:href="#B"/></g><g class="G"><path d="M57.6 57.946h357.12" class="D E F I"/><use x="57.6" xlink:href="#X" y="57.946" class="H"/></g><g transform="matrix(.1 0 0 -.1 18.7875 61.745113)"><use xlink:href="#H"/><use x="63.623" xlink:href="#B"/><use x="127.246" xlink:href="#B"/><use x="190.869" xlink:href="#B"/><use x="254.492" xlink:href="#B"/></g><g transform="matrix(0 -.1 -.1 0 12.707812 205.481125)"><defs><path d="M8.5 21.578v33.109h8.984V21.922q0-7.766 3.016-11.656 3.031-3.875 9.094-3.875 7.266 0 11.484 4.641 4.234 4.641 4.234 12.656v31h8.984V0h-8.984v8.406Q42.047 3.422 37.719 1q-4.312-2.422-10.031-2.422-9.422 0-14.312 5.859Q8.5 10.297 8.5 21.578zM31.109 56z" id="Z" class="B C"/><path d="M52 44.188q3.375 6.063 8.063 8.938Q64.75 56 71.094 56q8.547 0 13.188-5.984 4.641-5.969 4.641-17V0h-9.031v32.719q0 7.859-2.797 11.656-2.781 3.813-8.484 3.813-6.984 0-11.047-4.641-4.047-4.625-4.047-12.641V0h-9.031v32.719q0 7.906-2.781 11.688-2.781 3.781-8.594 3.781-6.891 0-10.953-4.656-4.047-4.656-4.047-12.625V0H9.078v54.688h9.031v-8.5q3.078 5.031 7.375 7.422Q29.781 56 35.688 56q5.969 0 10.141-3.031Q50 49.953 52 44.188z" id="a" class="B C"/></defs><use xlink:href="#M"/><use x="41.113" xlink:href="#Z"/><use x="104.492" xlink:href="#O"/><use x="167.871" xlink:href="#L"/><use x="207.08" xlink:href="#N"/><use x="234.863" xlink:href="#a"/><use x="332.275" xlink:href="#R"/><use x="393.799" xlink:href="#AG"/><use x="425.586" xlink:href="#T"/><use x="464.6" xlink:href="#O"/><use x="527.979" xlink:href="#K"/><use x="580.078" xlink:href="#W"/></g><g class="D E"><g class="J"><path d="M58.266 307.258l18.638-.361 14.644-.38 1.331-.126 2.663.045 3.994-.086 1.331-1.001 7.988-.251 9.319-.334 2.663-.201 6.656-.157 14.644-.524 1.331-1.505 3.994-.15 1.331-.125 1.331.001 1.331-.123 2.663-.062 30.62-1.544 1.331-1.37 6.656-.416 31.951-1.904 2.663-.152 1.331-1.881 7.988-.676 9.319-.65 5.325-.394 1.331.068 17.307-1.326 1.331-2.575 5.325-.519 9.319-.675 11.982-1.037 5.325-.36 5.325-.493 3.994-.302 1.331-3.005 9.319-.882 1.331-.854 1.331.6 11.982-1.102 2.663-.678 1.331.306 1.331-.138 1.331-.85 1.331.343 1.331.068 1.331-.299 1.331-.718 1.331-.044 1.331-.18 1.331.582 1.331-.119 1.331-3.452 1.331-.293 2.663-.251 6.656-.549 1.331-.279 1.331.136 1.331-.184 1.331-.051 2.663-.3 9.319-1.012 1.331-.341 1.331-.13 1.331.135 2.663-.312 2.663-.263 1.331-.299 2.663-.334" stroke="#1f77b4" class="F"/><path d="M58.266 307.212l41.27-.705 1.331-3.431 2.663-.43 7.988-1.127 5.325-.643 14.644-2.018 10.65-1.638 1.331-2.573 6.656-1.43 1.331-1.934 1.331.163 1.331-.343 3.994-.782 1.331-.39 1.331-.223 1.331-.368 1.331-.225 1.331-.384 1.331-.204 2.663-.626 3.994-.968 1.331-.144 1.331-.406 1.331-.208 3.994-.991 2.663-.536 1.331-.352 1.331-4.161 18.638-5.82 9.319-2.778 1.331-.185 1.331-.684 1.331-.227 1.331-.434 2.663-.734 1.331-.45 1.331-.275 2.663-.985 1.331-5.137 1.331-.806 1.331-.482 1.331-.621 1.331-.489 1.331-.315 1.331-.458 1.331-.746 7.988-3.018 3.994-1.393 1.331-.593 2.663-1.003 1.331-.088 3.994-1.803 1.331-.058 1.331-.846 1.331-.248 1.331-.397 1.331-.666 1.331-.056 1.331-1.002 1.331-.559 1.331-6.282 1.331-1.163 1.331-.539 1.331-.363 1.331-1.098 1.331-.428 3.994-1.647 1.331-.847 1.331-.402 1.331-.975 1.331-.48 1.331-.194 1.331-.83 1.331-.144 1.331-1.359 2.663-.668 2.663-1.24 1.331-.852 1.331-.476 1.331-.324 1.331-.771 1.331-.188 1.331-.983 1.331-.005 1.331-.887 1.331-.095 1.331-1.04 1.331-.363 1.331-7.692 1.331-1.661 1.331-.975 1.331-.407 1.331-1.191 1.331-.319 1.331-1.002 1.331-.105 1.331-1.091 1.331.08 1.331-1.473 1.331.134 1.331-1.643 1.331-.335 1.331.008 1.331-1.298 2.663-1.287 1.331.037 1.331-1.476 1.331-.571 1.331.255 1.331-1.668 1.331-.85 1.331-.457 2.663-1.309 1.331-.277 1.331-.834 2.663-.835 1.331-1.036 1.331-8.774 1.331-.983 1.331-1.267 1.331-.636 1.331-.96 1.331-.139 2.663-2.924 1.331-.314 1.331-.144 1.331-1.418 1.331-.458 1.331-1.233 1.331-.22 1.331-.501 1.331-1.64 1.331-.448 2.663-1.781 1.331-.144 1.331-.806 2.663-2.077 1.331-.539 1.331-.371 1.331-.88 1.331-1.634 1.331.669 1.331-1.563 1.331-.55 1.331-.693 1.331-.55" stroke="#ff7f0e" class="F"/><path d="M58.266 307.34l9.319-.788 2.663-.456 3.994-.945 2.663-.775 6.656-2.572 2.663-1.357 2.663-1.323 3.994-2.289 2.663-2.083 1.331-1.492 1.331-1.004 1.331-1.422 1.331-1.688 2.663-1.215 1.331-1.573 2.663-1.419 1.331-1.567 1.331-.93 1.331-1.389 2.663-2.51 3.994-4.209 2.663-3.19 7.988-9.785 3.994-5.224 2.663-3.591 6.656-9.698 3.994-6.104 5.325-8.554 6.656-11.339 3.994-7.058 1.331-2.716 1.331-2.382 3.994-7.95 1.331-2.225 7.988-16.199 1.331-3.018 1.331-2.737 1.331-2.996 1.331-3.579 1.331-2.197 1.331-3.178 1.331-3.607 2.663-6.044 1.331-2.712 3.994-9.626 2.663-6.201 2.663-6.668 3.994-9.884 6.656-17.39 1.331 1.28 1.331-6.378 1.331-5.625 3.994-10.828 3.994-11.455 2.663-7.273 1.331-4.07" stroke="#2ca02c" class="F"/><path d="M58.266 304.329l1.331-.748 1.331-1.011 2.663-1.534 1.331-.689 2.663-1.615 1.331-.614 1.331-.428 1.331-.583 1.331-.767 2.663-1.155 1.331.447 1.331-.629 1.331-.39 1.331-.257 1.331-.383 3.994-1.585 1.331-.619 1.331-1.434 1.331-.86 1.331-.328 1.331-.066 3.994-2.11 2.663-.816 1.331-12.062 1.331-2.585 1.331-1.081 1.331-.861 1.331-.374 1.331-1.06 1.331-.112 1.331-1.186 1.331.6 1.331-.567 1.331-.04 1.331-.393 2.663-1.062 3.994-1.141 1.331.035 6.656-1.323 1.331-.164 1.331-.586 1.331.085 2.663-1.206 1.331-.811 1.331.272 1.331-.475 1.331-.63 1.331-13.552 1.331-3.653 1.331-3.283 1.331-1.121 1.331-.418 1.331-.537 1.331-.371 1.331.119 3.994-.895 1.331-.145 3.994-1.1 1.331.023 1.331-.264 3.994-.121 1.331-.205 1.331-.027 5.325-.652 2.663-.866 2.663-.417 1.331-.334 1.331-.499 1.331-13.497 1.331-.569 1.331-.172 1.331-.458 1.331-.12 2.663-.615 1.331.023 1.331-.317 2.663-.129 1.331-.131 1.331-.281 2.663-.337 1.331-.259 1.331.072 1.331-.43 1.331.118 2.663-.633 2.663-.373 3.994-1.073 1.331-.496 1.331.115 1.331-.351 1.331-.196 1.331-.339 1.331-1.465 1.331-12.776 1.331-.47 1.331-2.43 1.331-6.13 1.331-5.52 1.331-2.175 1.331-.841 1.331.22 1.331-.626 1.331-.112 1.331.008 1.331-.336 1.331-.193 1.331.053 1.331-.627 1.331.144 1.331-.436 2.663-.447 1.331.291 1.331-.18 2.663.173 1.331-.731 6.656-1.258 1.331.009 2.663-1.494 1.331-13.29 1.331-.567 1.331-.067 1.331-.291 1.331-.428 1.331.075 1.331-.605 1.331-.246 1.331.32 1.331-.136 1.331.134 1.331-.644 2.663-.573 2.663-.196 1.331-.202 1.331-.318 1.331-.124 1.331.152 2.663-.556 1.331-.107 1.331-.469 1.331-.323 1.331-.537 1.331-.372 2.663-.256 1.331-.416 1.331-.543 1.331-1.712 1.331-12.573 1.331-.751 1.331.184 1.331-.489 1.331-.351 1.331-.131 1.331-.484 1.331.182 1.331-.529 1.331-.203 1.331.258 1.331-.119 1.331-.411 1.331.195 1.331-.356 2.663-.288 1.331-.44 1.331.256 1.331-.463 1.331-.042 1.331-.433 1.331-.051 2.663-1.148 1.331.076 1.331-.667 1.331-.148 3.994-.885 1.331-1.682 1.331-12.944 1.331-.641 1.331-.074 2.663-.688 1.331-.262 1.331-.518 1.331-.099 1.331.25 1.331.067 2.663-.505 1.331.144 1.331-.604 2.663-.254 1.331-.498 1.331-.077 1.331-.396 1.331.116 1.331-.725 2.663.112 1.331-.99 1.331.038 1.331-.149 3.994-1.939 1.331.08 1.331-.51 1.331-2.097" stroke="#d62728" class="F"/><path d="M58.266 307.074l1.331-.432 5.325-2.671 1.331-1.033 1.331-.332 2.663-1.09 1.331-.777 2.663-1.058 11.982-4.933 5.325-2.047 1.331-.295 1.331-.44 1.331-2.416 1.331.044 1.331-.095 1.331-1.046 2.663-1.545 1.331.184 1.331-1.388 1.331-.141 2.663-.936 1.331.033 6.656-2.108 1.331-1.018 1.331.093 1.331-.581 1.331-.745 1.331-.163 1.331-1.032 2.663-.996 1.331-.082 1.331-.586 1.331.004 1.331-.965 1.331-.665 1.331-.437 2.663-.407 1.331-.771 1.331.066 1.331-.746 1.331-3.225 1.331-8.149 1.331-.509 1.331-.684 1.331-.07 1.331-.556 3.994-1.246 1.331-.525 1.331.003 1.331-.436 1.331-.688 1.331-.472 1.331-.256 1.331-.467 1.331-.34 5.325-1.857 1.331-.216 2.663-.947 1.331-.196 2.663-.88 2.663-.941 1.331-.619 1.331-.222 1.331-.731 1.331-2.22 1.331-.935 1.331-.083 1.331-.718 1.331-.125 1.331-1.101 1.331.218 1.331-.661 1.331-.393 1.331-1.001 1.331-.178 1.331-.599 1.331-.265 1.331-.962 1.331.392 1.331-1.12 1.331.262 1.331-1.998 1.331 1.245 1.331-1.896 1.331.313 1.331-.881 1.331.137 1.331-1.532 1.331.408 1.331-.891 1.331-.192 1.331-.867 1.331-.116 1.331-1.279 1.331-.202 1.331-.509 1.331-9.501 3.994-2.257 1.331-.454 1.331-.121 1.331-.995 1.331-.196 1.331-.693 1.331-.443 1.331-.705 1.331-.447 1.331-.658 1.331-.462 1.331-1.105 1.331-.124 1.331-.764 2.663-1.09 1.331-.638 1.331-.782 1.331-.364 1.331-1.52 1.331.455 1.331-.863 1.331-.51 1.331-.959 3.994-1.481 1.331-1.004 1.331-.493 1.331-6.805 1.331.511 1.331-1.406 1.331-.259 1.331-1.496 1.331.224 1.331-1.262 1.331.103 1.331-1.324 1.331.037 1.331-1.571 1.331.084 1.331-1.204 1.331.187 1.331-.963 1.331.01 1.331-1.188 1.331.063 1.331-.987 1.331-.568 1.331-.869 1.331-.294 1.331-.965 1.331-.472 1.331-.968 1.331.107 1.331-1.594 1.331-.03 1.331-.752 1.331.438 1.331-1.948 1.331.065 1.331-7.427 1.331-.86 1.331-1.007 1.331.222 1.331-2.412 1.331.17 1.331-.611 1.331-1.076 1.331-.692 1.331.02 1.331-.921 1.331-1.16 2.663-1.072 1.331-.328 1.331-.746 1.331-1.625 1.331-.177 1.331-1.07 1.331-.122 1.331-.919 1.331-.489 2.663-1.785 1.331-1.262 1.331-.211 1.331-.82 1.331-.029 1.331-.968 1.331-.044 1.331-1.327 1.331-.356 1.331-10.938 1.331-.229 2.663-1.667 1.331-1.279 1.331 1.123 1.331-.901 1.331-1.274 1.331-1.019 1.331-1.234 1.331-.059 1.331-.668 1.331.493 1.331-.685 1.331-1.06 1.331-.761 1.331-1.245 2.663-1.114 1.331-.792 1.331-.163 1.331-1.657 1.331-.918 2.663.177 1.331-.362 1.331-1.334 1.331-.751 1.331-1.03 1.331.167 1.331-1.24 1.331-1.513" stroke="#9467bd" class="F"/></g><g class="G H K"><path d="M57.6 307.584V41.472m357.12 266.112V41.472"/><path d="M57.6 307.584h357.12M57.6 41.472h357.12"/></g></g><g transform="matrix(.12 0 0 -.12 138.18375 22.034625)"><defs><path d="M19.672 64.797V37.406h12.406q6.891 0 10.641 3.563 3.766 3.563 3.766 10.156 0 6.547-3.766 10.109-3.75 3.563-10.641 3.563zm-9.859 8.109h22.266q12.266 0 18.531-5.547 6.281-5.547 6.281-16.234 0-10.797-6.281-16.312-6.266-5.516-18.531-5.516H19.672V0H9.813z" id="b" class="B C"/><path d="M37.109 75.984V68.5h-8.594q-4.828 0-6.719-1.953-1.875-1.953-1.875-7.031v-4.828h14.797v-6.984H19.922V0h-9.031v47.703H2.297v6.984h8.594V58.5q0 9.125 4.25 13.297 4.25 4.188 13.469 4.188z" id="c" class="B C"/><path d="M30.609 48.391q-7.219 0-11.422-5.641-4.203-5.641-4.203-15.453 0-9.812 4.172-15.453 4.188-5.641 11.453-5.641 7.188 0 11.375 5.656 4.203 5.672 4.203 15.438 0 9.719-4.203 15.406-4.187 5.688-11.375 5.688zm0 7.609q11.719 0 18.406-7.625 6.703-7.609 6.703-21.078 0-13.422-6.703-21.078-6.687-7.641-18.406-7.641-11.766 0-18.437 7.641-6.656 7.656-6.656 21.078 0 13.469 6.656 21.078Q18.844 56 30.609 56z" id="d" class="B C"/><path d="M18.109 8.203v-29H9.078v75.484h9.031v-8.297q2.844 4.875 7.156 7.234Q29.594 56 35.594 56q9.969 0 16.188-7.906 6.234-7.906 6.234-20.797 0-12.891-6.234-20.812-6.219-7.906-16.187-7.906-6 0-10.328 2.375-4.312 2.375-7.156 7.25zm30.578 19.094q0 9.906-4.078 15.547-4.078 5.641-11.203 5.641-7.141 0-11.219-5.641-4.078-5.641-4.078-15.547 0-9.906 4.078-15.547 4.078-5.641 11.219-5.641 7.125 0 11.203 5.641 4.078 5.641 4.078 15.547z" id="e" class="B C"/></defs><use xlink:href="#b"/><use x="56.678" xlink:href="#R"/><use x="118.201" xlink:href="#M"/><use x="159.314" xlink:href="#c"/><use x="194.52" xlink:href="#d"/><use x="255.701" xlink:href="#M"/><use x="295.064" xlink:href="#a"/><use x="392.477" xlink:href="#V"/><use x="453.756" xlink:href="#O"/><use x="517.135" xlink:href="#U"/><use x="572.115" xlink:href="#R"/><use x="633.639" xlink:href="#AG"/><use x="665.426" xlink:href="#U"/><use x="720.406" xlink:href="#d"/><use x="781.588" xlink:href="#a"/><use x="879" xlink:href="#e"/><use x="942.477" xlink:href="#V"/><use x="1003.756" xlink:href="#M"/><use x="1044.869" xlink:href="#N"/><use x="1072.652" xlink:href="#K"/><use x="1124.752" xlink:href="#N"/><use x="1152.535" xlink:href="#d"/><use x="1213.717" xlink:href="#O"/><use x="1277.096" xlink:href="#AG"/><use x="1308.883" xlink:href="#d"/><use x="1370.064" xlink:href="#c"/><use x="1405.27" xlink:href="#AG"/><use x="1437.057" xlink:href="#L"/><use x="1476.266" xlink:href="#S"/><use x="1539.645" xlink:href="#R"/><use x="1601.168" xlink:href="#AG"/></g><g transform="matrix(.12 0 0 -.12 124.570312 35.472)"><defs><path d="M45.406 46.391v29.594h8.984V0h-8.984v8.203Q42.578 3.328 38.25.953q-4.312-2.375-10.375-2.375-9.906 0-16.141 7.906-6.219 7.922-6.219 20.813 0 12.891 6.219 20.797Q17.969 56 27.875 56q6.063 0 10.375-2.375 4.328-2.359 7.156-7.234zM14.797 27.297q0-9.906 4.078-15.547 4.078-5.641 11.203-5.641 7.125 0 11.219 5.641 4.109 5.641 4.109 15.547 0 9.906-4.109 15.547-4.094 5.641-11.219 5.641-7.125 0-11.203-5.641-4.078-5.641-4.078-15.547z" id="f" class="B C"/><path d="M48.688 27.297q0 9.906-4.078 15.547-4.078 5.641-11.203 5.641-7.141 0-11.219-5.641-4.078-5.641-4.078-15.547 0-9.906 4.078-15.547 4.078-5.641 11.219-5.641 7.125 0 11.203 5.641 4.078 5.641 4.078 15.547zM18.109 46.391q2.844 4.875 7.156 7.234Q29.594 56 35.594 56q9.969 0 16.188-7.906 6.234-7.906 6.234-20.797 0-12.891-6.234-20.812-6.219-7.906-16.187-7.906-6 0-10.328 2.375-4.312 2.375-7.156 7.25V0H9.078v75.984h9.031z" id="g" class="B C"/></defs><use xlink:href="#Z"/><use x="63.379" xlink:href="#O"/><use x="126.758" xlink:href="#N"/><use x="154.541" xlink:href="#c"/><use x="189.746" xlink:href="#d"/><use x="250.928" xlink:href="#M"/><use x="290.291" xlink:href="#a"/><use x="387.703" xlink:href="#AG"/><use x="419.49" xlink:href="#f"/><use x="482.967" xlink:href="#N"/><use x="510.75" xlink:href="#K"/><use x="562.85" xlink:href="#L"/><use x="602.059" xlink:href="#V"/><use x="663.338" xlink:href="#O"/><use x="726.717" xlink:href="#U"/><use x="781.697" xlink:href="#R"/><use x="843.221" xlink:href="#AG"/><use x="875.008" xlink:href="#N"/><use x="902.791" xlink:href="#O"/><use x="966.17" xlink:href="#AG"/><use x="997.957" xlink:href="#f"/><use x="1061.434" xlink:href="#N"/><use x="1089.217" xlink:href="#c"/><use x="1124.422" xlink:href="#c"/><use x="1159.627" xlink:href="#R"/><use x="1221.15" xlink:href="#M"/><use x="1260.014" xlink:href="#R"/><use x="1321.537" xlink:href="#O"/><use x="1384.916" xlink:href="#L"/><use x="1424.125" xlink:href="#AG"/><use x="1455.912" xlink:href="#Q"/><use x="1483.695" xlink:href="#N"/><use x="1511.479" xlink:href="#g"/><use x="1574.955" xlink:href="#M"/><use x="1616.068" xlink:href="#V"/><use x="1677.348" xlink:href="#M"/><use x="1718.461" xlink:href="#N"/><use x="1746.244" xlink:href="#R"/><use x="1807.768" xlink:href="#K"/></g><path d="M64.6 122.863h131.284q2 0 2-2V48.472q0-2-2-2H64.6q-2 0-2 2v72.391q0 2 2 2z" fill="#fff" opacity=".8" stroke="#ccc" class="K"/><path d="M66.6 54.57h20" stroke="#1f77b4" class="D E J"/><g transform="matrix(.1 0 0 -.1 94.6 58.070438)"><defs><path d="M5.516 54.688h42.672v-8.203L14.406 7.172h33.781V0H4.297v8.203l33.797 39.313H5.516z" id="h" class="B C"/></defs><use xlink:href="#M"/><use x="41.113" xlink:href="#V"/><use x="102.393" xlink:href="#e"/><use x="165.869" xlink:href="#N"/><use x="193.652" xlink:href="#f"/><use x="257.129" xlink:href="#c"/><use x="292.334" xlink:href="#Z"/><use x="355.713" xlink:href="#h"/><use x="408.203" xlink:href="#h"/></g><path d="M66.6 69.249h20" stroke="#ff7f0e" class="D E J"/><g transform="matrix(.1 0 0 -.1 94.6 72.748563)"><defs><path d="M32.172-5.078q-3.797-9.766-7.422-12.734-3.609-2.984-9.656-2.984H7.906v7.516h5.281q3.703 0 5.75 1.766Q21-9.766 23.484-3.219L25.094.875 2.984 54.688H12.5l17.094-42.766 17.094 42.766h9.516z" id="i" class="B C"/><path d="M2.984 54.688H12.5L29.594 8.797l17.094 45.891h9.516L35.688 0H23.484z" id="j" class="B C"/></defs><use xlink:href="#e"/><use x="63.477" xlink:href="#d"/><use x="124.658" xlink:href="#Q"/><use x="152.441" xlink:href="#i"/><use x="211.621" xlink:href="#Q"/><use x="239.404" xlink:href="#R"/><use x="300.928" xlink:href="#j"/><use x="360.107" xlink:href="#R"/><use x="421.631" xlink:href="#O"/></g><path d="M66.6 83.927h20" stroke="#2ca02c" class="D E J"/><g transform="matrix(.1 0 0 -.1 94.6 87.426688)"><defs><path d="M4.891 31.391h26.313v-8H4.891z" id="k" class="B C"/><path d="M9.813 72.906h9.859V8.297h35.5V0H9.813z" id="l" class="B C"/></defs><use xlink:href="#e"/><use x="63.477" xlink:href="#i"/><use x="122.656" xlink:href="#L"/><use x="161.865" xlink:href="#S"/><use x="225.244" xlink:href="#d"/><use x="286.426" xlink:href="#O"/><use x="349.805" xlink:href="#k"/><use x="385.889" xlink:href="#l"/><use x="439.852" xlink:href="#R"/><use x="501.375" xlink:href="#j"/><use x="560.555" xlink:href="#R"/><use x="622.078" xlink:href="#O"/><use x="685.457" xlink:href="#K"/><use x="737.557" xlink:href="#S"/><use x="800.936" xlink:href="#L"/><use x="840.145" xlink:href="#R"/><use x="901.668" xlink:href="#N"/><use x="929.451" xlink:href="#O"/></g><path d="M66.6 98.605h20" stroke="#d62728" class="D E J"/><g transform="matrix(.1 0 0 -.1 94.6 102.104813)"><use xlink:href="#R"/><use x="61.523" xlink:href="#f"/><use x="125" xlink:href="#Q"/><use x="152.783" xlink:href="#N"/><use x="180.566" xlink:href="#g"/></g><path d="M66.6 113.283h20" stroke="#9467bd" class="D E J"/><g transform="matrix(.1 0 0 -.1 94.6 116.782938)"><use xlink:href="#R"/><use x="61.523" xlink:href="#f"/><use x="125" xlink:href="#N"/><use x="152.783" xlink:href="#L"/><use x="191.992" xlink:href="#f"/><use x="255.469" xlink:href="#N"/><use x="283.252" xlink:href="#K"/><use x="335.352" xlink:href="#L"/><use x="374.561" xlink:href="#V"/><use x="435.84" xlink:href="#O"/><use x="499.219" xlink:href="#U"/><use x="554.199" xlink:href="#R"/></g><defs><clipPath id="m"><path d="M57.6 41.472h357.12v266.112H57.6z" class="B C"/></clipPath></defs></svg>
