<?xml version="1.0" encoding="utf-8" standalone="no"?>
<!DOCTYPE svg PUBLIC "-//W3C//DTD SVG 1.1//EN"
  "http://www.w3.org/Graphics/SVG/1.1/DTD/svg11.dtd">
<svg height="345.6pt" version="1.1" viewBox="0 0 460.8 345.6" width="460.8pt" xmlns="http://www.w3.org/2000/svg" xmlns:xlink="http://www.w3.org/1999/xlink">
 <metadata>
  <rdf:RDF xmlns:cc="http://creativecommons.org/ns#" xmlns:dc="http://purl.org/dc/elements/1.1/" xmlns:rdf="http://www.w3.org/1999/02/22-rdf-syntax-ns#">
   <cc:Work>
    <dc:type rdf:resource="http://purl.org/dc/dcmitype/StillImage"/>
    <dc:date>2021-09-15T00:32:08.614768</dc:date>
    <dc:format>image/svg+xml</dc:format>
    <dc:creator>
     <cc:Agent>
      <dc:title>Matplotlib v3.4.3, https://matplotlib.org/</dc:title>
     </cc:Agent>
    </dc:creator>
   </cc:Work>
  </rdf:RDF>
 </metadata>
 <defs>
  <style type="text/css">*{stroke-linecap:butt;stroke-linejoin:round;}</style>
 </defs>
 <g id="figure_1">
  <g id="patch_1">
   <path d="M 0 345.6
L 460.8 345.6
L 460.8 0
L 0 0
z
" style="fill:#ffffff;"/>
  </g>
  <g id="axes_1">
   <g id="patch_2">
    <path d="M 57.6 307.584
L 414.72 307.584
L 414.72 41.472
L 57.6 41.472
z
" style="fill:#ffffff;"/>
   </g>
   <g id="matplotlib.axis_1">
    <g id="xtick_1">
     <g id="line2d_1">
      <path clip-path="url(#p328c958b42)" d="M 57.6 307.584
L 57.6 41.472
" style="fill:none;stroke:#b0b0b0;stroke-linecap:square;stroke-width:0.8;"/>
     </g>
     <g id="line2d_2">
      <defs>
       <path d="M 0 0
L 0 3.5
" id="mc66235de57" style="stroke:#000000;stroke-width:0.8;"/>
      </defs>
      <g>
       <use style="stroke:#000000;stroke-width:0.8;" x="57.6" xlink:href="#mc66235de57" y="307.584"/>
      </g>
     </g>
     <g id="text_1">
      <!-- 0 -->
      <g transform="translate(54.41875 322.182437)scale(0.1 -0.1)">
       <defs>
        <path d="M 2034 4250
Q 1547 4250 1301 3770
Q 1056 3291 1056 2328
Q 1056 1369 1301 889
Q 1547 409 2034 409
Q 2525 409 2770 889
Q 3016 1369 3016 2328
Q 3016 3291 2770 3770
Q 2525 4250 2034 4250
z
M 2034 4750
Q 2819 4750 3233 4129
Q 3647 3509 3647 2328
Q 3647 1150 3233 529
Q 2819 -91 2034 -91
Q 1250 -91 836 529
Q 422 1150 422 2328
Q 422 3509 836 4129
Q 1250 4750 2034 4750
z
" id="DejaVuSans-30" transform="scale(0.015625)"/>
       </defs>
       <use xlink:href="#DejaVuSans-30"/>
      </g>
     </g>
    </g>
    <g id="xtick_2">
     <g id="line2d_3">
      <path clip-path="url(#p328c958b42)" d="M 100.201454 307.584
L 100.201454 41.472
" style="fill:none;stroke:#b0b0b0;stroke-linecap:square;stroke-width:0.8;"/>
     </g>
     <g id="line2d_4">
      <g>
       <use style="stroke:#000000;stroke-width:0.8;" x="100.201454" xlink:href="#mc66235de57" y="307.584"/>
      </g>
     </g>
     <g id="text_2">
      <!-- 64 -->
      <g transform="translate(93.838954 322.182437)scale(0.1 -0.1)">
       <defs>
        <path d="M 2113 2584
Q 1688 2584 1439 2293
Q 1191 2003 1191 1497
Q 1191 994 1439 701
Q 1688 409 2113 409
Q 2538 409 2786 701
Q 3034 994 3034 1497
Q 3034 2003 2786 2293
Q 2538 2584 2113 2584
z
M 3366 4563
L 3366 3988
Q 3128 4100 2886 4159
Q 2644 4219 2406 4219
Q 1781 4219 1451 3797
Q 1122 3375 1075 2522
Q 1259 2794 1537 2939
Q 1816 3084 2150 3084
Q 2853 3084 3261 2657
Q 3669 2231 3669 1497
Q 3669 778 3244 343
Q 2819 -91 2113 -91
Q 1303 -91 875 529
Q 447 1150 447 2328
Q 447 3434 972 4092
Q 1497 4750 2381 4750
Q 2619 4750 2861 4703
Q 3103 4656 3366 4563
z
" id="DejaVuSans-36" transform="scale(0.015625)"/>
        <path d="M 2419 4116
L 825 1625
L 2419 1625
L 2419 4116
z
M 2253 4666
L 3047 4666
L 3047 1625
L 3713 1625
L 3713 1100
L 3047 1100
L 3047 0
L 2419 0
L 2419 1100
L 313 1100
L 313 1709
L 2253 4666
z
" id="DejaVuSans-34" transform="scale(0.015625)"/>
       </defs>
       <use xlink:href="#DejaVuSans-36"/>
       <use x="63.623047" xlink:href="#DejaVuSans-34"/>
      </g>
     </g>
    </g>
    <g id="xtick_3">
     <g id="line2d_5">
      <path clip-path="url(#p328c958b42)" d="M 142.802908 307.584
L 142.802908 41.472
" style="fill:none;stroke:#b0b0b0;stroke-linecap:square;stroke-width:0.8;"/>
     </g>
     <g id="line2d_6">
      <g>
       <use style="stroke:#000000;stroke-width:0.8;" x="142.802908" xlink:href="#mc66235de57" y="307.584"/>
      </g>
     </g>
     <g id="text_3">
      <!-- 128 -->
      <g transform="translate(133.259158 322.182437)scale(0.1 -0.1)">
       <defs>
        <path d="M 794 531
L 1825 531
L 1825 4091
L 703 3866
L 703 4441
L 1819 4666
L 2450 4666
L 2450 531
L 3481 531
L 3481 0
L 794 0
L 794 531
z
" id="DejaVuSans-31" transform="scale(0.015625)"/>
        <path d="M 1228 531
L 3431 531
L 3431 0
L 469 0
L 469 531
Q 828 903 1448 1529
Q 2069 2156 2228 2338
Q 2531 2678 2651 2914
Q 2772 3150 2772 3378
Q 2772 3750 2511 3984
Q 2250 4219 1831 4219
Q 1534 4219 1204 4116
Q 875 4013 500 3803
L 500 4441
Q 881 4594 1212 4672
Q 1544 4750 1819 4750
Q 2544 4750 2975 4387
Q 3406 4025 3406 3419
Q 3406 3131 3298 2873
Q 3191 2616 2906 2266
Q 2828 2175 2409 1742
Q 1991 1309 1228 531
z
" id="DejaVuSans-32" transform="scale(0.015625)"/>
        <path d="M 2034 2216
Q 1584 2216 1326 1975
Q 1069 1734 1069 1313
Q 1069 891 1326 650
Q 1584 409 2034 409
Q 2484 409 2743 651
Q 3003 894 3003 1313
Q 3003 1734 2745 1975
Q 2488 2216 2034 2216
z
M 1403 2484
Q 997 2584 770 2862
Q 544 3141 544 3541
Q 544 4100 942 4425
Q 1341 4750 2034 4750
Q 2731 4750 3128 4425
Q 3525 4100 3525 3541
Q 3525 3141 3298 2862
Q 3072 2584 2669 2484
Q 3125 2378 3379 2068
Q 3634 1759 3634 1313
Q 3634 634 3220 271
Q 2806 -91 2034 -91
Q 1263 -91 848 271
Q 434 634 434 1313
Q 434 1759 690 2068
Q 947 2378 1403 2484
z
M 1172 3481
Q 1172 3119 1398 2916
Q 1625 2713 2034 2713
Q 2441 2713 2670 2916
Q 2900 3119 2900 3481
Q 2900 3844 2670 4047
Q 2441 4250 2034 4250
Q 1625 4250 1398 4047
Q 1172 3844 1172 3481
z
" id="DejaVuSans-38" transform="scale(0.015625)"/>
       </defs>
       <use xlink:href="#DejaVuSans-31"/>
       <use x="63.623047" xlink:href="#DejaVuSans-32"/>
       <use x="127.246094" xlink:href="#DejaVuSans-38"/>
      </g>
     </g>
    </g>
    <g id="xtick_4">
     <g id="line2d_7">
      <path clip-path="url(#p328c958b42)" d="M 185.404362 307.584
L 185.404362 41.472
" style="fill:none;stroke:#b0b0b0;stroke-linecap:square;stroke-width:0.8;"/>
     </g>
     <g id="line2d_8">
      <g>
       <use style="stroke:#000000;stroke-width:0.8;" x="185.404362" xlink:href="#mc66235de57" y="307.584"/>
      </g>
     </g>
     <g id="text_4">
      <!-- 192 -->
      <g transform="translate(175.860612 322.182437)scale(0.1 -0.1)">
       <defs>
        <path d="M 703 97
L 703 672
Q 941 559 1184 500
Q 1428 441 1663 441
Q 2288 441 2617 861
Q 2947 1281 2994 2138
Q 2813 1869 2534 1725
Q 2256 1581 1919 1581
Q 1219 1581 811 2004
Q 403 2428 403 3163
Q 403 3881 828 4315
Q 1253 4750 1959 4750
Q 2769 4750 3195 4129
Q 3622 3509 3622 2328
Q 3622 1225 3098 567
Q 2575 -91 1691 -91
Q 1453 -91 1209 -44
Q 966 3 703 97
z
M 1959 2075
Q 2384 2075 2632 2365
Q 2881 2656 2881 3163
Q 2881 3666 2632 3958
Q 2384 4250 1959 4250
Q 1534 4250 1286 3958
Q 1038 3666 1038 3163
Q 1038 2656 1286 2365
Q 1534 2075 1959 2075
z
" id="DejaVuSans-39" transform="scale(0.015625)"/>
       </defs>
       <use xlink:href="#DejaVuSans-31"/>
       <use x="63.623047" xlink:href="#DejaVuSans-39"/>
       <use x="127.246094" xlink:href="#DejaVuSans-32"/>
      </g>
     </g>
    </g>
    <g id="xtick_5">
     <g id="line2d_9">
      <path clip-path="url(#p328c958b42)" d="M 228.005815 307.584
L 228.005815 41.472
" style="fill:none;stroke:#b0b0b0;stroke-linecap:square;stroke-width:0.8;"/>
     </g>
     <g id="line2d_10">
      <g>
       <use style="stroke:#000000;stroke-width:0.8;" x="228.005815" xlink:href="#mc66235de57" y="307.584"/>
      </g>
     </g>
     <g id="text_5">
      <!-- 256 -->
      <g transform="translate(218.462065 322.182437)scale(0.1 -0.1)">
       <defs>
        <path d="M 691 4666
L 3169 4666
L 3169 4134
L 1269 4134
L 1269 2991
Q 1406 3038 1543 3061
Q 1681 3084 1819 3084
Q 2600 3084 3056 2656
Q 3513 2228 3513 1497
Q 3513 744 3044 326
Q 2575 -91 1722 -91
Q 1428 -91 1123 -41
Q 819 9 494 109
L 494 744
Q 775 591 1075 516
Q 1375 441 1709 441
Q 2250 441 2565 725
Q 2881 1009 2881 1497
Q 2881 1984 2565 2268
Q 2250 2553 1709 2553
Q 1456 2553 1204 2497
Q 953 2441 691 2322
L 691 4666
z
" id="DejaVuSans-35" transform="scale(0.015625)"/>
       </defs>
       <use xlink:href="#DejaVuSans-32"/>
       <use x="63.623047" xlink:href="#DejaVuSans-35"/>
       <use x="127.246094" xlink:href="#DejaVuSans-36"/>
      </g>
     </g>
    </g>
    <g id="xtick_6">
     <g id="line2d_11">
      <path clip-path="url(#p328c958b42)" d="M 270.607269 307.584
L 270.607269 41.472
" style="fill:none;stroke:#b0b0b0;stroke-linecap:square;stroke-width:0.8;"/>
     </g>
     <g id="line2d_12">
      <g>
       <use style="stroke:#000000;stroke-width:0.8;" x="270.607269" xlink:href="#mc66235de57" y="307.584"/>
      </g>
     </g>
     <g id="text_6">
      <!-- 320 -->
      <g transform="translate(261.063519 322.182437)scale(0.1 -0.1)">
       <defs>
        <path d="M 2597 2516
Q 3050 2419 3304 2112
Q 3559 1806 3559 1356
Q 3559 666 3084 287
Q 2609 -91 1734 -91
Q 1441 -91 1130 -33
Q 819 25 488 141
L 488 750
Q 750 597 1062 519
Q 1375 441 1716 441
Q 2309 441 2620 675
Q 2931 909 2931 1356
Q 2931 1769 2642 2001
Q 2353 2234 1838 2234
L 1294 2234
L 1294 2753
L 1863 2753
Q 2328 2753 2575 2939
Q 2822 3125 2822 3475
Q 2822 3834 2567 4026
Q 2313 4219 1838 4219
Q 1578 4219 1281 4162
Q 984 4106 628 3988
L 628 4550
Q 988 4650 1302 4700
Q 1616 4750 1894 4750
Q 2613 4750 3031 4423
Q 3450 4097 3450 3541
Q 3450 3153 3228 2886
Q 3006 2619 2597 2516
z
" id="DejaVuSans-33" transform="scale(0.015625)"/>
       </defs>
       <use xlink:href="#DejaVuSans-33"/>
       <use x="63.623047" xlink:href="#DejaVuSans-32"/>
       <use x="127.246094" xlink:href="#DejaVuSans-30"/>
      </g>
     </g>
    </g>
    <g id="xtick_7">
     <g id="line2d_13">
      <path clip-path="url(#p328c958b42)" d="M 313.208723 307.584
L 313.208723 41.472
" style="fill:none;stroke:#b0b0b0;stroke-linecap:square;stroke-width:0.8;"/>
     </g>
     <g id="line2d_14">
      <g>
       <use style="stroke:#000000;stroke-width:0.8;" x="313.208723" xlink:href="#mc66235de57" y="307.584"/>
      </g>
     </g>
     <g id="text_7">
      <!-- 384 -->
      <g transform="translate(303.664973 322.182437)scale(0.1 -0.1)">
       <use xlink:href="#DejaVuSans-33"/>
       <use x="63.623047" xlink:href="#DejaVuSans-38"/>
       <use x="127.246094" xlink:href="#DejaVuSans-34"/>
      </g>
     </g>
    </g>
    <g id="xtick_8">
     <g id="line2d_15">
      <path clip-path="url(#p328c958b42)" d="M 355.810177 307.584
L 355.810177 41.472
" style="fill:none;stroke:#b0b0b0;stroke-linecap:square;stroke-width:0.8;"/>
     </g>
     <g id="line2d_16">
      <g>
       <use style="stroke:#000000;stroke-width:0.8;" x="355.810177" xlink:href="#mc66235de57" y="307.584"/>
      </g>
     </g>
     <g id="text_8">
      <!-- 448 -->
      <g transform="translate(346.266427 322.182437)scale(0.1 -0.1)">
       <use xlink:href="#DejaVuSans-34"/>
       <use x="63.623047" xlink:href="#DejaVuSans-34"/>
       <use x="127.246094" xlink:href="#DejaVuSans-38"/>
      </g>
     </g>
    </g>
    <g id="xtick_9">
     <g id="line2d_17">
      <path clip-path="url(#p328c958b42)" d="M 398.411631 307.584
L 398.411631 41.472
" style="fill:none;stroke:#b0b0b0;stroke-linecap:square;stroke-width:0.8;"/>
     </g>
     <g id="line2d_18">
      <g>
       <use style="stroke:#000000;stroke-width:0.8;" x="398.411631" xlink:href="#mc66235de57" y="307.584"/>
      </g>
     </g>
     <g id="text_9">
      <!-- 512 -->
      <g transform="translate(388.867881 322.182437)scale(0.1 -0.1)">
       <use xlink:href="#DejaVuSans-35"/>
       <use x="63.623047" xlink:href="#DejaVuSans-31"/>
       <use x="127.246094" xlink:href="#DejaVuSans-32"/>
      </g>
     </g>
    </g>
    <g id="text_10">
     <!-- string length [in character] -->
     <g transform="translate(168.700625 335.860562)scale(0.1 -0.1)">
      <defs>
       <path d="M 2834 3397
L 2834 2853
Q 2591 2978 2328 3040
Q 2066 3103 1784 3103
Q 1356 3103 1142 2972
Q 928 2841 928 2578
Q 928 2378 1081 2264
Q 1234 2150 1697 2047
L 1894 2003
Q 2506 1872 2764 1633
Q 3022 1394 3022 966
Q 3022 478 2636 193
Q 2250 -91 1575 -91
Q 1294 -91 989 -36
Q 684 19 347 128
L 347 722
Q 666 556 975 473
Q 1284 391 1588 391
Q 1994 391 2212 530
Q 2431 669 2431 922
Q 2431 1156 2273 1281
Q 2116 1406 1581 1522
L 1381 1569
Q 847 1681 609 1914
Q 372 2147 372 2553
Q 372 3047 722 3315
Q 1072 3584 1716 3584
Q 2034 3584 2315 3537
Q 2597 3491 2834 3397
z
" id="DejaVuSans-73" transform="scale(0.015625)"/>
       <path d="M 1172 4494
L 1172 3500
L 2356 3500
L 2356 3053
L 1172 3053
L 1172 1153
Q 1172 725 1289 603
Q 1406 481 1766 481
L 2356 481
L 2356 0
L 1766 0
Q 1100 0 847 248
Q 594 497 594 1153
L 594 3053
L 172 3053
L 172 3500
L 594 3500
L 594 4494
L 1172 4494
z
" id="DejaVuSans-74" transform="scale(0.015625)"/>
       <path d="M 2631 2963
Q 2534 3019 2420 3045
Q 2306 3072 2169 3072
Q 1681 3072 1420 2755
Q 1159 2438 1159 1844
L 1159 0
L 581 0
L 581 3500
L 1159 3500
L 1159 2956
Q 1341 3275 1631 3429
Q 1922 3584 2338 3584
Q 2397 3584 2469 3576
Q 2541 3569 2628 3553
L 2631 2963
z
" id="DejaVuSans-72" transform="scale(0.015625)"/>
       <path d="M 603 3500
L 1178 3500
L 1178 0
L 603 0
L 603 3500
z
M 603 4863
L 1178 4863
L 1178 4134
L 603 4134
L 603 4863
z
" id="DejaVuSans-69" transform="scale(0.015625)"/>
       <path d="M 3513 2113
L 3513 0
L 2938 0
L 2938 2094
Q 2938 2591 2744 2837
Q 2550 3084 2163 3084
Q 1697 3084 1428 2787
Q 1159 2491 1159 1978
L 1159 0
L 581 0
L 581 3500
L 1159 3500
L 1159 2956
Q 1366 3272 1645 3428
Q 1925 3584 2291 3584
Q 2894 3584 3203 3211
Q 3513 2838 3513 2113
z
" id="DejaVuSans-6e" transform="scale(0.015625)"/>
       <path d="M 2906 1791
Q 2906 2416 2648 2759
Q 2391 3103 1925 3103
Q 1463 3103 1205 2759
Q 947 2416 947 1791
Q 947 1169 1205 825
Q 1463 481 1925 481
Q 2391 481 2648 825
Q 2906 1169 2906 1791
z
M 3481 434
Q 3481 -459 3084 -895
Q 2688 -1331 1869 -1331
Q 1566 -1331 1297 -1286
Q 1028 -1241 775 -1147
L 775 -588
Q 1028 -725 1275 -790
Q 1522 -856 1778 -856
Q 2344 -856 2625 -561
Q 2906 -266 2906 331
L 2906 616
Q 2728 306 2450 153
Q 2172 0 1784 0
Q 1141 0 747 490
Q 353 981 353 1791
Q 353 2603 747 3093
Q 1141 3584 1784 3584
Q 2172 3584 2450 3431
Q 2728 3278 2906 2969
L 2906 3500
L 3481 3500
L 3481 434
z
" id="DejaVuSans-67" transform="scale(0.015625)"/>
       <path id="DejaVuSans-20" transform="scale(0.015625)"/>
       <path d="M 603 4863
L 1178 4863
L 1178 0
L 603 0
L 603 4863
z
" id="DejaVuSans-6c" transform="scale(0.015625)"/>
       <path d="M 3597 1894
L 3597 1613
L 953 1613
Q 991 1019 1311 708
Q 1631 397 2203 397
Q 2534 397 2845 478
Q 3156 559 3463 722
L 3463 178
Q 3153 47 2828 -22
Q 2503 -91 2169 -91
Q 1331 -91 842 396
Q 353 884 353 1716
Q 353 2575 817 3079
Q 1281 3584 2069 3584
Q 2775 3584 3186 3129
Q 3597 2675 3597 1894
z
M 3022 2063
Q 3016 2534 2758 2815
Q 2500 3097 2075 3097
Q 1594 3097 1305 2825
Q 1016 2553 972 2059
L 3022 2063
z
" id="DejaVuSans-65" transform="scale(0.015625)"/>
       <path d="M 3513 2113
L 3513 0
L 2938 0
L 2938 2094
Q 2938 2591 2744 2837
Q 2550 3084 2163 3084
Q 1697 3084 1428 2787
Q 1159 2491 1159 1978
L 1159 0
L 581 0
L 581 4863
L 1159 4863
L 1159 2956
Q 1366 3272 1645 3428
Q 1925 3584 2291 3584
Q 2894 3584 3203 3211
Q 3513 2838 3513 2113
z
" id="DejaVuSans-68" transform="scale(0.015625)"/>
       <path d="M 550 4863
L 1875 4863
L 1875 4416
L 1125 4416
L 1125 -397
L 1875 -397
L 1875 -844
L 550 -844
L 550 4863
z
" id="DejaVuSans-5b" transform="scale(0.015625)"/>
       <path d="M 3122 3366
L 3122 2828
Q 2878 2963 2633 3030
Q 2388 3097 2138 3097
Q 1578 3097 1268 2742
Q 959 2388 959 1747
Q 959 1106 1268 751
Q 1578 397 2138 397
Q 2388 397 2633 464
Q 2878 531 3122 666
L 3122 134
Q 2881 22 2623 -34
Q 2366 -91 2075 -91
Q 1284 -91 818 406
Q 353 903 353 1747
Q 353 2603 823 3093
Q 1294 3584 2113 3584
Q 2378 3584 2631 3529
Q 2884 3475 3122 3366
z
" id="DejaVuSans-63" transform="scale(0.015625)"/>
       <path d="M 2194 1759
Q 1497 1759 1228 1600
Q 959 1441 959 1056
Q 959 750 1161 570
Q 1363 391 1709 391
Q 2188 391 2477 730
Q 2766 1069 2766 1631
L 2766 1759
L 2194 1759
z
M 3341 1997
L 3341 0
L 2766 0
L 2766 531
Q 2569 213 2275 61
Q 1981 -91 1556 -91
Q 1019 -91 701 211
Q 384 513 384 1019
Q 384 1609 779 1909
Q 1175 2209 1959 2209
L 2766 2209
L 2766 2266
Q 2766 2663 2505 2880
Q 2244 3097 1772 3097
Q 1472 3097 1187 3025
Q 903 2953 641 2809
L 641 3341
Q 956 3463 1253 3523
Q 1550 3584 1831 3584
Q 2591 3584 2966 3190
Q 3341 2797 3341 1997
z
" id="DejaVuSans-61" transform="scale(0.015625)"/>
       <path d="M 1947 4863
L 1947 -844
L 622 -844
L 622 -397
L 1369 -397
L 1369 4416
L 622 4416
L 622 4863
L 1947 4863
z
" id="DejaVuSans-5d" transform="scale(0.015625)"/>
      </defs>
      <use xlink:href="#DejaVuSans-73"/>
      <use x="52.099609" xlink:href="#DejaVuSans-74"/>
      <use x="91.308594" xlink:href="#DejaVuSans-72"/>
      <use x="132.421875" xlink:href="#DejaVuSans-69"/>
      <use x="160.205078" xlink:href="#DejaVuSans-6e"/>
      <use x="223.583984" xlink:href="#DejaVuSans-67"/>
      <use x="287.060547" xlink:href="#DejaVuSans-20"/>
      <use x="318.847656" xlink:href="#DejaVuSans-6c"/>
      <use x="346.630859" xlink:href="#DejaVuSans-65"/>
      <use x="408.154297" xlink:href="#DejaVuSans-6e"/>
      <use x="471.533203" xlink:href="#DejaVuSans-67"/>
      <use x="535.009766" xlink:href="#DejaVuSans-74"/>
      <use x="574.21875" xlink:href="#DejaVuSans-68"/>
      <use x="637.597656" xlink:href="#DejaVuSans-20"/>
      <use x="669.384766" xlink:href="#DejaVuSans-5b"/>
      <use x="708.398438" xlink:href="#DejaVuSans-69"/>
      <use x="736.181641" xlink:href="#DejaVuSans-6e"/>
      <use x="799.560547" xlink:href="#DejaVuSans-20"/>
      <use x="831.347656" xlink:href="#DejaVuSans-63"/>
      <use x="886.328125" xlink:href="#DejaVuSans-68"/>
      <use x="949.707031" xlink:href="#DejaVuSans-61"/>
      <use x="1010.986328" xlink:href="#DejaVuSans-72"/>
      <use x="1052.099609" xlink:href="#DejaVuSans-61"/>
      <use x="1113.378906" xlink:href="#DejaVuSans-63"/>
      <use x="1168.359375" xlink:href="#DejaVuSans-74"/>
      <use x="1207.568359" xlink:href="#DejaVuSans-65"/>
      <use x="1269.091797" xlink:href="#DejaVuSans-72"/>
      <use x="1310.205078" xlink:href="#DejaVuSans-5d"/>
     </g>
    </g>
   </g>
   <g id="matplotlib.axis_2">
    <g id="ytick_1">
     <g id="line2d_19">
      <path clip-path="url(#p328c958b42)" d="M 57.6 307.584
L 414.72 307.584
" style="fill:none;stroke:#b0b0b0;stroke-linecap:square;stroke-width:0.8;"/>
     </g>
     <g id="line2d_20">
      <defs>
       <path d="M 0 0
L -3.5 0
" id="m193678f5aa" style="stroke:#000000;stroke-width:0.8;"/>
      </defs>
      <g>
       <use style="stroke:#000000;stroke-width:0.8;" x="57.6" xlink:href="#m193678f5aa" y="307.584"/>
      </g>
     </g>
     <g id="text_11">
      <!-- 0 -->
      <g transform="translate(44.2375 311.383219)scale(0.1 -0.1)">
       <use xlink:href="#DejaVuSans-30"/>
      </g>
     </g>
    </g>
    <g id="ytick_2">
     <g id="line2d_21">
      <path clip-path="url(#p328c958b42)" d="M 57.6 273.05257
L 414.72 273.05257
" style="fill:none;stroke:#b0b0b0;stroke-linecap:square;stroke-width:0.8;"/>
     </g>
     <g id="line2d_22">
      <g>
       <use style="stroke:#000000;stroke-width:0.8;" x="57.6" xlink:href="#m193678f5aa" y="273.05257"/>
      </g>
     </g>
     <g id="text_12">
      <!-- 10000 -->
      <g transform="translate(18.7875 276.851789)scale(0.1 -0.1)">
       <use xlink:href="#DejaVuSans-31"/>
       <use x="63.623047" xlink:href="#DejaVuSans-30"/>
       <use x="127.246094" xlink:href="#DejaVuSans-30"/>
       <use x="190.869141" xlink:href="#DejaVuSans-30"/>
       <use x="254.492188" xlink:href="#DejaVuSans-30"/>
      </g>
     </g>
    </g>
    <g id="ytick_3">
     <g id="line2d_23">
      <path clip-path="url(#p328c958b42)" d="M 57.6 238.52114
L 414.72 238.52114
" style="fill:none;stroke:#b0b0b0;stroke-linecap:square;stroke-width:0.8;"/>
     </g>
     <g id="line2d_24">
      <g>
       <use style="stroke:#000000;stroke-width:0.8;" x="57.6" xlink:href="#m193678f5aa" y="238.52114"/>
      </g>
     </g>
     <g id="text_13">
      <!-- 20000 -->
      <g transform="translate(18.7875 242.320359)scale(0.1 -0.1)">
       <use xlink:href="#DejaVuSans-32"/>
       <use x="63.623047" xlink:href="#DejaVuSans-30"/>
       <use x="127.246094" xlink:href="#DejaVuSans-30"/>
       <use x="190.869141" xlink:href="#DejaVuSans-30"/>
       <use x="254.492188" xlink:href="#DejaVuSans-30"/>
      </g>
     </g>
    </g>
    <g id="ytick_4">
     <g id="line2d_25">
      <path clip-path="url(#p328c958b42)" d="M 57.6 203.98971
L 414.72 203.98971
" style="fill:none;stroke:#b0b0b0;stroke-linecap:square;stroke-width:0.8;"/>
     </g>
     <g id="line2d_26">
      <g>
       <use style="stroke:#000000;stroke-width:0.8;" x="57.6" xlink:href="#m193678f5aa" y="203.98971"/>
      </g>
     </g>
     <g id="text_14">
      <!-- 30000 -->
      <g transform="translate(18.7875 207.788929)scale(0.1 -0.1)">
       <use xlink:href="#DejaVuSans-33"/>
       <use x="63.623047" xlink:href="#DejaVuSans-30"/>
       <use x="127.246094" xlink:href="#DejaVuSans-30"/>
       <use x="190.869141" xlink:href="#DejaVuSans-30"/>
       <use x="254.492188" xlink:href="#DejaVuSans-30"/>
      </g>
     </g>
    </g>
    <g id="ytick_5">
     <g id="line2d_27">
      <path clip-path="url(#p328c958b42)" d="M 57.6 169.45828
L 414.72 169.45828
" style="fill:none;stroke:#b0b0b0;stroke-linecap:square;stroke-width:0.8;"/>
     </g>
     <g id="line2d_28">
      <g>
       <use style="stroke:#000000;stroke-width:0.8;" x="57.6" xlink:href="#m193678f5aa" y="169.45828"/>
      </g>
     </g>
     <g id="text_15">
      <!-- 40000 -->
      <g transform="translate(18.7875 173.257499)scale(0.1 -0.1)">
       <use xlink:href="#DejaVuSans-34"/>
       <use x="63.623047" xlink:href="#DejaVuSans-30"/>
       <use x="127.246094" xlink:href="#DejaVuSans-30"/>
       <use x="190.869141" xlink:href="#DejaVuSans-30"/>
       <use x="254.492188" xlink:href="#DejaVuSans-30"/>
      </g>
     </g>
    </g>
    <g id="ytick_6">
     <g id="line2d_29">
      <path clip-path="url(#p328c958b42)" d="M 57.6 134.92685
L 414.72 134.92685
" style="fill:none;stroke:#b0b0b0;stroke-linecap:square;stroke-width:0.8;"/>
     </g>
     <g id="line2d_30">
      <g>
       <use style="stroke:#000000;stroke-width:0.8;" x="57.6" xlink:href="#m193678f5aa" y="134.92685"/>
      </g>
     </g>
     <g id="text_16">
      <!-- 50000 -->
      <g transform="translate(18.7875 138.726069)scale(0.1 -0.1)">
       <use xlink:href="#DejaVuSans-35"/>
       <use x="63.623047" xlink:href="#DejaVuSans-30"/>
       <use x="127.246094" xlink:href="#DejaVuSans-30"/>
       <use x="190.869141" xlink:href="#DejaVuSans-30"/>
       <use x="254.492188" xlink:href="#DejaVuSans-30"/>
      </g>
     </g>
    </g>
    <g id="ytick_7">
     <g id="line2d_31">
      <path clip-path="url(#p328c958b42)" d="M 57.6 100.39542
L 414.72 100.39542
" style="fill:none;stroke:#b0b0b0;stroke-linecap:square;stroke-width:0.8;"/>
     </g>
     <g id="line2d_32">
      <g>
       <use style="stroke:#000000;stroke-width:0.8;" x="57.6" xlink:href="#m193678f5aa" y="100.39542"/>
      </g>
     </g>
     <g id="text_17">
      <!-- 60000 -->
      <g transform="translate(18.7875 104.194639)scale(0.1 -0.1)">
       <use xlink:href="#DejaVuSans-36"/>
       <use x="63.623047" xlink:href="#DejaVuSans-30"/>
       <use x="127.246094" xlink:href="#DejaVuSans-30"/>
       <use x="190.869141" xlink:href="#DejaVuSans-30"/>
       <use x="254.492188" xlink:href="#DejaVuSans-30"/>
      </g>
     </g>
    </g>
    <g id="ytick_8">
     <g id="line2d_33">
      <path clip-path="url(#p328c958b42)" d="M 57.6 65.863991
L 414.72 65.863991
" style="fill:none;stroke:#b0b0b0;stroke-linecap:square;stroke-width:0.8;"/>
     </g>
     <g id="line2d_34">
      <g>
       <use style="stroke:#000000;stroke-width:0.8;" x="57.6" xlink:href="#m193678f5aa" y="65.863991"/>
      </g>
     </g>
     <g id="text_18">
      <!-- 70000 -->
      <g transform="translate(18.7875 69.663209)scale(0.1 -0.1)">
       <defs>
        <path d="M 525 4666
L 3525 4666
L 3525 4397
L 1831 0
L 1172 0
L 2766 4134
L 525 4134
L 525 4666
z
" id="DejaVuSans-37" transform="scale(0.015625)"/>
       </defs>
       <use xlink:href="#DejaVuSans-37"/>
       <use x="63.623047" xlink:href="#DejaVuSans-30"/>
       <use x="127.246094" xlink:href="#DejaVuSans-30"/>
       <use x="190.869141" xlink:href="#DejaVuSans-30"/>
       <use x="254.492188" xlink:href="#DejaVuSans-30"/>
      </g>
     </g>
    </g>
    <g id="text_19">
     <!-- runtime [ns] -->
     <g transform="translate(12.707812 205.481125)rotate(-90)scale(0.1 -0.1)">
      <defs>
       <path d="M 544 1381
L 544 3500
L 1119 3500
L 1119 1403
Q 1119 906 1312 657
Q 1506 409 1894 409
Q 2359 409 2629 706
Q 2900 1003 2900 1516
L 2900 3500
L 3475 3500
L 3475 0
L 2900 0
L 2900 538
Q 2691 219 2414 64
Q 2138 -91 1772 -91
Q 1169 -91 856 284
Q 544 659 544 1381
z
M 1991 3584
L 1991 3584
z
" id="DejaVuSans-75" transform="scale(0.015625)"/>
       <path d="M 3328 2828
Q 3544 3216 3844 3400
Q 4144 3584 4550 3584
Q 5097 3584 5394 3201
Q 5691 2819 5691 2113
L 5691 0
L 5113 0
L 5113 2094
Q 5113 2597 4934 2840
Q 4756 3084 4391 3084
Q 3944 3084 3684 2787
Q 3425 2491 3425 1978
L 3425 0
L 2847 0
L 2847 2094
Q 2847 2600 2669 2842
Q 2491 3084 2119 3084
Q 1678 3084 1418 2786
Q 1159 2488 1159 1978
L 1159 0
L 581 0
L 581 3500
L 1159 3500
L 1159 2956
Q 1356 3278 1631 3431
Q 1906 3584 2284 3584
Q 2666 3584 2933 3390
Q 3200 3197 3328 2828
z
" id="DejaVuSans-6d" transform="scale(0.015625)"/>
      </defs>
      <use xlink:href="#DejaVuSans-72"/>
      <use x="41.113281" xlink:href="#DejaVuSans-75"/>
      <use x="104.492188" xlink:href="#DejaVuSans-6e"/>
      <use x="167.871094" xlink:href="#DejaVuSans-74"/>
      <use x="207.080078" xlink:href="#DejaVuSans-69"/>
      <use x="234.863281" xlink:href="#DejaVuSans-6d"/>
      <use x="332.275391" xlink:href="#DejaVuSans-65"/>
      <use x="393.798828" xlink:href="#DejaVuSans-20"/>
      <use x="425.585938" xlink:href="#DejaVuSans-5b"/>
      <use x="464.599609" xlink:href="#DejaVuSans-6e"/>
      <use x="527.978516" xlink:href="#DejaVuSans-73"/>
      <use x="580.078125" xlink:href="#DejaVuSans-5d"/>
     </g>
    </g>
   </g>
   <g id="line2d_35">
    <path clip-path="url(#p328c958b42)" d="M 58.265648 307.047173
L 86.222852 306.834708
L 88.885443 306.705165
L 99.535806 306.67212
L 100.867102 305.716741
L 115.511351 305.357417
L 119.505238 305.267923
L 122.167829 305.15109
L 130.155601 305.036799
L 131.486897 304.913923
L 138.143374 304.796707
L 142.13726 304.709082
L 143.468555 303.699219
L 144.799851 303.73989
L 147.462442 303.439272
L 152.787623 303.313421
L 154.118919 303.127621
L 156.78151 303.26033
L 159.444101 303.097647
L 163.437987 302.843598
L 176.750941 302.428688
L 179.413532 302.285572
L 182.076123 302.269794
L 184.738714 302.158812
L 186.070009 300.536489
L 191.395191 300.291168
L 202.045555 299.826908
L 203.37685 299.91645
L 227.340168 298.87028
L 228.671463 296.954245
L 231.334054 296.776405
L 237.990531 296.385909
L 241.984418 296.192818
L 243.315713 296.102316
L 244.647008 295.759156
L 245.978304 295.968217
L 257.959963 295.292208
L 259.291258 294.946316
L 260.622554 295.093171
L 263.285144 295.056482
L 264.61644 294.935621
L 265.947735 294.545794
L 267.279031 294.796773
L 269.941622 294.644162
L 271.272917 292.35101
L 273.935508 292.1266
L 280.591985 291.682819
L 291.242349 291.008922
L 296.56753 290.624323
L 303.224007 290.143995
L 304.555303 290.154691
L 307.217894 289.958578
L 311.21178 289.748223
L 312.543075 289.631629
L 313.874371 286.827742
L 315.205666 286.634988
L 317.868257 286.470866
L 320.530848 286.268998
L 323.193439 286.137729
L 324.524734 285.941282
L 328.518621 285.656443
L 332.512507 285.364793
L 355.144529 283.686019
L 356.475825 280.389142
L 361.801007 279.899845
L 365.794893 279.645796
L 367.126188 279.2988
L 368.457484 279.472227
L 369.788779 279.214964
L 371.120075 279.140529
L 372.45137 278.822693
L 384.433029 277.899686
L 385.764324 277.472882
L 389.758211 277.479788
L 391.089506 276.579515
L 392.420801 277.349431
L 393.752097 276.822533
L 395.083392 277.146077
L 396.414688 276.900804
L 397.745983 276.825555
L 397.745983 276.825555
" style="fill:none;stroke:#1f77b4;stroke-linecap:square;stroke-width:1.5;"/>
   </g>
   <g id="line2d_36">
    <path clip-path="url(#p328c958b42)" d="M 58.265648 307.196044
L 60.928239 306.975664
L 64.922125 306.634088
L 70.247307 305.785325
L 74.241193 304.803662
L 75.572488 304.309329
L 76.903784 303.988231
L 80.89767 302.040828
L 82.228966 301.670715
L 84.891556 300.475771
L 90.216738 297.63102
L 96.873215 293.307061
L 99.535806 291.33918
L 102.198397 289.293314
L 103.529692 288.189974
L 104.860988 287.253827
L 106.192283 286.053606
L 107.523579 284.200014
L 108.854874 283.272645
L 110.18617 281.8366
L 114.180056 278.186204
L 115.511351 276.534624
L 116.842647 275.142608
L 118.173942 274.486168
L 119.505238 273.229018
L 120.836533 270.609397
L 122.167829 269.359297
L 123.499124 267.387962
L 124.830419 266.164769
L 128.824306 260.89296
L 130.155601 259.634515
L 131.486897 257.414935
L 132.818192 255.576356
L 134.149487 254.223379
L 135.480783 252.253291
L 136.812078 249.482977
L 138.143374 248.276091
L 140.805965 243.407296
L 142.13726 241.994561
L 144.799851 238.481285
L 146.131146 235.733129
L 154.118919 222.694875
L 155.450214 221.527651
L 156.78151 217.930108
L 160.775396 210.976265
L 162.106692 208.405179
L 163.437987 206.086655
L 164.769282 204.029854
L 166.100578 201.724376
L 168.763169 195.748406
L 174.08835 185.137115
L 175.419646 182.085127
L 178.082237 176.78478
L 179.413532 174.22324
L 183.407418 165.140988
L 184.738714 162.686497
L 186.070009 159.226888
L 190.063896 150.575661
L 191.395191 147.019748
L 192.726486 144.244253
L 194.057782 140.836587
L 195.389077 137.866852
L 196.720373 134.39722
L 199.382964 128.092574
L 200.714259 124.296424
L 202.045555 121.15825
L 203.37685 117.461091
L 206.039441 110.826188
L 207.370736 107.48725
L 210.033327 100.056338
L 212.695918 93.037507
L 215.358509 85.49926
L 216.689804 81.670786
L 218.0211 77.416753
L 219.352395 74.02525
L 220.683691 70.172603
L 222.014986 66.760093
L 223.346281 62.76481
L 224.677577 57.468253
L 226.008872 54.125526
L 227.340168 54.48317
L 227.340168 54.48317
" style="fill:none;stroke:#ff7f0e;stroke-linecap:square;stroke-width:1.5;"/>
   </g>
   <g id="patch_3">
    <path d="M 57.6 307.584
L 57.6 41.472
" style="fill:none;stroke:#000000;stroke-linecap:square;stroke-linejoin:miter;stroke-width:0.8;"/>
   </g>
   <g id="patch_4">
    <path d="M 414.72 307.584
L 414.72 41.472
" style="fill:none;stroke:#000000;stroke-linecap:square;stroke-linejoin:miter;stroke-width:0.8;"/>
   </g>
   <g id="patch_5">
    <path d="M 57.6 307.584
L 414.72 307.584
" style="fill:none;stroke:#000000;stroke-linecap:square;stroke-linejoin:miter;stroke-width:0.8;"/>
   </g>
   <g id="patch_6">
    <path d="M 57.6 41.472
L 414.72 41.472
" style="fill:none;stroke:#000000;stroke-linecap:square;stroke-linejoin:miter;stroke-width:0.8;"/>
   </g>
   <g id="text_20">
    <!-- Performance comparison of the  -->
    <g transform="translate(138.18375 22.034625)scale(0.12 -0.12)">
     <defs>
      <path d="M 1259 4147
L 1259 2394
L 2053 2394
Q 2494 2394 2734 2622
Q 2975 2850 2975 3272
Q 2975 3691 2734 3919
Q 2494 4147 2053 4147
L 1259 4147
z
M 628 4666
L 2053 4666
Q 2838 4666 3239 4311
Q 3641 3956 3641 3272
Q 3641 2581 3239 2228
Q 2838 1875 2053 1875
L 1259 1875
L 1259 0
L 628 0
L 628 4666
z
" id="DejaVuSans-50" transform="scale(0.015625)"/>
      <path d="M 2375 4863
L 2375 4384
L 1825 4384
Q 1516 4384 1395 4259
Q 1275 4134 1275 3809
L 1275 3500
L 2222 3500
L 2222 3053
L 1275 3053
L 1275 0
L 697 0
L 697 3053
L 147 3053
L 147 3500
L 697 3500
L 697 3744
Q 697 4328 969 4595
Q 1241 4863 1831 4863
L 2375 4863
z
" id="DejaVuSans-66" transform="scale(0.015625)"/>
      <path d="M 1959 3097
Q 1497 3097 1228 2736
Q 959 2375 959 1747
Q 959 1119 1226 758
Q 1494 397 1959 397
Q 2419 397 2687 759
Q 2956 1122 2956 1747
Q 2956 2369 2687 2733
Q 2419 3097 1959 3097
z
M 1959 3584
Q 2709 3584 3137 3096
Q 3566 2609 3566 1747
Q 3566 888 3137 398
Q 2709 -91 1959 -91
Q 1206 -91 779 398
Q 353 888 353 1747
Q 353 2609 779 3096
Q 1206 3584 1959 3584
z
" id="DejaVuSans-6f" transform="scale(0.015625)"/>
      <path d="M 1159 525
L 1159 -1331
L 581 -1331
L 581 3500
L 1159 3500
L 1159 2969
Q 1341 3281 1617 3432
Q 1894 3584 2278 3584
Q 2916 3584 3314 3078
Q 3713 2572 3713 1747
Q 3713 922 3314 415
Q 2916 -91 2278 -91
Q 1894 -91 1617 61
Q 1341 213 1159 525
z
M 3116 1747
Q 3116 2381 2855 2742
Q 2594 3103 2138 3103
Q 1681 3103 1420 2742
Q 1159 2381 1159 1747
Q 1159 1113 1420 752
Q 1681 391 2138 391
Q 2594 391 2855 752
Q 3116 1113 3116 1747
z
" id="DejaVuSans-70" transform="scale(0.015625)"/>
     </defs>
     <use xlink:href="#DejaVuSans-50"/>
     <use x="56.677734" xlink:href="#DejaVuSans-65"/>
     <use x="118.201172" xlink:href="#DejaVuSans-72"/>
     <use x="159.314453" xlink:href="#DejaVuSans-66"/>
     <use x="194.519531" xlink:href="#DejaVuSans-6f"/>
     <use x="255.701172" xlink:href="#DejaVuSans-72"/>
     <use x="295.064453" xlink:href="#DejaVuSans-6d"/>
     <use x="392.476562" xlink:href="#DejaVuSans-61"/>
     <use x="453.755859" xlink:href="#DejaVuSans-6e"/>
     <use x="517.134766" xlink:href="#DejaVuSans-63"/>
     <use x="572.115234" xlink:href="#DejaVuSans-65"/>
     <use x="633.638672" xlink:href="#DejaVuSans-20"/>
     <use x="665.425781" xlink:href="#DejaVuSans-63"/>
     <use x="720.40625" xlink:href="#DejaVuSans-6f"/>
     <use x="781.587891" xlink:href="#DejaVuSans-6d"/>
     <use x="879" xlink:href="#DejaVuSans-70"/>
     <use x="942.476562" xlink:href="#DejaVuSans-61"/>
     <use x="1003.755859" xlink:href="#DejaVuSans-72"/>
     <use x="1044.869141" xlink:href="#DejaVuSans-69"/>
     <use x="1072.652344" xlink:href="#DejaVuSans-73"/>
     <use x="1124.751953" xlink:href="#DejaVuSans-69"/>
     <use x="1152.535156" xlink:href="#DejaVuSans-6f"/>
     <use x="1213.716797" xlink:href="#DejaVuSans-6e"/>
     <use x="1277.095703" xlink:href="#DejaVuSans-20"/>
     <use x="1308.882812" xlink:href="#DejaVuSans-6f"/>
     <use x="1370.064453" xlink:href="#DejaVuSans-66"/>
     <use x="1405.269531" xlink:href="#DejaVuSans-20"/>
     <use x="1437.056641" xlink:href="#DejaVuSans-74"/>
     <use x="1476.265625" xlink:href="#DejaVuSans-68"/>
     <use x="1539.644531" xlink:href="#DejaVuSans-65"/>
     <use x="1601.167969" xlink:href="#DejaVuSans-20"/>
    </g>
    <!-- InDel distance in different libraries -->
    <g transform="translate(132.280312 35.472)scale(0.12 -0.12)">
     <defs>
      <path d="M 628 4666
L 1259 4666
L 1259 0
L 628 0
L 628 4666
z
" id="DejaVuSans-49" transform="scale(0.015625)"/>
      <path d="M 1259 4147
L 1259 519
L 2022 519
Q 2988 519 3436 956
Q 3884 1394 3884 2338
Q 3884 3275 3436 3711
Q 2988 4147 2022 4147
L 1259 4147
z
M 628 4666
L 1925 4666
Q 3281 4666 3915 4102
Q 4550 3538 4550 2338
Q 4550 1131 3912 565
Q 3275 0 1925 0
L 628 0
L 628 4666
z
" id="DejaVuSans-44" transform="scale(0.015625)"/>
      <path d="M 2906 2969
L 2906 4863
L 3481 4863
L 3481 0
L 2906 0
L 2906 525
Q 2725 213 2448 61
Q 2172 -91 1784 -91
Q 1150 -91 751 415
Q 353 922 353 1747
Q 353 2572 751 3078
Q 1150 3584 1784 3584
Q 2172 3584 2448 3432
Q 2725 3281 2906 2969
z
M 947 1747
Q 947 1113 1208 752
Q 1469 391 1925 391
Q 2381 391 2643 752
Q 2906 1113 2906 1747
Q 2906 2381 2643 2742
Q 2381 3103 1925 3103
Q 1469 3103 1208 2742
Q 947 2381 947 1747
z
" id="DejaVuSans-64" transform="scale(0.015625)"/>
      <path d="M 3116 1747
Q 3116 2381 2855 2742
Q 2594 3103 2138 3103
Q 1681 3103 1420 2742
Q 1159 2381 1159 1747
Q 1159 1113 1420 752
Q 1681 391 2138 391
Q 2594 391 2855 752
Q 3116 1113 3116 1747
z
M 1159 2969
Q 1341 3281 1617 3432
Q 1894 3584 2278 3584
Q 2916 3584 3314 3078
Q 3713 2572 3713 1747
Q 3713 922 3314 415
Q 2916 -91 2278 -91
Q 1894 -91 1617 61
Q 1341 213 1159 525
L 1159 0
L 581 0
L 581 4863
L 1159 4863
L 1159 2969
z
" id="DejaVuSans-62" transform="scale(0.015625)"/>
     </defs>
     <use xlink:href="#DejaVuSans-49"/>
     <use x="29.492188" xlink:href="#DejaVuSans-6e"/>
     <use x="92.871094" xlink:href="#DejaVuSans-44"/>
     <use x="169.873047" xlink:href="#DejaVuSans-65"/>
     <use x="231.396484" xlink:href="#DejaVuSans-6c"/>
     <use x="259.179688" xlink:href="#DejaVuSans-20"/>
     <use x="290.966797" xlink:href="#DejaVuSans-64"/>
     <use x="354.443359" xlink:href="#DejaVuSans-69"/>
     <use x="382.226562" xlink:href="#DejaVuSans-73"/>
     <use x="434.326172" xlink:href="#DejaVuSans-74"/>
     <use x="473.535156" xlink:href="#DejaVuSans-61"/>
     <use x="534.814453" xlink:href="#DejaVuSans-6e"/>
     <use x="598.193359" xlink:href="#DejaVuSans-63"/>
     <use x="653.173828" xlink:href="#DejaVuSans-65"/>
     <use x="714.697266" xlink:href="#DejaVuSans-20"/>
     <use x="746.484375" xlink:href="#DejaVuSans-69"/>
     <use x="774.267578" xlink:href="#DejaVuSans-6e"/>
     <use x="837.646484" xlink:href="#DejaVuSans-20"/>
     <use x="869.433594" xlink:href="#DejaVuSans-64"/>
     <use x="932.910156" xlink:href="#DejaVuSans-69"/>
     <use x="960.693359" xlink:href="#DejaVuSans-66"/>
     <use x="995.898438" xlink:href="#DejaVuSans-66"/>
     <use x="1031.103516" xlink:href="#DejaVuSans-65"/>
     <use x="1092.626953" xlink:href="#DejaVuSans-72"/>
     <use x="1131.490234" xlink:href="#DejaVuSans-65"/>
     <use x="1193.013672" xlink:href="#DejaVuSans-6e"/>
     <use x="1256.392578" xlink:href="#DejaVuSans-74"/>
     <use x="1295.601562" xlink:href="#DejaVuSans-20"/>
     <use x="1327.388672" xlink:href="#DejaVuSans-6c"/>
     <use x="1355.171875" xlink:href="#DejaVuSans-69"/>
     <use x="1382.955078" xlink:href="#DejaVuSans-62"/>
     <use x="1446.431641" xlink:href="#DejaVuSans-72"/>
     <use x="1487.544922" xlink:href="#DejaVuSans-61"/>
     <use x="1548.824219" xlink:href="#DejaVuSans-72"/>
     <use x="1589.9375" xlink:href="#DejaVuSans-69"/>
     <use x="1617.720703" xlink:href="#DejaVuSans-65"/>
     <use x="1679.244141" xlink:href="#DejaVuSans-73"/>
    </g>
   </g>
   <g id="legend_1">
    <g id="patch_7">
     <path d="M 276.435625 78.82825
L 407.72 78.82825
Q 409.72 78.82825 409.72 76.82825
L 409.72 48.472
Q 409.72 46.472 407.72 46.472
L 276.435625 46.472
Q 274.435625 46.472 274.435625 48.472
L 274.435625 76.82825
Q 274.435625 78.82825 276.435625 78.82825
z
" style="fill:#ffffff;opacity:0.8;stroke:#cccccc;stroke-linejoin:miter;"/>
    </g>
    <g id="line2d_37">
     <path d="M 278.435625 54.570437
L 298.435625 54.570437
" style="fill:none;stroke:#1f77b4;stroke-linecap:square;stroke-width:1.5;"/>
    </g>
    <g id="line2d_38"/>
    <g id="text_21">
     <!-- rapidfuzz -->
     <g transform="translate(306.435625 58.070437)scale(0.1 -0.1)">
      <defs>
       <path d="M 353 3500
L 3084 3500
L 3084 2975
L 922 459
L 3084 459
L 3084 0
L 275 0
L 275 525
L 2438 3041
L 353 3041
L 353 3500
z
" id="DejaVuSans-7a" transform="scale(0.015625)"/>
      </defs>
      <use xlink:href="#DejaVuSans-72"/>
      <use x="41.113281" xlink:href="#DejaVuSans-61"/>
      <use x="102.392578" xlink:href="#DejaVuSans-70"/>
      <use x="165.869141" xlink:href="#DejaVuSans-69"/>
      <use x="193.652344" xlink:href="#DejaVuSans-64"/>
      <use x="257.128906" xlink:href="#DejaVuSans-66"/>
      <use x="292.333984" xlink:href="#DejaVuSans-75"/>
      <use x="355.712891" xlink:href="#DejaVuSans-7a"/>
      <use x="408.203125" xlink:href="#DejaVuSans-7a"/>
     </g>
    </g>
    <g id="line2d_39">
     <path d="M 278.435625 69.248562
L 298.435625 69.248562
" style="fill:none;stroke:#ff7f0e;stroke-linecap:square;stroke-width:1.5;"/>
    </g>
    <g id="line2d_40"/>
    <g id="text_22">
     <!-- python-Levenshtein -->
     <g transform="translate(306.435625 72.748562)scale(0.1 -0.1)">
      <defs>
       <path d="M 2059 -325
Q 1816 -950 1584 -1140
Q 1353 -1331 966 -1331
L 506 -1331
L 506 -850
L 844 -850
Q 1081 -850 1212 -737
Q 1344 -625 1503 -206
L 1606 56
L 191 3500
L 800 3500
L 1894 763
L 2988 3500
L 3597 3500
L 2059 -325
z
" id="DejaVuSans-79" transform="scale(0.015625)"/>
       <path d="M 313 2009
L 1997 2009
L 1997 1497
L 313 1497
L 313 2009
z
" id="DejaVuSans-2d" transform="scale(0.015625)"/>
       <path d="M 628 4666
L 1259 4666
L 1259 531
L 3531 531
L 3531 0
L 628 0
L 628 4666
z
" id="DejaVuSans-4c" transform="scale(0.015625)"/>
       <path d="M 191 3500
L 800 3500
L 1894 563
L 2988 3500
L 3597 3500
L 2284 0
L 1503 0
L 191 3500
z
" id="DejaVuSans-76" transform="scale(0.015625)"/>
      </defs>
      <use xlink:href="#DejaVuSans-70"/>
      <use x="63.476562" xlink:href="#DejaVuSans-79"/>
      <use x="122.65625" xlink:href="#DejaVuSans-74"/>
      <use x="161.865234" xlink:href="#DejaVuSans-68"/>
      <use x="225.244141" xlink:href="#DejaVuSans-6f"/>
      <use x="286.425781" xlink:href="#DejaVuSans-6e"/>
      <use x="349.804688" xlink:href="#DejaVuSans-2d"/>
      <use x="385.888672" xlink:href="#DejaVuSans-4c"/>
      <use x="439.851562" xlink:href="#DejaVuSans-65"/>
      <use x="501.375" xlink:href="#DejaVuSans-76"/>
      <use x="560.554688" xlink:href="#DejaVuSans-65"/>
      <use x="622.078125" xlink:href="#DejaVuSans-6e"/>
      <use x="685.457031" xlink:href="#DejaVuSans-73"/>
      <use x="737.556641" xlink:href="#DejaVuSans-68"/>
      <use x="800.935547" xlink:href="#DejaVuSans-74"/>
      <use x="840.144531" xlink:href="#DejaVuSans-65"/>
      <use x="901.667969" xlink:href="#DejaVuSans-69"/>
      <use x="929.451172" xlink:href="#DejaVuSans-6e"/>
     </g>
    </g>
   </g>
  </g>
 </g>
 <defs>
  <clipPath id="p328c958b42">
   <rect height="266.112" width="357.12" x="57.6" y="41.472"/>
  </clipPath>
 </defs>
</svg>
