<svg xmlns="http://www.w3.org/2000/svg" xmlns:xlink="http://www.w3.org/1999/xlink" height="460.8" viewBox="0 0 460.8 345.6" width="614.4" stroke-linecap="butt" stroke-linejoin="round" xmlns:v="https://vecta.io/nano"><style><![CDATA[.B{stroke-linecap:butt}.C{stroke-linejoin:round}.D{stroke-width:.8}.E{stroke-linecap:square}.F{fill:none}.G{stroke:#000}.H{clip-path:url(#n)}.I{stroke:#b0b0b0}.J{stroke-width:1.5}.K{stroke-linejoin:miter}]]></style><g fill="#fff"><path d="M0 345.6h460.8V0H0z"/><path d="M57.6 307.584h357.12V41.472H57.6z"/></g><path d="M57.6 307.584V41.472" class="D E F H I"/><defs><path d="M0 0v3.5" id="A" class="B C D G"/></defs><use x="57.6" xlink:href="#A" y="307.584" class="D G"/><g transform="matrix(.1 0 0 -.1 54.41875 322.182437)"><defs><path d="M31.781 66.406q-7.609 0-11.453-7.5Q16.5 51.422 16.5 36.375q0-14.984 3.828-22.484 3.844-7.5 11.453-7.5 7.672 0 11.5 7.5 3.844 7.5 3.844 22.484 0 15.047-3.844 22.531-3.828 7.5-11.5 7.5zm0 7.813q12.266 0 18.734-9.703 6.469-9.687 6.469-28.141 0-18.406-6.469-28.109-6.469-9.687-18.734-9.687-12.25 0-18.719 9.688-6.469 9.703-6.469 28.109 0 18.453 6.469 28.141 6.469 9.703 18.719 9.703z" id="B" class="B C"/></defs><use xlink:href="#B"/></g><g class="D"><path d="M100.201 307.584V41.472" class="E F H I"/><use x="100.201" xlink:href="#A" y="307.584" class="G"/></g><g transform="matrix(.1 0 0 -.1 93.838954 322.182437)"><defs><path d="M33.016 40.375q-6.641 0-10.531-4.547-3.875-4.531-3.875-12.437 0-7.859 3.875-12.437 3.891-4.562 10.531-4.562 6.641 0 10.516 4.563 3.875 4.578 3.875 12.438 0 7.906-3.875 12.438-3.875 4.547-10.516 4.547zm19.578 30.922v-8.984q-3.719 1.75-7.5 2.672-3.781.938-7.5.938-9.766 0-14.922-6.594-5.141-6.594-5.875-19.922 2.875 4.25 7.219 6.516 4.359 2.266 9.578 2.266 10.984 0 17.359-6.672 6.375-6.656 6.375-18.125 0-11.234-6.641-18.031-6.641-6.781-17.672-6.781-12.656 0-19.344 9.688-6.687 9.703-6.687 28.109 0 17.281 8.203 27.563 8.203 10.281 22.016 10.281 3.719 0 7.5-.734 3.781-.734 7.891-2.187z" id="C" class="B C"/><path d="M37.797 64.313L12.891 25.391h24.906zm-2.594 8.594h12.406V25.391h10.406v-8.203H47.609V0h-9.812v17.188H4.891v9.516z" id="D" class="B C"/></defs><use xlink:href="#C"/><use x="63.623" xlink:href="#D"/></g><g class="D"><path d="M142.803 307.584V41.472" class="E F H I"/><use x="142.803" xlink:href="#A" y="307.584" class="G"/></g><g transform="matrix(.1 0 0 -.1 133.259158 322.182437)"><defs><path d="M12.406 8.297h16.109v55.625l-17.531-3.516v8.984l17.438 3.516h9.859V8.297h16.109V0H12.406z" id="E" class="B C"/><path d="M19.188 8.297h34.422V0H7.328v8.297q5.609 5.813 15.297 15.594 9.703 9.797 12.188 12.641 4.734 5.313 6.609 9 1.891 3.688 1.891 7.25 0 5.813-4.078 9.469-4.078 3.672-10.625 3.672-4.641 0-9.797-1.609-5.141-1.609-11-4.891v9.969Q13.766 71.781 18.938 73q5.188 1.219 9.484 1.219 11.328 0 18.063-5.672 6.734-5.656 6.734-15.125 0-4.5-1.687-8.531-1.672-4.016-6.125-9.484-1.219-1.422-7.766-8.187-6.531-6.766-18.453-18.922z" id="F" class="B C"/><path d="M31.781 34.625q-7.031 0-11.062-3.766-4.016-3.766-4.016-10.344 0-6.594 4.016-10.359 4.031-3.766 11.063-3.766 7.031 0 11.078 3.781 4.063 3.797 4.063 10.344 0 6.578-4.031 10.344-4.016 3.766-11.109 3.766zm-9.859 4.188q-6.344 1.563-9.891 5.906Q8.5 49.078 8.5 55.328q0 8.734 6.219 13.813 6.234 5.078 17.063 5.078 10.891 0 17.094-5.078 6.203-5.078 6.203-13.812 0-6.25-3.547-10.609-3.531-4.344-9.828-5.906 7.125-1.656 11.094-6.5 3.984-4.828 3.984-11.797 0-10.609-6.469-16.281-6.469-5.656-18.531-5.656-12.047 0-18.531 5.656-6.469 5.672-6.469 16.281 0 6.969 4 11.797 4.016 4.844 11.141 6.5zm-3.609 15.578q0-5.656 3.531-8.828 3.547-3.172 9.938-3.172 6.359 0 9.938 3.172 3.594 3.172 3.594 8.828 0 5.672-3.594 8.844-3.578 3.172-9.937 3.172-6.391 0-9.937-3.172-3.531-3.172-3.531-8.844z" id="G" class="B C"/></defs><use xlink:href="#E"/><use x="63.623" xlink:href="#F"/><use x="127.246" xlink:href="#G"/></g><g class="D"><path d="M185.404 307.584V41.472" class="E F H I"/><use x="185.404" xlink:href="#A" y="307.584" class="G"/></g><g transform="matrix(.1 0 0 -.1 175.860612 322.182437)"><defs><path d="M10.984 1.516V10.5q3.719-1.766 7.516-2.687 3.813-.922 7.484-.922 9.766 0 14.906 6.563 5.156 6.563 5.891 19.953-2.828-4.203-7.187-6.453-4.344-2.25-9.609-2.25-10.937 0-17.312 6.609-6.375 6.625-6.375 18.109 0 11.219 6.641 18 6.641 6.797 17.672 6.797 12.656 0 19.313-9.703 6.672-9.687 6.672-28.141 0-17.234-8.187-27.516Q40.234-1.422 26.422-1.422q-3.719 0-7.531.734-3.797.734-7.906 2.203zm19.625 30.906q6.641 0 10.516 4.531 3.891 4.547 3.891 12.469 0 7.859-3.891 12.422-3.875 4.563-10.516 4.563-6.641 0-10.516-4.562-3.875-4.562-3.875-12.422 0-7.922 3.875-12.469 3.875-4.531 10.516-4.531z" id="H" class="B C"/></defs><use xlink:href="#E"/><use x="63.623" xlink:href="#H"/><use x="127.246" xlink:href="#F"/></g><g class="D"><path d="M228.006 307.584V41.472" class="E F H I"/><use x="228.006" xlink:href="#A" y="307.584" class="G"/></g><g transform="matrix(.1 0 0 -.1 218.462065 322.182437)"><defs><path d="M10.797 72.906h38.719v-8.312H19.828V46.734q2.141.734 4.281 1.094 2.156.359 4.313.359 12.203 0 19.328-6.687 7.141-6.687 7.141-18.109 0-11.766-7.328-18.297-7.328-6.516-20.656-6.516-4.594 0-9.359.781-4.75.781-9.828 2.344v9.922q4.391-2.391 9.078-3.562 4.688-1.172 9.906-1.172 8.453 0 13.375 4.438 4.938 4.438 4.938 12.063 0 7.609-4.937 12.047-4.922 4.453-13.375 4.453-3.953 0-7.891-.875-3.922-.875-8.016-2.734z" id="I" class="B C"/></defs><use xlink:href="#F"/><use x="63.623" xlink:href="#I"/><use x="127.246" xlink:href="#C"/></g><g class="D"><path d="M270.607 307.584V41.472" class="E F H I"/><use x="270.607" xlink:href="#A" y="307.584" class="G"/></g><g transform="matrix(.1 0 0 -.1 261.063519 322.182437)"><defs><path d="M40.578 39.313Q47.656 37.797 51.625 33q3.984-4.781 3.984-11.812 0-10.781-7.422-16.703-7.422-5.906-21.094-5.906-4.578 0-9.437.906-4.859.906-10.031 2.719v9.516q4.094-2.391 8.969-3.609 4.891-1.219 10.219-1.219 9.266 0 14.125 3.656 4.859 3.656 4.859 10.641 0 6.453-4.516 10.078-4.516 3.641-12.562 3.641h-8.5v8.109h8.891q7.266 0 11.125 2.906 3.859 2.906 3.859 8.375 0 5.609-3.984 8.609-3.969 3.016-11.391 3.016-4.062 0-8.703-.891-4.641-.875-10.203-2.719v8.781q5.625 1.563 10.531 2.344 4.906.781 9.25.781 11.234 0 17.766-5.109 6.547-5.094 6.547-13.781 0-6.062-3.469-10.234-3.469-4.172-9.859-5.781z" id="J" class="B C"/></defs><use xlink:href="#J"/><use x="63.623" xlink:href="#F"/><use x="127.246" xlink:href="#B"/></g><g class="D"><path d="M313.209 307.584V41.472" class="E F H I"/><use x="313.209" xlink:href="#A" y="307.584" class="G"/></g><g transform="matrix(.1 0 0 -.1 303.664973 322.182437)"><use xlink:href="#J"/><use x="63.623" xlink:href="#G"/><use x="127.246" xlink:href="#D"/></g><g class="D"><path d="M355.81 307.584V41.472" class="E F H I"/><use x="355.81" xlink:href="#A" y="307.584" class="G"/></g><g transform="matrix(.1 0 0 -.1 346.266427 322.182437)"><use xlink:href="#D"/><use x="63.623" xlink:href="#D"/><use x="127.246" xlink:href="#G"/></g><g class="D"><path d="M398.412 307.584V41.472" class="E F H I"/><use x="398.412" xlink:href="#A" y="307.584" class="G"/></g><g transform="matrix(.1 0 0 -.1 388.867881 322.182437)"><use xlink:href="#I"/><use x="63.623" xlink:href="#E"/><use x="127.246" xlink:href="#F"/></g><g transform="matrix(.1 0 0 -.1 168.700625 335.860562)"><defs><path d="M44.281 53.078v-8.5q-3.797 1.953-7.906 2.922-4.094.984-8.5.984-6.687 0-10.031-2.047-3.344-2.047-3.344-6.156 0-3.125 2.391-4.906 2.391-1.781 9.625-3.391l3.078-.687q9.563-2.047 13.594-5.781 4.031-3.734 4.031-10.422 0-7.625-6.031-12.078-6.031-4.437-16.578-4.437-4.391 0-9.156.859Q10.688.297 5.422 2v9.281q4.984-2.594 9.813-3.891 4.828-1.281 9.578-1.281 6.344 0 9.75 2.172 3.422 2.172 3.422 6.125 0 3.656-2.469 5.609-2.453 1.953-10.812 3.766l-3.125.734q-8.344 1.75-12.062 5.391-3.703 3.641-3.703 9.984 0 7.719 5.469 11.906Q16.75 56 26.813 56q4.969 0 9.359-.734 4.406-.719 8.109-2.187z" id="K" class="B C"/><path d="M18.313 70.219V54.688h18.5v-6.984h-18.5V18.016q0-6.687 1.828-8.594 1.828-1.906 7.453-1.906h9.219V0h-9.219Q17.188 0 13.234 3.875 9.281 7.766 9.281 18.016v29.688H2.688v6.984h6.594v15.531z" id="L" class="B C"/><path d="M41.109 46.297q-1.516.875-3.297 1.281-1.781.422-3.922.422-7.625 0-11.703-4.953-4.078-4.953-4.078-14.234V0H9.078v54.688h9.031v-8.5q2.844 4.984 7.375 7.391Q30.031 56 36.531 56q.922 0 2.047-.125 1.125-.109 2.484-.359z" id="M" class="B C"/><path d="M9.422 54.688h8.984V0H9.422zm0 21.297h8.984V64.594H9.422z" id="N" class="B C"/><path d="M54.891 33.016V0h-8.984v32.719q0 7.766-3.031 11.609-3.031 3.859-9.078 3.859-7.281 0-11.484-4.641-4.203-4.625-4.203-12.641V0H9.078v54.688h9.031v-8.5q3.234 4.938 7.594 7.375Q30.078 56 35.797 56q9.422 0 14.25-5.828 4.844-5.828 4.844-17.156z" id="O" class="B C"/><path d="M45.406 27.984q0 9.766-4.031 15.125-4.016 5.375-11.297 5.375-7.219 0-11.25-5.375-4.031-5.359-4.031-15.125 0-9.719 4.031-15.094 4.031-5.375 11.25-5.375 7.281 0 11.297 5.375 4.031 5.375 4.031 15.094zm8.984-21.203q0-13.953-6.203-20.766Q42-20.797 29.203-20.797q-4.734 0-8.937.703-4.203.703-8.156 2.172v8.734q3.953-2.141 7.813-3.156 3.859-1.031 7.859-1.031 8.844 0 13.234 4.609 4.391 4.609 4.391 13.938v4.453q-2.781-4.844-7.125-7.234Q33.938 0 27.875 0 17.828 0 11.672 7.656q-6.156 7.672-6.156 20.328 0 12.688 6.156 20.344Q17.828 56 27.875 56q6.063 0 10.406-2.391 4.344-2.391 7.125-7.219v8.297h8.984z" id="P" class="B C"/><path d="M9.422 75.984h8.984V0H9.422z" id="Q" class="B C"/><path d="M56.203 29.594v-4.391H14.891q.594-9.281 5.594-14.141 5-4.859 13.938-4.859 5.172 0 10.031 1.266 4.859 1.266 9.656 3.813v-8.5Q49.266.734 44.188-.344q-5.078-1.078-10.297-1.078-13.094 0-20.734 7.609-7.641 7.625-7.641 20.625 0 13.422 7.25 21.297Q20.016 56 32.328 56q11.031 0 17.453-7.109 6.422-7.094 6.422-19.297zm-8.984 2.641q-.094 7.359-4.125 11.75-4.031 4.406-10.672 4.406-7.516 0-12.031-4.25-4.516-4.25-5.203-11.969z" id="R" class="B C"/><path d="M54.891 33.016V0h-8.984v32.719q0 7.766-3.031 11.609-3.031 3.859-9.078 3.859-7.281 0-11.484-4.641-4.203-4.625-4.203-12.641V0H9.078v75.984h9.031V46.188q3.234 4.938 7.594 7.375Q30.078 56 35.797 56q9.422 0 14.25-5.828 4.844-5.828 4.844-17.156z" id="S" class="B C"/><path d="M8.594 75.984h20.703V69H17.578V-6.203h11.719v-6.984H8.594z" id="T" class="B C"/><path d="M48.781 52.594v-8.406q-3.812 2.109-7.641 3.156-3.828 1.047-7.734 1.047-8.75 0-13.594-5.547-4.828-5.531-4.828-15.547 0-10.016 4.828-15.562 4.844-5.531 13.594-5.531 3.906 0 7.734 1.047 3.828 1.047 7.641 3.156V2.094Q45.016.344 40.984-.531q-4.016-.891-8.562-.891-12.359 0-19.641 7.766-7.266 7.766-7.266 20.953 0 13.375 7.344 21.031Q20.219 56 33.016 56q4.141 0 8.094-.859 3.953-.844 7.672-2.547z" id="U" class="B C"/><path d="M34.281 27.484q-10.891 0-15.094-2.484-4.203-2.484-4.203-8.5 0-4.781 3.156-7.594 3.156-2.797 8.563-2.797 7.484 0 12 5.297 4.516 5.297 4.516 14.078v2zm17.922 3.719V0h-8.984v8.297Q40.141 3.328 35.547.953q-4.594-2.375-11.234-2.375-8.391 0-13.359 4.719Q6 8.016 6 15.922q0 9.219 6.172 13.906 6.188 4.688 18.438 4.688h12.609v.891q0 6.203-4.078 9.594-4.078 3.391-11.453 3.391-4.687 0-9.141-1.125-4.437-1.125-8.531-3.375v8.313q4.922 1.906 9.563 2.844 4.641.953 9.031.953 11.875 0 17.734-6.156 5.859-6.141 5.859-18.641z" id="V" class="B C"/><path d="M30.422 75.984v-89.172H9.719v6.984h11.672V69H9.719v6.984z" id="W" class="B C"/></defs><use xlink:href="#K"/><use x="52.1" xlink:href="#L"/><use x="91.309" xlink:href="#M"/><use x="132.422" xlink:href="#N"/><use x="160.205" xlink:href="#O"/><use x="223.584" xlink:href="#P"/><use x="287.061" xlink:href="#AG"/><use x="318.848" xlink:href="#Q"/><use x="346.631" xlink:href="#R"/><use x="408.154" xlink:href="#O"/><use x="471.533" xlink:href="#P"/><use x="535.01" xlink:href="#L"/><use x="574.219" xlink:href="#S"/><use x="637.598" xlink:href="#AG"/><use x="669.385" xlink:href="#T"/><use x="708.398" xlink:href="#N"/><use x="736.182" xlink:href="#O"/><use x="799.561" xlink:href="#AG"/><use x="831.348" xlink:href="#U"/><use x="886.328" xlink:href="#S"/><use x="949.707" xlink:href="#V"/><use x="1010.986" xlink:href="#M"/><use x="1052.1" xlink:href="#V"/><use x="1113.379" xlink:href="#U"/><use x="1168.359" xlink:href="#L"/><use x="1207.568" xlink:href="#R"/><use x="1269.092" xlink:href="#M"/><use x="1310.205" xlink:href="#W"/></g><path d="M57.6 307.584h357.12" class="D E F H I"/><defs><path d="M0 0h-3.5" id="X" class="B C D G"/></defs><use x="57.6" xlink:href="#X" y="307.584" class="D G"/><use xlink:href="#B" transform="matrix(.1 0 0 -.1 44.2375 311.383219)"/><g class="D"><path d="M57.6 253.466h357.12" class="E F H I"/><use x="57.6" xlink:href="#X" y="253.466" class="G"/></g><g transform="matrix(.1 0 0 -.1 37.875 257.265371)"><use xlink:href="#E"/><use x="63.623" xlink:href="#B"/></g><g class="D"><path d="M57.6 199.348h357.12" class="E F H I"/><use x="57.6" xlink:href="#X" y="199.348" class="G"/></g><g transform="matrix(.1 0 0 -.1 37.875 203.147524)"><use xlink:href="#F"/><use x="63.623" xlink:href="#B"/></g><g class="D"><path d="M57.6 145.23h357.12" class="E F H I"/><use x="57.6" xlink:href="#X" y="145.23" class="G"/></g><g transform="matrix(.1 0 0 -.1 37.875 149.029676)"><use xlink:href="#J"/><use x="63.623" xlink:href="#B"/></g><g class="D"><path d="M57.6 91.113h357.12" class="E F H I"/><use x="57.6" xlink:href="#X" y="91.113" class="G"/></g><g transform="matrix(.1 0 0 -.1 37.875 94.911829)"><use xlink:href="#D"/><use x="63.623" xlink:href="#B"/></g><g transform="matrix(0 -.1 -.1 0 31.795312 205.493625)"><defs><path d="M8.5 21.578v33.109h8.984V21.922q0-7.766 3.016-11.656 3.031-3.875 9.094-3.875 7.266 0 11.484 4.641 4.234 4.641 4.234 12.656v31h8.984V0h-8.984v8.406Q42.047 3.422 37.719 1q-4.312-2.422-10.031-2.422-9.422 0-14.312 5.859Q8.5 10.297 8.5 21.578zM31.109 56z" id="Y" class="B C"/><path d="M52 44.188q3.375 6.063 8.063 8.938Q64.75 56 71.094 56q8.547 0 13.188-5.984 4.641-5.969 4.641-17V0h-9.031v32.719q0 7.859-2.797 11.656-2.781 3.813-8.484 3.813-6.984 0-11.047-4.641-4.047-4.625-4.047-12.641V0h-9.031v32.719q0 7.906-2.781 11.688-2.781 3.781-8.594 3.781-6.891 0-10.953-4.656-4.047-4.656-4.047-12.625V0H9.078v54.688h9.031v-8.5q3.078 5.031 7.375 7.422Q29.781 56 35.688 56q5.969 0 10.141-3.031Q50 49.953 52 44.188z" id="Z" class="B C"/><path d="M8.5-20.797v75.484h8.984V20.703q0-7.078 3.359-10.703 3.375-3.609 9.969-3.609 7.219 0 10.859 4.094 3.641 4.109 3.641 12.313v31.891h8.984V12.594q0-2.922.844-4.312.859-1.391 2.672-1.391.438 0 1.219.266.781.266 2.156.859V.781q-2-1.125-3.797-1.656-1.781-.547-3.484-.547-3.375 0-5.375 1.906-2 1.906-2.734 5.813Q43.359 2.438 39.813.5 36.281-1.422 31.5-1.422q-4.984 0-8.484 1.906-3.484 1.906-5.531 5.719v-27z" id="a" class="B C"/></defs><use xlink:href="#M"/><use x="41.113" xlink:href="#Y"/><use x="104.492" xlink:href="#O"/><use x="167.871" xlink:href="#L"/><use x="207.08" xlink:href="#N"/><use x="234.863" xlink:href="#Z"/><use x="332.275" xlink:href="#R"/><use x="393.799" xlink:href="#AG"/><use x="425.586" xlink:href="#T"/><use x="464.6" xlink:href="#a"/><use x="528.223" xlink:href="#K"/><use x="580.322" xlink:href="#W"/></g><g class="E F"><g class="J"><path d="M58.266 304.385l1.331-.477 3.994-.231 1.331-.525 1.331-.147 2.663-1.446 2.663-.357 1.331.325 3.994-.441 1.331-.425 1.331-1.998 1.331-.17 1.331-.498 1.331 1.346 1.331-.392 1.331.111 2.663-.339 1.331-.435 1.331.121 1.331-1.937 1.331 1.385 2.663-.276 1.331-.392 1.331-.216 1.331-4.866 1.331-2.829 1.331-2.244 1.331 1.617 1.331-.848 1.331-1.622 1.331.179 1.331-1.858 1.331 1.585 1.331-.6 1.331.024 1.331-2.309 1.331.646 1.331-.723 1.331-.98 1.331 1.346 1.331.28 1.331-.281 1.331-.403 1.331-2.937 1.331 1.563 1.331.459 1.331-.551 7.988-2.347 1.331-3.581 1.331 2.7 1.331-.579 1.331-6.465 1.331-.936 1.331-.65 1.331-3.203 1.331 1.021 1.331-1.77 1.331 2.138 1.331-.426 1.331-.285 1.331-.422 1.331-3.958 1.331 2.799 6.656-1.983 1.331-.228 2.663-.855 1.331-.355 1.331-.188 2.663-.863 1.331-.741 2.663-.799 1.331-3.441 1.331 2.396 1.331-.468 1.331-.282 1.331-.44 1.331-6.947 1.331-4.407 1.331.611 1.331-2.28 1.331-.648 1.331 1.922 1.331-.419 1.331-3.279 1.331 2.147 1.331-.988 1.331-.501 1.331-4.754 1.331 3.206 6.656-2.421 1.331-4.551 1.331 3.434 3.994-1.484 1.331-4.161 1.331 3.145 1.331-.526 1.331-.831 1.331-.515 1.331-4.422 1.331 3.375 1.331-.499 1.331-.631 1.331-4.423 1.331-7.218 1.331-2.074 1.331-.951 1.331-1.831 1.331-1.602 1.331 1.357 1.331-.987 1.331-.451 1.331-1.226 1.331-.563 1.331-.687 2.663-1.019 2.663-1.214 1.331-.742 3.994-1.709 5.325-2.347 1.331-5.317 1.331 3.722 1.331-.727 2.663-1.229 1.331-1.351 2.663-1.025 1.331-1.377 1.331-13.007 1.331-3.081 1.331-1.129 1.331-.784 2.663-1.249 1.331-.391 1.331-.543 1.331-1.407 1.331-.72 1.331-.573 1.331-.701 1.331.128 1.331-1.477 1.331-.75 1.331-1.023 1.331-.456 1.331-2.899 1.331-1.195 1.331 1.442 1.331-6.133 1.331 4.38 1.331-5.159 1.331 4.403 6.656-3.399 3.994-2.096 1.331-12.708 1.331-3.765 2.663-2.13 3.994-2.306 1.331-.888 1.331-.398 1.331-.997 2.663-1.504 1.331.253 1.331-1.762 1.331-.872 1.331-.703 1.331-.932 3.994-2.284 1.331-.339 1.331-1.211 2.663-1.486 1.331-.597 1.331-.906 1.331-1.504 1.331-1.697 1.331-.726 1.331-.571 1.331-.967 1.331-5.822 1.331-13.015 1.331-6.25 1.331-2.202 1.331.279 1.331 2.827 1.331-1.553 2.663-.149 1.331-.979 1.331-1.646 1.331-.724 1.331-1.885 1.331-.809 1.331-1.502 1.331-.004 1.331-1.847 1.331-.853 1.331-.555 1.331-.272 1.331-4.059 1.331-.999 1.331-.735 1.331 1.089 1.331-2.512 1.331-.548 1.331-.263 1.331-1.369 1.331 2.115 1.331-2.596 1.331-.256 1.331-.87" stroke="#1f77b4" class="H"/><path d="M58.266 302.408l1.331-.644 1.331-.036 1.331-.323 1.331-.534 1.331-.994 1.331-.393 1.331.842 1.331-1.697 2.663-.51 1.331-.607 1.331 1.142 2.663-.4 1.331-.467 1.331-3.195 1.331-.283 1.331 1.67 1.331.111 2.663-.328 1.331-2.613 1.331 2.251 1.331-2.659 1.331-.228 1.331 2.036 1.331-.221 2.663-.307 1.331-.401 1.331-.249 1.331-6.427 1.331-1.65 1.331-4.365 1.331-.315 1.331 3.633 1.331-.295 1.331-1.816 1.331-3.174 1.331 2.833 1.331-3.651 1.331-.541 1.331 3.767 1.331-3.722 1.331 2.719 1.331-4.518 1.331 3.583 1.331-1.364 1.331.599 3.994-.969 1.331-4.809 1.331 3.798 2.663-.758 1.331-.251 1.331-.383 1.331-.654 1.331-.961 3.994-1.041 1.331-4.227 1.331-3.452 1.331-5.241 1.331 4.212 1.331-5.78 1.331 4.876 1.331-1.618 1.331-.408 1.331.925 1.331-.484 1.331-.748 1.331-6.037 1.331 5.017 6.656-2.076 1.331-.552 1.331-6.247 1.331 5.377 3.994-1.115 1.331-.833 2.663-.817 1.331-.447 1.331-.845 1.331-.489 1.331-.364 1.331-.528 1.331-7.728 1.331-6.892 1.331-1.693 1.331 4.438 1.331-1.931 1.331-2.807 1.331-1.686 1.331-.299 1.331 4.652 1.331-1.311 1.331-7.007 1.331 5.317 1.331-.539 1.331-7.286 1.331 6.176 2.663-1.042 1.331-.523 1.331-.729 3.994-1.52 1.331-.571 1.331-.434 1.331-.665 1.331-.498 1.331-.893 1.331-.732 5.325-2.287 1.331-7.149 1.331-5.015 1.331-2.34 1.331-7.189 1.331.082 1.331-1.664 1.331-.775 1.331 6.679 1.331-.617 1.331-1.137 1.331-.62 1.331-.781 2.663-1.105 1.331-.477 1.331-.935 1.331-.623 1.331-.776 2.663-1.156 2.663-1.233 2.663-1.231 1.331-1.017 3.994-2.213 1.331-.613 1.331-1.561 1.331-.519 1.331-.679 1.331-1.454 1.331-13.646 1.331-3.113 1.331-1.184 1.331-.812 2.663-1.352 2.663-1.336 1.331-1.606 1.331-.861 3.994-1.903 2.663-1.475 1.331-.811 1.331-.649 1.331-10.603 1.331 7.189 1.331 1.01 1.331-3.471 1.331.147 1.331.977 1.331-.225 1.331-1.113 2.663-1.373 1.331-.68 1.331-.905 2.663-1.296 1.331-.821 1.331-12.364 1.331-3.917 1.331-1.205 2.663-1.911 2.663-1.421 1.331-.98 1.331-.551 1.331-1.086 1.331-.584 6.656-4.032 1.331-1.034 5.325-3.137 1.331-.393 1.331-1.261 2.663-1.727 1.331-.52 1.331-1.993 1.331-.643 3.994-2.62 1.331-11.434 1.331-6.222 1.331-9.928 1.331-6.753 1.331 6.93 1.331-12.312 1.331 2.509 1.331-.236 1.331 7.679 2.663-1.669 1.331-1.189 1.331-.406 1.331.591 1.331-2.688 1.331-.817 1.331-1.064 1.331-.833 1.331-.138 1.331.088 1.331-4.612 1.331-.426 1.331-2.069 1.331-.663 1.331.098 1.331-1.764 1.331.509 1.331-.797 1.331-1.501 1.331-1.096 1.331-.632 1.331.717" stroke="#ff7f0e" class="H"/></g><g class="D G K"><path d="M57.6 307.584V41.472m357.12 266.112V41.472"/><path d="M57.6 307.584h357.12M57.6 41.472h357.12"/></g></g><g transform="matrix(.12 0 0 -.12 149.937187 22.034625)"><defs><path d="M19.672 64.797V37.406h12.406q6.891 0 10.641 3.563 3.766 3.563 3.766 10.156 0 6.547-3.766 10.109-3.75 3.563-10.641 3.563zm-9.859 8.109h22.266q12.266 0 18.531-5.547 6.281-5.547 6.281-16.234 0-10.797-6.281-16.312-6.266-5.516-18.531-5.516H19.672V0H9.813z" id="b" class="B C"/><path d="M37.109 75.984V68.5h-8.594q-4.828 0-6.719-1.953-1.875-1.953-1.875-7.031v-4.828h14.797v-6.984H19.922V0h-9.031v47.703H2.297v6.984h8.594V58.5q0 9.125 4.25 13.297 4.25 4.188 13.469 4.188z" id="c" class="B C"/><path d="M30.609 48.391q-7.219 0-11.422-5.641-4.203-5.641-4.203-15.453 0-9.812 4.172-15.453 4.188-5.641 11.453-5.641 7.188 0 11.375 5.656 4.203 5.672 4.203 15.438 0 9.719-4.203 15.406-4.187 5.688-11.375 5.688zm0 7.609q11.719 0 18.406-7.625 6.703-7.609 6.703-21.078 0-13.422-6.703-21.078-6.687-7.641-18.406-7.641-11.766 0-18.437 7.641-6.656 7.656-6.656 21.078 0 13.469 6.656 21.078Q18.844 56 30.609 56z" id="d" class="B C"/><path d="M18.109 8.203v-29H9.078v75.484h9.031v-8.297q2.844 4.875 7.156 7.234Q29.594 56 35.594 56q9.969 0 16.188-7.906 6.234-7.906 6.234-20.797 0-12.891-6.234-20.812-6.219-7.906-16.187-7.906-6 0-10.328 2.375-4.312 2.375-7.156 7.25zm30.578 19.094q0 9.906-4.078 15.547-4.078 5.641-11.203 5.641-7.141 0-11.219-5.641-4.078-5.641-4.078-15.547 0-9.906 4.078-15.547 4.078-5.641 11.219-5.641 7.125 0 11.203 5.641 4.078 5.641 4.078 15.547z" id="e" class="B C"/></defs><use xlink:href="#b"/><use x="56.678" xlink:href="#R"/><use x="118.201" xlink:href="#M"/><use x="159.314" xlink:href="#c"/><use x="194.52" xlink:href="#d"/><use x="255.701" xlink:href="#M"/><use x="295.064" xlink:href="#Z"/><use x="392.477" xlink:href="#V"/><use x="453.756" xlink:href="#O"/><use x="517.135" xlink:href="#U"/><use x="572.115" xlink:href="#R"/><use x="633.639" xlink:href="#AG"/><use x="665.426" xlink:href="#U"/><use x="720.406" xlink:href="#d"/><use x="781.588" xlink:href="#Z"/><use x="879" xlink:href="#e"/><use x="942.477" xlink:href="#V"/><use x="1003.756" xlink:href="#M"/><use x="1044.869" xlink:href="#N"/><use x="1072.652" xlink:href="#K"/><use x="1124.752" xlink:href="#N"/><use x="1152.535" xlink:href="#d"/><use x="1213.717" xlink:href="#O"/><use x="1277.096" xlink:href="#AG"/><use x="1308.883" xlink:href="#d"/><use x="1370.064" xlink:href="#c"/><use x="1405.27" xlink:href="#AG"/></g><g transform="matrix(.12 0 0 -.12 116.029687 35.472)"><defs><path d="M9.078 75.984h9.031V31.109l26.813 23.578h11.469l-29-25.578L57.625 0H45.906L18.109 26.703V0H9.078z" id="f" class="B C"/><path d="M50.984-16.609v-6.969H-.984v6.969z" id="g" class="B C"/><path d="M45.406 46.391v29.594h8.984V0h-8.984v8.203Q42.578 3.328 38.25.953q-4.312-2.375-10.375-2.375-9.906 0-16.141 7.906-6.219 7.922-6.219 20.813 0 12.891 6.219 20.797Q17.969 56 27.875 56q6.063 0 10.375-2.375 4.328-2.359 7.156-7.234zM14.797 27.297q0-9.906 4.078-15.547 4.078-5.641 11.203-5.641 7.125 0 11.219 5.641 4.109 5.641 4.109 15.547 0 9.906-4.109 15.547-4.094 5.641-11.219 5.641-7.125 0-11.203-5.641-4.078-5.641-4.078-15.547z" id="h" class="B C"/><path d="M2.984 54.688H12.5L29.594 8.797l17.094 45.891h9.516L35.688 0H23.484z" id="i" class="B C"/></defs><use xlink:href="#L"/><use x="39.209" xlink:href="#d"/><use x="100.391" xlink:href="#f"/><use x="154.676" xlink:href="#R"/><use x="216.199" xlink:href="#O"/><use x="279.578" xlink:href="#g"/><use x="329.578" xlink:href="#M"/><use x="370.691" xlink:href="#V"/><use x="431.971" xlink:href="#L"/><use x="471.18" xlink:href="#N"/><use x="498.963" xlink:href="#d"/><use x="560.145" xlink:href="#AG"/><use x="591.932" xlink:href="#V"/><use x="653.211" xlink:href="#O"/><use x="716.59" xlink:href="#h"/><use x="780.066" xlink:href="#AG"/><use x="811.854" xlink:href="#V"/><use x="873.133" xlink:href="#AG"/><use x="904.92" xlink:href="#O"/><use x="968.299" xlink:href="#V"/><use x="1029.578" xlink:href="#N"/><use x="1057.361" xlink:href="#i"/><use x="1116.541" xlink:href="#R"/><use x="1178.064" xlink:href="#AG"/><use x="1209.852" xlink:href="#N"/><use x="1237.635" xlink:href="#Z"/><use x="1335.047" xlink:href="#e"/><use x="1398.523" xlink:href="#Q"/><use x="1426.307" xlink:href="#R"/><use x="1487.83" xlink:href="#Z"/><use x="1585.242" xlink:href="#R"/><use x="1646.766" xlink:href="#O"/><use x="1710.145" xlink:href="#L"/><use x="1749.354" xlink:href="#V"/><use x="1810.633" xlink:href="#L"/><use x="1849.842" xlink:href="#N"/><use x="1877.625" xlink:href="#d"/><use x="1938.807" xlink:href="#O"/></g><path d="M64.6 79.385h224.617q2 0 2-2V48.472q0-2-2-2H64.6q-2 0-2 2v28.913q0 2 2 2z" fill="#fff" opacity=".8" stroke="#ccc" class="K"/><path d="M66.6 54.57h20" stroke="#1f77b4" class="E F J"/><g transform="matrix(.1 0 0 -.1 94.6 58.070438)"><use xlink:href="#L"/><use x="39.209" xlink:href="#d"/><use x="100.391" xlink:href="#f"/><use x="154.676" xlink:href="#R"/><use x="216.199" xlink:href="#O"/><use x="279.578" xlink:href="#g"/><use x="329.578" xlink:href="#M"/><use x="370.691" xlink:href="#V"/><use x="431.971" xlink:href="#L"/><use x="471.18" xlink:href="#N"/><use x="498.963" xlink:href="#d"/></g><path d="M66.6 69.527h20" stroke="#ff7f0e" class="E F J"/><g transform="matrix(.1 0 0 -.1 94.6 73.026688)"><defs><path d="M54.891 54.688L35.109 28.078 55.906 0H45.313L29.391 21.484 13.484 0H2.875l21.25 28.609L4.688 54.688h10.594l14.5-19.484 14.5 19.484z" id="j" class="B C"/><path d="M31 75.875q-6.531-11.219-9.719-22.219-3.172-10.984-3.172-22.266 0-11.266 3.203-22.328Q24.516-2 31-13.187h-7.812Q15.875-1.703 12.234 9.375 8.594 20.453 8.594 31.391q0 10.891 3.609 21.922 3.625 11.047 10.984 22.563z" id="k" class="B C"/><path d="M11.719 12.406h10.297V4l-8-15.625H7.719l4 15.625z" id="l" class="B C"/><path d="M8.016 75.875h7.813q7.313-11.516 10.953-22.562 3.641-11.031 3.641-21.922 0-10.937-3.641-22.016-3.641-11.078-10.953-22.562H8.016Q14.5-2 17.703 9.063q3.203 11.063 3.203 22.328 0 11.281-3.203 22.266-3.203 11-9.687 22.219z" id="m" class="B C"/></defs><use xlink:href="#Z"/><use x="97.412" xlink:href="#V"/><use x="158.691" xlink:href="#j"/><use x="217.871" xlink:href="#k"/><use x="256.885" xlink:href="#L"/><use x="296.094" xlink:href="#d"/><use x="357.275" xlink:href="#f"/><use x="411.561" xlink:href="#R"/><use x="473.084" xlink:href="#O"/><use x="536.463" xlink:href="#g"/><use x="586.463" xlink:href="#K"/><use x="638.563" xlink:href="#d"/><use x="699.744" xlink:href="#M"/><use x="740.857" xlink:href="#L"/><use x="780.066" xlink:href="#g"/><use x="830.066" xlink:href="#M"/><use x="871.18" xlink:href="#V"/><use x="932.459" xlink:href="#L"/><use x="971.668" xlink:href="#N"/><use x="999.451" xlink:href="#d"/><use x="1060.633" xlink:href="#l"/><use x="1092.42" xlink:href="#AG"/><use x="1124.207" xlink:href="#L"/><use x="1163.416" xlink:href="#d"/><use x="1224.598" xlink:href="#f"/><use x="1278.883" xlink:href="#R"/><use x="1340.406" xlink:href="#O"/><use x="1403.785" xlink:href="#g"/><use x="1453.785" xlink:href="#K"/><use x="1505.885" xlink:href="#R"/><use x="1567.408" xlink:href="#L"/><use x="1606.617" xlink:href="#g"/><use x="1656.617" xlink:href="#M"/><use x="1697.73" xlink:href="#V"/><use x="1759.01" xlink:href="#L"/><use x="1798.219" xlink:href="#N"/><use x="1826.002" xlink:href="#d"/><use x="1887.184" xlink:href="#m"/></g><defs><clipPath id="n"><path d="M57.6 41.472h357.12v266.112H57.6z" class="B C"/></clipPath></defs></svg>
