<svg xmlns="http://www.w3.org/2000/svg" xmlns:xlink="http://www.w3.org/1999/xlink" height="460.8" viewBox="0 0 460.8 345.6" width="614.4" stroke-linecap="butt" stroke-linejoin="round" xmlns:v="https://vecta.io/nano"><style><![CDATA[.B{stroke-linecap:butt}.C{stroke-linejoin:round}.D{stroke-width:.8}.E{stroke-linecap:square}.F{fill:none}.G{stroke:#000}.H{clip-path:url(#n)}.I{stroke:#b0b0b0}.J{stroke-width:1.5}.K{stroke-linejoin:miter}]]></style><g fill="#fff"><path d="M0 345.6h460.8V0H0z"/><path d="M57.6 307.584h357.12V41.472H57.6z"/></g><path d="M57.6 307.584V41.472" class="D E F H I"/><defs><path d="M0 0v3.5" id="A" class="B C D G"/></defs><use x="57.6" xlink:href="#A" y="307.584" class="D G"/><g transform="matrix(.1 0 0 -.1 54.41875 322.182437)"><defs><path d="M31.781 66.406q-7.609 0-11.453-7.5Q16.5 51.422 16.5 36.375q0-14.984 3.828-22.484 3.844-7.5 11.453-7.5 7.672 0 11.5 7.5 3.844 7.5 3.844 22.484 0 15.047-3.844 22.531-3.828 7.5-11.5 7.5zm0 7.813q12.266 0 18.734-9.703 6.469-9.687 6.469-28.141 0-18.406-6.469-28.109-6.469-9.687-18.734-9.687-12.25 0-18.719 9.688-6.469 9.703-6.469 28.109 0 18.453 6.469 28.141 6.469 9.703 18.719 9.703z" id="B" class="B C"/></defs><use xlink:href="#B"/></g><g class="D"><path d="M100.201 307.584V41.472" class="E F H I"/><use x="100.201" xlink:href="#A" y="307.584" class="G"/></g><g transform="matrix(.1 0 0 -.1 93.838954 322.182437)"><defs><path d="M33.016 40.375q-6.641 0-10.531-4.547-3.875-4.531-3.875-12.437 0-7.859 3.875-12.437 3.891-4.562 10.531-4.562 6.641 0 10.516 4.563 3.875 4.578 3.875 12.438 0 7.906-3.875 12.438-3.875 4.547-10.516 4.547zm19.578 30.922v-8.984q-3.719 1.75-7.5 2.672-3.781.938-7.5.938-9.766 0-14.922-6.594-5.141-6.594-5.875-19.922 2.875 4.25 7.219 6.516 4.359 2.266 9.578 2.266 10.984 0 17.359-6.672 6.375-6.656 6.375-18.125 0-11.234-6.641-18.031-6.641-6.781-17.672-6.781-12.656 0-19.344 9.688-6.687 9.703-6.687 28.109 0 17.281 8.203 27.563 8.203 10.281 22.016 10.281 3.719 0 7.5-.734 3.781-.734 7.891-2.187z" id="C" class="B C"/><path d="M37.797 64.313L12.891 25.391h24.906zm-2.594 8.594h12.406V25.391h10.406v-8.203H47.609V0h-9.812v17.188H4.891v9.516z" id="D" class="B C"/></defs><use xlink:href="#C"/><use x="63.623" xlink:href="#D"/></g><g class="D"><path d="M142.803 307.584V41.472" class="E F H I"/><use x="142.803" xlink:href="#A" y="307.584" class="G"/></g><g transform="matrix(.1 0 0 -.1 133.259158 322.182437)"><defs><path d="M12.406 8.297h16.109v55.625l-17.531-3.516v8.984l17.438 3.516h9.859V8.297h16.109V0H12.406z" id="E" class="B C"/><path d="M19.188 8.297h34.422V0H7.328v8.297q5.609 5.813 15.297 15.594 9.703 9.797 12.188 12.641 4.734 5.313 6.609 9 1.891 3.688 1.891 7.25 0 5.813-4.078 9.469-4.078 3.672-10.625 3.672-4.641 0-9.797-1.609-5.141-1.609-11-4.891v9.969Q13.766 71.781 18.938 73q5.188 1.219 9.484 1.219 11.328 0 18.063-5.672 6.734-5.656 6.734-15.125 0-4.5-1.687-8.531-1.672-4.016-6.125-9.484-1.219-1.422-7.766-8.187-6.531-6.766-18.453-18.922z" id="F" class="B C"/><path d="M31.781 34.625q-7.031 0-11.062-3.766-4.016-3.766-4.016-10.344 0-6.594 4.016-10.359 4.031-3.766 11.063-3.766 7.031 0 11.078 3.781 4.063 3.797 4.063 10.344 0 6.578-4.031 10.344-4.016 3.766-11.109 3.766zm-9.859 4.188q-6.344 1.563-9.891 5.906Q8.5 49.078 8.5 55.328q0 8.734 6.219 13.813 6.234 5.078 17.063 5.078 10.891 0 17.094-5.078 6.203-5.078 6.203-13.812 0-6.25-3.547-10.609-3.531-4.344-9.828-5.906 7.125-1.656 11.094-6.5 3.984-4.828 3.984-11.797 0-10.609-6.469-16.281-6.469-5.656-18.531-5.656-12.047 0-18.531 5.656-6.469 5.672-6.469 16.281 0 6.969 4 11.797 4.016 4.844 11.141 6.5zm-3.609 15.578q0-5.656 3.531-8.828 3.547-3.172 9.938-3.172 6.359 0 9.938 3.172 3.594 3.172 3.594 8.828 0 5.672-3.594 8.844-3.578 3.172-9.937 3.172-6.391 0-9.937-3.172-3.531-3.172-3.531-8.844z" id="G" class="B C"/></defs><use xlink:href="#E"/><use x="63.623" xlink:href="#F"/><use x="127.246" xlink:href="#G"/></g><g class="D"><path d="M185.404 307.584V41.472" class="E F H I"/><use x="185.404" xlink:href="#A" y="307.584" class="G"/></g><g transform="matrix(.1 0 0 -.1 175.860612 322.182437)"><defs><path d="M10.984 1.516V10.5q3.719-1.766 7.516-2.687 3.813-.922 7.484-.922 9.766 0 14.906 6.563 5.156 6.563 5.891 19.953-2.828-4.203-7.187-6.453-4.344-2.25-9.609-2.25-10.937 0-17.312 6.609-6.375 6.625-6.375 18.109 0 11.219 6.641 18 6.641 6.797 17.672 6.797 12.656 0 19.313-9.703 6.672-9.687 6.672-28.141 0-17.234-8.187-27.516Q40.234-1.422 26.422-1.422q-3.719 0-7.531.734-3.797.734-7.906 2.203zm19.625 30.906q6.641 0 10.516 4.531 3.891 4.547 3.891 12.469 0 7.859-3.891 12.422-3.875 4.563-10.516 4.563-6.641 0-10.516-4.562-3.875-4.562-3.875-12.422 0-7.922 3.875-12.469 3.875-4.531 10.516-4.531z" id="H" class="B C"/></defs><use xlink:href="#E"/><use x="63.623" xlink:href="#H"/><use x="127.246" xlink:href="#F"/></g><g class="D"><path d="M228.006 307.584V41.472" class="E F H I"/><use x="228.006" xlink:href="#A" y="307.584" class="G"/></g><g transform="matrix(.1 0 0 -.1 218.462065 322.182437)"><defs><path d="M10.797 72.906h38.719v-8.312H19.828V46.734q2.141.734 4.281 1.094 2.156.359 4.313.359 12.203 0 19.328-6.687 7.141-6.687 7.141-18.109 0-11.766-7.328-18.297-7.328-6.516-20.656-6.516-4.594 0-9.359.781-4.75.781-9.828 2.344v9.922q4.391-2.391 9.078-3.562 4.688-1.172 9.906-1.172 8.453 0 13.375 4.438 4.938 4.438 4.938 12.063 0 7.609-4.937 12.047-4.922 4.453-13.375 4.453-3.953 0-7.891-.875-3.922-.875-8.016-2.734z" id="I" class="B C"/></defs><use xlink:href="#F"/><use x="63.623" xlink:href="#I"/><use x="127.246" xlink:href="#C"/></g><g class="D"><path d="M270.607 307.584V41.472" class="E F H I"/><use x="270.607" xlink:href="#A" y="307.584" class="G"/></g><g transform="matrix(.1 0 0 -.1 261.063519 322.182437)"><defs><path d="M40.578 39.313Q47.656 37.797 51.625 33q3.984-4.781 3.984-11.812 0-10.781-7.422-16.703-7.422-5.906-21.094-5.906-4.578 0-9.437.906-4.859.906-10.031 2.719v9.516q4.094-2.391 8.969-3.609 4.891-1.219 10.219-1.219 9.266 0 14.125 3.656 4.859 3.656 4.859 10.641 0 6.453-4.516 10.078-4.516 3.641-12.562 3.641h-8.5v8.109h8.891q7.266 0 11.125 2.906 3.859 2.906 3.859 8.375 0 5.609-3.984 8.609-3.969 3.016-11.391 3.016-4.062 0-8.703-.891-4.641-.875-10.203-2.719v8.781q5.625 1.563 10.531 2.344 4.906.781 9.25.781 11.234 0 17.766-5.109 6.547-5.094 6.547-13.781 0-6.062-3.469-10.234-3.469-4.172-9.859-5.781z" id="J" class="B C"/></defs><use xlink:href="#J"/><use x="63.623" xlink:href="#F"/><use x="127.246" xlink:href="#B"/></g><g class="D"><path d="M313.209 307.584V41.472" class="E F H I"/><use x="313.209" xlink:href="#A" y="307.584" class="G"/></g><g transform="matrix(.1 0 0 -.1 303.664973 322.182437)"><use xlink:href="#J"/><use x="63.623" xlink:href="#G"/><use x="127.246" xlink:href="#D"/></g><g class="D"><path d="M355.81 307.584V41.472" class="E F H I"/><use x="355.81" xlink:href="#A" y="307.584" class="G"/></g><g transform="matrix(.1 0 0 -.1 346.266427 322.182437)"><use xlink:href="#D"/><use x="63.623" xlink:href="#D"/><use x="127.246" xlink:href="#G"/></g><g class="D"><path d="M398.412 307.584V41.472" class="E F H I"/><use x="398.412" xlink:href="#A" y="307.584" class="G"/></g><g transform="matrix(.1 0 0 -.1 388.867881 322.182437)"><use xlink:href="#I"/><use x="63.623" xlink:href="#E"/><use x="127.246" xlink:href="#F"/></g><g transform="matrix(.1 0 0 -.1 168.700625 335.860562)"><defs><path d="M44.281 53.078v-8.5q-3.797 1.953-7.906 2.922-4.094.984-8.5.984-6.687 0-10.031-2.047-3.344-2.047-3.344-6.156 0-3.125 2.391-4.906 2.391-1.781 9.625-3.391l3.078-.687q9.563-2.047 13.594-5.781 4.031-3.734 4.031-10.422 0-7.625-6.031-12.078-6.031-4.437-16.578-4.437-4.391 0-9.156.859Q10.688.297 5.422 2v9.281q4.984-2.594 9.813-3.891 4.828-1.281 9.578-1.281 6.344 0 9.75 2.172 3.422 2.172 3.422 6.125 0 3.656-2.469 5.609-2.453 1.953-10.812 3.766l-3.125.734q-8.344 1.75-12.062 5.391-3.703 3.641-3.703 9.984 0 7.719 5.469 11.906Q16.75 56 26.813 56q4.969 0 9.359-.734 4.406-.719 8.109-2.187z" id="K" class="B C"/><path d="M18.313 70.219V54.688h18.5v-6.984h-18.5V18.016q0-6.687 1.828-8.594 1.828-1.906 7.453-1.906h9.219V0h-9.219Q17.188 0 13.234 3.875 9.281 7.766 9.281 18.016v29.688H2.688v6.984h6.594v15.531z" id="L" class="B C"/><path d="M41.109 46.297q-1.516.875-3.297 1.281-1.781.422-3.922.422-7.625 0-11.703-4.953-4.078-4.953-4.078-14.234V0H9.078v54.688h9.031v-8.5q2.844 4.984 7.375 7.391Q30.031 56 36.531 56q.922 0 2.047-.125 1.125-.109 2.484-.359z" id="M" class="B C"/><path d="M9.422 54.688h8.984V0H9.422zm0 21.297h8.984V64.594H9.422z" id="N" class="B C"/><path d="M54.891 33.016V0h-8.984v32.719q0 7.766-3.031 11.609-3.031 3.859-9.078 3.859-7.281 0-11.484-4.641-4.203-4.625-4.203-12.641V0H9.078v54.688h9.031v-8.5q3.234 4.938 7.594 7.375Q30.078 56 35.797 56q9.422 0 14.25-5.828 4.844-5.828 4.844-17.156z" id="O" class="B C"/><path d="M45.406 27.984q0 9.766-4.031 15.125-4.016 5.375-11.297 5.375-7.219 0-11.25-5.375-4.031-5.359-4.031-15.125 0-9.719 4.031-15.094 4.031-5.375 11.25-5.375 7.281 0 11.297 5.375 4.031 5.375 4.031 15.094zm8.984-21.203q0-13.953-6.203-20.766Q42-20.797 29.203-20.797q-4.734 0-8.937.703-4.203.703-8.156 2.172v8.734q3.953-2.141 7.813-3.156 3.859-1.031 7.859-1.031 8.844 0 13.234 4.609 4.391 4.609 4.391 13.938v4.453q-2.781-4.844-7.125-7.234Q33.938 0 27.875 0 17.828 0 11.672 7.656q-6.156 7.672-6.156 20.328 0 12.688 6.156 20.344Q17.828 56 27.875 56q6.063 0 10.406-2.391 4.344-2.391 7.125-7.219v8.297h8.984z" id="P" class="B C"/><path d="M9.422 75.984h8.984V0H9.422z" id="Q" class="B C"/><path d="M56.203 29.594v-4.391H14.891q.594-9.281 5.594-14.141 5-4.859 13.938-4.859 5.172 0 10.031 1.266 4.859 1.266 9.656 3.813v-8.5Q49.266.734 44.188-.344q-5.078-1.078-10.297-1.078-13.094 0-20.734 7.609-7.641 7.625-7.641 20.625 0 13.422 7.25 21.297Q20.016 56 32.328 56q11.031 0 17.453-7.109 6.422-7.094 6.422-19.297zm-8.984 2.641q-.094 7.359-4.125 11.75-4.031 4.406-10.672 4.406-7.516 0-12.031-4.25-4.516-4.25-5.203-11.969z" id="R" class="B C"/><path d="M54.891 33.016V0h-8.984v32.719q0 7.766-3.031 11.609-3.031 3.859-9.078 3.859-7.281 0-11.484-4.641-4.203-4.625-4.203-12.641V0H9.078v75.984h9.031V46.188q3.234 4.938 7.594 7.375Q30.078 56 35.797 56q9.422 0 14.25-5.828 4.844-5.828 4.844-17.156z" id="S" class="B C"/><path d="M8.594 75.984h20.703V69H17.578V-6.203h11.719v-6.984H8.594z" id="T" class="B C"/><path d="M48.781 52.594v-8.406q-3.812 2.109-7.641 3.156-3.828 1.047-7.734 1.047-8.75 0-13.594-5.547-4.828-5.531-4.828-15.547 0-10.016 4.828-15.562 4.844-5.531 13.594-5.531 3.906 0 7.734 1.047 3.828 1.047 7.641 3.156V2.094Q45.016.344 40.984-.531q-4.016-.891-8.562-.891-12.359 0-19.641 7.766-7.266 7.766-7.266 20.953 0 13.375 7.344 21.031Q20.219 56 33.016 56q4.141 0 8.094-.859 3.953-.844 7.672-2.547z" id="U" class="B C"/><path d="M34.281 27.484q-10.891 0-15.094-2.484-4.203-2.484-4.203-8.5 0-4.781 3.156-7.594 3.156-2.797 8.563-2.797 7.484 0 12 5.297 4.516 5.297 4.516 14.078v2zm17.922 3.719V0h-8.984v8.297Q40.141 3.328 35.547.953q-4.594-2.375-11.234-2.375-8.391 0-13.359 4.719Q6 8.016 6 15.922q0 9.219 6.172 13.906 6.188 4.688 18.438 4.688h12.609v.891q0 6.203-4.078 9.594-4.078 3.391-11.453 3.391-4.687 0-9.141-1.125-4.437-1.125-8.531-3.375v8.313q4.922 1.906 9.563 2.844 4.641.953 9.031.953 11.875 0 17.734-6.156 5.859-6.141 5.859-18.641z" id="V" class="B C"/><path d="M30.422 75.984v-89.172H9.719v6.984h11.672V69H9.719v6.984z" id="W" class="B C"/></defs><use xlink:href="#K"/><use x="52.1" xlink:href="#L"/><use x="91.309" xlink:href="#M"/><use x="132.422" xlink:href="#N"/><use x="160.205" xlink:href="#O"/><use x="223.584" xlink:href="#P"/><use x="287.061" xlink:href="#AG"/><use x="318.848" xlink:href="#Q"/><use x="346.631" xlink:href="#R"/><use x="408.154" xlink:href="#O"/><use x="471.533" xlink:href="#P"/><use x="535.01" xlink:href="#L"/><use x="574.219" xlink:href="#S"/><use x="637.598" xlink:href="#AG"/><use x="669.385" xlink:href="#T"/><use x="708.398" xlink:href="#N"/><use x="736.182" xlink:href="#O"/><use x="799.561" xlink:href="#AG"/><use x="831.348" xlink:href="#U"/><use x="886.328" xlink:href="#S"/><use x="949.707" xlink:href="#V"/><use x="1010.986" xlink:href="#M"/><use x="1052.1" xlink:href="#V"/><use x="1113.379" xlink:href="#U"/><use x="1168.359" xlink:href="#L"/><use x="1207.568" xlink:href="#R"/><use x="1269.092" xlink:href="#M"/><use x="1310.205" xlink:href="#W"/></g><path d="M57.6 307.584h357.12" class="D E F H I"/><defs><path d="M0 0h-3.5" id="X" class="B C D G"/></defs><use x="57.6" xlink:href="#X" y="307.584" class="D G"/><use xlink:href="#B" transform="matrix(.1 0 0 -.1 44.2375 311.383219)"/><g class="D"><path d="M57.6 286.644h357.12" class="E F H I"/><use x="57.6" xlink:href="#X" y="286.644" class="G"/></g><g transform="matrix(.1 0 0 -.1 37.875 290.44313)"><use xlink:href="#E"/><use x="63.623" xlink:href="#B"/></g><g class="D"><path d="M57.6 265.704h357.12" class="E F H I"/><use x="57.6" xlink:href="#X" y="265.704" class="G"/></g><g transform="matrix(.1 0 0 -.1 37.875 269.503042)"><use xlink:href="#F"/><use x="63.623" xlink:href="#B"/></g><g class="D"><path d="M57.6 244.764h357.12" class="E F H I"/><use x="57.6" xlink:href="#X" y="244.764" class="G"/></g><g transform="matrix(.1 0 0 -.1 37.875 248.562953)"><use xlink:href="#J"/><use x="63.623" xlink:href="#B"/></g><g class="D"><path d="M57.6 223.824h357.12" class="E F H I"/><use x="57.6" xlink:href="#X" y="223.824" class="G"/></g><g transform="matrix(.1 0 0 -.1 37.875 227.622865)"><use xlink:href="#D"/><use x="63.623" xlink:href="#B"/></g><g class="D"><path d="M57.6 202.884h357.12" class="E F H I"/><use x="57.6" xlink:href="#X" y="202.884" class="G"/></g><g transform="matrix(.1 0 0 -.1 37.875 206.682776)"><use xlink:href="#I"/><use x="63.623" xlink:href="#B"/></g><g class="D"><path d="M57.6 181.943h357.12" class="E F H I"/><use x="57.6" xlink:href="#X" y="181.943" class="G"/></g><g transform="matrix(.1 0 0 -.1 37.875 185.742688)"><use xlink:href="#C"/><use x="63.623" xlink:href="#B"/></g><g class="D"><path d="M57.6 161.003h357.12" class="E F H I"/><use x="57.6" xlink:href="#X" y="161.003" class="G"/></g><g transform="matrix(.1 0 0 -.1 37.875 164.802599)"><defs><path d="M8.203 72.906h46.875v-4.203L28.609 0H18.313l24.906 64.594H8.203z" id="Y" class="B C"/></defs><use xlink:href="#Y"/><use x="63.623" xlink:href="#B"/></g><g class="D"><path d="M57.6 140.063h357.12" class="E F H I"/><use x="57.6" xlink:href="#X" y="140.063" class="G"/></g><g transform="matrix(.1 0 0 -.1 37.875 143.862511)"><use xlink:href="#G"/><use x="63.623" xlink:href="#B"/></g><g class="D"><path d="M57.6 119.123h357.12" class="E F H I"/><use x="57.6" xlink:href="#X" y="119.123" class="G"/></g><g transform="matrix(.1 0 0 -.1 37.875 122.922422)"><use xlink:href="#H"/><use x="63.623" xlink:href="#B"/></g><g class="D"><path d="M57.6 98.183h357.12" class="E F H I"/><use x="57.6" xlink:href="#X" y="98.183" class="G"/></g><g transform="matrix(.1 0 0 -.1 31.5125 101.982334)"><use xlink:href="#E"/><use x="63.623" xlink:href="#B"/><use x="127.246" xlink:href="#B"/></g><g class="D"><path d="M57.6 77.243h357.12" class="E F H I"/><use x="57.6" xlink:href="#X" y="77.243" class="G"/></g><g transform="matrix(.1 0 0 -.1 31.5125 81.042245)"><use xlink:href="#E"/><use x="63.623" xlink:href="#E"/><use x="127.246" xlink:href="#B"/></g><g class="D"><path d="M57.6 56.303h357.12" class="E F H I"/><use x="57.6" xlink:href="#X" y="56.303" class="G"/></g><g transform="matrix(.1 0 0 -.1 31.5125 60.102157)"><use xlink:href="#E"/><use x="63.623" xlink:href="#F"/><use x="127.246" xlink:href="#B"/></g><g transform="matrix(0 -.1 -.1 0 25.432812 205.493625)"><defs><path d="M8.5 21.578v33.109h8.984V21.922q0-7.766 3.016-11.656 3.031-3.875 9.094-3.875 7.266 0 11.484 4.641 4.234 4.641 4.234 12.656v31h8.984V0h-8.984v8.406Q42.047 3.422 37.719 1q-4.312-2.422-10.031-2.422-9.422 0-14.312 5.859Q8.5 10.297 8.5 21.578zM31.109 56z" id="Z" class="B C"/><path d="M52 44.188q3.375 6.063 8.063 8.938Q64.75 56 71.094 56q8.547 0 13.188-5.984 4.641-5.969 4.641-17V0h-9.031v32.719q0 7.859-2.797 11.656-2.781 3.813-8.484 3.813-6.984 0-11.047-4.641-4.047-4.625-4.047-12.641V0h-9.031v32.719q0 7.906-2.781 11.688-2.781 3.781-8.594 3.781-6.891 0-10.953-4.656-4.047-4.656-4.047-12.625V0H9.078v54.688h9.031v-8.5q3.078 5.031 7.375 7.422Q29.781 56 35.688 56q5.969 0 10.141-3.031Q50 49.953 52 44.188z" id="a" class="B C"/><path d="M8.5-20.797v75.484h8.984V20.703q0-7.078 3.359-10.703 3.375-3.609 9.969-3.609 7.219 0 10.859 4.094 3.641 4.109 3.641 12.313v31.891h8.984V12.594q0-2.922.844-4.312.859-1.391 2.672-1.391.438 0 1.219.266.781.266 2.156.859V.781q-2-1.125-3.797-1.656-1.781-.547-3.484-.547-3.375 0-5.375 1.906-2 1.906-2.734 5.813Q43.359 2.438 39.813.5 36.281-1.422 31.5-1.422q-4.984 0-8.484 1.906-3.484 1.906-5.531 5.719v-27z" id="b" class="B C"/></defs><use xlink:href="#M"/><use x="41.113" xlink:href="#Z"/><use x="104.492" xlink:href="#O"/><use x="167.871" xlink:href="#L"/><use x="207.08" xlink:href="#N"/><use x="234.863" xlink:href="#a"/><use x="332.275" xlink:href="#R"/><use x="393.799" xlink:href="#AG"/><use x="425.586" xlink:href="#T"/><use x="464.6" xlink:href="#b"/><use x="528.223" xlink:href="#K"/><use x="580.322" xlink:href="#W"/></g><g class="E F"><g class="J"><path d="M58.266 307.077l3.994-.398 13.313-1.203 5.325-.428 5.325-.517 5.325-.366 2.663-.218 10.65-1.082 1.331-.329 2.663-.468 1.331-.219 1.331-.69 2.663-.506 1.331-.078 1.331-.219 2.663-.211 1.331-.271 7.988-.825 1.331-.271 11.982-1.124 1.331-.258 1.331-.107 1.331-.313 1.331-.115 2.663-.536 7.988-.88 1.331-.253 2.663-.239 1.331-1.127 1.331-.508 3.994-.697 1.331.079 7.988-1.048 1.331.01 2.663-.544 1.331.072 1.331-.3 2.663-.257 1.331-.363 3.994-.46 17.307-2.205 1.331-.078 1.331-1.182 2.663-.857 5.325-.933 1.331.114 1.331-.347 1.331-.146 1.331-.387 1.331-.128 1.331.133 2.663-.285 1.331-.025 1.331-.175 1.331-.885 3.994-.501 1.331-.245 1.331-.408 2.663-.268 3.994-.692 1.331-.388 1.331-.021 1.331-.214 1.331-.338 1.331-.199 1.331-.064 2.663-.504 5.325-.677 1.331-.818 1.331-1.052 1.331-.866 6.656-1.291 3.994-.666 1.331-.032 1.331-.218 1.331-.491 1.331.094 6.656-1.075 1.331-.368 1.331-.235 2.663-.142 1.331-.23 1.331-.546 1.331-.047 7.988-1.108 2.663-.615 1.331-.08 1.331-.311 1.331-.087 2.663-.543 1.331-1.538 1.331-1.082 1.331-.475 9.319-1.616 2.663-.643 1.331-.187 1.331-.317 1.331-.183 1.331-.033 2.663-.481 2.663-.613 2.663-.385 1.331-.479 1.331-.319 3.994-.569 1.331-.365 1.331-.177 2.663-.19 1.331-.342 1.331-.162 1.331-.297 1.331-1.873 1.331-1.079 1.331-.801 1.331-.34 1.331-.101 1.331-.642 5.325-1.063 1.331-.507 1.331-.113 1.331-.696 1.331-.214 1.331.119 1.331-.322 1.331-.015 1.331-.625 7.988-1.66 1.331-.643 1.331-.172" stroke="#1f77b4" class="H"/><path d="M58.266 298.227l1.331-2.77 1.331-2.069 1.331-2.842 1.331-1.514 1.331.637 1.331-1.279 1.331-1.736 1.331-2.252 1.331 1.148 1.331-1.391 1.331-1.586 3.994-3.207 2.663-2.787 1.331-2.583 1.331-.427 1.331-2.804 1.331.162 1.331-.987 1.331-1.146 1.331-2.964 1.331-.395 2.663-3.056 1.331-.377 1.331-1.626 1.331-4.078 1.331.103 1.331-1.36 1.331-3.488 1.331-.078 1.331-3.121 1.331-.203 1.331-2.86 1.331-3.382 1.331 1.954 1.331-1.942 1.331-1.335 1.331-.745 1.331-.978 1.331-3.24 1.331-2.39 1.331-1.254 1.331-1.568 1.331-.054 1.331-1.319 1.331-3.821 1.331.322 2.663-3.869 1.331-1.19 1.331-1.975 1.331-2.293 2.663-3.127 1.331-1.18 1.331-1.885 1.331-2.599 1.331-.662 2.663-3.84 2.663-3.25 1.331-4.547 1.331.954 1.331-2.04 1.331-5.112 1.331-.222 1.331-8.606 1.331 5.308 1.331-2.067 1.331-1.817 3.994-6.59 1.331-1.318 2.663-5.058 1.331-17.35 1.331-5.88 1.331 3.649 1.331-7.744 1.331 1.581 1.331-1.737 1.331 1.316 1.331 9.85 1.331-4.4 1.331-.693 1.331-1.482 1.331-2.781 1.331-5.687 1.331 2.306 1.331-2.886 1.331-22.119 1.331 13.964 1.331-6.885 1.331 1.618 1.331.304 1.331-3.967 2.663-4.689 1.331-1.967 1.331-2.207 1.331 1.953 1.331-6.795 1.331 2.131 1.331-3.554 1.331-6.134 1.331 2.112 1.331-6.646 1.331-2.063 1.331-1.721 1.331-2.257 1.331-2.956 1.331-3.587 1.331-1.865 1.331-18.193 1.331 13.659 1.331-3.892 1.331-1.065 1.331-2.718 1.331-3.584 1.331 2.235 1.331-10.548 1.331-1.062" stroke="#ff7f0e" class="H"/></g><g class="D G K"><path d="M57.6 307.584V41.472m357.12 266.112V41.472"/><path d="M57.6 307.584h357.12M57.6 41.472h357.12"/></g></g><g transform="matrix(.12 0 0 -.12 140.090625 22.034625)"><defs><path d="M19.672 64.797V37.406h12.406q6.891 0 10.641 3.563 3.766 3.563 3.766 10.156 0 6.547-3.766 10.109-3.75 3.563-10.641 3.563zm-9.859 8.109h22.266q12.266 0 18.531-5.547 6.281-5.547 6.281-16.234 0-10.797-6.281-16.312-6.266-5.516-18.531-5.516H19.672V0H9.813z" id="c" class="B C"/><path d="M37.109 75.984V68.5h-8.594q-4.828 0-6.719-1.953-1.875-1.953-1.875-7.031v-4.828h14.797v-6.984H19.922V0h-9.031v47.703H2.297v6.984h8.594V58.5q0 9.125 4.25 13.297 4.25 4.188 13.469 4.188z" id="d" class="B C"/><path d="M30.609 48.391q-7.219 0-11.422-5.641-4.203-5.641-4.203-15.453 0-9.812 4.172-15.453 4.188-5.641 11.453-5.641 7.188 0 11.375 5.656 4.203 5.672 4.203 15.438 0 9.719-4.203 15.406-4.187 5.688-11.375 5.688zm0 7.609q11.719 0 18.406-7.625 6.703-7.609 6.703-21.078 0-13.422-6.703-21.078-6.687-7.641-18.406-7.641-11.766 0-18.437 7.641-6.656 7.656-6.656 21.078 0 13.469 6.656 21.078Q18.844 56 30.609 56z" id="e" class="B C"/><path d="M18.109 8.203v-29H9.078v75.484h9.031v-8.297q2.844 4.875 7.156 7.234Q29.594 56 35.594 56q9.969 0 16.188-7.906 6.234-7.906 6.234-20.797 0-12.891-6.234-20.812-6.219-7.906-16.187-7.906-6 0-10.328 2.375-4.312 2.375-7.156 7.25zm30.578 19.094q0 9.906-4.078 15.547-4.078 5.641-11.203 5.641-7.141 0-11.219-5.641-4.078-5.641-4.078-15.547 0-9.906 4.078-15.547 4.078-5.641 11.219-5.641 7.125 0 11.203 5.641 4.078 5.641 4.078 15.547z" id="f" class="B C"/></defs><use xlink:href="#c"/><use x="56.678" xlink:href="#R"/><use x="118.201" xlink:href="#M"/><use x="159.314" xlink:href="#d"/><use x="194.52" xlink:href="#e"/><use x="255.701" xlink:href="#M"/><use x="295.064" xlink:href="#a"/><use x="392.477" xlink:href="#V"/><use x="453.756" xlink:href="#O"/><use x="517.135" xlink:href="#U"/><use x="572.115" xlink:href="#R"/><use x="633.639" xlink:href="#AG"/><use x="665.426" xlink:href="#U"/><use x="720.406" xlink:href="#e"/><use x="781.588" xlink:href="#a"/><use x="879" xlink:href="#f"/><use x="942.477" xlink:href="#V"/><use x="1003.756" xlink:href="#M"/><use x="1044.869" xlink:href="#N"/><use x="1072.652" xlink:href="#K"/><use x="1124.752" xlink:href="#N"/><use x="1152.535" xlink:href="#e"/><use x="1213.717" xlink:href="#O"/><use x="1277.096" xlink:href="#AG"/><use x="1308.883" xlink:href="#e"/><use x="1370.064" xlink:href="#d"/><use x="1405.27" xlink:href="#AG"/><use x="1437.057" xlink:href="#L"/><use x="1476.266" xlink:href="#S"/><use x="1539.645" xlink:href="#R"/></g><g transform="matrix(.12 0 0 -.12 126.938438 35.472)"><defs><path d="M9.078 75.984h9.031V31.109l26.813 23.578h11.469l-29-25.578L57.625 0H45.906L18.109 26.703V0H9.078z" id="g" class="B C"/><path d="M50.984-16.609v-6.969H-.984v6.969z" id="h" class="B C"/><path d="M45.406 46.391v29.594h8.984V0h-8.984v8.203Q42.578 3.328 38.25.953q-4.312-2.375-10.375-2.375-9.906 0-16.141 7.906-6.219 7.922-6.219 20.813 0 12.891 6.219 20.797Q17.969 56 27.875 56q6.063 0 10.375-2.375 4.328-2.359 7.156-7.234zM14.797 27.297q0-9.906 4.078-15.547 4.078-5.641 11.203-5.641 7.125 0 11.219 5.641 4.109 5.641 4.109 15.547 0 9.906-4.109 15.547-4.094 5.641-11.219 5.641-7.125 0-11.203-5.641-4.078-5.641-4.078-15.547z" id="i" class="B C"/><path d="M48.688 27.297q0 9.906-4.078 15.547-4.078 5.641-11.203 5.641-7.141 0-11.219-5.641-4.078-5.641-4.078-15.547 0-9.906 4.078-15.547 4.078-5.641 11.219-5.641 7.125 0 11.203 5.641 4.078 5.641 4.078 15.547zM18.109 46.391q2.844 4.875 7.156 7.234Q29.594 56 35.594 56q9.969 0 16.188-7.906 6.234-7.906 6.234-20.797 0-12.891-6.234-20.812-6.219-7.906-16.187-7.906-6 0-10.328 2.375-4.312 2.375-7.156 7.25V0H9.078v75.984h9.031z" id="j" class="B C"/></defs><use xlink:href="#L"/><use x="39.209" xlink:href="#e"/><use x="100.391" xlink:href="#g"/><use x="154.676" xlink:href="#R"/><use x="216.199" xlink:href="#O"/><use x="279.578" xlink:href="#h"/><use x="329.578" xlink:href="#K"/><use x="381.678" xlink:href="#e"/><use x="442.859" xlink:href="#M"/><use x="483.973" xlink:href="#L"/><use x="523.182" xlink:href="#h"/><use x="573.182" xlink:href="#M"/><use x="614.295" xlink:href="#V"/><use x="675.574" xlink:href="#L"/><use x="714.783" xlink:href="#N"/><use x="742.566" xlink:href="#e"/><use x="803.748" xlink:href="#AG"/><use x="835.535" xlink:href="#N"/><use x="863.318" xlink:href="#O"/><use x="926.697" xlink:href="#AG"/><use x="958.484" xlink:href="#i"/><use x="1021.961" xlink:href="#N"/><use x="1049.744" xlink:href="#d"/><use x="1084.949" xlink:href="#d"/><use x="1120.154" xlink:href="#R"/><use x="1181.678" xlink:href="#M"/><use x="1220.541" xlink:href="#R"/><use x="1282.064" xlink:href="#O"/><use x="1345.443" xlink:href="#L"/><use x="1384.652" xlink:href="#AG"/><use x="1416.439" xlink:href="#Q"/><use x="1444.223" xlink:href="#N"/><use x="1472.006" xlink:href="#j"/><use x="1535.482" xlink:href="#M"/><use x="1576.596" xlink:href="#V"/><use x="1637.875" xlink:href="#M"/><use x="1678.988" xlink:href="#N"/><use x="1706.771" xlink:href="#R"/><use x="1768.295" xlink:href="#K"/></g><path d="M318.515 78.828h89.205q2 0 2-2V48.472q0-2-2-2h-89.205q-2 0-2 2v28.356q0 2 2 2z" fill="#fff" opacity=".8" stroke="#ccc" class="K"/><path d="M320.515 54.57h20" stroke="#1f77b4" class="E F J"/><g transform="matrix(.1 0 0 -.1 348.515312 58.070437)"><defs><path d="M5.516 54.688h42.672v-8.203L14.406 7.172h33.781V0H4.297v8.203l33.797 39.313H5.516z" id="k" class="B C"/></defs><use xlink:href="#M"/><use x="41.113" xlink:href="#V"/><use x="102.393" xlink:href="#f"/><use x="165.869" xlink:href="#N"/><use x="193.652" xlink:href="#i"/><use x="257.129" xlink:href="#d"/><use x="292.334" xlink:href="#Z"/><use x="355.713" xlink:href="#k"/><use x="408.203" xlink:href="#k"/></g><path d="M320.515 69.249h20" stroke="#ff7f0e" class="E F J"/><g transform="matrix(.1 0 0 -.1 348.515312 72.748562)"><defs><path d="M32.172-5.078q-3.797-9.766-7.422-12.734-3.609-2.984-9.656-2.984H7.906v7.516h5.281q3.703 0 5.75 1.766Q21-9.766 23.484-3.219L25.094.875 2.984 54.688H12.5l17.094-42.766 17.094 42.766h9.516z" id="l" class="B C"/><path d="M4.203 54.688h8.984l11.234-42.672 11.172 42.672h10.594l11.234-42.672 11.188 42.672h8.984L63.281 0H52.688L40.922 44.828 29.109 0H18.5z" id="m" class="B C"/></defs><use xlink:href="#d"/><use x="35.205" xlink:href="#Z"/><use x="98.584" xlink:href="#k"/><use x="151.074" xlink:href="#k"/><use x="203.564" xlink:href="#l"/><use x="262.744" xlink:href="#m"/><use x="344.531" xlink:href="#Z"/><use x="407.91" xlink:href="#k"/><use x="460.4" xlink:href="#k"/><use x="512.891" xlink:href="#l"/></g><defs><clipPath id="n"><path d="M57.6 41.472h357.12v266.112H57.6z" class="B C"/></clipPath></defs></svg>
