<svg xmlns="http://www.w3.org/2000/svg" xmlns:xlink="http://www.w3.org/1999/xlink" height="460.8" viewBox="0 0 460.8 345.6" width="614.4" stroke-linecap="butt" stroke-linejoin="round" xmlns:v="https://vecta.io/nano"><style><![CDATA[.B{stroke-linecap:butt}.C{stroke-linejoin:round}.D{stroke-width:.8}.E{stroke-linecap:square}.F{fill:none}.G{stroke:#000}.H{clip-path:url(#n)}.I{stroke:#b0b0b0}.J{stroke-width:1.5}.K{stroke-linejoin:miter}]]></style><g fill="#fff"><path d="M0 345.6h460.8V0H0z"/><path d="M57.6 307.584h357.12V41.472H57.6z"/></g><path d="M57.6 307.584V41.472" class="D E F H I"/><defs><path d="M0 0v3.5" id="A" class="B C D G"/></defs><use x="57.6" xlink:href="#A" y="307.584" class="D G"/><g transform="matrix(.1 0 0 -.1 54.41875 322.182437)"><defs><path d="M31.781 66.406q-7.609 0-11.453-7.5Q16.5 51.422 16.5 36.375q0-14.984 3.828-22.484 3.844-7.5 11.453-7.5 7.672 0 11.5 7.5 3.844 7.5 3.844 22.484 0 15.047-3.844 22.531-3.828 7.5-11.5 7.5zm0 7.813q12.266 0 18.734-9.703 6.469-9.687 6.469-28.141 0-18.406-6.469-28.109-6.469-9.687-18.734-9.687-12.25 0-18.719 9.688-6.469 9.703-6.469 28.109 0 18.453 6.469 28.141 6.469 9.703 18.719 9.703z" id="B" class="B C"/></defs><use xlink:href="#B"/></g><g class="D"><path d="M100.201 307.584V41.472" class="E F H I"/><use x="100.201" xlink:href="#A" y="307.584" class="G"/></g><g transform="matrix(.1 0 0 -.1 93.838954 322.182437)"><defs><path d="M33.016 40.375q-6.641 0-10.531-4.547-3.875-4.531-3.875-12.437 0-7.859 3.875-12.437 3.891-4.562 10.531-4.562 6.641 0 10.516 4.563 3.875 4.578 3.875 12.438 0 7.906-3.875 12.438-3.875 4.547-10.516 4.547zm19.578 30.922v-8.984q-3.719 1.75-7.5 2.672-3.781.938-7.5.938-9.766 0-14.922-6.594-5.141-6.594-5.875-19.922 2.875 4.25 7.219 6.516 4.359 2.266 9.578 2.266 10.984 0 17.359-6.672 6.375-6.656 6.375-18.125 0-11.234-6.641-18.031-6.641-6.781-17.672-6.781-12.656 0-19.344 9.688-6.687 9.703-6.687 28.109 0 17.281 8.203 27.563 8.203 10.281 22.016 10.281 3.719 0 7.5-.734 3.781-.734 7.891-2.187z" id="C" class="B C"/><path d="M37.797 64.313L12.891 25.391h24.906zm-2.594 8.594h12.406V25.391h10.406v-8.203H47.609V0h-9.812v17.188H4.891v9.516z" id="D" class="B C"/></defs><use xlink:href="#C"/><use x="63.623" xlink:href="#D"/></g><g class="D"><path d="M142.803 307.584V41.472" class="E F H I"/><use x="142.803" xlink:href="#A" y="307.584" class="G"/></g><g transform="matrix(.1 0 0 -.1 133.259158 322.182437)"><defs><path d="M12.406 8.297h16.109v55.625l-17.531-3.516v8.984l17.438 3.516h9.859V8.297h16.109V0H12.406z" id="E" class="B C"/><path d="M19.188 8.297h34.422V0H7.328v8.297q5.609 5.813 15.297 15.594 9.703 9.797 12.188 12.641 4.734 5.313 6.609 9 1.891 3.688 1.891 7.25 0 5.813-4.078 9.469-4.078 3.672-10.625 3.672-4.641 0-9.797-1.609-5.141-1.609-11-4.891v9.969Q13.766 71.781 18.938 73q5.188 1.219 9.484 1.219 11.328 0 18.063-5.672 6.734-5.656 6.734-15.125 0-4.5-1.687-8.531-1.672-4.016-6.125-9.484-1.219-1.422-7.766-8.187-6.531-6.766-18.453-18.922z" id="F" class="B C"/><path d="M31.781 34.625q-7.031 0-11.062-3.766-4.016-3.766-4.016-10.344 0-6.594 4.016-10.359 4.031-3.766 11.063-3.766 7.031 0 11.078 3.781 4.063 3.797 4.063 10.344 0 6.578-4.031 10.344-4.016 3.766-11.109 3.766zm-9.859 4.188q-6.344 1.563-9.891 5.906Q8.5 49.078 8.5 55.328q0 8.734 6.219 13.813 6.234 5.078 17.063 5.078 10.891 0 17.094-5.078 6.203-5.078 6.203-13.812 0-6.25-3.547-10.609-3.531-4.344-9.828-5.906 7.125-1.656 11.094-6.5 3.984-4.828 3.984-11.797 0-10.609-6.469-16.281-6.469-5.656-18.531-5.656-12.047 0-18.531 5.656-6.469 5.672-6.469 16.281 0 6.969 4 11.797 4.016 4.844 11.141 6.5zm-3.609 15.578q0-5.656 3.531-8.828 3.547-3.172 9.938-3.172 6.359 0 9.938 3.172 3.594 3.172 3.594 8.828 0 5.672-3.594 8.844-3.578 3.172-9.937 3.172-6.391 0-9.937-3.172-3.531-3.172-3.531-8.844z" id="G" class="B C"/></defs><use xlink:href="#E"/><use x="63.623" xlink:href="#F"/><use x="127.246" xlink:href="#G"/></g><g class="D"><path d="M185.404 307.584V41.472" class="E F H I"/><use x="185.404" xlink:href="#A" y="307.584" class="G"/></g><g transform="matrix(.1 0 0 -.1 175.860612 322.182437)"><defs><path d="M10.984 1.516V10.5q3.719-1.766 7.516-2.687 3.813-.922 7.484-.922 9.766 0 14.906 6.563 5.156 6.563 5.891 19.953-2.828-4.203-7.187-6.453-4.344-2.25-9.609-2.25-10.937 0-17.312 6.609-6.375 6.625-6.375 18.109 0 11.219 6.641 18 6.641 6.797 17.672 6.797 12.656 0 19.313-9.703 6.672-9.687 6.672-28.141 0-17.234-8.187-27.516Q40.234-1.422 26.422-1.422q-3.719 0-7.531.734-3.797.734-7.906 2.203zm19.625 30.906q6.641 0 10.516 4.531 3.891 4.547 3.891 12.469 0 7.859-3.891 12.422-3.875 4.563-10.516 4.563-6.641 0-10.516-4.562-3.875-4.562-3.875-12.422 0-7.922 3.875-12.469 3.875-4.531 10.516-4.531z" id="H" class="B C"/></defs><use xlink:href="#E"/><use x="63.623" xlink:href="#H"/><use x="127.246" xlink:href="#F"/></g><g class="D"><path d="M228.006 307.584V41.472" class="E F H I"/><use x="228.006" xlink:href="#A" y="307.584" class="G"/></g><g transform="matrix(.1 0 0 -.1 218.462065 322.182437)"><defs><path d="M10.797 72.906h38.719v-8.312H19.828V46.734q2.141.734 4.281 1.094 2.156.359 4.313.359 12.203 0 19.328-6.687 7.141-6.687 7.141-18.109 0-11.766-7.328-18.297-7.328-6.516-20.656-6.516-4.594 0-9.359.781-4.75.781-9.828 2.344v9.922q4.391-2.391 9.078-3.562 4.688-1.172 9.906-1.172 8.453 0 13.375 4.438 4.938 4.438 4.938 12.063 0 7.609-4.937 12.047-4.922 4.453-13.375 4.453-3.953 0-7.891-.875-3.922-.875-8.016-2.734z" id="I" class="B C"/></defs><use xlink:href="#F"/><use x="63.623" xlink:href="#I"/><use x="127.246" xlink:href="#C"/></g><g class="D"><path d="M270.607 307.584V41.472" class="E F H I"/><use x="270.607" xlink:href="#A" y="307.584" class="G"/></g><g transform="matrix(.1 0 0 -.1 261.063519 322.182437)"><defs><path d="M40.578 39.313Q47.656 37.797 51.625 33q3.984-4.781 3.984-11.812 0-10.781-7.422-16.703-7.422-5.906-21.094-5.906-4.578 0-9.437.906-4.859.906-10.031 2.719v9.516q4.094-2.391 8.969-3.609 4.891-1.219 10.219-1.219 9.266 0 14.125 3.656 4.859 3.656 4.859 10.641 0 6.453-4.516 10.078-4.516 3.641-12.562 3.641h-8.5v8.109h8.891q7.266 0 11.125 2.906 3.859 2.906 3.859 8.375 0 5.609-3.984 8.609-3.969 3.016-11.391 3.016-4.062 0-8.703-.891-4.641-.875-10.203-2.719v8.781q5.625 1.563 10.531 2.344 4.906.781 9.25.781 11.234 0 17.766-5.109 6.547-5.094 6.547-13.781 0-6.062-3.469-10.234-3.469-4.172-9.859-5.781z" id="J" class="B C"/></defs><use xlink:href="#J"/><use x="63.623" xlink:href="#F"/><use x="127.246" xlink:href="#B"/></g><g class="D"><path d="M313.209 307.584V41.472" class="E F H I"/><use x="313.209" xlink:href="#A" y="307.584" class="G"/></g><g transform="matrix(.1 0 0 -.1 303.664973 322.182437)"><use xlink:href="#J"/><use x="63.623" xlink:href="#G"/><use x="127.246" xlink:href="#D"/></g><g class="D"><path d="M355.81 307.584V41.472" class="E F H I"/><use x="355.81" xlink:href="#A" y="307.584" class="G"/></g><g transform="matrix(.1 0 0 -.1 346.266427 322.182437)"><use xlink:href="#D"/><use x="63.623" xlink:href="#D"/><use x="127.246" xlink:href="#G"/></g><g class="D"><path d="M398.412 307.584V41.472" class="E F H I"/><use x="398.412" xlink:href="#A" y="307.584" class="G"/></g><g transform="matrix(.1 0 0 -.1 388.867881 322.182437)"><use xlink:href="#I"/><use x="63.623" xlink:href="#E"/><use x="127.246" xlink:href="#F"/></g><g transform="matrix(.1 0 0 -.1 168.700625 335.860562)"><defs><path d="M44.281 53.078v-8.5q-3.797 1.953-7.906 2.922-4.094.984-8.5.984-6.687 0-10.031-2.047-3.344-2.047-3.344-6.156 0-3.125 2.391-4.906 2.391-1.781 9.625-3.391l3.078-.687q9.563-2.047 13.594-5.781 4.031-3.734 4.031-10.422 0-7.625-6.031-12.078-6.031-4.437-16.578-4.437-4.391 0-9.156.859Q10.688.297 5.422 2v9.281q4.984-2.594 9.813-3.891 4.828-1.281 9.578-1.281 6.344 0 9.75 2.172 3.422 2.172 3.422 6.125 0 3.656-2.469 5.609-2.453 1.953-10.812 3.766l-3.125.734q-8.344 1.75-12.062 5.391-3.703 3.641-3.703 9.984 0 7.719 5.469 11.906Q16.75 56 26.813 56q4.969 0 9.359-.734 4.406-.719 8.109-2.187z" id="K" class="B C"/><path d="M18.313 70.219V54.688h18.5v-6.984h-18.5V18.016q0-6.687 1.828-8.594 1.828-1.906 7.453-1.906h9.219V0h-9.219Q17.188 0 13.234 3.875 9.281 7.766 9.281 18.016v29.688H2.688v6.984h6.594v15.531z" id="L" class="B C"/><path d="M41.109 46.297q-1.516.875-3.297 1.281-1.781.422-3.922.422-7.625 0-11.703-4.953-4.078-4.953-4.078-14.234V0H9.078v54.688h9.031v-8.5q2.844 4.984 7.375 7.391Q30.031 56 36.531 56q.922 0 2.047-.125 1.125-.109 2.484-.359z" id="M" class="B C"/><path d="M9.422 54.688h8.984V0H9.422zm0 21.297h8.984V64.594H9.422z" id="N" class="B C"/><path d="M54.891 33.016V0h-8.984v32.719q0 7.766-3.031 11.609-3.031 3.859-9.078 3.859-7.281 0-11.484-4.641-4.203-4.625-4.203-12.641V0H9.078v54.688h9.031v-8.5q3.234 4.938 7.594 7.375Q30.078 56 35.797 56q9.422 0 14.25-5.828 4.844-5.828 4.844-17.156z" id="O" class="B C"/><path d="M45.406 27.984q0 9.766-4.031 15.125-4.016 5.375-11.297 5.375-7.219 0-11.25-5.375-4.031-5.359-4.031-15.125 0-9.719 4.031-15.094 4.031-5.375 11.25-5.375 7.281 0 11.297 5.375 4.031 5.375 4.031 15.094zm8.984-21.203q0-13.953-6.203-20.766Q42-20.797 29.203-20.797q-4.734 0-8.937.703-4.203.703-8.156 2.172v8.734q3.953-2.141 7.813-3.156 3.859-1.031 7.859-1.031 8.844 0 13.234 4.609 4.391 4.609 4.391 13.938v4.453q-2.781-4.844-7.125-7.234Q33.938 0 27.875 0 17.828 0 11.672 7.656q-6.156 7.672-6.156 20.328 0 12.688 6.156 20.344Q17.828 56 27.875 56q6.063 0 10.406-2.391 4.344-2.391 7.125-7.219v8.297h8.984z" id="P" class="B C"/><path d="M9.422 75.984h8.984V0H9.422z" id="Q" class="B C"/><path d="M56.203 29.594v-4.391H14.891q.594-9.281 5.594-14.141 5-4.859 13.938-4.859 5.172 0 10.031 1.266 4.859 1.266 9.656 3.813v-8.5Q49.266.734 44.188-.344q-5.078-1.078-10.297-1.078-13.094 0-20.734 7.609-7.641 7.625-7.641 20.625 0 13.422 7.25 21.297Q20.016 56 32.328 56q11.031 0 17.453-7.109 6.422-7.094 6.422-19.297zm-8.984 2.641q-.094 7.359-4.125 11.75-4.031 4.406-10.672 4.406-7.516 0-12.031-4.25-4.516-4.25-5.203-11.969z" id="R" class="B C"/><path d="M54.891 33.016V0h-8.984v32.719q0 7.766-3.031 11.609-3.031 3.859-9.078 3.859-7.281 0-11.484-4.641-4.203-4.625-4.203-12.641V0H9.078v75.984h9.031V46.188q3.234 4.938 7.594 7.375Q30.078 56 35.797 56q9.422 0 14.25-5.828 4.844-5.828 4.844-17.156z" id="S" class="B C"/><path d="M8.594 75.984h20.703V69H17.578V-6.203h11.719v-6.984H8.594z" id="T" class="B C"/><path d="M48.781 52.594v-8.406q-3.812 2.109-7.641 3.156-3.828 1.047-7.734 1.047-8.75 0-13.594-5.547-4.828-5.531-4.828-15.547 0-10.016 4.828-15.562 4.844-5.531 13.594-5.531 3.906 0 7.734 1.047 3.828 1.047 7.641 3.156V2.094Q45.016.344 40.984-.531q-4.016-.891-8.562-.891-12.359 0-19.641 7.766-7.266 7.766-7.266 20.953 0 13.375 7.344 21.031Q20.219 56 33.016 56q4.141 0 8.094-.859 3.953-.844 7.672-2.547z" id="U" class="B C"/><path d="M34.281 27.484q-10.891 0-15.094-2.484-4.203-2.484-4.203-8.5 0-4.781 3.156-7.594 3.156-2.797 8.563-2.797 7.484 0 12 5.297 4.516 5.297 4.516 14.078v2zm17.922 3.719V0h-8.984v8.297Q40.141 3.328 35.547.953q-4.594-2.375-11.234-2.375-8.391 0-13.359 4.719Q6 8.016 6 15.922q0 9.219 6.172 13.906 6.188 4.688 18.438 4.688h12.609v.891q0 6.203-4.078 9.594-4.078 3.391-11.453 3.391-4.687 0-9.141-1.125-4.437-1.125-8.531-3.375v8.313q4.922 1.906 9.563 2.844 4.641.953 9.031.953 11.875 0 17.734-6.156 5.859-6.141 5.859-18.641z" id="V" class="B C"/><path d="M30.422 75.984v-89.172H9.719v6.984h11.672V69H9.719v6.984z" id="W" class="B C"/></defs><use xlink:href="#K"/><use x="52.1" xlink:href="#L"/><use x="91.309" xlink:href="#M"/><use x="132.422" xlink:href="#N"/><use x="160.205" xlink:href="#O"/><use x="223.584" xlink:href="#P"/><use x="287.061" xlink:href="#AG"/><use x="318.848" xlink:href="#Q"/><use x="346.631" xlink:href="#R"/><use x="408.154" xlink:href="#O"/><use x="471.533" xlink:href="#P"/><use x="535.01" xlink:href="#L"/><use x="574.219" xlink:href="#S"/><use x="637.598" xlink:href="#AG"/><use x="669.385" xlink:href="#T"/><use x="708.398" xlink:href="#N"/><use x="736.182" xlink:href="#O"/><use x="799.561" xlink:href="#AG"/><use x="831.348" xlink:href="#U"/><use x="886.328" xlink:href="#S"/><use x="949.707" xlink:href="#V"/><use x="1010.986" xlink:href="#M"/><use x="1052.1" xlink:href="#V"/><use x="1113.379" xlink:href="#U"/><use x="1168.359" xlink:href="#L"/><use x="1207.568" xlink:href="#R"/><use x="1269.092" xlink:href="#M"/><use x="1310.205" xlink:href="#W"/></g><path d="M57.6 307.584h357.12" class="D E F H I"/><defs><path d="M0 0h-3.5" id="X" class="B C D G"/></defs><use x="57.6" xlink:href="#X" y="307.584" class="D G"/><use xlink:href="#B" transform="matrix(.1 0 0 -.1 44.2375 311.383219)"/><g class="D"><path d="M57.6 269.333h357.12" class="E F H I"/><use x="57.6" xlink:href="#X" y="269.333" class="G"/></g><g transform="matrix(.1 0 0 -.1 18.7875 273.131751)"><use xlink:href="#E"/><use x="63.623" xlink:href="#B"/><use x="127.246" xlink:href="#B"/><use x="190.869" xlink:href="#B"/><use x="254.492" xlink:href="#B"/></g><g class="D"><path d="M57.6 231.081h357.12" class="E F H I"/><use x="57.6" xlink:href="#X" y="231.081" class="G"/></g><g transform="matrix(.1 0 0 -.1 18.7875 234.880284)"><use xlink:href="#F"/><use x="63.623" xlink:href="#B"/><use x="127.246" xlink:href="#B"/><use x="190.869" xlink:href="#B"/><use x="254.492" xlink:href="#B"/></g><g class="D"><path d="M57.6 192.83h357.12" class="E F H I"/><use x="57.6" xlink:href="#X" y="192.83" class="G"/></g><g transform="matrix(.1 0 0 -.1 18.7875 196.628816)"><use xlink:href="#J"/><use x="63.623" xlink:href="#B"/><use x="127.246" xlink:href="#B"/><use x="190.869" xlink:href="#B"/><use x="254.492" xlink:href="#B"/></g><g class="D"><path d="M57.6 154.578h357.12" class="E F H I"/><use x="57.6" xlink:href="#X" y="154.578" class="G"/></g><g transform="matrix(.1 0 0 -.1 18.7875 158.377349)"><use xlink:href="#D"/><use x="63.623" xlink:href="#B"/><use x="127.246" xlink:href="#B"/><use x="190.869" xlink:href="#B"/><use x="254.492" xlink:href="#B"/></g><g class="D"><path d="M57.6 116.327h357.12" class="E F H I"/><use x="57.6" xlink:href="#X" y="116.327" class="G"/></g><g transform="matrix(.1 0 0 -.1 18.7875 120.125881)"><use xlink:href="#I"/><use x="63.623" xlink:href="#B"/><use x="127.246" xlink:href="#B"/><use x="190.869" xlink:href="#B"/><use x="254.492" xlink:href="#B"/></g><g class="D"><path d="M57.6 78.075h357.12" class="E F H I"/><use x="57.6" xlink:href="#X" y="78.075" class="G"/></g><g transform="matrix(.1 0 0 -.1 18.7875 81.874414)"><use xlink:href="#C"/><use x="63.623" xlink:href="#B"/><use x="127.246" xlink:href="#B"/><use x="190.869" xlink:href="#B"/><use x="254.492" xlink:href="#B"/></g><g transform="matrix(0 -.1 -.1 0 12.707812 205.481125)"><defs><path d="M8.5 21.578v33.109h8.984V21.922q0-7.766 3.016-11.656 3.031-3.875 9.094-3.875 7.266 0 11.484 4.641 4.234 4.641 4.234 12.656v31h8.984V0h-8.984v8.406Q42.047 3.422 37.719 1q-4.312-2.422-10.031-2.422-9.422 0-14.312 5.859Q8.5 10.297 8.5 21.578zM31.109 56z" id="Y" class="B C"/><path d="M52 44.188q3.375 6.063 8.063 8.938Q64.75 56 71.094 56q8.547 0 13.188-5.984 4.641-5.969 4.641-17V0h-9.031v32.719q0 7.859-2.797 11.656-2.781 3.813-8.484 3.813-6.984 0-11.047-4.641-4.047-4.625-4.047-12.641V0h-9.031v32.719q0 7.906-2.781 11.688-2.781 3.781-8.594 3.781-6.891 0-10.953-4.656-4.047-4.656-4.047-12.625V0H9.078v54.688h9.031v-8.5q3.078 5.031 7.375 7.422Q29.781 56 35.688 56q5.969 0 10.141-3.031Q50 49.953 52 44.188z" id="Z" class="B C"/></defs><use xlink:href="#M"/><use x="41.113" xlink:href="#Y"/><use x="104.492" xlink:href="#O"/><use x="167.871" xlink:href="#L"/><use x="207.08" xlink:href="#N"/><use x="234.863" xlink:href="#Z"/><use x="332.275" xlink:href="#R"/><use x="393.799" xlink:href="#AG"/><use x="425.586" xlink:href="#T"/><use x="464.6" xlink:href="#O"/><use x="527.979" xlink:href="#K"/><use x="580.078" xlink:href="#W"/></g><g class="E F"><g class="J"><path d="M58.266 307.068l5.325-.091 35.945-.458 1.331-2.245 2.663-.187 10.65-.558 2.663-.175 1.331-.168 1.331.018 1.331.187 1.331-.348 2.663-.144 1.331.025 2.663-.269 6.656-.339 2.663-.362 1.331.301 1.331-.408 1.331.448 1.331-2.745 2.663-.299 3.994-.253 1.331-.153 1.331-.033 2.663-.22 3.994-.393 1.331-.008 2.663-.289 7.988-.646 3.994-.235 2.663-.2 6.656-.545 1.331-3.079 1.331-.233 7.988-.719 1.331-.299 7.988-.64 1.331-.223 1.331-.015 3.994-.549 2.663-.112 1.331-.127 1.331-.27 1.331.017 1.331-.231 6.656-.615 1.331-.155 1.331-3.856 1.331-.4 2.663-.186 1.331-.281 1.331.007 1.331-.275 1.331-.133 1.331-.265 2.663-.261 2.663-.314 1.331-.001 1.331-.431 2.663-.184 2.663-.56 2.663-.386 1.331.073 1.331-.21 1.331-.097 2.663-.466 1.331-.068 1.331-.289 5.325-.501 1.331-5.393 2.663-.508 1.331-.081 2.663-.635 1.331-.06 1.331-.265 2.663-.22 1.331-.333 3.994-.497 1.331-.295 2.663-.262 1.331-.279 1.331-.125 1.331-.258 2.663-.25 2.663-.527 1.331-.062 1.331-.348 1.331-.107 2.663-.473 3.994-.516 1.331-5.327 2.663-.58 1.331-.034 1.331-.491 1.331-.063 1.331-.331 2.663-.224 3.994-.701 3.994-.72 1.331-.112 3.994-.705 1.331-.322 1.331-.004 1.331-.334 9.319-1.419 1.331-.394 1.331-.099 1.331-.334 1.331-6.664 1.331-.398 5.325-1.057 1.331-.105 1.331-.421 1.331-.065 1.331-.462 1.331-.183 1.331-.405 1.331-.208 2.663-.244 1.331-.448 1.331-.146 1.331-.497 1.331.04 1.331-.411 2.663-.484 1.331-.058 1.331-.459 1.331-.308 1.331-.073 1.331-.309 1.331-.601 1.331.247 2.663-.834 1.331.05" stroke="#1f77b4" class="H"/><path d="M58.266 307.183l3.994-.322 2.663-.25 5.325-.853 3.994-.98 2.663-.865 1.331-.643 1.331-.498 1.331-.847 1.331-.27 2.663-1.293 2.663-1.234 2.663-1.393 1.331-.94 2.663-1.595 2.663-1.725 3.994-2.883 2.663-2.019 1.331-1.183 1.331-.965 1.331-1.659 6.656-6.247 5.325-5.211 1.331-2.263 5.325-6.21 7.988-10.181 5.325-7.242 2.663-4.033 5.325-8.27 3.994-6.351 6.656-11.334 1.331-1.826 1.331-2.928 2.663-4.704 7.988-15.396 6.656-13.648 3.994-8.524 9.319-20.965 9.319-22.599 7.988-20.517 3.994-10.664 5.325-14.61 6.656-19.041 2.663-7.877" stroke="#ff7f0e" class="H"/></g><g class="D G K"><path d="M57.6 307.584V41.472m357.12 266.112V41.472"/><path d="M57.6 307.584h357.12M57.6 41.472h357.12"/></g></g><g transform="matrix(.12 0 0 -.12 140.090625 22.034625)"><defs><path d="M19.672 64.797V37.406h12.406q6.891 0 10.641 3.563 3.766 3.563 3.766 10.156 0 6.547-3.766 10.109-3.75 3.563-10.641 3.563zm-9.859 8.109h22.266q12.266 0 18.531-5.547 6.281-5.547 6.281-16.234 0-10.797-6.281-16.312-6.266-5.516-18.531-5.516H19.672V0H9.813z" id="a" class="B C"/><path d="M37.109 75.984V68.5h-8.594q-4.828 0-6.719-1.953-1.875-1.953-1.875-7.031v-4.828h14.797v-6.984H19.922V0h-9.031v47.703H2.297v6.984h8.594V58.5q0 9.125 4.25 13.297 4.25 4.188 13.469 4.188z" id="b" class="B C"/><path d="M30.609 48.391q-7.219 0-11.422-5.641-4.203-5.641-4.203-15.453 0-9.812 4.172-15.453 4.188-5.641 11.453-5.641 7.188 0 11.375 5.656 4.203 5.672 4.203 15.438 0 9.719-4.203 15.406-4.187 5.688-11.375 5.688zm0 7.609q11.719 0 18.406-7.625 6.703-7.609 6.703-21.078 0-13.422-6.703-21.078-6.687-7.641-18.406-7.641-11.766 0-18.437 7.641-6.656 7.656-6.656 21.078 0 13.469 6.656 21.078Q18.844 56 30.609 56z" id="c" class="B C"/><path d="M18.109 8.203v-29H9.078v75.484h9.031v-8.297q2.844 4.875 7.156 7.234Q29.594 56 35.594 56q9.969 0 16.188-7.906 6.234-7.906 6.234-20.797 0-12.891-6.234-20.812-6.219-7.906-16.187-7.906-6 0-10.328 2.375-4.312 2.375-7.156 7.25zm30.578 19.094q0 9.906-4.078 15.547-4.078 5.641-11.203 5.641-7.141 0-11.219-5.641-4.078-5.641-4.078-15.547 0-9.906 4.078-15.547 4.078-5.641 11.219-5.641 7.125 0 11.203 5.641 4.078 5.641 4.078 15.547z" id="d" class="B C"/></defs><use xlink:href="#a"/><use x="56.678" xlink:href="#R"/><use x="118.201" xlink:href="#M"/><use x="159.314" xlink:href="#b"/><use x="194.52" xlink:href="#c"/><use x="255.701" xlink:href="#M"/><use x="295.064" xlink:href="#Z"/><use x="392.477" xlink:href="#V"/><use x="453.756" xlink:href="#O"/><use x="517.135" xlink:href="#U"/><use x="572.115" xlink:href="#R"/><use x="633.639" xlink:href="#AG"/><use x="665.426" xlink:href="#U"/><use x="720.406" xlink:href="#c"/><use x="781.588" xlink:href="#Z"/><use x="879" xlink:href="#d"/><use x="942.477" xlink:href="#V"/><use x="1003.756" xlink:href="#M"/><use x="1044.869" xlink:href="#N"/><use x="1072.652" xlink:href="#K"/><use x="1124.752" xlink:href="#N"/><use x="1152.535" xlink:href="#c"/><use x="1213.717" xlink:href="#O"/><use x="1277.096" xlink:href="#AG"/><use x="1308.883" xlink:href="#c"/><use x="1370.064" xlink:href="#b"/><use x="1405.27" xlink:href="#AG"/><use x="1437.057" xlink:href="#L"/><use x="1476.266" xlink:href="#S"/><use x="1539.645" xlink:href="#R"/></g><g transform="matrix(.12 0 0 -.12 132.280312 35.472)"><defs><path d="M9.813 72.906h9.859V0H9.813z" id="e" class="B C"/><path d="M19.672 64.797V8.109h11.922q15.094 0 22.094 6.828 7 6.844 7 21.594 0 14.641-7 21.453-7 6.813-22.094 6.813zm-9.859 8.109h20.266q21.188 0 31.094-8.812 9.922-8.812 9.922-27.562 0-18.859-9.969-27.703Q51.172 0 30.078 0H9.813z" id="f" class="B C"/><path d="M45.406 46.391v29.594h8.984V0h-8.984v8.203Q42.578 3.328 38.25.953q-4.312-2.375-10.375-2.375-9.906 0-16.141 7.906-6.219 7.922-6.219 20.813 0 12.891 6.219 20.797Q17.969 56 27.875 56q6.063 0 10.375-2.375 4.328-2.359 7.156-7.234zM14.797 27.297q0-9.906 4.078-15.547 4.078-5.641 11.203-5.641 7.125 0 11.219 5.641 4.109 5.641 4.109 15.547 0 9.906-4.109 15.547-4.094 5.641-11.219 5.641-7.125 0-11.203-5.641-4.078-5.641-4.078-15.547z" id="g" class="B C"/><path d="M48.688 27.297q0 9.906-4.078 15.547-4.078 5.641-11.203 5.641-7.141 0-11.219-5.641-4.078-5.641-4.078-15.547 0-9.906 4.078-15.547 4.078-5.641 11.219-5.641 7.125 0 11.203 5.641 4.078 5.641 4.078 15.547zM18.109 46.391q2.844 4.875 7.156 7.234Q29.594 56 35.594 56q9.969 0 16.188-7.906 6.234-7.906 6.234-20.797 0-12.891-6.234-20.812-6.219-7.906-16.187-7.906-6 0-10.328 2.375-4.312 2.375-7.156 7.25V0H9.078v75.984h9.031z" id="h" class="B C"/></defs><use xlink:href="#e"/><use x="29.492" xlink:href="#O"/><use x="92.871" xlink:href="#f"/><use x="169.873" xlink:href="#R"/><use x="231.396" xlink:href="#Q"/><use x="259.18" xlink:href="#AG"/><use x="290.967" xlink:href="#g"/><use x="354.443" xlink:href="#N"/><use x="382.227" xlink:href="#K"/><use x="434.326" xlink:href="#L"/><use x="473.535" xlink:href="#V"/><use x="534.814" xlink:href="#O"/><use x="598.193" xlink:href="#U"/><use x="653.174" xlink:href="#R"/><use x="714.697" xlink:href="#AG"/><use x="746.484" xlink:href="#N"/><use x="774.268" xlink:href="#O"/><use x="837.646" xlink:href="#AG"/><use x="869.434" xlink:href="#g"/><use x="932.91" xlink:href="#N"/><use x="960.693" xlink:href="#b"/><use x="995.898" xlink:href="#b"/><use x="1031.104" xlink:href="#R"/><use x="1092.627" xlink:href="#M"/><use x="1131.49" xlink:href="#R"/><use x="1193.014" xlink:href="#O"/><use x="1256.393" xlink:href="#L"/><use x="1295.602" xlink:href="#AG"/><use x="1327.389" xlink:href="#Q"/><use x="1355.172" xlink:href="#N"/><use x="1382.955" xlink:href="#h"/><use x="1446.432" xlink:href="#M"/><use x="1487.545" xlink:href="#V"/><use x="1548.824" xlink:href="#M"/><use x="1589.938" xlink:href="#N"/><use x="1617.721" xlink:href="#R"/><use x="1679.244" xlink:href="#K"/></g><path d="M276.436 78.828H407.72q2 0 2-2V48.472q0-2-2-2H276.436q-2 0-2 2v28.356q0 2 2 2z" fill="#fff" opacity=".8" stroke="#ccc" class="K"/><path d="M278.436 54.57h20" stroke="#1f77b4" class="E F J"/><g transform="matrix(.1 0 0 -.1 306.435625 58.070437)"><defs><path d="M5.516 54.688h42.672v-8.203L14.406 7.172h33.781V0H4.297v8.203l33.797 39.313H5.516z" id="i" class="B C"/></defs><use xlink:href="#M"/><use x="41.113" xlink:href="#V"/><use x="102.393" xlink:href="#d"/><use x="165.869" xlink:href="#N"/><use x="193.652" xlink:href="#g"/><use x="257.129" xlink:href="#b"/><use x="292.334" xlink:href="#Y"/><use x="355.713" xlink:href="#i"/><use x="408.203" xlink:href="#i"/></g><path d="M278.436 69.249h20" stroke="#ff7f0e" class="E F J"/><g transform="matrix(.1 0 0 -.1 306.435625 72.748562)"><defs><path d="M32.172-5.078q-3.797-9.766-7.422-12.734-3.609-2.984-9.656-2.984H7.906v7.516h5.281q3.703 0 5.75 1.766Q21-9.766 23.484-3.219L25.094.875 2.984 54.688H12.5l17.094-42.766 17.094 42.766h9.516z" id="j" class="B C"/><path d="M4.891 31.391h26.313v-8H4.891z" id="k" class="B C"/><path d="M9.813 72.906h9.859V8.297h35.5V0H9.813z" id="l" class="B C"/><path d="M2.984 54.688H12.5L29.594 8.797l17.094 45.891h9.516L35.688 0H23.484z" id="m" class="B C"/></defs><use xlink:href="#d"/><use x="63.477" xlink:href="#j"/><use x="122.656" xlink:href="#L"/><use x="161.865" xlink:href="#S"/><use x="225.244" xlink:href="#c"/><use x="286.426" xlink:href="#O"/><use x="349.805" xlink:href="#k"/><use x="385.889" xlink:href="#l"/><use x="439.852" xlink:href="#R"/><use x="501.375" xlink:href="#m"/><use x="560.555" xlink:href="#R"/><use x="622.078" xlink:href="#O"/><use x="685.457" xlink:href="#K"/><use x="737.557" xlink:href="#S"/><use x="800.936" xlink:href="#L"/><use x="840.145" xlink:href="#R"/><use x="901.668" xlink:href="#N"/><use x="929.451" xlink:href="#O"/></g><defs><clipPath id="n"><path d="M57.6 41.472h357.12v266.112H57.6z" class="B C"/></clipPath></defs></svg>