<?xml version="1.0" encoding="utf-8" standalone="no"?>
<!DOCTYPE svg PUBLIC "-//W3C//DTD SVG 1.1//EN"
  "http://www.w3.org/Graphics/SVG/1.1/DTD/svg11.dtd">
<svg height="345.6pt" version="1.1" viewBox="0 0 460.8 345.6" width="460.8pt" xmlns="http://www.w3.org/2000/svg" xmlns:xlink="http://www.w3.org/1999/xlink">
 <metadata>
  <rdf:RDF xmlns:cc="http://creativecommons.org/ns#" xmlns:dc="http://purl.org/dc/elements/1.1/" xmlns:rdf="http://www.w3.org/1999/02/22-rdf-syntax-ns#">
   <cc:Work>
    <dc:type rdf:resource="http://purl.org/dc/dcmitype/StillImage"/>
    <dc:date>2021-09-10T02:10:10.563291</dc:date>
    <dc:format>image/svg+xml</dc:format>
    <dc:creator>
     <cc:Agent>
      <dc:title>Matplotlib v3.4.3, https://matplotlib.org/</dc:title>
     </cc:Agent>
    </dc:creator>
   </cc:Work>
  </rdf:RDF>
 </metadata>
 <defs>
  <style type="text/css">*{stroke-linecap:butt;stroke-linejoin:round;}</style>
 </defs>
 <g id="figure_1">
  <g id="patch_1">
   <path d="M 0 345.6 
L 460.8 345.6 
L 460.8 0 
L 0 0 
z
" style="fill:#ffffff;"/>
  </g>
  <g id="axes_1">
   <g id="patch_2">
    <path d="M 57.6 307.584 
L 414.72 307.584 
L 414.72 41.472 
L 57.6 41.472 
z
" style="fill:#ffffff;"/>
   </g>
   <g id="matplotlib.axis_1">
    <g id="xtick_1">
     <g id="line2d_1">
      <path clip-path="url(#p9e7064ce5b)" d="M 57.6 307.584 
L 57.6 41.472 
" style="fill:none;stroke:#b0b0b0;stroke-linecap:square;stroke-width:0.8;"/>
     </g>
     <g id="line2d_2">
      <defs>
       <path d="M 0 0 
L 0 3.5 
" id="ma1d5adb5f7" style="stroke:#000000;stroke-width:0.8;"/>
      </defs>
      <g>
       <use style="stroke:#000000;stroke-width:0.8;" x="57.6" xlink:href="#ma1d5adb5f7" y="307.584"/>
      </g>
     </g>
     <g id="text_1">
      <!-- 0 -->
      <g transform="translate(54.41875 322.182437)scale(0.1 -0.1)">
       <defs>
        <path d="M 2034 4250 
Q 1547 4250 1301 3770 
Q 1056 3291 1056 2328 
Q 1056 1369 1301 889 
Q 1547 409 2034 409 
Q 2525 409 2770 889 
Q 3016 1369 3016 2328 
Q 3016 3291 2770 3770 
Q 2525 4250 2034 4250 
z
M 2034 4750 
Q 2819 4750 3233 4129 
Q 3647 3509 3647 2328 
Q 3647 1150 3233 529 
Q 2819 -91 2034 -91 
Q 1250 -91 836 529 
Q 422 1150 422 2328 
Q 422 3509 836 4129 
Q 1250 4750 2034 4750 
z
" id="DejaVuSans-30" transform="scale(0.015625)"/>
       </defs>
       <use xlink:href="#DejaVuSans-30"/>
      </g>
     </g>
    </g>
    <g id="xtick_2">
     <g id="line2d_3">
      <path clip-path="url(#p9e7064ce5b)" d="M 100.537592 307.584 
L 100.537592 41.472 
" style="fill:none;stroke:#b0b0b0;stroke-linecap:square;stroke-width:0.8;"/>
     </g>
     <g id="line2d_4">
      <g>
       <use style="stroke:#000000;stroke-width:0.8;" x="100.537592" xlink:href="#ma1d5adb5f7" y="307.584"/>
      </g>
     </g>
     <g id="text_2">
      <!-- 64 -->
      <g transform="translate(94.175092 322.182437)scale(0.1 -0.1)">
       <defs>
        <path d="M 2113 2584 
Q 1688 2584 1439 2293 
Q 1191 2003 1191 1497 
Q 1191 994 1439 701 
Q 1688 409 2113 409 
Q 2538 409 2786 701 
Q 3034 994 3034 1497 
Q 3034 2003 2786 2293 
Q 2538 2584 2113 2584 
z
M 3366 4563 
L 3366 3988 
Q 3128 4100 2886 4159 
Q 2644 4219 2406 4219 
Q 1781 4219 1451 3797 
Q 1122 3375 1075 2522 
Q 1259 2794 1537 2939 
Q 1816 3084 2150 3084 
Q 2853 3084 3261 2657 
Q 3669 2231 3669 1497 
Q 3669 778 3244 343 
Q 2819 -91 2113 -91 
Q 1303 -91 875 529 
Q 447 1150 447 2328 
Q 447 3434 972 4092 
Q 1497 4750 2381 4750 
Q 2619 4750 2861 4703 
Q 3103 4656 3366 4563 
z
" id="DejaVuSans-36" transform="scale(0.015625)"/>
        <path d="M 2419 4116 
L 825 1625 
L 2419 1625 
L 2419 4116 
z
M 2253 4666 
L 3047 4666 
L 3047 1625 
L 3713 1625 
L 3713 1100 
L 3047 1100 
L 3047 0 
L 2419 0 
L 2419 1100 
L 313 1100 
L 313 1709 
L 2253 4666 
z
" id="DejaVuSans-34" transform="scale(0.015625)"/>
       </defs>
       <use xlink:href="#DejaVuSans-36"/>
       <use x="63.623047" xlink:href="#DejaVuSans-34"/>
      </g>
     </g>
    </g>
    <g id="xtick_3">
     <g id="line2d_5">
      <path clip-path="url(#p9e7064ce5b)" d="M 143.475183 307.584 
L 143.475183 41.472 
" style="fill:none;stroke:#b0b0b0;stroke-linecap:square;stroke-width:0.8;"/>
     </g>
     <g id="line2d_6">
      <g>
       <use style="stroke:#000000;stroke-width:0.8;" x="143.475183" xlink:href="#ma1d5adb5f7" y="307.584"/>
      </g>
     </g>
     <g id="text_3">
      <!-- 128 -->
      <g transform="translate(133.931433 322.182437)scale(0.1 -0.1)">
       <defs>
        <path d="M 794 531 
L 1825 531 
L 1825 4091 
L 703 3866 
L 703 4441 
L 1819 4666 
L 2450 4666 
L 2450 531 
L 3481 531 
L 3481 0 
L 794 0 
L 794 531 
z
" id="DejaVuSans-31" transform="scale(0.015625)"/>
        <path d="M 1228 531 
L 3431 531 
L 3431 0 
L 469 0 
L 469 531 
Q 828 903 1448 1529 
Q 2069 2156 2228 2338 
Q 2531 2678 2651 2914 
Q 2772 3150 2772 3378 
Q 2772 3750 2511 3984 
Q 2250 4219 1831 4219 
Q 1534 4219 1204 4116 
Q 875 4013 500 3803 
L 500 4441 
Q 881 4594 1212 4672 
Q 1544 4750 1819 4750 
Q 2544 4750 2975 4387 
Q 3406 4025 3406 3419 
Q 3406 3131 3298 2873 
Q 3191 2616 2906 2266 
Q 2828 2175 2409 1742 
Q 1991 1309 1228 531 
z
" id="DejaVuSans-32" transform="scale(0.015625)"/>
        <path d="M 2034 2216 
Q 1584 2216 1326 1975 
Q 1069 1734 1069 1313 
Q 1069 891 1326 650 
Q 1584 409 2034 409 
Q 2484 409 2743 651 
Q 3003 894 3003 1313 
Q 3003 1734 2745 1975 
Q 2488 2216 2034 2216 
z
M 1403 2484 
Q 997 2584 770 2862 
Q 544 3141 544 3541 
Q 544 4100 942 4425 
Q 1341 4750 2034 4750 
Q 2731 4750 3128 4425 
Q 3525 4100 3525 3541 
Q 3525 3141 3298 2862 
Q 3072 2584 2669 2484 
Q 3125 2378 3379 2068 
Q 3634 1759 3634 1313 
Q 3634 634 3220 271 
Q 2806 -91 2034 -91 
Q 1263 -91 848 271 
Q 434 634 434 1313 
Q 434 1759 690 2068 
Q 947 2378 1403 2484 
z
M 1172 3481 
Q 1172 3119 1398 2916 
Q 1625 2713 2034 2713 
Q 2441 2713 2670 2916 
Q 2900 3119 2900 3481 
Q 2900 3844 2670 4047 
Q 2441 4250 2034 4250 
Q 1625 4250 1398 4047 
Q 1172 3844 1172 3481 
z
" id="DejaVuSans-38" transform="scale(0.015625)"/>
       </defs>
       <use xlink:href="#DejaVuSans-31"/>
       <use x="63.623047" xlink:href="#DejaVuSans-32"/>
       <use x="127.246094" xlink:href="#DejaVuSans-38"/>
      </g>
     </g>
    </g>
    <g id="xtick_4">
     <g id="line2d_7">
      <path clip-path="url(#p9e7064ce5b)" d="M 186.412775 307.584 
L 186.412775 41.472 
" style="fill:none;stroke:#b0b0b0;stroke-linecap:square;stroke-width:0.8;"/>
     </g>
     <g id="line2d_8">
      <g>
       <use style="stroke:#000000;stroke-width:0.8;" x="186.412775" xlink:href="#ma1d5adb5f7" y="307.584"/>
      </g>
     </g>
     <g id="text_4">
      <!-- 192 -->
      <g transform="translate(176.869025 322.182437)scale(0.1 -0.1)">
       <defs>
        <path d="M 703 97 
L 703 672 
Q 941 559 1184 500 
Q 1428 441 1663 441 
Q 2288 441 2617 861 
Q 2947 1281 2994 2138 
Q 2813 1869 2534 1725 
Q 2256 1581 1919 1581 
Q 1219 1581 811 2004 
Q 403 2428 403 3163 
Q 403 3881 828 4315 
Q 1253 4750 1959 4750 
Q 2769 4750 3195 4129 
Q 3622 3509 3622 2328 
Q 3622 1225 3098 567 
Q 2575 -91 1691 -91 
Q 1453 -91 1209 -44 
Q 966 3 703 97 
z
M 1959 2075 
Q 2384 2075 2632 2365 
Q 2881 2656 2881 3163 
Q 2881 3666 2632 3958 
Q 2384 4250 1959 4250 
Q 1534 4250 1286 3958 
Q 1038 3666 1038 3163 
Q 1038 2656 1286 2365 
Q 1534 2075 1959 2075 
z
" id="DejaVuSans-39" transform="scale(0.015625)"/>
       </defs>
       <use xlink:href="#DejaVuSans-31"/>
       <use x="63.623047" xlink:href="#DejaVuSans-39"/>
       <use x="127.246094" xlink:href="#DejaVuSans-32"/>
      </g>
     </g>
    </g>
    <g id="xtick_5">
     <g id="line2d_9">
      <path clip-path="url(#p9e7064ce5b)" d="M 229.350366 307.584 
L 229.350366 41.472 
" style="fill:none;stroke:#b0b0b0;stroke-linecap:square;stroke-width:0.8;"/>
     </g>
     <g id="line2d_10">
      <g>
       <use style="stroke:#000000;stroke-width:0.8;" x="229.350366" xlink:href="#ma1d5adb5f7" y="307.584"/>
      </g>
     </g>
     <g id="text_5">
      <!-- 256 -->
      <g transform="translate(219.806616 322.182437)scale(0.1 -0.1)">
       <defs>
        <path d="M 691 4666 
L 3169 4666 
L 3169 4134 
L 1269 4134 
L 1269 2991 
Q 1406 3038 1543 3061 
Q 1681 3084 1819 3084 
Q 2600 3084 3056 2656 
Q 3513 2228 3513 1497 
Q 3513 744 3044 326 
Q 2575 -91 1722 -91 
Q 1428 -91 1123 -41 
Q 819 9 494 109 
L 494 744 
Q 775 591 1075 516 
Q 1375 441 1709 441 
Q 2250 441 2565 725 
Q 2881 1009 2881 1497 
Q 2881 1984 2565 2268 
Q 2250 2553 1709 2553 
Q 1456 2553 1204 2497 
Q 953 2441 691 2322 
L 691 4666 
z
" id="DejaVuSans-35" transform="scale(0.015625)"/>
       </defs>
       <use xlink:href="#DejaVuSans-32"/>
       <use x="63.623047" xlink:href="#DejaVuSans-35"/>
       <use x="127.246094" xlink:href="#DejaVuSans-36"/>
      </g>
     </g>
    </g>
    <g id="xtick_6">
     <g id="line2d_11">
      <path clip-path="url(#p9e7064ce5b)" d="M 272.287958 307.584 
L 272.287958 41.472 
" style="fill:none;stroke:#b0b0b0;stroke-linecap:square;stroke-width:0.8;"/>
     </g>
     <g id="line2d_12">
      <g>
       <use style="stroke:#000000;stroke-width:0.8;" x="272.287958" xlink:href="#ma1d5adb5f7" y="307.584"/>
      </g>
     </g>
     <g id="text_6">
      <!-- 320 -->
      <g transform="translate(262.744208 322.182437)scale(0.1 -0.1)">
       <defs>
        <path d="M 2597 2516 
Q 3050 2419 3304 2112 
Q 3559 1806 3559 1356 
Q 3559 666 3084 287 
Q 2609 -91 1734 -91 
Q 1441 -91 1130 -33 
Q 819 25 488 141 
L 488 750 
Q 750 597 1062 519 
Q 1375 441 1716 441 
Q 2309 441 2620 675 
Q 2931 909 2931 1356 
Q 2931 1769 2642 2001 
Q 2353 2234 1838 2234 
L 1294 2234 
L 1294 2753 
L 1863 2753 
Q 2328 2753 2575 2939 
Q 2822 3125 2822 3475 
Q 2822 3834 2567 4026 
Q 2313 4219 1838 4219 
Q 1578 4219 1281 4162 
Q 984 4106 628 3988 
L 628 4550 
Q 988 4650 1302 4700 
Q 1616 4750 1894 4750 
Q 2613 4750 3031 4423 
Q 3450 4097 3450 3541 
Q 3450 3153 3228 2886 
Q 3006 2619 2597 2516 
z
" id="DejaVuSans-33" transform="scale(0.015625)"/>
       </defs>
       <use xlink:href="#DejaVuSans-33"/>
       <use x="63.623047" xlink:href="#DejaVuSans-32"/>
       <use x="127.246094" xlink:href="#DejaVuSans-30"/>
      </g>
     </g>
    </g>
    <g id="xtick_7">
     <g id="line2d_13">
      <path clip-path="url(#p9e7064ce5b)" d="M 315.22555 307.584 
L 315.22555 41.472 
" style="fill:none;stroke:#b0b0b0;stroke-linecap:square;stroke-width:0.8;"/>
     </g>
     <g id="line2d_14">
      <g>
       <use style="stroke:#000000;stroke-width:0.8;" x="315.22555" xlink:href="#ma1d5adb5f7" y="307.584"/>
      </g>
     </g>
     <g id="text_7">
      <!-- 384 -->
      <g transform="translate(305.6818 322.182437)scale(0.1 -0.1)">
       <use xlink:href="#DejaVuSans-33"/>
       <use x="63.623047" xlink:href="#DejaVuSans-38"/>
       <use x="127.246094" xlink:href="#DejaVuSans-34"/>
      </g>
     </g>
    </g>
    <g id="xtick_8">
     <g id="line2d_15">
      <path clip-path="url(#p9e7064ce5b)" d="M 358.163141 307.584 
L 358.163141 41.472 
" style="fill:none;stroke:#b0b0b0;stroke-linecap:square;stroke-width:0.8;"/>
     </g>
     <g id="line2d_16">
      <g>
       <use style="stroke:#000000;stroke-width:0.8;" x="358.163141" xlink:href="#ma1d5adb5f7" y="307.584"/>
      </g>
     </g>
     <g id="text_8">
      <!-- 448 -->
      <g transform="translate(348.619391 322.182437)scale(0.1 -0.1)">
       <use xlink:href="#DejaVuSans-34"/>
       <use x="63.623047" xlink:href="#DejaVuSans-34"/>
       <use x="127.246094" xlink:href="#DejaVuSans-38"/>
      </g>
     </g>
    </g>
    <g id="xtick_9">
     <g id="line2d_17">
      <path clip-path="url(#p9e7064ce5b)" d="M 401.100733 307.584 
L 401.100733 41.472 
" style="fill:none;stroke:#b0b0b0;stroke-linecap:square;stroke-width:0.8;"/>
     </g>
     <g id="line2d_18">
      <g>
       <use style="stroke:#000000;stroke-width:0.8;" x="401.100733" xlink:href="#ma1d5adb5f7" y="307.584"/>
      </g>
     </g>
     <g id="text_9">
      <!-- 512 -->
      <g transform="translate(391.556983 322.182437)scale(0.1 -0.1)">
       <use xlink:href="#DejaVuSans-35"/>
       <use x="63.623047" xlink:href="#DejaVuSans-31"/>
       <use x="127.246094" xlink:href="#DejaVuSans-32"/>
      </g>
     </g>
    </g>
    <g id="text_10">
     <!-- string length [in characters] -->
     <g transform="translate(166.095937 335.860562)scale(0.1 -0.1)">
      <defs>
       <path d="M 2834 3397 
L 2834 2853 
Q 2591 2978 2328 3040 
Q 2066 3103 1784 3103 
Q 1356 3103 1142 2972 
Q 928 2841 928 2578 
Q 928 2378 1081 2264 
Q 1234 2150 1697 2047 
L 1894 2003 
Q 2506 1872 2764 1633 
Q 3022 1394 3022 966 
Q 3022 478 2636 193 
Q 2250 -91 1575 -91 
Q 1294 -91 989 -36 
Q 684 19 347 128 
L 347 722 
Q 666 556 975 473 
Q 1284 391 1588 391 
Q 1994 391 2212 530 
Q 2431 669 2431 922 
Q 2431 1156 2273 1281 
Q 2116 1406 1581 1522 
L 1381 1569 
Q 847 1681 609 1914 
Q 372 2147 372 2553 
Q 372 3047 722 3315 
Q 1072 3584 1716 3584 
Q 2034 3584 2315 3537 
Q 2597 3491 2834 3397 
z
" id="DejaVuSans-73" transform="scale(0.015625)"/>
       <path d="M 1172 4494 
L 1172 3500 
L 2356 3500 
L 2356 3053 
L 1172 3053 
L 1172 1153 
Q 1172 725 1289 603 
Q 1406 481 1766 481 
L 2356 481 
L 2356 0 
L 1766 0 
Q 1100 0 847 248 
Q 594 497 594 1153 
L 594 3053 
L 172 3053 
L 172 3500 
L 594 3500 
L 594 4494 
L 1172 4494 
z
" id="DejaVuSans-74" transform="scale(0.015625)"/>
       <path d="M 2631 2963 
Q 2534 3019 2420 3045 
Q 2306 3072 2169 3072 
Q 1681 3072 1420 2755 
Q 1159 2438 1159 1844 
L 1159 0 
L 581 0 
L 581 3500 
L 1159 3500 
L 1159 2956 
Q 1341 3275 1631 3429 
Q 1922 3584 2338 3584 
Q 2397 3584 2469 3576 
Q 2541 3569 2628 3553 
L 2631 2963 
z
" id="DejaVuSans-72" transform="scale(0.015625)"/>
       <path d="M 603 3500 
L 1178 3500 
L 1178 0 
L 603 0 
L 603 3500 
z
M 603 4863 
L 1178 4863 
L 1178 4134 
L 603 4134 
L 603 4863 
z
" id="DejaVuSans-69" transform="scale(0.015625)"/>
       <path d="M 3513 2113 
L 3513 0 
L 2938 0 
L 2938 2094 
Q 2938 2591 2744 2837 
Q 2550 3084 2163 3084 
Q 1697 3084 1428 2787 
Q 1159 2491 1159 1978 
L 1159 0 
L 581 0 
L 581 3500 
L 1159 3500 
L 1159 2956 
Q 1366 3272 1645 3428 
Q 1925 3584 2291 3584 
Q 2894 3584 3203 3211 
Q 3513 2838 3513 2113 
z
" id="DejaVuSans-6e" transform="scale(0.015625)"/>
       <path d="M 2906 1791 
Q 2906 2416 2648 2759 
Q 2391 3103 1925 3103 
Q 1463 3103 1205 2759 
Q 947 2416 947 1791 
Q 947 1169 1205 825 
Q 1463 481 1925 481 
Q 2391 481 2648 825 
Q 2906 1169 2906 1791 
z
M 3481 434 
Q 3481 -459 3084 -895 
Q 2688 -1331 1869 -1331 
Q 1566 -1331 1297 -1286 
Q 1028 -1241 775 -1147 
L 775 -588 
Q 1028 -725 1275 -790 
Q 1522 -856 1778 -856 
Q 2344 -856 2625 -561 
Q 2906 -266 2906 331 
L 2906 616 
Q 2728 306 2450 153 
Q 2172 0 1784 0 
Q 1141 0 747 490 
Q 353 981 353 1791 
Q 353 2603 747 3093 
Q 1141 3584 1784 3584 
Q 2172 3584 2450 3431 
Q 2728 3278 2906 2969 
L 2906 3500 
L 3481 3500 
L 3481 434 
z
" id="DejaVuSans-67" transform="scale(0.015625)"/>
       <path id="DejaVuSans-20" transform="scale(0.015625)"/>
       <path d="M 603 4863 
L 1178 4863 
L 1178 0 
L 603 0 
L 603 4863 
z
" id="DejaVuSans-6c" transform="scale(0.015625)"/>
       <path d="M 3597 1894 
L 3597 1613 
L 953 1613 
Q 991 1019 1311 708 
Q 1631 397 2203 397 
Q 2534 397 2845 478 
Q 3156 559 3463 722 
L 3463 178 
Q 3153 47 2828 -22 
Q 2503 -91 2169 -91 
Q 1331 -91 842 396 
Q 353 884 353 1716 
Q 353 2575 817 3079 
Q 1281 3584 2069 3584 
Q 2775 3584 3186 3129 
Q 3597 2675 3597 1894 
z
M 3022 2063 
Q 3016 2534 2758 2815 
Q 2500 3097 2075 3097 
Q 1594 3097 1305 2825 
Q 1016 2553 972 2059 
L 3022 2063 
z
" id="DejaVuSans-65" transform="scale(0.015625)"/>
       <path d="M 3513 2113 
L 3513 0 
L 2938 0 
L 2938 2094 
Q 2938 2591 2744 2837 
Q 2550 3084 2163 3084 
Q 1697 3084 1428 2787 
Q 1159 2491 1159 1978 
L 1159 0 
L 581 0 
L 581 4863 
L 1159 4863 
L 1159 2956 
Q 1366 3272 1645 3428 
Q 1925 3584 2291 3584 
Q 2894 3584 3203 3211 
Q 3513 2838 3513 2113 
z
" id="DejaVuSans-68" transform="scale(0.015625)"/>
       <path d="M 550 4863 
L 1875 4863 
L 1875 4416 
L 1125 4416 
L 1125 -397 
L 1875 -397 
L 1875 -844 
L 550 -844 
L 550 4863 
z
" id="DejaVuSans-5b" transform="scale(0.015625)"/>
       <path d="M 3122 3366 
L 3122 2828 
Q 2878 2963 2633 3030 
Q 2388 3097 2138 3097 
Q 1578 3097 1268 2742 
Q 959 2388 959 1747 
Q 959 1106 1268 751 
Q 1578 397 2138 397 
Q 2388 397 2633 464 
Q 2878 531 3122 666 
L 3122 134 
Q 2881 22 2623 -34 
Q 2366 -91 2075 -91 
Q 1284 -91 818 406 
Q 353 903 353 1747 
Q 353 2603 823 3093 
Q 1294 3584 2113 3584 
Q 2378 3584 2631 3529 
Q 2884 3475 3122 3366 
z
" id="DejaVuSans-63" transform="scale(0.015625)"/>
       <path d="M 2194 1759 
Q 1497 1759 1228 1600 
Q 959 1441 959 1056 
Q 959 750 1161 570 
Q 1363 391 1709 391 
Q 2188 391 2477 730 
Q 2766 1069 2766 1631 
L 2766 1759 
L 2194 1759 
z
M 3341 1997 
L 3341 0 
L 2766 0 
L 2766 531 
Q 2569 213 2275 61 
Q 1981 -91 1556 -91 
Q 1019 -91 701 211 
Q 384 513 384 1019 
Q 384 1609 779 1909 
Q 1175 2209 1959 2209 
L 2766 2209 
L 2766 2266 
Q 2766 2663 2505 2880 
Q 2244 3097 1772 3097 
Q 1472 3097 1187 3025 
Q 903 2953 641 2809 
L 641 3341 
Q 956 3463 1253 3523 
Q 1550 3584 1831 3584 
Q 2591 3584 2966 3190 
Q 3341 2797 3341 1997 
z
" id="DejaVuSans-61" transform="scale(0.015625)"/>
       <path d="M 1947 4863 
L 1947 -844 
L 622 -844 
L 622 -397 
L 1369 -397 
L 1369 4416 
L 622 4416 
L 622 4863 
L 1947 4863 
z
" id="DejaVuSans-5d" transform="scale(0.015625)"/>
      </defs>
      <use xlink:href="#DejaVuSans-73"/>
      <use x="52.099609" xlink:href="#DejaVuSans-74"/>
      <use x="91.308594" xlink:href="#DejaVuSans-72"/>
      <use x="132.421875" xlink:href="#DejaVuSans-69"/>
      <use x="160.205078" xlink:href="#DejaVuSans-6e"/>
      <use x="223.583984" xlink:href="#DejaVuSans-67"/>
      <use x="287.060547" xlink:href="#DejaVuSans-20"/>
      <use x="318.847656" xlink:href="#DejaVuSans-6c"/>
      <use x="346.630859" xlink:href="#DejaVuSans-65"/>
      <use x="408.154297" xlink:href="#DejaVuSans-6e"/>
      <use x="471.533203" xlink:href="#DejaVuSans-67"/>
      <use x="535.009766" xlink:href="#DejaVuSans-74"/>
      <use x="574.21875" xlink:href="#DejaVuSans-68"/>
      <use x="637.597656" xlink:href="#DejaVuSans-20"/>
      <use x="669.384766" xlink:href="#DejaVuSans-5b"/>
      <use x="708.398438" xlink:href="#DejaVuSans-69"/>
      <use x="736.181641" xlink:href="#DejaVuSans-6e"/>
      <use x="799.560547" xlink:href="#DejaVuSans-20"/>
      <use x="831.347656" xlink:href="#DejaVuSans-63"/>
      <use x="886.328125" xlink:href="#DejaVuSans-68"/>
      <use x="949.707031" xlink:href="#DejaVuSans-61"/>
      <use x="1010.986328" xlink:href="#DejaVuSans-72"/>
      <use x="1052.099609" xlink:href="#DejaVuSans-61"/>
      <use x="1113.378906" xlink:href="#DejaVuSans-63"/>
      <use x="1168.359375" xlink:href="#DejaVuSans-74"/>
      <use x="1207.568359" xlink:href="#DejaVuSans-65"/>
      <use x="1269.091797" xlink:href="#DejaVuSans-72"/>
      <use x="1310.205078" xlink:href="#DejaVuSans-73"/>
      <use x="1362.304688" xlink:href="#DejaVuSans-5d"/>
     </g>
    </g>
   </g>
   <g id="matplotlib.axis_2">
    <g id="ytick_1">
     <g id="line2d_19">
      <path clip-path="url(#p9e7064ce5b)" d="M 57.6 307.584 
L 414.72 307.584 
" style="fill:none;stroke:#b0b0b0;stroke-linecap:square;stroke-width:0.8;"/>
     </g>
     <g id="line2d_20">
      <defs>
       <path d="M 0 0 
L -3.5 0 
" id="mcf6134fb9a" style="stroke:#000000;stroke-width:0.8;"/>
      </defs>
      <g>
       <use style="stroke:#000000;stroke-width:0.8;" x="57.6" xlink:href="#mcf6134fb9a" y="307.584"/>
      </g>
     </g>
     <g id="text_11">
      <!-- 0 -->
      <g transform="translate(44.2375 311.383219)scale(0.1 -0.1)">
       <use xlink:href="#DejaVuSans-30"/>
      </g>
     </g>
    </g>
    <g id="ytick_2">
     <g id="line2d_21">
      <path clip-path="url(#p9e7064ce5b)" d="M 57.6 272.140707 
L 414.72 272.140707 
" style="fill:none;stroke:#b0b0b0;stroke-linecap:square;stroke-width:0.8;"/>
     </g>
     <g id="line2d_22">
      <g>
       <use style="stroke:#000000;stroke-width:0.8;" x="57.6" xlink:href="#mcf6134fb9a" y="272.140707"/>
      </g>
     </g>
     <g id="text_12">
      <!-- 10 -->
      <g transform="translate(37.875 275.939926)scale(0.1 -0.1)">
       <use xlink:href="#DejaVuSans-31"/>
       <use x="63.623047" xlink:href="#DejaVuSans-30"/>
      </g>
     </g>
    </g>
    <g id="ytick_3">
     <g id="line2d_23">
      <path clip-path="url(#p9e7064ce5b)" d="M 57.6 236.697414 
L 414.72 236.697414 
" style="fill:none;stroke:#b0b0b0;stroke-linecap:square;stroke-width:0.8;"/>
     </g>
     <g id="line2d_24">
      <g>
       <use style="stroke:#000000;stroke-width:0.8;" x="57.6" xlink:href="#mcf6134fb9a" y="236.697414"/>
      </g>
     </g>
     <g id="text_13">
      <!-- 20 -->
      <g transform="translate(37.875 240.496633)scale(0.1 -0.1)">
       <use xlink:href="#DejaVuSans-32"/>
       <use x="63.623047" xlink:href="#DejaVuSans-30"/>
      </g>
     </g>
    </g>
    <g id="ytick_4">
     <g id="line2d_25">
      <path clip-path="url(#p9e7064ce5b)" d="M 57.6 201.254122 
L 414.72 201.254122 
" style="fill:none;stroke:#b0b0b0;stroke-linecap:square;stroke-width:0.8;"/>
     </g>
     <g id="line2d_26">
      <g>
       <use style="stroke:#000000;stroke-width:0.8;" x="57.6" xlink:href="#mcf6134fb9a" y="201.254122"/>
      </g>
     </g>
     <g id="text_14">
      <!-- 30 -->
      <g transform="translate(37.875 205.05334)scale(0.1 -0.1)">
       <use xlink:href="#DejaVuSans-33"/>
       <use x="63.623047" xlink:href="#DejaVuSans-30"/>
      </g>
     </g>
    </g>
    <g id="ytick_5">
     <g id="line2d_27">
      <path clip-path="url(#p9e7064ce5b)" d="M 57.6 165.810829 
L 414.72 165.810829 
" style="fill:none;stroke:#b0b0b0;stroke-linecap:square;stroke-width:0.8;"/>
     </g>
     <g id="line2d_28">
      <g>
       <use style="stroke:#000000;stroke-width:0.8;" x="57.6" xlink:href="#mcf6134fb9a" y="165.810829"/>
      </g>
     </g>
     <g id="text_15">
      <!-- 40 -->
      <g transform="translate(37.875 169.610048)scale(0.1 -0.1)">
       <use xlink:href="#DejaVuSans-34"/>
       <use x="63.623047" xlink:href="#DejaVuSans-30"/>
      </g>
     </g>
    </g>
    <g id="ytick_6">
     <g id="line2d_29">
      <path clip-path="url(#p9e7064ce5b)" d="M 57.6 130.367536 
L 414.72 130.367536 
" style="fill:none;stroke:#b0b0b0;stroke-linecap:square;stroke-width:0.8;"/>
     </g>
     <g id="line2d_30">
      <g>
       <use style="stroke:#000000;stroke-width:0.8;" x="57.6" xlink:href="#mcf6134fb9a" y="130.367536"/>
      </g>
     </g>
     <g id="text_16">
      <!-- 50 -->
      <g transform="translate(37.875 134.166755)scale(0.1 -0.1)">
       <use xlink:href="#DejaVuSans-35"/>
       <use x="63.623047" xlink:href="#DejaVuSans-30"/>
      </g>
     </g>
    </g>
    <g id="ytick_7">
     <g id="line2d_31">
      <path clip-path="url(#p9e7064ce5b)" d="M 57.6 94.924243 
L 414.72 94.924243 
" style="fill:none;stroke:#b0b0b0;stroke-linecap:square;stroke-width:0.8;"/>
     </g>
     <g id="line2d_32">
      <g>
       <use style="stroke:#000000;stroke-width:0.8;" x="57.6" xlink:href="#mcf6134fb9a" y="94.924243"/>
      </g>
     </g>
     <g id="text_17">
      <!-- 60 -->
      <g transform="translate(37.875 98.723462)scale(0.1 -0.1)">
       <use xlink:href="#DejaVuSans-36"/>
       <use x="63.623047" xlink:href="#DejaVuSans-30"/>
      </g>
     </g>
    </g>
    <g id="ytick_8">
     <g id="line2d_33">
      <path clip-path="url(#p9e7064ce5b)" d="M 57.6 59.48095 
L 414.72 59.48095 
" style="fill:none;stroke:#b0b0b0;stroke-linecap:square;stroke-width:0.8;"/>
     </g>
     <g id="line2d_34">
      <g>
       <use style="stroke:#000000;stroke-width:0.8;" x="57.6" xlink:href="#mcf6134fb9a" y="59.48095"/>
      </g>
     </g>
     <g id="text_18">
      <!-- 70 -->
      <g transform="translate(37.875 63.280169)scale(0.1 -0.1)">
       <defs>
        <path d="M 525 4666 
L 3525 4666 
L 3525 4397 
L 1831 0 
L 1172 0 
L 2766 4134 
L 525 4134 
L 525 4666 
z
" id="DejaVuSans-37" transform="scale(0.015625)"/>
       </defs>
       <use xlink:href="#DejaVuSans-37"/>
       <use x="63.623047" xlink:href="#DejaVuSans-30"/>
      </g>
     </g>
    </g>
    <g id="text_19">
     <!-- runtime [ns] -->
     <g transform="translate(31.795312 205.481125)rotate(-90)scale(0.1 -0.1)">
      <defs>
       <path d="M 544 1381 
L 544 3500 
L 1119 3500 
L 1119 1403 
Q 1119 906 1312 657 
Q 1506 409 1894 409 
Q 2359 409 2629 706 
Q 2900 1003 2900 1516 
L 2900 3500 
L 3475 3500 
L 3475 0 
L 2900 0 
L 2900 538 
Q 2691 219 2414 64 
Q 2138 -91 1772 -91 
Q 1169 -91 856 284 
Q 544 659 544 1381 
z
M 1991 3584 
L 1991 3584 
z
" id="DejaVuSans-75" transform="scale(0.015625)"/>
       <path d="M 3328 2828 
Q 3544 3216 3844 3400 
Q 4144 3584 4550 3584 
Q 5097 3584 5394 3201 
Q 5691 2819 5691 2113 
L 5691 0 
L 5113 0 
L 5113 2094 
Q 5113 2597 4934 2840 
Q 4756 3084 4391 3084 
Q 3944 3084 3684 2787 
Q 3425 2491 3425 1978 
L 3425 0 
L 2847 0 
L 2847 2094 
Q 2847 2600 2669 2842 
Q 2491 3084 2119 3084 
Q 1678 3084 1418 2786 
Q 1159 2488 1159 1978 
L 1159 0 
L 581 0 
L 581 3500 
L 1159 3500 
L 1159 2956 
Q 1356 3278 1631 3431 
Q 1906 3584 2284 3584 
Q 2666 3584 2933 3390 
Q 3200 3197 3328 2828 
z
" id="DejaVuSans-6d" transform="scale(0.015625)"/>
      </defs>
      <use xlink:href="#DejaVuSans-72"/>
      <use x="41.113281" xlink:href="#DejaVuSans-75"/>
      <use x="104.492188" xlink:href="#DejaVuSans-6e"/>
      <use x="167.871094" xlink:href="#DejaVuSans-74"/>
      <use x="207.080078" xlink:href="#DejaVuSans-69"/>
      <use x="234.863281" xlink:href="#DejaVuSans-6d"/>
      <use x="332.275391" xlink:href="#DejaVuSans-65"/>
      <use x="393.798828" xlink:href="#DejaVuSans-20"/>
      <use x="425.585938" xlink:href="#DejaVuSans-5b"/>
      <use x="464.599609" xlink:href="#DejaVuSans-6e"/>
      <use x="527.978516" xlink:href="#DejaVuSans-73"/>
      <use x="580.078125" xlink:href="#DejaVuSans-5d"/>
     </g>
    </g>
   </g>
   <g id="line2d_35">
    <path clip-path="url(#p9e7064ce5b)" d="M 100.537592 297.981695 
L 104.562991 297.229272 
L 108.58839 296.547495 
L 112.613789 295.905532 
L 123.348187 294.077645 
L 128.715386 293.2703 
L 130.057186 292.918804 
L 134.082585 292.272918 
L 135.424385 292.040635 
L 136.766184 291.993868 
L 138.107984 291.738514 
L 139.449784 291.363826 
L 142.133383 290.969698 
L 143.475183 290.983117 
L 144.816983 290.780983 
L 146.158783 290.736221 
L 147.500582 290.225506 
L 148.842382 289.88253 
L 154.209581 289.312434 
L 156.893181 288.777908 
L 158.23498 288.725646 
L 159.57678 288.129829 
L 160.91858 287.897357 
L 162.260379 287.975378 
L 163.602179 287.805485 
L 164.943979 287.348401 
L 166.285779 287.04141 
L 167.627578 286.867752 
L 168.969378 286.976602 
L 171.652978 286.446424 
L 172.994777 285.375278 
L 174.336577 285.361767 
L 175.678377 284.807044 
L 178.361976 284.848465 
L 179.703776 284.12928 
L 181.045576 284.07239 
L 182.387376 283.781718 
L 183.729175 283.96832 
L 185.070975 283.4548 
L 186.412775 283.625006 
L 187.754574 282.786055 
L 189.096374 282.90053 
L 190.438174 282.394047 
L 191.779974 282.347465 
L 193.121773 282.415432 
L 194.463573 281.76174 
L 195.805373 281.629252 
L 197.147173 281.29076 
L 198.488972 281.081194 
L 199.830772 281.246694 
L 202.514372 280.37413 
L 203.856171 280.269743 
L 205.197971 280.288026 
L 207.881571 279.731842 
L 209.22337 279.330126 
L 213.248769 278.618019 
L 214.590569 278.47765 
L 217.274169 277.793159 
L 218.615968 277.757585 
L 219.957768 277.577598 
L 221.299568 277.748015 
L 222.641368 276.994618 
L 229.350366 275.96991 
L 232.033966 275.367144 
L 234.717565 275.176602 
L 236.059365 274.730008 
L 237.401165 274.997111 
L 238.742964 274.17563 
L 240.084764 274.047294 
L 241.426564 274.113031 
L 242.768364 273.913917 
L 244.110163 273.437086 
L 246.793763 272.966532 
L 248.135563 273.041483 
L 249.477362 272.401055 
L 250.819162 272.462852 
L 252.160962 272.182903 
L 253.502762 272.068506 
L 254.844561 271.669803 
L 257.528161 271.164951 
L 258.869961 271.141223 
L 261.55356 270.329021 
L 262.89536 270.291264 
L 266.920759 269.794213 
L 268.262559 269.341312 
L 270.946158 269.111029 
L 272.287958 268.712243 
L 273.629758 269.008883 
L 274.971557 268.235355 
L 277.655157 267.873617 
L 280.338756 267.251436 
L 281.680556 267.188936 
L 283.022356 266.866912 
L 285.705955 266.378312 
L 289.731354 265.717391 
L 291.073154 265.666799 
L 292.414954 265.234824 
L 293.756754 265.033751 
L 295.098553 264.992171 
L 296.440353 264.805953 
L 297.782153 264.259272 
L 300.465752 263.892814 
L 301.807552 263.309912 
L 303.149352 263.477987 
L 304.491152 263.41502 
L 308.516551 262.528942 
L 311.20015 262.251513 
L 312.54195 261.867947 
L 313.88375 261.932077 
L 315.22555 261.643086 
L 316.567349 261.187683 
L 317.909149 260.912525 
L 319.250949 261.101996 
L 320.592748 260.493506 
L 321.934548 260.333379 
L 323.276348 260.05104 
L 324.618148 259.650195 
L 328.643547 259.204749 
L 329.985347 259.011251 
L 331.327146 258.990315 
L 332.668946 258.683289 
L 334.010746 258.177071 
L 335.352546 258.438092 
L 339.377945 257.268475 
L 340.719745 256.872572 
L 343.403344 256.642549 
L 344.745144 256.340333 
L 346.086943 256.395101 
L 351.454142 255.209586 
L 352.795942 255.080512 
L 354.137742 254.651215 
L 355.479542 254.563927 
L 356.821341 254.119528 
L 358.163141 254.149593 
L 359.504941 253.799261 
L 360.846741 253.989611 
L 362.18854 253.353538 
L 363.53034 253.967808 
L 364.87214 252.966061 
L 366.21394 252.511333 
L 367.555739 252.493146 
L 371.581138 251.836929 
L 372.922938 252.356671 
L 374.264738 251.452774 
L 375.606538 252.053662 
L 376.948337 250.816046 
L 378.290137 250.683498 
L 379.631937 250.314844 
L 380.973737 250.539375 
L 383.657336 249.616345 
L 384.999136 249.803803 
L 386.340936 249.536123 
L 387.682735 249.02556 
L 389.024535 248.668705 
L 390.366335 248.559403 
L 391.708135 248.212596 
L 394.391734 247.990739 
L 395.733534 247.755827 
L 397.075333 247.77531 
L 398.417133 247.425074 
L 399.758933 247.266635 
L 399.758933 247.266635 
" style="fill:none;stroke:#1f77b4;stroke-linecap:square;stroke-width:1.5;"/>
   </g>
   <g id="line2d_36">
    <path clip-path="url(#p9e7064ce5b)" d="M 100.537592 263.217065 
L 103.221191 248.438625 
L 104.562991 244.297163 
L 105.904791 238.171851 
L 107.24659 235.222245 
L 108.58839 229.800337 
L 109.93019 226.57223 
L 111.271989 222.519743 
L 112.613789 219.654868 
L 113.955589 214.938725 
L 115.297389 212.88036 
L 116.639188 209.024297 
L 120.664588 200.893767 
L 122.006387 197.458881 
L 123.348187 194.491486 
L 124.689987 192.295726 
L 130.057186 180.972005 
L 131.398986 179.286076 
L 132.740785 176.457113 
L 134.082585 174.266776 
L 135.424385 171.298728 
L 136.766184 170.339117 
L 138.107984 167.071571 
L 139.449784 165.384471 
L 140.791584 162.623537 
L 142.133383 161.886194 
L 143.475183 157.916937 
L 144.816983 156.214007 
L 146.158783 154.799816 
L 147.500582 152.369759 
L 148.842382 148.971262 
L 150.184182 148.77707 
L 151.525982 146.811571 
L 154.209581 142.152656 
L 155.551381 140.771584 
L 156.893181 138.606524 
L 158.23498 136.052497 
L 159.57678 134.974939 
L 160.91858 131.338447 
L 162.260379 130.399487 
L 163.602179 128.361771 
L 166.285779 125.563883 
L 167.627578 123.707391 
L 170.311178 119.534294 
L 171.652978 118.893267 
L 172.994777 116.220861 
L 174.336577 115.202452 
L 177.020177 111.522509 
L 178.361976 109.793693 
L 179.703776 107.499135 
L 182.387376 104.787605 
L 183.729175 102.048351 
L 185.070975 100.5084 
L 187.754574 98.076228 
L 189.096374 96.217842 
L 190.438174 93.620484 
L 193.121773 91.766417 
L 194.463573 89.198053 
L 195.805373 87.459877 
L 197.147173 86.829288 
L 198.488972 85.319655 
L 199.830772 83.039884 
L 201.172572 82.154402 
L 203.856171 78.698386 
L 205.197971 77.533227 
L 206.539771 75.835079 
L 207.881571 74.563284 
L 209.22337 73.55197 
L 210.56517 72.398979 
L 211.90697 71.001065 
L 213.248769 68.308785 
L 214.590569 67.254825 
L 215.932369 66.472989 
L 218.615968 63.068653 
L 219.957768 61.767088 
L 221.299568 58.682105 
L 222.641368 57.82561 
L 223.983167 56.36384 
L 225.324967 56.745447 
L 226.666767 54.845861 
L 228.008567 53.686747 
L 228.008567 53.686747 
" style="fill:none;stroke:#ff7f0e;stroke-linecap:square;stroke-width:1.5;"/>
   </g>
   <g id="patch_3">
    <path d="M 57.6 307.584 
L 57.6 41.472 
" style="fill:none;stroke:#000000;stroke-linecap:square;stroke-linejoin:miter;stroke-width:0.8;"/>
   </g>
   <g id="patch_4">
    <path d="M 414.72 307.584 
L 414.72 41.472 
" style="fill:none;stroke:#000000;stroke-linecap:square;stroke-linejoin:miter;stroke-width:0.8;"/>
   </g>
   <g id="patch_5">
    <path d="M 57.6 307.584 
L 414.72 307.584 
" style="fill:none;stroke:#000000;stroke-linecap:square;stroke-linejoin:miter;stroke-width:0.8;"/>
   </g>
   <g id="patch_6">
    <path d="M 57.6 41.472 
L 414.72 41.472 
" style="fill:none;stroke:#000000;stroke-linecap:square;stroke-linejoin:miter;stroke-width:0.8;"/>
   </g>
   <g id="text_20">
    <!-- Performance comparision of the  -->
    <g transform="translate(138.18375 22.034625)scale(0.12 -0.12)">
     <defs>
      <path d="M 1259 4147 
L 1259 2394 
L 2053 2394 
Q 2494 2394 2734 2622 
Q 2975 2850 2975 3272 
Q 2975 3691 2734 3919 
Q 2494 4147 2053 4147 
L 1259 4147 
z
M 628 4666 
L 2053 4666 
Q 2838 4666 3239 4311 
Q 3641 3956 3641 3272 
Q 3641 2581 3239 2228 
Q 2838 1875 2053 1875 
L 1259 1875 
L 1259 0 
L 628 0 
L 628 4666 
z
" id="DejaVuSans-50" transform="scale(0.015625)"/>
      <path d="M 2375 4863 
L 2375 4384 
L 1825 4384 
Q 1516 4384 1395 4259 
Q 1275 4134 1275 3809 
L 1275 3500 
L 2222 3500 
L 2222 3053 
L 1275 3053 
L 1275 0 
L 697 0 
L 697 3053 
L 147 3053 
L 147 3500 
L 697 3500 
L 697 3744 
Q 697 4328 969 4595 
Q 1241 4863 1831 4863 
L 2375 4863 
z
" id="DejaVuSans-66" transform="scale(0.015625)"/>
      <path d="M 1959 3097 
Q 1497 3097 1228 2736 
Q 959 2375 959 1747 
Q 959 1119 1226 758 
Q 1494 397 1959 397 
Q 2419 397 2687 759 
Q 2956 1122 2956 1747 
Q 2956 2369 2687 2733 
Q 2419 3097 1959 3097 
z
M 1959 3584 
Q 2709 3584 3137 3096 
Q 3566 2609 3566 1747 
Q 3566 888 3137 398 
Q 2709 -91 1959 -91 
Q 1206 -91 779 398 
Q 353 888 353 1747 
Q 353 2609 779 3096 
Q 1206 3584 1959 3584 
z
" id="DejaVuSans-6f" transform="scale(0.015625)"/>
      <path d="M 1159 525 
L 1159 -1331 
L 581 -1331 
L 581 3500 
L 1159 3500 
L 1159 2969 
Q 1341 3281 1617 3432 
Q 1894 3584 2278 3584 
Q 2916 3584 3314 3078 
Q 3713 2572 3713 1747 
Q 3713 922 3314 415 
Q 2916 -91 2278 -91 
Q 1894 -91 1617 61 
Q 1341 213 1159 525 
z
M 3116 1747 
Q 3116 2381 2855 2742 
Q 2594 3103 2138 3103 
Q 1681 3103 1420 2742 
Q 1159 2381 1159 1747 
Q 1159 1113 1420 752 
Q 1681 391 2138 391 
Q 2594 391 2855 752 
Q 3116 1113 3116 1747 
z
" id="DejaVuSans-70" transform="scale(0.015625)"/>
     </defs>
     <use xlink:href="#DejaVuSans-50"/>
     <use x="56.677734" xlink:href="#DejaVuSans-65"/>
     <use x="118.201172" xlink:href="#DejaVuSans-72"/>
     <use x="159.314453" xlink:href="#DejaVuSans-66"/>
     <use x="194.519531" xlink:href="#DejaVuSans-6f"/>
     <use x="255.701172" xlink:href="#DejaVuSans-72"/>
     <use x="295.064453" xlink:href="#DejaVuSans-6d"/>
     <use x="392.476562" xlink:href="#DejaVuSans-61"/>
     <use x="453.755859" xlink:href="#DejaVuSans-6e"/>
     <use x="517.134766" xlink:href="#DejaVuSans-63"/>
     <use x="572.115234" xlink:href="#DejaVuSans-65"/>
     <use x="633.638672" xlink:href="#DejaVuSans-20"/>
     <use x="665.425781" xlink:href="#DejaVuSans-63"/>
     <use x="720.40625" xlink:href="#DejaVuSans-6f"/>
     <use x="781.587891" xlink:href="#DejaVuSans-6d"/>
     <use x="879" xlink:href="#DejaVuSans-70"/>
     <use x="942.476562" xlink:href="#DejaVuSans-61"/>
     <use x="1003.755859" xlink:href="#DejaVuSans-72"/>
     <use x="1044.869141" xlink:href="#DejaVuSans-69"/>
     <use x="1072.652344" xlink:href="#DejaVuSans-73"/>
     <use x="1124.751953" xlink:href="#DejaVuSans-69"/>
     <use x="1152.535156" xlink:href="#DejaVuSans-6f"/>
     <use x="1213.716797" xlink:href="#DejaVuSans-6e"/>
     <use x="1277.095703" xlink:href="#DejaVuSans-20"/>
     <use x="1308.882812" xlink:href="#DejaVuSans-6f"/>
     <use x="1370.064453" xlink:href="#DejaVuSans-66"/>
     <use x="1405.269531" xlink:href="#DejaVuSans-20"/>
     <use x="1437.056641" xlink:href="#DejaVuSans-74"/>
     <use x="1476.265625" xlink:href="#DejaVuSans-68"/>
     <use x="1539.644531" xlink:href="#DejaVuSans-65"/>
     <use x="1601.167969" xlink:href="#DejaVuSans-20"/>
    </g>
    <!-- partial_ratio for needle length 64 -->
    <g transform="translate(137.019375 35.472)scale(0.12 -0.12)">
     <defs>
      <path d="M 3263 -1063 
L 3263 -1509 
L -63 -1509 
L -63 -1063 
L 3263 -1063 
z
" id="DejaVuSans-5f" transform="scale(0.015625)"/>
      <path d="M 2906 2969 
L 2906 4863 
L 3481 4863 
L 3481 0 
L 2906 0 
L 2906 525 
Q 2725 213 2448 61 
Q 2172 -91 1784 -91 
Q 1150 -91 751 415 
Q 353 922 353 1747 
Q 353 2572 751 3078 
Q 1150 3584 1784 3584 
Q 2172 3584 2448 3432 
Q 2725 3281 2906 2969 
z
M 947 1747 
Q 947 1113 1208 752 
Q 1469 391 1925 391 
Q 2381 391 2643 752 
Q 2906 1113 2906 1747 
Q 2906 2381 2643 2742 
Q 2381 3103 1925 3103 
Q 1469 3103 1208 2742 
Q 947 2381 947 1747 
z
" id="DejaVuSans-64" transform="scale(0.015625)"/>
     </defs>
     <use xlink:href="#DejaVuSans-70"/>
     <use x="63.476562" xlink:href="#DejaVuSans-61"/>
     <use x="124.755859" xlink:href="#DejaVuSans-72"/>
     <use x="165.869141" xlink:href="#DejaVuSans-74"/>
     <use x="205.078125" xlink:href="#DejaVuSans-69"/>
     <use x="232.861328" xlink:href="#DejaVuSans-61"/>
     <use x="294.140625" xlink:href="#DejaVuSans-6c"/>
     <use x="321.923828" xlink:href="#DejaVuSans-5f"/>
     <use x="371.923828" xlink:href="#DejaVuSans-72"/>
     <use x="413.037109" xlink:href="#DejaVuSans-61"/>
     <use x="474.316406" xlink:href="#DejaVuSans-74"/>
     <use x="513.525391" xlink:href="#DejaVuSans-69"/>
     <use x="541.308594" xlink:href="#DejaVuSans-6f"/>
     <use x="602.490234" xlink:href="#DejaVuSans-20"/>
     <use x="634.277344" xlink:href="#DejaVuSans-66"/>
     <use x="669.482422" xlink:href="#DejaVuSans-6f"/>
     <use x="730.664062" xlink:href="#DejaVuSans-72"/>
     <use x="771.777344" xlink:href="#DejaVuSans-20"/>
     <use x="803.564453" xlink:href="#DejaVuSans-6e"/>
     <use x="866.943359" xlink:href="#DejaVuSans-65"/>
     <use x="928.466797" xlink:href="#DejaVuSans-65"/>
     <use x="989.990234" xlink:href="#DejaVuSans-64"/>
     <use x="1053.466797" xlink:href="#DejaVuSans-6c"/>
     <use x="1081.25" xlink:href="#DejaVuSans-65"/>
     <use x="1142.773438" xlink:href="#DejaVuSans-20"/>
     <use x="1174.560547" xlink:href="#DejaVuSans-6c"/>
     <use x="1202.34375" xlink:href="#DejaVuSans-65"/>
     <use x="1263.867188" xlink:href="#DejaVuSans-6e"/>
     <use x="1327.246094" xlink:href="#DejaVuSans-67"/>
     <use x="1390.722656" xlink:href="#DejaVuSans-74"/>
     <use x="1429.931641" xlink:href="#DejaVuSans-68"/>
     <use x="1493.310547" xlink:href="#DejaVuSans-20"/>
     <use x="1525.097656" xlink:href="#DejaVuSans-36"/>
     <use x="1588.720703" xlink:href="#DejaVuSans-34"/>
    </g>
   </g>
   <g id="legend_1">
    <g id="patch_7">
     <path d="M 318.515312 78.82825 
L 407.72 78.82825 
Q 409.72 78.82825 409.72 76.82825 
L 409.72 48.472 
Q 409.72 46.472 407.72 46.472 
L 318.515312 46.472 
Q 316.515312 46.472 316.515312 48.472 
L 316.515312 76.82825 
Q 316.515312 78.82825 318.515312 78.82825 
z
" style="fill:#ffffff;opacity:0.8;stroke:#cccccc;stroke-linejoin:miter;"/>
    </g>
    <g id="line2d_37">
     <path d="M 320.515312 54.570437 
L 340.515312 54.570437 
" style="fill:none;stroke:#1f77b4;stroke-linecap:square;stroke-width:1.5;"/>
    </g>
    <g id="line2d_38"/>
    <g id="text_21">
     <!-- rapidfuzz -->
     <g transform="translate(348.515312 58.070437)scale(0.1 -0.1)">
      <defs>
       <path d="M 353 3500 
L 3084 3500 
L 3084 2975 
L 922 459 
L 3084 459 
L 3084 0 
L 275 0 
L 275 525 
L 2438 3041 
L 353 3041 
L 353 3500 
z
" id="DejaVuSans-7a" transform="scale(0.015625)"/>
      </defs>
      <use xlink:href="#DejaVuSans-72"/>
      <use x="41.113281" xlink:href="#DejaVuSans-61"/>
      <use x="102.392578" xlink:href="#DejaVuSans-70"/>
      <use x="165.869141" xlink:href="#DejaVuSans-69"/>
      <use x="193.652344" xlink:href="#DejaVuSans-64"/>
      <use x="257.128906" xlink:href="#DejaVuSans-66"/>
      <use x="292.333984" xlink:href="#DejaVuSans-75"/>
      <use x="355.712891" xlink:href="#DejaVuSans-7a"/>
      <use x="408.203125" xlink:href="#DejaVuSans-7a"/>
     </g>
    </g>
    <g id="line2d_39">
     <path d="M 320.515312 69.248562 
L 340.515312 69.248562 
" style="fill:none;stroke:#ff7f0e;stroke-linecap:square;stroke-width:1.5;"/>
    </g>
    <g id="line2d_40"/>
    <g id="text_22">
     <!-- fuzzywuzzy -->
     <g transform="translate(348.515312 72.748562)scale(0.1 -0.1)">
      <defs>
       <path d="M 2059 -325 
Q 1816 -950 1584 -1140 
Q 1353 -1331 966 -1331 
L 506 -1331 
L 506 -850 
L 844 -850 
Q 1081 -850 1212 -737 
Q 1344 -625 1503 -206 
L 1606 56 
L 191 3500 
L 800 3500 
L 1894 763 
L 2988 3500 
L 3597 3500 
L 2059 -325 
z
" id="DejaVuSans-79" transform="scale(0.015625)"/>
       <path d="M 269 3500 
L 844 3500 
L 1563 769 
L 2278 3500 
L 2956 3500 
L 3675 769 
L 4391 3500 
L 4966 3500 
L 4050 0 
L 3372 0 
L 2619 2869 
L 1863 0 
L 1184 0 
L 269 3500 
z
" id="DejaVuSans-77" transform="scale(0.015625)"/>
      </defs>
      <use xlink:href="#DejaVuSans-66"/>
      <use x="35.205078" xlink:href="#DejaVuSans-75"/>
      <use x="98.583984" xlink:href="#DejaVuSans-7a"/>
      <use x="151.074219" xlink:href="#DejaVuSans-7a"/>
      <use x="203.564453" xlink:href="#DejaVuSans-79"/>
      <use x="262.744141" xlink:href="#DejaVuSans-77"/>
      <use x="344.53125" xlink:href="#DejaVuSans-75"/>
      <use x="407.910156" xlink:href="#DejaVuSans-7a"/>
      <use x="460.400391" xlink:href="#DejaVuSans-7a"/>
      <use x="512.890625" xlink:href="#DejaVuSans-79"/>
     </g>
    </g>
   </g>
  </g>
 </g>
 <defs>
  <clipPath id="p9e7064ce5b">
   <rect height="266.112" width="357.12" x="57.6" y="41.472"/>
  </clipPath>
 </defs>
</svg>
