<?xml version="1.0" encoding="utf-8" standalone="no"?>
<!DOCTYPE svg PUBLIC "-//W3C//DTD SVG 1.1//EN"
  "http://www.w3.org/Graphics/SVG/1.1/DTD/svg11.dtd">
<!-- Created with matplotlib (https://matplotlib.org/) -->
<svg height="345.6pt" version="1.1" viewBox="0 0 460.8 345.6" width="460.8pt" xmlns="http://www.w3.org/2000/svg" xmlns:xlink="http://www.w3.org/1999/xlink">
 <metadata>
  <rdf:RDF xmlns:cc="http://creativecommons.org/ns#" xmlns:dc="http://purl.org/dc/elements/1.1/" xmlns:rdf="http://www.w3.org/1999/02/22-rdf-syntax-ns#">
   <cc:Work>
    <dc:type rdf:resource="http://purl.org/dc/dcmitype/StillImage"/>
    <dc:date>2021-03-05T21:05:39.265501</dc:date>
    <dc:format>image/svg+xml</dc:format>
    <dc:creator>
     <cc:Agent>
      <dc:title>Matplotlib v3.3.4, https://matplotlib.org/</dc:title>
     </cc:Agent>
    </dc:creator>
   </cc:Work>
  </rdf:RDF>
 </metadata>
 <defs>
  <style type="text/css">*{stroke-linecap:butt;stroke-linejoin:round;}</style>
 </defs>
 <g id="figure_1">
  <g id="patch_1">
   <path d="M 0 345.6 
L 460.8 345.6 
L 460.8 0 
L 0 0 
z
" style="fill:#ffffff;"/>
  </g>
  <g id="axes_1">
   <g id="patch_2">
    <path d="M 57.6 307.584 
L 414.72 307.584 
L 414.72 41.472 
L 57.6 41.472 
z
" style="fill:#ffffff;"/>
   </g>
   <g id="matplotlib.axis_1">
    <g id="xtick_1">
     <g id="line2d_1">
      <path clip-path="url(#p4434fac7c0)" d="M 57.6 307.584 
L 57.6 41.472 
" style="fill:none;stroke:#b0b0b0;stroke-linecap:square;stroke-width:0.8;"/>
     </g>
     <g id="line2d_2">
      <defs>
       <path d="M 0 0 
L 0 3.5 
" id="m54cb86bd1a" style="stroke:#000000;stroke-width:0.8;"/>
      </defs>
      <g>
       <use style="stroke:#000000;stroke-width:0.8;" x="57.6" xlink:href="#m54cb86bd1a" y="307.584"/>
      </g>
     </g>
     <g id="text_1">
      <!-- 0 -->
      <g transform="translate(54.41875 322.182437)scale(0.1 -0.1)">
       <defs>
        <path d="M 31.78125 66.40625 
Q 24.171875 66.40625 20.328125 58.90625 
Q 16.5 51.421875 16.5 36.375 
Q 16.5 21.390625 20.328125 13.890625 
Q 24.171875 6.390625 31.78125 6.390625 
Q 39.453125 6.390625 43.28125 13.890625 
Q 47.125 21.390625 47.125 36.375 
Q 47.125 51.421875 43.28125 58.90625 
Q 39.453125 66.40625 31.78125 66.40625 
z
M 31.78125 74.21875 
Q 44.046875 74.21875 50.515625 64.515625 
Q 56.984375 54.828125 56.984375 36.375 
Q 56.984375 17.96875 50.515625 8.265625 
Q 44.046875 -1.421875 31.78125 -1.421875 
Q 19.53125 -1.421875 13.0625 8.265625 
Q 6.59375 17.96875 6.59375 36.375 
Q 6.59375 54.828125 13.0625 64.515625 
Q 19.53125 74.21875 31.78125 74.21875 
z
" id="DejaVuSans-48"/>
       </defs>
       <use xlink:href="#DejaVuSans-48"/>
      </g>
     </g>
    </g>
    <g id="xtick_2">
     <g id="line2d_3">
      <path clip-path="url(#p4434fac7c0)" d="M 100.201454 307.584 
L 100.201454 41.472 
" style="fill:none;stroke:#b0b0b0;stroke-linecap:square;stroke-width:0.8;"/>
     </g>
     <g id="line2d_4">
      <g>
       <use style="stroke:#000000;stroke-width:0.8;" x="100.201454" xlink:href="#m54cb86bd1a" y="307.584"/>
      </g>
     </g>
     <g id="text_2">
      <!-- 64 -->
      <g transform="translate(93.838954 322.182437)scale(0.1 -0.1)">
       <defs>
        <path d="M 33.015625 40.375 
Q 26.375 40.375 22.484375 35.828125 
Q 18.609375 31.296875 18.609375 23.390625 
Q 18.609375 15.53125 22.484375 10.953125 
Q 26.375 6.390625 33.015625 6.390625 
Q 39.65625 6.390625 43.53125 10.953125 
Q 47.40625 15.53125 47.40625 23.390625 
Q 47.40625 31.296875 43.53125 35.828125 
Q 39.65625 40.375 33.015625 40.375 
z
M 52.59375 71.296875 
L 52.59375 62.3125 
Q 48.875 64.0625 45.09375 64.984375 
Q 41.3125 65.921875 37.59375 65.921875 
Q 27.828125 65.921875 22.671875 59.328125 
Q 17.53125 52.734375 16.796875 39.40625 
Q 19.671875 43.65625 24.015625 45.921875 
Q 28.375 48.1875 33.59375 48.1875 
Q 44.578125 48.1875 50.953125 41.515625 
Q 57.328125 34.859375 57.328125 23.390625 
Q 57.328125 12.15625 50.6875 5.359375 
Q 44.046875 -1.421875 33.015625 -1.421875 
Q 20.359375 -1.421875 13.671875 8.265625 
Q 6.984375 17.96875 6.984375 36.375 
Q 6.984375 53.65625 15.1875 63.9375 
Q 23.390625 74.21875 37.203125 74.21875 
Q 40.921875 74.21875 44.703125 73.484375 
Q 48.484375 72.75 52.59375 71.296875 
z
" id="DejaVuSans-54"/>
        <path d="M 37.796875 64.3125 
L 12.890625 25.390625 
L 37.796875 25.390625 
z
M 35.203125 72.90625 
L 47.609375 72.90625 
L 47.609375 25.390625 
L 58.015625 25.390625 
L 58.015625 17.1875 
L 47.609375 17.1875 
L 47.609375 0 
L 37.796875 0 
L 37.796875 17.1875 
L 4.890625 17.1875 
L 4.890625 26.703125 
z
" id="DejaVuSans-52"/>
       </defs>
       <use xlink:href="#DejaVuSans-54"/>
       <use x="63.623047" xlink:href="#DejaVuSans-52"/>
      </g>
     </g>
    </g>
    <g id="xtick_3">
     <g id="line2d_5">
      <path clip-path="url(#p4434fac7c0)" d="M 142.802908 307.584 
L 142.802908 41.472 
" style="fill:none;stroke:#b0b0b0;stroke-linecap:square;stroke-width:0.8;"/>
     </g>
     <g id="line2d_6">
      <g>
       <use style="stroke:#000000;stroke-width:0.8;" x="142.802908" xlink:href="#m54cb86bd1a" y="307.584"/>
      </g>
     </g>
     <g id="text_3">
      <!-- 128 -->
      <g transform="translate(133.259158 322.182437)scale(0.1 -0.1)">
       <defs>
        <path d="M 12.40625 8.296875 
L 28.515625 8.296875 
L 28.515625 63.921875 
L 10.984375 60.40625 
L 10.984375 69.390625 
L 28.421875 72.90625 
L 38.28125 72.90625 
L 38.28125 8.296875 
L 54.390625 8.296875 
L 54.390625 0 
L 12.40625 0 
z
" id="DejaVuSans-49"/>
        <path d="M 19.1875 8.296875 
L 53.609375 8.296875 
L 53.609375 0 
L 7.328125 0 
L 7.328125 8.296875 
Q 12.9375 14.109375 22.625 23.890625 
Q 32.328125 33.6875 34.8125 36.53125 
Q 39.546875 41.84375 41.421875 45.53125 
Q 43.3125 49.21875 43.3125 52.78125 
Q 43.3125 58.59375 39.234375 62.25 
Q 35.15625 65.921875 28.609375 65.921875 
Q 23.96875 65.921875 18.8125 64.3125 
Q 13.671875 62.703125 7.8125 59.421875 
L 7.8125 69.390625 
Q 13.765625 71.78125 18.9375 73 
Q 24.125 74.21875 28.421875 74.21875 
Q 39.75 74.21875 46.484375 68.546875 
Q 53.21875 62.890625 53.21875 53.421875 
Q 53.21875 48.921875 51.53125 44.890625 
Q 49.859375 40.875 45.40625 35.40625 
Q 44.1875 33.984375 37.640625 27.21875 
Q 31.109375 20.453125 19.1875 8.296875 
z
" id="DejaVuSans-50"/>
        <path d="M 31.78125 34.625 
Q 24.75 34.625 20.71875 30.859375 
Q 16.703125 27.09375 16.703125 20.515625 
Q 16.703125 13.921875 20.71875 10.15625 
Q 24.75 6.390625 31.78125 6.390625 
Q 38.8125 6.390625 42.859375 10.171875 
Q 46.921875 13.96875 46.921875 20.515625 
Q 46.921875 27.09375 42.890625 30.859375 
Q 38.875 34.625 31.78125 34.625 
z
M 21.921875 38.8125 
Q 15.578125 40.375 12.03125 44.71875 
Q 8.5 49.078125 8.5 55.328125 
Q 8.5 64.0625 14.71875 69.140625 
Q 20.953125 74.21875 31.78125 74.21875 
Q 42.671875 74.21875 48.875 69.140625 
Q 55.078125 64.0625 55.078125 55.328125 
Q 55.078125 49.078125 51.53125 44.71875 
Q 48 40.375 41.703125 38.8125 
Q 48.828125 37.15625 52.796875 32.3125 
Q 56.78125 27.484375 56.78125 20.515625 
Q 56.78125 9.90625 50.3125 4.234375 
Q 43.84375 -1.421875 31.78125 -1.421875 
Q 19.734375 -1.421875 13.25 4.234375 
Q 6.78125 9.90625 6.78125 20.515625 
Q 6.78125 27.484375 10.78125 32.3125 
Q 14.796875 37.15625 21.921875 38.8125 
z
M 18.3125 54.390625 
Q 18.3125 48.734375 21.84375 45.5625 
Q 25.390625 42.390625 31.78125 42.390625 
Q 38.140625 42.390625 41.71875 45.5625 
Q 45.3125 48.734375 45.3125 54.390625 
Q 45.3125 60.0625 41.71875 63.234375 
Q 38.140625 66.40625 31.78125 66.40625 
Q 25.390625 66.40625 21.84375 63.234375 
Q 18.3125 60.0625 18.3125 54.390625 
z
" id="DejaVuSans-56"/>
       </defs>
       <use xlink:href="#DejaVuSans-49"/>
       <use x="63.623047" xlink:href="#DejaVuSans-50"/>
       <use x="127.246094" xlink:href="#DejaVuSans-56"/>
      </g>
     </g>
    </g>
    <g id="xtick_4">
     <g id="line2d_7">
      <path clip-path="url(#p4434fac7c0)" d="M 185.404362 307.584 
L 185.404362 41.472 
" style="fill:none;stroke:#b0b0b0;stroke-linecap:square;stroke-width:0.8;"/>
     </g>
     <g id="line2d_8">
      <g>
       <use style="stroke:#000000;stroke-width:0.8;" x="185.404362" xlink:href="#m54cb86bd1a" y="307.584"/>
      </g>
     </g>
     <g id="text_4">
      <!-- 192 -->
      <g transform="translate(175.860612 322.182437)scale(0.1 -0.1)">
       <defs>
        <path d="M 10.984375 1.515625 
L 10.984375 10.5 
Q 14.703125 8.734375 18.5 7.8125 
Q 22.3125 6.890625 25.984375 6.890625 
Q 35.75 6.890625 40.890625 13.453125 
Q 46.046875 20.015625 46.78125 33.40625 
Q 43.953125 29.203125 39.59375 26.953125 
Q 35.25 24.703125 29.984375 24.703125 
Q 19.046875 24.703125 12.671875 31.3125 
Q 6.296875 37.9375 6.296875 49.421875 
Q 6.296875 60.640625 12.9375 67.421875 
Q 19.578125 74.21875 30.609375 74.21875 
Q 43.265625 74.21875 49.921875 64.515625 
Q 56.59375 54.828125 56.59375 36.375 
Q 56.59375 19.140625 48.40625 8.859375 
Q 40.234375 -1.421875 26.421875 -1.421875 
Q 22.703125 -1.421875 18.890625 -0.6875 
Q 15.09375 0.046875 10.984375 1.515625 
z
M 30.609375 32.421875 
Q 37.25 32.421875 41.125 36.953125 
Q 45.015625 41.5 45.015625 49.421875 
Q 45.015625 57.28125 41.125 61.84375 
Q 37.25 66.40625 30.609375 66.40625 
Q 23.96875 66.40625 20.09375 61.84375 
Q 16.21875 57.28125 16.21875 49.421875 
Q 16.21875 41.5 20.09375 36.953125 
Q 23.96875 32.421875 30.609375 32.421875 
z
" id="DejaVuSans-57"/>
       </defs>
       <use xlink:href="#DejaVuSans-49"/>
       <use x="63.623047" xlink:href="#DejaVuSans-57"/>
       <use x="127.246094" xlink:href="#DejaVuSans-50"/>
      </g>
     </g>
    </g>
    <g id="xtick_5">
     <g id="line2d_9">
      <path clip-path="url(#p4434fac7c0)" d="M 228.005815 307.584 
L 228.005815 41.472 
" style="fill:none;stroke:#b0b0b0;stroke-linecap:square;stroke-width:0.8;"/>
     </g>
     <g id="line2d_10">
      <g>
       <use style="stroke:#000000;stroke-width:0.8;" x="228.005815" xlink:href="#m54cb86bd1a" y="307.584"/>
      </g>
     </g>
     <g id="text_5">
      <!-- 256 -->
      <g transform="translate(218.462065 322.182437)scale(0.1 -0.1)">
       <defs>
        <path d="M 10.796875 72.90625 
L 49.515625 72.90625 
L 49.515625 64.59375 
L 19.828125 64.59375 
L 19.828125 46.734375 
Q 21.96875 47.46875 24.109375 47.828125 
Q 26.265625 48.1875 28.421875 48.1875 
Q 40.625 48.1875 47.75 41.5 
Q 54.890625 34.8125 54.890625 23.390625 
Q 54.890625 11.625 47.5625 5.09375 
Q 40.234375 -1.421875 26.90625 -1.421875 
Q 22.3125 -1.421875 17.546875 -0.640625 
Q 12.796875 0.140625 7.71875 1.703125 
L 7.71875 11.625 
Q 12.109375 9.234375 16.796875 8.0625 
Q 21.484375 6.890625 26.703125 6.890625 
Q 35.15625 6.890625 40.078125 11.328125 
Q 45.015625 15.765625 45.015625 23.390625 
Q 45.015625 31 40.078125 35.4375 
Q 35.15625 39.890625 26.703125 39.890625 
Q 22.75 39.890625 18.8125 39.015625 
Q 14.890625 38.140625 10.796875 36.28125 
z
" id="DejaVuSans-53"/>
       </defs>
       <use xlink:href="#DejaVuSans-50"/>
       <use x="63.623047" xlink:href="#DejaVuSans-53"/>
       <use x="127.246094" xlink:href="#DejaVuSans-54"/>
      </g>
     </g>
    </g>
    <g id="xtick_6">
     <g id="line2d_11">
      <path clip-path="url(#p4434fac7c0)" d="M 270.607269 307.584 
L 270.607269 41.472 
" style="fill:none;stroke:#b0b0b0;stroke-linecap:square;stroke-width:0.8;"/>
     </g>
     <g id="line2d_12">
      <g>
       <use style="stroke:#000000;stroke-width:0.8;" x="270.607269" xlink:href="#m54cb86bd1a" y="307.584"/>
      </g>
     </g>
     <g id="text_6">
      <!-- 320 -->
      <g transform="translate(261.063519 322.182437)scale(0.1 -0.1)">
       <defs>
        <path d="M 40.578125 39.3125 
Q 47.65625 37.796875 51.625 33 
Q 55.609375 28.21875 55.609375 21.1875 
Q 55.609375 10.40625 48.1875 4.484375 
Q 40.765625 -1.421875 27.09375 -1.421875 
Q 22.515625 -1.421875 17.65625 -0.515625 
Q 12.796875 0.390625 7.625 2.203125 
L 7.625 11.71875 
Q 11.71875 9.328125 16.59375 8.109375 
Q 21.484375 6.890625 26.8125 6.890625 
Q 36.078125 6.890625 40.9375 10.546875 
Q 45.796875 14.203125 45.796875 21.1875 
Q 45.796875 27.640625 41.28125 31.265625 
Q 36.765625 34.90625 28.71875 34.90625 
L 20.21875 34.90625 
L 20.21875 43.015625 
L 29.109375 43.015625 
Q 36.375 43.015625 40.234375 45.921875 
Q 44.09375 48.828125 44.09375 54.296875 
Q 44.09375 59.90625 40.109375 62.90625 
Q 36.140625 65.921875 28.71875 65.921875 
Q 24.65625 65.921875 20.015625 65.03125 
Q 15.375 64.15625 9.8125 62.3125 
L 9.8125 71.09375 
Q 15.4375 72.65625 20.34375 73.4375 
Q 25.25 74.21875 29.59375 74.21875 
Q 40.828125 74.21875 47.359375 69.109375 
Q 53.90625 64.015625 53.90625 55.328125 
Q 53.90625 49.265625 50.4375 45.09375 
Q 46.96875 40.921875 40.578125 39.3125 
z
" id="DejaVuSans-51"/>
       </defs>
       <use xlink:href="#DejaVuSans-51"/>
       <use x="63.623047" xlink:href="#DejaVuSans-50"/>
       <use x="127.246094" xlink:href="#DejaVuSans-48"/>
      </g>
     </g>
    </g>
    <g id="xtick_7">
     <g id="line2d_13">
      <path clip-path="url(#p4434fac7c0)" d="M 313.208723 307.584 
L 313.208723 41.472 
" style="fill:none;stroke:#b0b0b0;stroke-linecap:square;stroke-width:0.8;"/>
     </g>
     <g id="line2d_14">
      <g>
       <use style="stroke:#000000;stroke-width:0.8;" x="313.208723" xlink:href="#m54cb86bd1a" y="307.584"/>
      </g>
     </g>
     <g id="text_7">
      <!-- 384 -->
      <g transform="translate(303.664973 322.182437)scale(0.1 -0.1)">
       <use xlink:href="#DejaVuSans-51"/>
       <use x="63.623047" xlink:href="#DejaVuSans-56"/>
       <use x="127.246094" xlink:href="#DejaVuSans-52"/>
      </g>
     </g>
    </g>
    <g id="xtick_8">
     <g id="line2d_15">
      <path clip-path="url(#p4434fac7c0)" d="M 355.810177 307.584 
L 355.810177 41.472 
" style="fill:none;stroke:#b0b0b0;stroke-linecap:square;stroke-width:0.8;"/>
     </g>
     <g id="line2d_16">
      <g>
       <use style="stroke:#000000;stroke-width:0.8;" x="355.810177" xlink:href="#m54cb86bd1a" y="307.584"/>
      </g>
     </g>
     <g id="text_8">
      <!-- 448 -->
      <g transform="translate(346.266427 322.182437)scale(0.1 -0.1)">
       <use xlink:href="#DejaVuSans-52"/>
       <use x="63.623047" xlink:href="#DejaVuSans-52"/>
       <use x="127.246094" xlink:href="#DejaVuSans-56"/>
      </g>
     </g>
    </g>
    <g id="xtick_9">
     <g id="line2d_17">
      <path clip-path="url(#p4434fac7c0)" d="M 398.411631 307.584 
L 398.411631 41.472 
" style="fill:none;stroke:#b0b0b0;stroke-linecap:square;stroke-width:0.8;"/>
     </g>
     <g id="line2d_18">
      <g>
       <use style="stroke:#000000;stroke-width:0.8;" x="398.411631" xlink:href="#m54cb86bd1a" y="307.584"/>
      </g>
     </g>
     <g id="text_9">
      <!-- 512 -->
      <g transform="translate(388.867881 322.182437)scale(0.1 -0.1)">
       <use xlink:href="#DejaVuSans-53"/>
       <use x="63.623047" xlink:href="#DejaVuSans-49"/>
       <use x="127.246094" xlink:href="#DejaVuSans-50"/>
      </g>
     </g>
    </g>
    <g id="text_10">
     <!-- string length [character] -->
     <g transform="translate(174.8475 335.860562)scale(0.1 -0.1)">
      <defs>
       <path d="M 44.28125 53.078125 
L 44.28125 44.578125 
Q 40.484375 46.53125 36.375 47.5 
Q 32.28125 48.484375 27.875 48.484375 
Q 21.1875 48.484375 17.84375 46.4375 
Q 14.5 44.390625 14.5 40.28125 
Q 14.5 37.15625 16.890625 35.375 
Q 19.28125 33.59375 26.515625 31.984375 
L 29.59375 31.296875 
Q 39.15625 29.25 43.1875 25.515625 
Q 47.21875 21.78125 47.21875 15.09375 
Q 47.21875 7.46875 41.1875 3.015625 
Q 35.15625 -1.421875 24.609375 -1.421875 
Q 20.21875 -1.421875 15.453125 -0.5625 
Q 10.6875 0.296875 5.421875 2 
L 5.421875 11.28125 
Q 10.40625 8.6875 15.234375 7.390625 
Q 20.0625 6.109375 24.8125 6.109375 
Q 31.15625 6.109375 34.5625 8.28125 
Q 37.984375 10.453125 37.984375 14.40625 
Q 37.984375 18.0625 35.515625 20.015625 
Q 33.0625 21.96875 24.703125 23.78125 
L 21.578125 24.515625 
Q 13.234375 26.265625 9.515625 29.90625 
Q 5.8125 33.546875 5.8125 39.890625 
Q 5.8125 47.609375 11.28125 51.796875 
Q 16.75 56 26.8125 56 
Q 31.78125 56 36.171875 55.265625 
Q 40.578125 54.546875 44.28125 53.078125 
z
" id="DejaVuSans-115"/>
       <path d="M 18.3125 70.21875 
L 18.3125 54.6875 
L 36.8125 54.6875 
L 36.8125 47.703125 
L 18.3125 47.703125 
L 18.3125 18.015625 
Q 18.3125 11.328125 20.140625 9.421875 
Q 21.96875 7.515625 27.59375 7.515625 
L 36.8125 7.515625 
L 36.8125 0 
L 27.59375 0 
Q 17.1875 0 13.234375 3.875 
Q 9.28125 7.765625 9.28125 18.015625 
L 9.28125 47.703125 
L 2.6875 47.703125 
L 2.6875 54.6875 
L 9.28125 54.6875 
L 9.28125 70.21875 
z
" id="DejaVuSans-116"/>
       <path d="M 41.109375 46.296875 
Q 39.59375 47.171875 37.8125 47.578125 
Q 36.03125 48 33.890625 48 
Q 26.265625 48 22.1875 43.046875 
Q 18.109375 38.09375 18.109375 28.8125 
L 18.109375 0 
L 9.078125 0 
L 9.078125 54.6875 
L 18.109375 54.6875 
L 18.109375 46.1875 
Q 20.953125 51.171875 25.484375 53.578125 
Q 30.03125 56 36.53125 56 
Q 37.453125 56 38.578125 55.875 
Q 39.703125 55.765625 41.0625 55.515625 
z
" id="DejaVuSans-114"/>
       <path d="M 9.421875 54.6875 
L 18.40625 54.6875 
L 18.40625 0 
L 9.421875 0 
z
M 9.421875 75.984375 
L 18.40625 75.984375 
L 18.40625 64.59375 
L 9.421875 64.59375 
z
" id="DejaVuSans-105"/>
       <path d="M 54.890625 33.015625 
L 54.890625 0 
L 45.90625 0 
L 45.90625 32.71875 
Q 45.90625 40.484375 42.875 44.328125 
Q 39.84375 48.1875 33.796875 48.1875 
Q 26.515625 48.1875 22.3125 43.546875 
Q 18.109375 38.921875 18.109375 30.90625 
L 18.109375 0 
L 9.078125 0 
L 9.078125 54.6875 
L 18.109375 54.6875 
L 18.109375 46.1875 
Q 21.34375 51.125 25.703125 53.5625 
Q 30.078125 56 35.796875 56 
Q 45.21875 56 50.046875 50.171875 
Q 54.890625 44.34375 54.890625 33.015625 
z
" id="DejaVuSans-110"/>
       <path d="M 45.40625 27.984375 
Q 45.40625 37.75 41.375 43.109375 
Q 37.359375 48.484375 30.078125 48.484375 
Q 22.859375 48.484375 18.828125 43.109375 
Q 14.796875 37.75 14.796875 27.984375 
Q 14.796875 18.265625 18.828125 12.890625 
Q 22.859375 7.515625 30.078125 7.515625 
Q 37.359375 7.515625 41.375 12.890625 
Q 45.40625 18.265625 45.40625 27.984375 
z
M 54.390625 6.78125 
Q 54.390625 -7.171875 48.1875 -13.984375 
Q 42 -20.796875 29.203125 -20.796875 
Q 24.46875 -20.796875 20.265625 -20.09375 
Q 16.0625 -19.390625 12.109375 -17.921875 
L 12.109375 -9.1875 
Q 16.0625 -11.328125 19.921875 -12.34375 
Q 23.78125 -13.375 27.78125 -13.375 
Q 36.625 -13.375 41.015625 -8.765625 
Q 45.40625 -4.15625 45.40625 5.171875 
L 45.40625 9.625 
Q 42.625 4.78125 38.28125 2.390625 
Q 33.9375 0 27.875 0 
Q 17.828125 0 11.671875 7.65625 
Q 5.515625 15.328125 5.515625 27.984375 
Q 5.515625 40.671875 11.671875 48.328125 
Q 17.828125 56 27.875 56 
Q 33.9375 56 38.28125 53.609375 
Q 42.625 51.21875 45.40625 46.390625 
L 45.40625 54.6875 
L 54.390625 54.6875 
z
" id="DejaVuSans-103"/>
       <path id="DejaVuSans-32"/>
       <path d="M 9.421875 75.984375 
L 18.40625 75.984375 
L 18.40625 0 
L 9.421875 0 
z
" id="DejaVuSans-108"/>
       <path d="M 56.203125 29.59375 
L 56.203125 25.203125 
L 14.890625 25.203125 
Q 15.484375 15.921875 20.484375 11.0625 
Q 25.484375 6.203125 34.421875 6.203125 
Q 39.59375 6.203125 44.453125 7.46875 
Q 49.3125 8.734375 54.109375 11.28125 
L 54.109375 2.78125 
Q 49.265625 0.734375 44.1875 -0.34375 
Q 39.109375 -1.421875 33.890625 -1.421875 
Q 20.796875 -1.421875 13.15625 6.1875 
Q 5.515625 13.8125 5.515625 26.8125 
Q 5.515625 40.234375 12.765625 48.109375 
Q 20.015625 56 32.328125 56 
Q 43.359375 56 49.78125 48.890625 
Q 56.203125 41.796875 56.203125 29.59375 
z
M 47.21875 32.234375 
Q 47.125 39.59375 43.09375 43.984375 
Q 39.0625 48.390625 32.421875 48.390625 
Q 24.90625 48.390625 20.390625 44.140625 
Q 15.875 39.890625 15.1875 32.171875 
z
" id="DejaVuSans-101"/>
       <path d="M 54.890625 33.015625 
L 54.890625 0 
L 45.90625 0 
L 45.90625 32.71875 
Q 45.90625 40.484375 42.875 44.328125 
Q 39.84375 48.1875 33.796875 48.1875 
Q 26.515625 48.1875 22.3125 43.546875 
Q 18.109375 38.921875 18.109375 30.90625 
L 18.109375 0 
L 9.078125 0 
L 9.078125 75.984375 
L 18.109375 75.984375 
L 18.109375 46.1875 
Q 21.34375 51.125 25.703125 53.5625 
Q 30.078125 56 35.796875 56 
Q 45.21875 56 50.046875 50.171875 
Q 54.890625 44.34375 54.890625 33.015625 
z
" id="DejaVuSans-104"/>
       <path d="M 8.59375 75.984375 
L 29.296875 75.984375 
L 29.296875 69 
L 17.578125 69 
L 17.578125 -6.203125 
L 29.296875 -6.203125 
L 29.296875 -13.1875 
L 8.59375 -13.1875 
z
" id="DejaVuSans-91"/>
       <path d="M 48.78125 52.59375 
L 48.78125 44.1875 
Q 44.96875 46.296875 41.140625 47.34375 
Q 37.3125 48.390625 33.40625 48.390625 
Q 24.65625 48.390625 19.8125 42.84375 
Q 14.984375 37.3125 14.984375 27.296875 
Q 14.984375 17.28125 19.8125 11.734375 
Q 24.65625 6.203125 33.40625 6.203125 
Q 37.3125 6.203125 41.140625 7.25 
Q 44.96875 8.296875 48.78125 10.40625 
L 48.78125 2.09375 
Q 45.015625 0.34375 40.984375 -0.53125 
Q 36.96875 -1.421875 32.421875 -1.421875 
Q 20.0625 -1.421875 12.78125 6.34375 
Q 5.515625 14.109375 5.515625 27.296875 
Q 5.515625 40.671875 12.859375 48.328125 
Q 20.21875 56 33.015625 56 
Q 37.15625 56 41.109375 55.140625 
Q 45.0625 54.296875 48.78125 52.59375 
z
" id="DejaVuSans-99"/>
       <path d="M 34.28125 27.484375 
Q 23.390625 27.484375 19.1875 25 
Q 14.984375 22.515625 14.984375 16.5 
Q 14.984375 11.71875 18.140625 8.90625 
Q 21.296875 6.109375 26.703125 6.109375 
Q 34.1875 6.109375 38.703125 11.40625 
Q 43.21875 16.703125 43.21875 25.484375 
L 43.21875 27.484375 
z
M 52.203125 31.203125 
L 52.203125 0 
L 43.21875 0 
L 43.21875 8.296875 
Q 40.140625 3.328125 35.546875 0.953125 
Q 30.953125 -1.421875 24.3125 -1.421875 
Q 15.921875 -1.421875 10.953125 3.296875 
Q 6 8.015625 6 15.921875 
Q 6 25.140625 12.171875 29.828125 
Q 18.359375 34.515625 30.609375 34.515625 
L 43.21875 34.515625 
L 43.21875 35.40625 
Q 43.21875 41.609375 39.140625 45 
Q 35.0625 48.390625 27.6875 48.390625 
Q 23 48.390625 18.546875 47.265625 
Q 14.109375 46.140625 10.015625 43.890625 
L 10.015625 52.203125 
Q 14.9375 54.109375 19.578125 55.046875 
Q 24.21875 56 28.609375 56 
Q 40.484375 56 46.34375 49.84375 
Q 52.203125 43.703125 52.203125 31.203125 
z
" id="DejaVuSans-97"/>
       <path d="M 30.421875 75.984375 
L 30.421875 -13.1875 
L 9.71875 -13.1875 
L 9.71875 -6.203125 
L 21.390625 -6.203125 
L 21.390625 69 
L 9.71875 69 
L 9.71875 75.984375 
z
" id="DejaVuSans-93"/>
      </defs>
      <use xlink:href="#DejaVuSans-115"/>
      <use x="52.099609" xlink:href="#DejaVuSans-116"/>
      <use x="91.308594" xlink:href="#DejaVuSans-114"/>
      <use x="132.421875" xlink:href="#DejaVuSans-105"/>
      <use x="160.205078" xlink:href="#DejaVuSans-110"/>
      <use x="223.583984" xlink:href="#DejaVuSans-103"/>
      <use x="287.060547" xlink:href="#DejaVuSans-32"/>
      <use x="318.847656" xlink:href="#DejaVuSans-108"/>
      <use x="346.630859" xlink:href="#DejaVuSans-101"/>
      <use x="408.154297" xlink:href="#DejaVuSans-110"/>
      <use x="471.533203" xlink:href="#DejaVuSans-103"/>
      <use x="535.009766" xlink:href="#DejaVuSans-116"/>
      <use x="574.21875" xlink:href="#DejaVuSans-104"/>
      <use x="637.597656" xlink:href="#DejaVuSans-32"/>
      <use x="669.384766" xlink:href="#DejaVuSans-91"/>
      <use x="708.398438" xlink:href="#DejaVuSans-99"/>
      <use x="763.378906" xlink:href="#DejaVuSans-104"/>
      <use x="826.757812" xlink:href="#DejaVuSans-97"/>
      <use x="888.037109" xlink:href="#DejaVuSans-114"/>
      <use x="929.150391" xlink:href="#DejaVuSans-97"/>
      <use x="990.429688" xlink:href="#DejaVuSans-99"/>
      <use x="1045.410156" xlink:href="#DejaVuSans-116"/>
      <use x="1084.619141" xlink:href="#DejaVuSans-101"/>
      <use x="1146.142578" xlink:href="#DejaVuSans-114"/>
      <use x="1187.255859" xlink:href="#DejaVuSans-93"/>
     </g>
    </g>
   </g>
   <g id="matplotlib.axis_2">
    <g id="ytick_1">
     <g id="line2d_19">
      <path clip-path="url(#p4434fac7c0)" d="M 57.6 307.584 
L 414.72 307.584 
" style="fill:none;stroke:#b0b0b0;stroke-linecap:square;stroke-width:0.8;"/>
     </g>
     <g id="line2d_20">
      <defs>
       <path d="M 0 0 
L -3.5 0 
" id="mfe11992e72" style="stroke:#000000;stroke-width:0.8;"/>
      </defs>
      <g>
       <use style="stroke:#000000;stroke-width:0.8;" x="57.6" xlink:href="#mfe11992e72" y="307.584"/>
      </g>
     </g>
     <g id="text_11">
      <!-- 0 -->
      <g transform="translate(44.2375 311.383219)scale(0.1 -0.1)">
       <use xlink:href="#DejaVuSans-48"/>
      </g>
     </g>
    </g>
    <g id="ytick_2">
     <g id="line2d_21">
      <path clip-path="url(#p4434fac7c0)" d="M 57.6 279.846433 
L 414.72 279.846433 
" style="fill:none;stroke:#b0b0b0;stroke-linecap:square;stroke-width:0.8;"/>
     </g>
     <g id="line2d_22">
      <g>
       <use style="stroke:#000000;stroke-width:0.8;" x="57.6" xlink:href="#mfe11992e72" y="279.846433"/>
      </g>
     </g>
     <g id="text_12">
      <!-- 10000 -->
      <g transform="translate(18.7875 283.645651)scale(0.1 -0.1)">
       <use xlink:href="#DejaVuSans-49"/>
       <use x="63.623047" xlink:href="#DejaVuSans-48"/>
       <use x="127.246094" xlink:href="#DejaVuSans-48"/>
       <use x="190.869141" xlink:href="#DejaVuSans-48"/>
       <use x="254.492188" xlink:href="#DejaVuSans-48"/>
      </g>
     </g>
    </g>
    <g id="ytick_3">
     <g id="line2d_23">
      <path clip-path="url(#p4434fac7c0)" d="M 57.6 252.108865 
L 414.72 252.108865 
" style="fill:none;stroke:#b0b0b0;stroke-linecap:square;stroke-width:0.8;"/>
     </g>
     <g id="line2d_24">
      <g>
       <use style="stroke:#000000;stroke-width:0.8;" x="57.6" xlink:href="#mfe11992e72" y="252.108865"/>
      </g>
     </g>
     <g id="text_13">
      <!-- 20000 -->
      <g transform="translate(18.7875 255.908084)scale(0.1 -0.1)">
       <use xlink:href="#DejaVuSans-50"/>
       <use x="63.623047" xlink:href="#DejaVuSans-48"/>
       <use x="127.246094" xlink:href="#DejaVuSans-48"/>
       <use x="190.869141" xlink:href="#DejaVuSans-48"/>
       <use x="254.492188" xlink:href="#DejaVuSans-48"/>
      </g>
     </g>
    </g>
    <g id="ytick_4">
     <g id="line2d_25">
      <path clip-path="url(#p4434fac7c0)" d="M 57.6 224.371298 
L 414.72 224.371298 
" style="fill:none;stroke:#b0b0b0;stroke-linecap:square;stroke-width:0.8;"/>
     </g>
     <g id="line2d_26">
      <g>
       <use style="stroke:#000000;stroke-width:0.8;" x="57.6" xlink:href="#mfe11992e72" y="224.371298"/>
      </g>
     </g>
     <g id="text_14">
      <!-- 30000 -->
      <g transform="translate(18.7875 228.170517)scale(0.1 -0.1)">
       <use xlink:href="#DejaVuSans-51"/>
       <use x="63.623047" xlink:href="#DejaVuSans-48"/>
       <use x="127.246094" xlink:href="#DejaVuSans-48"/>
       <use x="190.869141" xlink:href="#DejaVuSans-48"/>
       <use x="254.492188" xlink:href="#DejaVuSans-48"/>
      </g>
     </g>
    </g>
    <g id="ytick_5">
     <g id="line2d_27">
      <path clip-path="url(#p4434fac7c0)" d="M 57.6 196.633731 
L 414.72 196.633731 
" style="fill:none;stroke:#b0b0b0;stroke-linecap:square;stroke-width:0.8;"/>
     </g>
     <g id="line2d_28">
      <g>
       <use style="stroke:#000000;stroke-width:0.8;" x="57.6" xlink:href="#mfe11992e72" y="196.633731"/>
      </g>
     </g>
     <g id="text_15">
      <!-- 40000 -->
      <g transform="translate(18.7875 200.432949)scale(0.1 -0.1)">
       <use xlink:href="#DejaVuSans-52"/>
       <use x="63.623047" xlink:href="#DejaVuSans-48"/>
       <use x="127.246094" xlink:href="#DejaVuSans-48"/>
       <use x="190.869141" xlink:href="#DejaVuSans-48"/>
       <use x="254.492188" xlink:href="#DejaVuSans-48"/>
      </g>
     </g>
    </g>
    <g id="ytick_6">
     <g id="line2d_29">
      <path clip-path="url(#p4434fac7c0)" d="M 57.6 168.896163 
L 414.72 168.896163 
" style="fill:none;stroke:#b0b0b0;stroke-linecap:square;stroke-width:0.8;"/>
     </g>
     <g id="line2d_30">
      <g>
       <use style="stroke:#000000;stroke-width:0.8;" x="57.6" xlink:href="#mfe11992e72" y="168.896163"/>
      </g>
     </g>
     <g id="text_16">
      <!-- 50000 -->
      <g transform="translate(18.7875 172.695382)scale(0.1 -0.1)">
       <use xlink:href="#DejaVuSans-53"/>
       <use x="63.623047" xlink:href="#DejaVuSans-48"/>
       <use x="127.246094" xlink:href="#DejaVuSans-48"/>
       <use x="190.869141" xlink:href="#DejaVuSans-48"/>
       <use x="254.492188" xlink:href="#DejaVuSans-48"/>
      </g>
     </g>
    </g>
    <g id="ytick_7">
     <g id="line2d_31">
      <path clip-path="url(#p4434fac7c0)" d="M 57.6 141.158596 
L 414.72 141.158596 
" style="fill:none;stroke:#b0b0b0;stroke-linecap:square;stroke-width:0.8;"/>
     </g>
     <g id="line2d_32">
      <g>
       <use style="stroke:#000000;stroke-width:0.8;" x="57.6" xlink:href="#mfe11992e72" y="141.158596"/>
      </g>
     </g>
     <g id="text_17">
      <!-- 60000 -->
      <g transform="translate(18.7875 144.957815)scale(0.1 -0.1)">
       <use xlink:href="#DejaVuSans-54"/>
       <use x="63.623047" xlink:href="#DejaVuSans-48"/>
       <use x="127.246094" xlink:href="#DejaVuSans-48"/>
       <use x="190.869141" xlink:href="#DejaVuSans-48"/>
       <use x="254.492188" xlink:href="#DejaVuSans-48"/>
      </g>
     </g>
    </g>
    <g id="ytick_8">
     <g id="line2d_33">
      <path clip-path="url(#p4434fac7c0)" d="M 57.6 113.421029 
L 414.72 113.421029 
" style="fill:none;stroke:#b0b0b0;stroke-linecap:square;stroke-width:0.8;"/>
     </g>
     <g id="line2d_34">
      <g>
       <use style="stroke:#000000;stroke-width:0.8;" x="57.6" xlink:href="#mfe11992e72" y="113.421029"/>
      </g>
     </g>
     <g id="text_18">
      <!-- 70000 -->
      <g transform="translate(18.7875 117.220248)scale(0.1 -0.1)">
       <defs>
        <path d="M 8.203125 72.90625 
L 55.078125 72.90625 
L 55.078125 68.703125 
L 28.609375 0 
L 18.3125 0 
L 43.21875 64.59375 
L 8.203125 64.59375 
z
" id="DejaVuSans-55"/>
       </defs>
       <use xlink:href="#DejaVuSans-55"/>
       <use x="63.623047" xlink:href="#DejaVuSans-48"/>
       <use x="127.246094" xlink:href="#DejaVuSans-48"/>
       <use x="190.869141" xlink:href="#DejaVuSans-48"/>
       <use x="254.492188" xlink:href="#DejaVuSans-48"/>
      </g>
     </g>
    </g>
    <g id="ytick_9">
     <g id="line2d_35">
      <path clip-path="url(#p4434fac7c0)" d="M 57.6 85.683461 
L 414.72 85.683461 
" style="fill:none;stroke:#b0b0b0;stroke-linecap:square;stroke-width:0.8;"/>
     </g>
     <g id="line2d_36">
      <g>
       <use style="stroke:#000000;stroke-width:0.8;" x="57.6" xlink:href="#mfe11992e72" y="85.683461"/>
      </g>
     </g>
     <g id="text_19">
      <!-- 80000 -->
      <g transform="translate(18.7875 89.48268)scale(0.1 -0.1)">
       <use xlink:href="#DejaVuSans-56"/>
       <use x="63.623047" xlink:href="#DejaVuSans-48"/>
       <use x="127.246094" xlink:href="#DejaVuSans-48"/>
       <use x="190.869141" xlink:href="#DejaVuSans-48"/>
       <use x="254.492188" xlink:href="#DejaVuSans-48"/>
      </g>
     </g>
    </g>
    <g id="ytick_10">
     <g id="line2d_37">
      <path clip-path="url(#p4434fac7c0)" d="M 57.6 57.945894 
L 414.72 57.945894 
" style="fill:none;stroke:#b0b0b0;stroke-linecap:square;stroke-width:0.8;"/>
     </g>
     <g id="line2d_38">
      <g>
       <use style="stroke:#000000;stroke-width:0.8;" x="57.6" xlink:href="#mfe11992e72" y="57.945894"/>
      </g>
     </g>
     <g id="text_20">
      <!-- 90000 -->
      <g transform="translate(18.7875 61.745113)scale(0.1 -0.1)">
       <use xlink:href="#DejaVuSans-57"/>
       <use x="63.623047" xlink:href="#DejaVuSans-48"/>
       <use x="127.246094" xlink:href="#DejaVuSans-48"/>
       <use x="190.869141" xlink:href="#DejaVuSans-48"/>
       <use x="254.492188" xlink:href="#DejaVuSans-48"/>
      </g>
     </g>
    </g>
    <g id="text_21">
     <!-- runtime [ns] -->
     <g transform="translate(12.707812 205.481125)rotate(-90)scale(0.1 -0.1)">
      <defs>
       <path d="M 8.5 21.578125 
L 8.5 54.6875 
L 17.484375 54.6875 
L 17.484375 21.921875 
Q 17.484375 14.15625 20.5 10.265625 
Q 23.53125 6.390625 29.59375 6.390625 
Q 36.859375 6.390625 41.078125 11.03125 
Q 45.3125 15.671875 45.3125 23.6875 
L 45.3125 54.6875 
L 54.296875 54.6875 
L 54.296875 0 
L 45.3125 0 
L 45.3125 8.40625 
Q 42.046875 3.421875 37.71875 1 
Q 33.40625 -1.421875 27.6875 -1.421875 
Q 18.265625 -1.421875 13.375 4.4375 
Q 8.5 10.296875 8.5 21.578125 
z
M 31.109375 56 
z
" id="DejaVuSans-117"/>
       <path d="M 52 44.1875 
Q 55.375 50.25 60.0625 53.125 
Q 64.75 56 71.09375 56 
Q 79.640625 56 84.28125 50.015625 
Q 88.921875 44.046875 88.921875 33.015625 
L 88.921875 0 
L 79.890625 0 
L 79.890625 32.71875 
Q 79.890625 40.578125 77.09375 44.375 
Q 74.3125 48.1875 68.609375 48.1875 
Q 61.625 48.1875 57.5625 43.546875 
Q 53.515625 38.921875 53.515625 30.90625 
L 53.515625 0 
L 44.484375 0 
L 44.484375 32.71875 
Q 44.484375 40.625 41.703125 44.40625 
Q 38.921875 48.1875 33.109375 48.1875 
Q 26.21875 48.1875 22.15625 43.53125 
Q 18.109375 38.875 18.109375 30.90625 
L 18.109375 0 
L 9.078125 0 
L 9.078125 54.6875 
L 18.109375 54.6875 
L 18.109375 46.1875 
Q 21.1875 51.21875 25.484375 53.609375 
Q 29.78125 56 35.6875 56 
Q 41.65625 56 45.828125 52.96875 
Q 50 49.953125 52 44.1875 
z
" id="DejaVuSans-109"/>
      </defs>
      <use xlink:href="#DejaVuSans-114"/>
      <use x="41.113281" xlink:href="#DejaVuSans-117"/>
      <use x="104.492188" xlink:href="#DejaVuSans-110"/>
      <use x="167.871094" xlink:href="#DejaVuSans-116"/>
      <use x="207.080078" xlink:href="#DejaVuSans-105"/>
      <use x="234.863281" xlink:href="#DejaVuSans-109"/>
      <use x="332.275391" xlink:href="#DejaVuSans-101"/>
      <use x="393.798828" xlink:href="#DejaVuSans-32"/>
      <use x="425.585938" xlink:href="#DejaVuSans-91"/>
      <use x="464.599609" xlink:href="#DejaVuSans-110"/>
      <use x="527.978516" xlink:href="#DejaVuSans-115"/>
      <use x="580.078125" xlink:href="#DejaVuSans-93"/>
     </g>
    </g>
   </g>
   <g id="line2d_39">
    <path clip-path="url(#p4434fac7c0)" d="M 58.265648 307.254797 
L 99.535806 306.554492 
L 100.867102 304.419318 
L 103.529692 304.089596 
L 106.192283 303.845528 
L 107.523579 303.367629 
L 108.854874 303.137291 
L 111.517465 303.001327 
L 112.84876 302.63346 
L 116.842647 302.594286 
L 122.167829 302.188267 
L 128.824306 301.711075 
L 140.805965 300.681185 
L 142.13726 300.513619 
L 143.468555 297.847201 
L 146.131146 297.34656 
L 150.125033 296.841476 
L 162.106692 295.367052 
L 164.769282 295.139074 
L 168.763169 294.653001 
L 175.419646 293.936914 
L 183.407418 292.877303 
L 184.738714 292.623557 
L 186.070009 288.734761 
L 190.063896 287.810906 
L 191.395191 287.692012 
L 194.057782 287.182939 
L 202.045555 285.917557 
L 206.039441 285.366439 
L 214.027213 284.167607 
L 226.008872 282.193869 
L 227.340168 281.903911 
L 228.671463 276.814145 
L 230.002759 276.264725 
L 231.334054 275.858927 
L 236.659236 274.697564 
L 239.321827 274.182319 
L 247.309599 272.543991 
L 248.640895 272.388364 
L 249.97219 272.032383 
L 251.303486 271.825552 
L 252.634781 271.490651 
L 255.297372 271.061188 
L 257.959963 270.528566 
L 268.610326 268.408913 
L 269.941622 268.032429 
L 271.272917 261.619409 
L 273.935508 260.685094 
L 275.266803 260.41349 
L 277.929394 259.576346 
L 281.923281 258.665882 
L 285.917167 257.666434 
L 291.242349 256.549256 
L 293.904939 255.902474 
L 299.230121 254.721359 
L 300.561417 254.554634 
L 301.892712 254.137039 
L 305.886598 253.266853 
L 308.549189 252.591516 
L 311.21178 251.904892 
L 312.543075 251.426019 
L 313.874371 243.841789 
L 317.868257 242.37752 
L 319.199553 241.980992 
L 320.530848 241.703691 
L 321.862144 241.154507 
L 325.85603 240.213058 
L 327.187325 239.724541 
L 328.518621 239.608492 
L 329.849916 238.996876 
L 335.175098 237.576208 
L 347.156757 234.663858 
L 348.488052 234.103853 
L 349.819348 233.899965 
L 351.150643 233.441097 
L 352.481938 233.16201 
L 355.144529 232.154515 
L 356.475825 223.320263 
L 357.80712 222.533299 
L 361.801007 221.211171 
L 363.132302 220.650523 
L 364.463597 220.349659 
L 369.788779 218.63234 
L 372.45137 217.900445 
L 373.782665 217.474136 
L 376.445256 216.765102 
L 377.776552 216.261463 
L 379.107847 216.055537 
L 391.089506 212.398485 
L 392.420801 212.206439 
L 397.745983 210.162499 
L 397.745983 210.162499 
" style="fill:none;stroke:#1f77b4;stroke-linecap:square;stroke-width:1.5;"/>
   </g>
   <g id="line2d_40">
    <path clip-path="url(#p4434fac7c0)" d="M 58.265648 307.211778 
L 99.535806 306.507211 
L 100.867102 303.07591 
L 103.529692 302.646086 
L 111.517465 301.519572 
L 116.842647 300.876255 
L 131.486897 298.858688 
L 142.13726 297.220526 
L 143.468555 294.647698 
L 150.125033 293.21814 
L 151.456328 291.284257 
L 152.787623 291.446805 
L 154.118919 291.104207 
L 156.78151 290.585037 
L 158.112805 290.32206 
L 159.444101 289.931668 
L 160.775396 289.709149 
L 162.106692 289.341523 
L 163.437987 289.116894 
L 164.769282 288.732828 
L 166.100578 288.529171 
L 168.763169 287.903442 
L 172.757055 286.935772 
L 174.08835 286.791551 
L 175.419646 286.385778 
L 176.750941 286.177444 
L 180.744828 285.1862 
L 183.407418 284.650507 
L 184.738714 284.298404 
L 186.070009 280.13728 
L 204.708145 274.31737 
L 214.027213 271.538934 
L 215.358509 271.354416 
L 216.689804 270.67006 
L 218.0211 270.44292 
L 219.352395 270.008861 
L 222.014986 269.275108 
L 223.346281 268.825068 
L 224.677577 268.550192 
L 227.340168 267.565209 
L 228.671463 262.427931 
L 230.002759 261.621789 
L 231.334054 261.139443 
L 232.665349 260.518538 
L 233.996645 260.029566 
L 235.32794 259.714875 
L 236.659236 259.256415 
L 237.990531 258.510224 
L 245.978304 255.492224 
L 249.97219 254.098955 
L 251.303486 253.506303 
L 253.966076 252.503038 
L 255.297372 252.414705 
L 259.291258 250.611555 
L 260.622554 250.553576 
L 261.953849 249.707627 
L 263.285144 249.459911 
L 264.61644 249.063222 
L 265.947735 248.397044 
L 267.279031 248.341166 
L 268.610326 247.339601 
L 269.941622 246.780803 
L 271.272917 240.499018 
L 272.604212 239.335693 
L 273.935508 238.797185 
L 275.266803 238.434109 
L 276.598099 237.335854 
L 277.929394 236.907358 
L 281.923281 235.260582 
L 283.254576 234.413964 
L 284.585871 234.011501 
L 285.917167 233.036511 
L 287.248462 232.556588 
L 288.579758 232.362455 
L 289.911053 231.532345 
L 291.242349 231.388306 
L 292.573644 230.02979 
L 295.236235 229.361741 
L 297.898826 228.121975 
L 299.230121 227.269924 
L 300.561417 226.793828 
L 301.892712 226.469792 
L 303.224007 225.69831 
L 304.555303 225.51063 
L 305.886598 224.527843 
L 307.217894 224.522959 
L 308.549189 223.636031 
L 309.880485 223.54136 
L 311.21178 222.500862 
L 312.543075 222.138305 
L 313.874371 214.446159 
L 315.205666 212.785571 
L 316.536962 211.810943 
L 317.868257 211.403589 
L 319.199553 210.212149 
L 320.530848 209.893004 
L 321.862144 208.891023 
L 323.193439 208.785598 
L 324.524734 207.694934 
L 325.85603 207.774619 
L 327.187325 206.301169 
L 328.518621 206.435186 
L 329.849916 204.791857 
L 331.181212 204.457297 
L 332.512507 204.465208 
L 333.843802 203.16734 
L 336.506393 201.880583 
L 337.837689 201.917463 
L 339.168984 200.4411 
L 340.50028 199.870009 
L 341.831575 200.124684 
L 343.16287 198.457051 
L 344.494166 197.607527 
L 345.825461 197.150604 
L 348.488052 195.842042 
L 349.819348 195.56518 
L 351.150643 194.731633 
L 353.813234 193.896793 
L 355.144529 192.861144 
L 356.475825 184.087447 
L 357.80712 183.104203 
L 359.138416 181.837162 
L 360.469711 181.200878 
L 361.801007 180.240518 
L 363.132302 180.101198 
L 365.794893 177.177009 
L 367.126188 176.86338 
L 368.457484 176.719089 
L 369.788779 175.300937 
L 371.120075 174.842513 
L 372.45137 173.610008 
L 373.782665 173.389597 
L 375.113961 172.888753 
L 376.445256 171.248323 
L 377.776552 170.800053 
L 380.439143 169.018686 
L 381.770438 168.875038 
L 383.101733 168.068935 
L 385.764324 165.991449 
L 387.09562 165.452017 
L 388.426915 165.081027 
L 389.758211 164.201303 
L 391.089506 162.566861 
L 392.420801 163.235409 
L 393.752097 161.672031 
L 395.083392 161.122283 
L 396.414688 160.428805 
L 397.745983 159.87901 
L 397.745983 159.87901 
" style="fill:none;stroke:#ff7f0e;stroke-linecap:square;stroke-width:1.5;"/>
   </g>
   <g id="line2d_41">
    <path clip-path="url(#p4434fac7c0)" d="M 58.265648 307.339649 
L 67.584716 306.551344 
L 70.247307 306.09538 
L 74.241193 305.150827 
L 76.903784 304.376056 
L 83.560261 301.803921 
L 86.222852 300.44703 
L 88.885443 299.124084 
L 92.879329 296.835329 
L 95.54192 294.752818 
L 96.873215 293.260825 
L 98.204511 292.257133 
L 99.535806 290.835069 
L 100.867102 289.147471 
L 103.529692 287.93243 
L 104.860988 286.359111 
L 107.523579 284.940509 
L 108.854874 283.373056 
L 110.18617 282.442877 
L 111.517465 281.05338 
L 114.180056 278.543705 
L 118.173942 274.334903 
L 120.836533 271.144412 
L 128.824306 261.359097 
L 132.818192 256.134901 
L 135.480783 252.543932 
L 142.13726 242.845669 
L 146.131146 236.741454 
L 151.456328 228.187086 
L 158.112805 216.847586 
L 162.106692 209.789565 
L 163.437987 207.073843 
L 164.769282 204.692243 
L 168.763169 196.741863 
L 170.094464 194.516891 
L 178.082237 178.318241 
L 179.413532 175.300418 
L 180.744828 172.563591 
L 182.076123 169.567823 
L 183.407418 165.988662 
L 184.738714 163.79178 
L 186.070009 160.613321 
L 187.401305 157.006766 
L 190.063896 150.9624 
L 191.395191 148.250837 
L 195.389077 138.624986 
L 198.051668 132.424036 
L 200.714259 125.756105 
L 204.708145 115.872067 
L 211.364623 98.482088 
L 212.695918 99.762277 
L 214.027213 93.383934 
L 215.358509 87.758467 
L 219.352395 76.930525 
L 223.346281 65.475343 
L 226.008872 58.202053 
L 227.340168 54.132364 
L 227.340168 54.132364 
" style="fill:none;stroke:#2ca02c;stroke-linecap:square;stroke-width:1.5;"/>
   </g>
   <g id="line2d_42">
    <path clip-path="url(#p4434fac7c0)" d="M 58.265648 304.3293 
L 59.596943 303.581085 
L 60.928239 302.569778 
L 63.590829 301.035935 
L 64.922125 300.347318 
L 67.584716 298.732739 
L 68.916011 298.118742 
L 70.247307 297.691034 
L 71.578602 297.108312 
L 72.909897 296.34169 
L 75.572488 295.186205 
L 76.903784 295.632824 
L 78.235079 295.003968 
L 79.566375 294.614102 
L 80.89767 294.356674 
L 82.228966 293.973278 
L 86.222852 292.387798 
L 87.554147 291.768531 
L 88.885443 290.334868 
L 90.216738 289.474681 
L 91.548034 289.146898 
L 92.879329 289.080922 
L 96.873215 286.970466 
L 99.535806 286.154412 
L 100.867102 274.092067 
L 102.198397 271.506759 
L 103.529692 270.425686 
L 104.860988 269.565114 
L 106.192283 269.191339 
L 107.523579 268.131003 
L 108.854874 268.018751 
L 110.18617 266.832288 
L 111.517465 267.432071 
L 112.84876 266.86473 
L 114.180056 266.824819 
L 115.511351 266.431352 
L 118.173942 265.369401 
L 122.167829 264.22889 
L 123.499124 264.263622 
L 130.155601 262.94044 
L 131.486897 262.776363 
L 132.818192 262.190369 
L 134.149487 262.275387 
L 136.812078 261.069646 
L 138.143374 260.259073 
L 139.474669 260.531182 
L 140.805965 260.056656 
L 142.13726 259.426952 
L 143.468555 245.875362 
L 144.799851 242.22188 
L 146.131146 238.938519 
L 147.462442 237.817457 
L 148.793737 237.399388 
L 150.125033 236.862209 
L 151.456328 236.490801 
L 152.787623 236.609755 
L 156.78151 235.714277 
L 158.112805 235.569573 
L 162.106692 234.469098 
L 163.437987 234.492534 
L 164.769282 234.22898 
L 168.763169 234.107485 
L 170.094464 233.902102 
L 171.42576 233.875204 
L 176.750941 233.223596 
L 179.413532 232.357887 
L 182.076123 231.940952 
L 183.407418 231.606557 
L 184.738714 231.107129 
L 186.070009 217.610525 
L 187.401305 217.041046 
L 188.7326 216.86926 
L 190.063896 216.410822 
L 191.395191 216.290828 
L 194.057782 215.675723 
L 195.389077 215.698482 
L 196.720373 215.381827 
L 199.382964 215.25276 
L 200.714259 215.121274 
L 202.045555 214.840273 
L 204.708145 214.503205 
L 206.039441 214.244207 
L 207.370736 214.3165 
L 208.702032 213.88683 
L 210.033327 214.00435 
L 212.695918 213.371017 
L 215.358509 212.998053 
L 219.352395 211.924996 
L 220.683691 211.428641 
L 222.014986 211.543332 
L 223.346281 211.192087 
L 224.677577 210.996407 
L 226.008872 210.657636 
L 227.340168 209.192235 
L 228.671463 196.416201 
L 230.002759 195.946116 
L 231.334054 193.515721 
L 232.665349 187.385709 
L 233.996645 181.865459 
L 235.32794 179.69033 
L 236.659236 178.849047 
L 237.990531 179.068885 
L 239.321827 178.442968 
L 240.653122 178.331181 
L 241.984418 178.339491 
L 243.315713 178.003141 
L 244.647008 177.810285 
L 245.978304 177.863238 
L 247.309599 177.235758 
L 248.640895 177.380198 
L 249.97219 176.944631 
L 252.634781 176.497232 
L 253.966076 176.788427 
L 255.297372 176.608482 
L 257.959963 176.781127 
L 259.291258 176.050276 
L 265.947735 174.791999 
L 267.279031 174.800906 
L 269.941622 173.307353 
L 271.272917 160.017735 
L 272.604212 159.450692 
L 273.935508 159.383204 
L 275.266803 159.091736 
L 276.598099 158.663719 
L 277.929394 158.738671 
L 279.26069 158.133324 
L 280.591985 157.887571 
L 281.923281 158.207746 
L 283.254576 158.071402 
L 284.585871 158.20501 
L 285.917167 157.560524 
L 288.579758 156.98728 
L 291.242349 156.790969 
L 292.573644 156.589333 
L 293.904939 156.271591 
L 295.236235 156.147633 
L 296.56753 156.299864 
L 299.230121 155.744232 
L 300.561417 155.637447 
L 301.892712 155.168157 
L 303.224007 154.844741 
L 304.555303 154.308158 
L 305.886598 153.936292 
L 308.549189 153.680534 
L 309.880485 153.264718 
L 311.21178 152.722198 
L 312.543075 151.010216 
L 313.874371 138.436874 
L 315.205666 137.685407 
L 316.536962 137.869374 
L 317.868257 137.380664 
L 319.199553 137.029184 
L 320.530848 136.897711 
L 321.862144 136.413549 
L 323.193439 136.595131 
L 324.524734 136.065694 
L 325.85603 135.862366 
L 327.187325 136.120358 
L 328.518621 136.001846 
L 329.849916 135.590925 
L 331.181212 135.785842 
L 332.512507 135.429646 
L 335.175098 135.141234 
L 336.506393 134.701305 
L 337.837689 134.95694 
L 339.168984 134.494226 
L 340.50028 134.452544 
L 341.831575 134.019991 
L 343.16287 133.968528 
L 345.825461 132.820321 
L 347.156757 132.89594 
L 348.488052 132.229398 
L 349.819348 132.081849 
L 353.813234 131.197273 
L 355.144529 129.514941 
L 356.475825 116.57074 
L 357.80712 115.930096 
L 359.138416 115.856089 
L 361.801007 115.16848 
L 363.132302 114.906821 
L 364.463597 114.388486 
L 365.794893 114.289695 
L 367.126188 114.54012 
L 368.457484 114.607389 
L 371.120075 114.102399 
L 372.45137 114.246834 
L 373.782665 113.643054 
L 376.445256 113.389223 
L 377.776552 112.891643 
L 379.107847 112.814687 
L 380.439143 112.41876 
L 381.770438 112.535122 
L 383.101733 111.810197 
L 385.764324 111.922122 
L 387.09562 110.932202 
L 388.426915 110.970059 
L 389.758211 110.821044 
L 393.752097 108.881662 
L 395.083392 108.962097 
L 396.414688 108.452246 
L 397.745983 106.355049 
L 397.745983 106.355049 
" style="fill:none;stroke:#d62728;stroke-linecap:square;stroke-width:1.5;"/>
   </g>
   <g id="line2d_43">
    <path clip-path="url(#p4434fac7c0)" d="M 58.265648 307.073525 
L 59.596943 306.641243 
L 64.922125 303.969867 
L 66.25342 302.936712 
L 67.584716 302.604573 
L 70.247307 301.514074 
L 71.578602 300.737158 
L 74.241193 299.679347 
L 86.222852 294.746392 
L 91.548034 292.699353 
L 92.879329 292.404597 
L 94.210624 291.964704 
L 95.54192 289.549064 
L 96.873215 289.592799 
L 98.204511 289.497442 
L 99.535806 288.451163 
L 102.198397 286.906286 
L 103.529692 287.08986 
L 104.860988 285.702177 
L 106.192283 285.561661 
L 108.854874 284.62569 
L 110.18617 284.659005 
L 116.842647 282.551353 
L 118.173942 281.533043 
L 119.505238 281.626157 
L 120.836533 281.045185 
L 122.167829 280.300104 
L 123.499124 280.136638 
L 124.830419 279.104443 
L 127.49301 278.108079 
L 128.824306 278.026052 
L 130.155601 277.440263 
L 131.486897 277.44463 
L 132.818192 276.479217 
L 134.149487 275.813862 
L 135.480783 275.377192 
L 138.143374 274.969945 
L 139.474669 274.19901 
L 140.805965 274.264724 
L 142.13726 273.518753 
L 143.468555 270.293863 
L 144.799851 262.145061 
L 146.131146 261.635589 
L 147.462442 260.951643 
L 148.793737 260.881821 
L 150.125033 260.326005 
L 154.118919 259.080098 
L 155.450214 258.555116 
L 156.78151 258.557717 
L 158.112805 258.121721 
L 159.444101 257.433946 
L 160.775396 256.962016 
L 162.106692 256.705893 
L 163.437987 256.239267 
L 164.769282 255.899105 
L 170.094464 254.041641 
L 171.42576 253.825371 
L 174.08835 252.878437 
L 175.419646 252.682467 
L 178.082237 251.80201 
L 180.744828 250.860629 
L 182.076123 250.241823 
L 183.407418 250.019363 
L 184.738714 249.288041 
L 186.070009 247.067561 
L 187.401305 246.132279 
L 188.7326 246.049516 
L 190.063896 245.33194 
L 191.395191 245.206806 
L 192.726486 244.105505 
L 194.057782 244.32355 
L 195.389077 243.662592 
L 196.720373 243.269646 
L 198.051668 242.26831 
L 199.382964 242.090736 
L 200.714259 241.491961 
L 202.045555 241.226543 
L 203.37685 240.264433 
L 204.708145 240.65676 
L 206.039441 239.536787 
L 207.370736 239.798618 
L 208.702032 237.800171 
L 210.033327 239.045248 
L 211.364623 237.148869 
L 212.695918 237.461982 
L 214.027213 236.580589 
L 215.358509 236.717445 
L 216.689804 235.185002 
L 218.0211 235.593446 
L 219.352395 234.702084 
L 220.683691 234.510524 
L 222.014986 233.64306 
L 223.346281 233.526561 
L 224.677577 232.247118 
L 226.008872 232.044879 
L 227.340168 231.536092 
L 228.671463 222.035276 
L 232.665349 219.77794 
L 233.996645 219.323747 
L 235.32794 219.2023 
L 236.659236 218.206998 
L 237.990531 218.011462 
L 239.321827 217.318289 
L 240.653122 216.875655 
L 241.984418 216.170199 
L 243.315713 215.722751 
L 244.647008 215.064598 
L 245.978304 214.602429 
L 247.309599 213.497349 
L 248.640895 213.373185 
L 249.97219 212.609506 
L 252.634781 211.519178 
L 253.966076 210.881331 
L 255.297372 210.09939 
L 256.628667 209.735555 
L 257.959963 208.215331 
L 259.291258 208.670083 
L 260.622554 207.807298 
L 261.953849 207.297448 
L 263.285144 206.338627 
L 267.279031 204.857803 
L 268.610326 203.853419 
L 269.941622 203.360589 
L 271.272917 196.556086 
L 272.604212 197.066699 
L 273.935508 195.660953 
L 275.266803 195.402156 
L 276.598099 193.906501 
L 277.929394 194.130314 
L 279.26069 192.868431 
L 280.591985 192.971534 
L 281.923281 191.647067 
L 283.254576 191.684562 
L 284.585871 190.113959 
L 285.917167 190.19841 
L 287.248462 188.994525 
L 288.579758 189.18113 
L 289.911053 188.217814 
L 291.242349 188.227889 
L 292.573644 187.039635 
L 293.904939 187.102193 
L 295.236235 186.114777 
L 296.56753 185.546389 
L 297.898826 184.677451 
L 299.230121 184.383042 
L 300.561417 183.417626 
L 301.892712 182.945888 
L 303.224007 181.977418 
L 304.555303 182.084081 
L 305.886598 180.490558 
L 307.217894 180.460635 
L 308.549189 179.708557 
L 309.880485 180.147027 
L 311.21178 178.198943 
L 312.543075 178.263467 
L 313.874371 170.836513 
L 315.205666 169.976108 
L 316.536962 168.968823 
L 317.868257 169.190861 
L 319.199553 166.779058 
L 320.530848 166.948596 
L 321.862144 166.337402 
L 323.193439 165.261442 
L 324.524734 164.569465 
L 325.85603 164.589558 
L 327.187325 163.668908 
L 328.518621 162.508867 
L 331.181212 161.436758 
L 332.512507 161.10884 
L 333.843802 160.362767 
L 335.175098 158.737962 
L 336.506393 158.56124 
L 337.837689 157.491241 
L 339.168984 157.369372 
L 340.50028 156.450241 
L 341.831575 155.961334 
L 344.494166 154.176431 
L 345.825461 152.914371 
L 347.156757 152.703098 
L 348.488052 151.883241 
L 349.819348 151.853844 
L 351.150643 150.885816 
L 352.481938 150.842229 
L 353.813234 149.515093 
L 355.144529 149.158961 
L 356.475825 138.220705 
L 357.80712 137.991665 
L 360.469711 136.324927 
L 361.801007 135.04584 
L 363.132302 136.169325 
L 364.463597 135.268008 
L 365.794893 133.994182 
L 367.126188 132.975367 
L 368.457484 131.741632 
L 369.788779 131.682525 
L 371.120075 131.014226 
L 372.45137 131.507418 
L 373.782665 130.822622 
L 375.113961 129.76221 
L 376.445256 129.001577 
L 377.776552 127.756224 
L 380.439143 126.642359 
L 381.770438 125.849966 
L 383.101733 125.686874 
L 384.433029 124.030331 
L 385.764324 123.112805 
L 388.426915 123.290249 
L 389.758211 122.927918 
L 391.089506 121.593942 
L 392.420801 120.842756 
L 393.752097 119.813062 
L 395.083392 119.979988 
L 396.414688 118.739739 
L 397.745983 117.226376 
L 397.745983 117.226376 
" style="fill:none;stroke:#9467bd;stroke-linecap:square;stroke-width:1.5;"/>
   </g>
   <g id="patch_3">
    <path d="M 57.6 307.584 
L 57.6 41.472 
" style="fill:none;stroke:#000000;stroke-linecap:square;stroke-linejoin:miter;stroke-width:0.8;"/>
   </g>
   <g id="patch_4">
    <path d="M 414.72 307.584 
L 414.72 41.472 
" style="fill:none;stroke:#000000;stroke-linecap:square;stroke-linejoin:miter;stroke-width:0.8;"/>
   </g>
   <g id="patch_5">
    <path d="M 57.6 307.584 
L 414.72 307.584 
" style="fill:none;stroke:#000000;stroke-linecap:square;stroke-linejoin:miter;stroke-width:0.8;"/>
   </g>
   <g id="patch_6">
    <path d="M 57.6 41.472 
L 414.72 41.472 
" style="fill:none;stroke:#000000;stroke-linecap:square;stroke-linejoin:miter;stroke-width:0.8;"/>
   </g>
   <g id="text_22">
    <!-- Performance comparision of the -->
    <g transform="translate(140.090625 22.034625)scale(0.12 -0.12)">
     <defs>
      <path d="M 19.671875 64.796875 
L 19.671875 37.40625 
L 32.078125 37.40625 
Q 38.96875 37.40625 42.71875 40.96875 
Q 46.484375 44.53125 46.484375 51.125 
Q 46.484375 57.671875 42.71875 61.234375 
Q 38.96875 64.796875 32.078125 64.796875 
z
M 9.8125 72.90625 
L 32.078125 72.90625 
Q 44.34375 72.90625 50.609375 67.359375 
Q 56.890625 61.8125 56.890625 51.125 
Q 56.890625 40.328125 50.609375 34.8125 
Q 44.34375 29.296875 32.078125 29.296875 
L 19.671875 29.296875 
L 19.671875 0 
L 9.8125 0 
z
" id="DejaVuSans-80"/>
      <path d="M 37.109375 75.984375 
L 37.109375 68.5 
L 28.515625 68.5 
Q 23.6875 68.5 21.796875 66.546875 
Q 19.921875 64.59375 19.921875 59.515625 
L 19.921875 54.6875 
L 34.71875 54.6875 
L 34.71875 47.703125 
L 19.921875 47.703125 
L 19.921875 0 
L 10.890625 0 
L 10.890625 47.703125 
L 2.296875 47.703125 
L 2.296875 54.6875 
L 10.890625 54.6875 
L 10.890625 58.5 
Q 10.890625 67.625 15.140625 71.796875 
Q 19.390625 75.984375 28.609375 75.984375 
z
" id="DejaVuSans-102"/>
      <path d="M 30.609375 48.390625 
Q 23.390625 48.390625 19.1875 42.75 
Q 14.984375 37.109375 14.984375 27.296875 
Q 14.984375 17.484375 19.15625 11.84375 
Q 23.34375 6.203125 30.609375 6.203125 
Q 37.796875 6.203125 41.984375 11.859375 
Q 46.1875 17.53125 46.1875 27.296875 
Q 46.1875 37.015625 41.984375 42.703125 
Q 37.796875 48.390625 30.609375 48.390625 
z
M 30.609375 56 
Q 42.328125 56 49.015625 48.375 
Q 55.71875 40.765625 55.71875 27.296875 
Q 55.71875 13.875 49.015625 6.21875 
Q 42.328125 -1.421875 30.609375 -1.421875 
Q 18.84375 -1.421875 12.171875 6.21875 
Q 5.515625 13.875 5.515625 27.296875 
Q 5.515625 40.765625 12.171875 48.375 
Q 18.84375 56 30.609375 56 
z
" id="DejaVuSans-111"/>
      <path d="M 18.109375 8.203125 
L 18.109375 -20.796875 
L 9.078125 -20.796875 
L 9.078125 54.6875 
L 18.109375 54.6875 
L 18.109375 46.390625 
Q 20.953125 51.265625 25.265625 53.625 
Q 29.59375 56 35.59375 56 
Q 45.5625 56 51.78125 48.09375 
Q 58.015625 40.1875 58.015625 27.296875 
Q 58.015625 14.40625 51.78125 6.484375 
Q 45.5625 -1.421875 35.59375 -1.421875 
Q 29.59375 -1.421875 25.265625 0.953125 
Q 20.953125 3.328125 18.109375 8.203125 
z
M 48.6875 27.296875 
Q 48.6875 37.203125 44.609375 42.84375 
Q 40.53125 48.484375 33.40625 48.484375 
Q 26.265625 48.484375 22.1875 42.84375 
Q 18.109375 37.203125 18.109375 27.296875 
Q 18.109375 17.390625 22.1875 11.75 
Q 26.265625 6.109375 33.40625 6.109375 
Q 40.53125 6.109375 44.609375 11.75 
Q 48.6875 17.390625 48.6875 27.296875 
z
" id="DejaVuSans-112"/>
     </defs>
     <use xlink:href="#DejaVuSans-80"/>
     <use x="56.677734" xlink:href="#DejaVuSans-101"/>
     <use x="118.201172" xlink:href="#DejaVuSans-114"/>
     <use x="159.314453" xlink:href="#DejaVuSans-102"/>
     <use x="194.519531" xlink:href="#DejaVuSans-111"/>
     <use x="255.701172" xlink:href="#DejaVuSans-114"/>
     <use x="295.064453" xlink:href="#DejaVuSans-109"/>
     <use x="392.476562" xlink:href="#DejaVuSans-97"/>
     <use x="453.755859" xlink:href="#DejaVuSans-110"/>
     <use x="517.134766" xlink:href="#DejaVuSans-99"/>
     <use x="572.115234" xlink:href="#DejaVuSans-101"/>
     <use x="633.638672" xlink:href="#DejaVuSans-32"/>
     <use x="665.425781" xlink:href="#DejaVuSans-99"/>
     <use x="720.40625" xlink:href="#DejaVuSans-111"/>
     <use x="781.587891" xlink:href="#DejaVuSans-109"/>
     <use x="879" xlink:href="#DejaVuSans-112"/>
     <use x="942.476562" xlink:href="#DejaVuSans-97"/>
     <use x="1003.755859" xlink:href="#DejaVuSans-114"/>
     <use x="1044.869141" xlink:href="#DejaVuSans-105"/>
     <use x="1072.652344" xlink:href="#DejaVuSans-115"/>
     <use x="1124.751953" xlink:href="#DejaVuSans-105"/>
     <use x="1152.535156" xlink:href="#DejaVuSans-111"/>
     <use x="1213.716797" xlink:href="#DejaVuSans-110"/>
     <use x="1277.095703" xlink:href="#DejaVuSans-32"/>
     <use x="1308.882812" xlink:href="#DejaVuSans-111"/>
     <use x="1370.064453" xlink:href="#DejaVuSans-102"/>
     <use x="1405.269531" xlink:href="#DejaVuSans-32"/>
     <use x="1437.056641" xlink:href="#DejaVuSans-116"/>
     <use x="1476.265625" xlink:href="#DejaVuSans-104"/>
     <use x="1539.644531" xlink:href="#DejaVuSans-101"/>
    </g>
    <!-- uniform Levenshtein distance in different libraries -->
    <g transform="translate(86.24625 35.472)scale(0.12 -0.12)">
     <defs>
      <path d="M 9.8125 72.90625 
L 19.671875 72.90625 
L 19.671875 8.296875 
L 55.171875 8.296875 
L 55.171875 0 
L 9.8125 0 
z
" id="DejaVuSans-76"/>
      <path d="M 2.984375 54.6875 
L 12.5 54.6875 
L 29.59375 8.796875 
L 46.6875 54.6875 
L 56.203125 54.6875 
L 35.6875 0 
L 23.484375 0 
z
" id="DejaVuSans-118"/>
      <path d="M 45.40625 46.390625 
L 45.40625 75.984375 
L 54.390625 75.984375 
L 54.390625 0 
L 45.40625 0 
L 45.40625 8.203125 
Q 42.578125 3.328125 38.25 0.953125 
Q 33.9375 -1.421875 27.875 -1.421875 
Q 17.96875 -1.421875 11.734375 6.484375 
Q 5.515625 14.40625 5.515625 27.296875 
Q 5.515625 40.1875 11.734375 48.09375 
Q 17.96875 56 27.875 56 
Q 33.9375 56 38.25 53.625 
Q 42.578125 51.265625 45.40625 46.390625 
z
M 14.796875 27.296875 
Q 14.796875 17.390625 18.875 11.75 
Q 22.953125 6.109375 30.078125 6.109375 
Q 37.203125 6.109375 41.296875 11.75 
Q 45.40625 17.390625 45.40625 27.296875 
Q 45.40625 37.203125 41.296875 42.84375 
Q 37.203125 48.484375 30.078125 48.484375 
Q 22.953125 48.484375 18.875 42.84375 
Q 14.796875 37.203125 14.796875 27.296875 
z
" id="DejaVuSans-100"/>
      <path d="M 48.6875 27.296875 
Q 48.6875 37.203125 44.609375 42.84375 
Q 40.53125 48.484375 33.40625 48.484375 
Q 26.265625 48.484375 22.1875 42.84375 
Q 18.109375 37.203125 18.109375 27.296875 
Q 18.109375 17.390625 22.1875 11.75 
Q 26.265625 6.109375 33.40625 6.109375 
Q 40.53125 6.109375 44.609375 11.75 
Q 48.6875 17.390625 48.6875 27.296875 
z
M 18.109375 46.390625 
Q 20.953125 51.265625 25.265625 53.625 
Q 29.59375 56 35.59375 56 
Q 45.5625 56 51.78125 48.09375 
Q 58.015625 40.1875 58.015625 27.296875 
Q 58.015625 14.40625 51.78125 6.484375 
Q 45.5625 -1.421875 35.59375 -1.421875 
Q 29.59375 -1.421875 25.265625 0.953125 
Q 20.953125 3.328125 18.109375 8.203125 
L 18.109375 0 
L 9.078125 0 
L 9.078125 75.984375 
L 18.109375 75.984375 
z
" id="DejaVuSans-98"/>
     </defs>
     <use xlink:href="#DejaVuSans-117"/>
     <use x="63.378906" xlink:href="#DejaVuSans-110"/>
     <use x="126.757812" xlink:href="#DejaVuSans-105"/>
     <use x="154.541016" xlink:href="#DejaVuSans-102"/>
     <use x="189.746094" xlink:href="#DejaVuSans-111"/>
     <use x="250.927734" xlink:href="#DejaVuSans-114"/>
     <use x="290.291016" xlink:href="#DejaVuSans-109"/>
     <use x="387.703125" xlink:href="#DejaVuSans-32"/>
     <use x="419.490234" xlink:href="#DejaVuSans-76"/>
     <use x="473.453125" xlink:href="#DejaVuSans-101"/>
     <use x="534.976562" xlink:href="#DejaVuSans-118"/>
     <use x="594.15625" xlink:href="#DejaVuSans-101"/>
     <use x="655.679688" xlink:href="#DejaVuSans-110"/>
     <use x="719.058594" xlink:href="#DejaVuSans-115"/>
     <use x="771.158203" xlink:href="#DejaVuSans-104"/>
     <use x="834.537109" xlink:href="#DejaVuSans-116"/>
     <use x="873.746094" xlink:href="#DejaVuSans-101"/>
     <use x="935.269531" xlink:href="#DejaVuSans-105"/>
     <use x="963.052734" xlink:href="#DejaVuSans-110"/>
     <use x="1026.431641" xlink:href="#DejaVuSans-32"/>
     <use x="1058.21875" xlink:href="#DejaVuSans-100"/>
     <use x="1121.695312" xlink:href="#DejaVuSans-105"/>
     <use x="1149.478516" xlink:href="#DejaVuSans-115"/>
     <use x="1201.578125" xlink:href="#DejaVuSans-116"/>
     <use x="1240.787109" xlink:href="#DejaVuSans-97"/>
     <use x="1302.066406" xlink:href="#DejaVuSans-110"/>
     <use x="1365.445312" xlink:href="#DejaVuSans-99"/>
     <use x="1420.425781" xlink:href="#DejaVuSans-101"/>
     <use x="1481.949219" xlink:href="#DejaVuSans-32"/>
     <use x="1513.736328" xlink:href="#DejaVuSans-105"/>
     <use x="1541.519531" xlink:href="#DejaVuSans-110"/>
     <use x="1604.898438" xlink:href="#DejaVuSans-32"/>
     <use x="1636.685547" xlink:href="#DejaVuSans-100"/>
     <use x="1700.162109" xlink:href="#DejaVuSans-105"/>
     <use x="1727.945312" xlink:href="#DejaVuSans-102"/>
     <use x="1763.150391" xlink:href="#DejaVuSans-102"/>
     <use x="1798.355469" xlink:href="#DejaVuSans-101"/>
     <use x="1859.878906" xlink:href="#DejaVuSans-114"/>
     <use x="1898.742188" xlink:href="#DejaVuSans-101"/>
     <use x="1960.265625" xlink:href="#DejaVuSans-110"/>
     <use x="2023.644531" xlink:href="#DejaVuSans-116"/>
     <use x="2062.853516" xlink:href="#DejaVuSans-32"/>
     <use x="2094.640625" xlink:href="#DejaVuSans-108"/>
     <use x="2122.423828" xlink:href="#DejaVuSans-105"/>
     <use x="2150.207031" xlink:href="#DejaVuSans-98"/>
     <use x="2213.683594" xlink:href="#DejaVuSans-114"/>
     <use x="2254.796875" xlink:href="#DejaVuSans-97"/>
     <use x="2316.076172" xlink:href="#DejaVuSans-114"/>
     <use x="2357.189453" xlink:href="#DejaVuSans-105"/>
     <use x="2384.972656" xlink:href="#DejaVuSans-101"/>
     <use x="2446.496094" xlink:href="#DejaVuSans-115"/>
    </g>
   </g>
   <g id="legend_1">
    <g id="patch_7">
     <path d="M 64.6 122.862625 
L 195.884375 122.862625 
Q 197.884375 122.862625 197.884375 120.862625 
L 197.884375 48.472 
Q 197.884375 46.472 195.884375 46.472 
L 64.6 46.472 
Q 62.6 46.472 62.6 48.472 
L 62.6 120.862625 
Q 62.6 122.862625 64.6 122.862625 
z
" style="fill:#ffffff;opacity:0.8;stroke:#cccccc;stroke-linejoin:miter;"/>
    </g>
    <g id="line2d_44">
     <path d="M 66.6 54.570438 
L 86.6 54.570438 
" style="fill:none;stroke:#1f77b4;stroke-linecap:square;stroke-width:1.5;"/>
    </g>
    <g id="line2d_45"/>
    <g id="text_23">
     <!-- rapidfuzz -->
     <g transform="translate(94.6 58.070438)scale(0.1 -0.1)">
      <defs>
       <path d="M 5.515625 54.6875 
L 48.1875 54.6875 
L 48.1875 46.484375 
L 14.40625 7.171875 
L 48.1875 7.171875 
L 48.1875 0 
L 4.296875 0 
L 4.296875 8.203125 
L 38.09375 47.515625 
L 5.515625 47.515625 
z
" id="DejaVuSans-122"/>
      </defs>
      <use xlink:href="#DejaVuSans-114"/>
      <use x="41.113281" xlink:href="#DejaVuSans-97"/>
      <use x="102.392578" xlink:href="#DejaVuSans-112"/>
      <use x="165.869141" xlink:href="#DejaVuSans-105"/>
      <use x="193.652344" xlink:href="#DejaVuSans-100"/>
      <use x="257.128906" xlink:href="#DejaVuSans-102"/>
      <use x="292.333984" xlink:href="#DejaVuSans-117"/>
      <use x="355.712891" xlink:href="#DejaVuSans-122"/>
      <use x="408.203125" xlink:href="#DejaVuSans-122"/>
     </g>
    </g>
    <g id="line2d_46">
     <path d="M 66.6 69.248563 
L 86.6 69.248563 
" style="fill:none;stroke:#ff7f0e;stroke-linecap:square;stroke-width:1.5;"/>
    </g>
    <g id="line2d_47"/>
    <g id="text_24">
     <!-- polyleven -->
     <g transform="translate(94.6 72.748563)scale(0.1 -0.1)">
      <defs>
       <path d="M 32.171875 -5.078125 
Q 28.375 -14.84375 24.75 -17.8125 
Q 21.140625 -20.796875 15.09375 -20.796875 
L 7.90625 -20.796875 
L 7.90625 -13.28125 
L 13.1875 -13.28125 
Q 16.890625 -13.28125 18.9375 -11.515625 
Q 21 -9.765625 23.484375 -3.21875 
L 25.09375 0.875 
L 2.984375 54.6875 
L 12.5 54.6875 
L 29.59375 11.921875 
L 46.6875 54.6875 
L 56.203125 54.6875 
z
" id="DejaVuSans-121"/>
      </defs>
      <use xlink:href="#DejaVuSans-112"/>
      <use x="63.476562" xlink:href="#DejaVuSans-111"/>
      <use x="124.658203" xlink:href="#DejaVuSans-108"/>
      <use x="152.441406" xlink:href="#DejaVuSans-121"/>
      <use x="211.621094" xlink:href="#DejaVuSans-108"/>
      <use x="239.404297" xlink:href="#DejaVuSans-101"/>
      <use x="300.927734" xlink:href="#DejaVuSans-118"/>
      <use x="360.107422" xlink:href="#DejaVuSans-101"/>
      <use x="421.630859" xlink:href="#DejaVuSans-110"/>
     </g>
    </g>
    <g id="line2d_48">
     <path d="M 66.6 83.926688 
L 86.6 83.926688 
" style="fill:none;stroke:#2ca02c;stroke-linecap:square;stroke-width:1.5;"/>
    </g>
    <g id="line2d_49"/>
    <g id="text_25">
     <!-- python-Levenshtein -->
     <g transform="translate(94.6 87.426688)scale(0.1 -0.1)">
      <defs>
       <path d="M 4.890625 31.390625 
L 31.203125 31.390625 
L 31.203125 23.390625 
L 4.890625 23.390625 
z
" id="DejaVuSans-45"/>
      </defs>
      <use xlink:href="#DejaVuSans-112"/>
      <use x="63.476562" xlink:href="#DejaVuSans-121"/>
      <use x="122.65625" xlink:href="#DejaVuSans-116"/>
      <use x="161.865234" xlink:href="#DejaVuSans-104"/>
      <use x="225.244141" xlink:href="#DejaVuSans-111"/>
      <use x="286.425781" xlink:href="#DejaVuSans-110"/>
      <use x="349.804688" xlink:href="#DejaVuSans-45"/>
      <use x="385.888672" xlink:href="#DejaVuSans-76"/>
      <use x="439.851562" xlink:href="#DejaVuSans-101"/>
      <use x="501.375" xlink:href="#DejaVuSans-118"/>
      <use x="560.554688" xlink:href="#DejaVuSans-101"/>
      <use x="622.078125" xlink:href="#DejaVuSans-110"/>
      <use x="685.457031" xlink:href="#DejaVuSans-115"/>
      <use x="737.556641" xlink:href="#DejaVuSans-104"/>
      <use x="800.935547" xlink:href="#DejaVuSans-116"/>
      <use x="840.144531" xlink:href="#DejaVuSans-101"/>
      <use x="901.667969" xlink:href="#DejaVuSans-105"/>
      <use x="929.451172" xlink:href="#DejaVuSans-110"/>
     </g>
    </g>
    <g id="line2d_50">
     <path d="M 66.6 98.604813 
L 86.6 98.604813 
" style="fill:none;stroke:#d62728;stroke-linecap:square;stroke-width:1.5;"/>
    </g>
    <g id="line2d_51"/>
    <g id="text_26">
     <!-- edlib -->
     <g transform="translate(94.6 102.104813)scale(0.1 -0.1)">
      <use xlink:href="#DejaVuSans-101"/>
      <use x="61.523438" xlink:href="#DejaVuSans-100"/>
      <use x="125" xlink:href="#DejaVuSans-108"/>
      <use x="152.783203" xlink:href="#DejaVuSans-105"/>
      <use x="180.566406" xlink:href="#DejaVuSans-98"/>
     </g>
    </g>
    <g id="line2d_52">
     <path d="M 66.6 113.282938 
L 86.6 113.282938 
" style="fill:none;stroke:#9467bd;stroke-linecap:square;stroke-width:1.5;"/>
    </g>
    <g id="line2d_53"/>
    <g id="text_27">
     <!-- editdistance -->
     <g transform="translate(94.6 116.782938)scale(0.1 -0.1)">
      <use xlink:href="#DejaVuSans-101"/>
      <use x="61.523438" xlink:href="#DejaVuSans-100"/>
      <use x="125" xlink:href="#DejaVuSans-105"/>
      <use x="152.783203" xlink:href="#DejaVuSans-116"/>
      <use x="191.992188" xlink:href="#DejaVuSans-100"/>
      <use x="255.46875" xlink:href="#DejaVuSans-105"/>
      <use x="283.251953" xlink:href="#DejaVuSans-115"/>
      <use x="335.351562" xlink:href="#DejaVuSans-116"/>
      <use x="374.560547" xlink:href="#DejaVuSans-97"/>
      <use x="435.839844" xlink:href="#DejaVuSans-110"/>
      <use x="499.21875" xlink:href="#DejaVuSans-99"/>
      <use x="554.199219" xlink:href="#DejaVuSans-101"/>
     </g>
    </g>
   </g>
  </g>
 </g>
 <defs>
  <clipPath id="p4434fac7c0">
   <rect height="266.112" width="357.12" x="57.6" y="41.472"/>
  </clipPath>
 </defs>
</svg>
